<svg width="40" height="40" viewBox="0 0 40 40" fill="none" xmlns="http://www.w3.org/2000/svg">
<path d="M17.8111 0H22.1889C22.2577 0.200125 22.4375 0.14384 22.5797 0.164165C31.1554 1.36648 37.758 7.51251 39.5919 15.9553C39.7248 16.5807 39.6576 17.2358 40 17.8064V22.3405C39.7655 22.4265 39.8437 22.6438 39.8139 22.8096C39.5013 24.7186 39.0197 26.576 38.1786 28.3224C35.2403 34.4199 30.4633 38.1926 23.8477 39.6404C23.2536 39.7717 23.1082 39.6248 23.1113 39.015C23.1374 34.8457 23.1374 30.6806 23.1113 26.5197C23.1113 25.874 23.3161 25.738 23.8931 25.7677C25.0109 25.8099 26.132 25.7567 27.2498 25.7927C27.6845 25.8068 27.8455 25.6442 27.9018 25.2502C28.1254 23.6867 28.3474 22.1232 28.6038 20.5597C28.6789 20.1048 28.5663 19.9859 28.1113 19.9953C26.6276 20.0203 25.1407 19.9953 23.6601 20.0063C23.3568 20.0063 23.1035 20.0235 23.1144 19.5794C23.1426 18.3834 23.0738 17.1811 23.1567 15.9834C23.2739 14.3043 24.0338 13.5225 25.6817 13.2083C26.5854 13.0347 27.5 13.1457 28.4084 13.1332C28.7649 13.1332 28.9149 13.0457 28.9103 12.6642C28.8899 11.3102 28.8962 9.95622 28.9103 8.59912C28.9103 8.28643 28.8196 8.16761 28.4803 8.11601C26.8109 7.84132 25.1167 7.74697 23.4271 7.83458C20.0829 8.04096 17.575 10.3361 17.0294 13.6288C16.7167 15.5175 16.9246 17.4203 16.8902 19.3168C16.8793 19.8452 16.7745 20.0375 16.2086 20.0172C14.9343 19.9734 13.657 20.0297 12.3827 19.9922C11.8574 19.9765 11.7245 20.1485 11.7339 20.6551C11.762 22.1654 11.762 23.6768 11.7339 25.1892C11.7245 25.6754 11.8902 25.8146 12.3593 25.8005C13.6101 25.7708 14.8609 25.8177 16.1116 25.777C16.6948 25.7583 16.9059 25.8834 16.9012 26.5291C16.8678 30.6984 16.8678 34.8635 16.9012 39.0244C16.9012 39.6341 16.762 39.7686 16.1648 39.6498C12.3096 38.883 8.76396 37.0024 5.96668 34.241C3.1694 31.4796 1.24331 27.9585 0.426829 24.1135C0.301751 23.5225 0.353346 22.8815 0 22.3437V17.6532C0.312695 17.3812 0.223577 16.9841 0.279862 16.6495C0.939174 12.7979 2.71024 9.22324 5.37508 6.36534C8.03991 3.50744 11.4822 1.49107 15.2783 0.564415C16.1194 0.3596 17.0028 0.345528 17.8111 0Z" fill="#082653"/>
</svg>
