<svg width="300" height="210" viewBox="0 0 300 210" fill="none" xmlns="http://www.w3.org/2000/svg">
<rect width="300" height="210" fill="white"/>
<path d="M62.7572 125.248H55.2285V104.969H50.0999V98.3663H55.2283V93.6681C55.2283 88.1008 57.4967 84.1079 65.0049 84.1079C66.593 84.1079 69.0861 84.4538 69.0861 84.4538V90.5846H66.4675C63.7994 90.5846 62.7576 91.4615 62.7576 93.8859V98.3663H68.9862L68.4315 104.969H62.7574L62.7572 125.248ZM80.0319 97.8386C79.9222 97.8386 79.8093 97.8429 79.6977 97.846C72.7166 97.846 69.5226 103.52 69.5226 111.574C69.5226 121.721 73.6657 125.781 79.7522 125.781C83.2345 125.781 85.5224 124.198 86.913 121.242V125.251H94.0739V98.3691H86.913V102.503C85.7776 99.8434 83.4257 97.8701 80.0319 97.8386ZM81.8527 104.191C84.7848 104.191 86.5446 106.401 86.5446 110.159L86.5514 113.999C86.5514 116.532 85.0979 119.496 81.8527 119.496C76.8637 119.496 76.997 113.675 76.997 111.736C76.997 105.215 79.6551 104.191 81.8527 104.191ZM96.9658 111.811C96.9658 108.545 96.8211 97.8561 109.709 97.8561C114.882 97.8561 117.043 99.6335 117.043 99.6335L115.306 105.452C115.306 105.452 113.149 104.169 110.338 104.169C106.737 104.169 104.44 106.424 104.44 110.392L104.444 113.238C104.444 117.051 106.66 119.596 110.345 119.596C112.906 119.596 115.267 118.3 115.267 118.3L116.999 123.998C116.999 123.998 115.023 125.786 109.745 125.786C97.4739 125.786 96.966 116.196 96.966 111.811H96.9658ZM159.029 97.846C166.011 97.846 169.255 103.52 169.255 111.574C169.255 121.721 165.112 125.781 159.025 125.781C155.543 125.781 152.969 124.198 151.578 121.242V125.251L144.507 125.248V84.9253L152.015 84.2178V102.139C153.098 99.0036 156.659 97.846 159.03 97.846H159.029ZM156.925 104.191C153.993 104.191 152.015 106.401 152.015 110.159L152.008 113.999C152.003 116.532 153.377 119.496 156.925 119.496C161.914 119.496 161.78 113.675 161.78 111.736C161.78 105.215 159.122 104.191 156.925 104.191ZM130.068 97.8682C122.15 97.8682 117.97 102.533 117.97 110.823V112.363C117.97 123.122 123.841 125.892 130.839 125.892C137.642 125.892 140.721 123.836 140.721 123.836L139.316 118.361C139.316 118.361 135.694 120.026 131.739 120.026C127.639 120.026 125.876 118.897 125.424 114.64H141.321V110.248C141.321 101.255 136.63 97.868 130.068 97.868L130.068 97.8682ZM130.259 103.35C133 103.35 134.776 105.167 134.679 109.378H125.438C125.598 104.945 127.513 103.351 130.259 103.351V103.35ZM184.224 97.8313C176.093 97.8313 171.812 102.782 171.812 111.655C171.812 123.829 179.191 125.789 184.238 125.789C191.626 125.789 196.541 121.491 196.541 111.766C196.541 101.643 191.014 97.8313 184.224 97.8313ZM184.122 104.213C187.697 104.213 189.114 107.104 189.114 110.395V113.225C189.114 117.212 187.132 119.518 184.108 119.518C181.281 119.518 179.293 117.361 179.293 113.225V110.395C179.293 105.984 181.658 104.213 184.122 104.213ZM211.496 97.8313C203.365 97.8313 199.084 102.782 199.084 111.655C199.084 123.829 206.463 125.789 211.51 125.789C218.898 125.789 223.813 121.491 223.813 111.766C223.813 101.643 218.286 97.8313 211.496 97.8313ZM211.394 104.213C214.97 104.213 216.386 107.104 216.386 110.395V113.225C216.386 117.212 214.404 119.518 211.381 119.518C208.553 119.518 206.566 117.361 206.566 113.225V110.395C206.566 105.984 208.93 104.213 211.394 104.213ZM226.65 125.248V84.9253L234.179 84.2178V111.245L241.649 98.3663H249.6L241.808 111.704L249.9 125.248H241.926L234.179 112.097V125.248H226.65Z" fill="#1877F2"/>
</svg>
