<svg width="200" height="166" viewBox="0 0 200 166" fill="none" xmlns="http://www.w3.org/2000/svg">
<path d="M109.438 126.195C84.7977 131.181 137.099 187.438 143.931 155.007C165.935 135.807 155.964 115.121 109.438 126.195Z" fill="#FF8326"/>
<path d="M195.346 82.7384H173.821C174.252 82.0193 209.176 24.2526 195.346 82.7384Z" fill="#FFC126"/>
<path d="M173.821 82.7383H195.346C213.227 142.758 173.821 82.7383 173.821 82.7383Z" fill="#FFA526"/>
<path d="M174.78 82.7383H23.7712C23.7712 82.7623 23.7712 82.7623 23.7473 82.7863C25.6169 88.0836 27.87 93.0213 30.4348 97.5755H58.2635L34.0542 103.4C44.0255 118.165 57.7362 128.496 72.7172 134.369C73.0527 134.489 73.3883 134.633 73.7239 134.752C95.3445 142.926 119.482 141.943 138.969 131.78C139.281 131.612 139.592 131.445 139.88 131.277C156.803 122.144 170.058 105.965 174.78 82.7623V82.7383Z" fill="#FFA526"/>
<path d="M174.78 82.7385H23.7711C52.3908 23.941 157.881 23.1021 174.78 82.7385Z" fill="#FFC126"/>
<path d="M144.794 132.787L144.554 133.458C142.66 132.835 140.791 132.26 138.945 131.756C119.17 126.363 101.72 127.753 90.191 130.031C83.2158 131.397 77.583 133.242 73.6999 134.729C73.3643 134.609 73.0288 134.489 72.6932 134.345C76.6002 132.811 82.5447 130.798 89.9992 129.335C101.768 127.01 119.626 125.596 139.856 131.277C141.51 131.732 143.14 132.236 144.794 132.787Z" fill="white"/>
<path d="M129.189 108.338C104.836 113.3 155.388 168.957 162.675 136.838C182.402 112.413 175.163 97.336 129.189 108.338Z" fill="#FF9415"/>
<path d="M154.142 31.1078C165.983 52.9442 90.8621 49.9719 110.805 23.7492C116.845 -7.05179 133.049 -11.1985 154.142 31.1078Z" fill="#FFC126"/>
<path d="M7.90965 89.6635C7.90324 89.4327 7.90003 89.2596 7.90003 89.1442C7.90003 88.4646 7.9962 87.878 8.18853 87.3844C8.32957 87.0125 8.55716 86.6375 8.8713 86.2593C9.1021 85.9836 9.51561 85.5829 10.1118 85.0572C10.7145 84.5251 11.1055 84.102 11.285 83.7878C11.4646 83.4737 11.5543 83.1307 11.5543 82.7588C11.5543 82.0857 11.2915 81.4959 10.7658 80.9894C10.2401 80.4765 9.59575 80.2201 8.83284 80.2201C8.09557 80.2201 7.48011 80.4509 6.98647 80.9125C6.49282 81.3741 6.16906 82.0953 6.0152 83.0762L4.23615 82.8646C4.39642 81.5504 4.87083 80.5438 5.65939 79.845C6.45435 79.1462 7.50255 78.7968 8.80399 78.7968C10.1824 78.7968 11.2818 79.1719 12.1024 79.922C12.9231 80.6721 13.3334 81.5792 13.3334 82.6434C13.3334 83.2589 13.1891 83.8263 12.9006 84.3456C12.6121 84.8649 12.048 85.4963 11.2081 86.24C10.6439 86.7401 10.2753 87.1087 10.1022 87.3459C9.92912 87.5831 9.8009 87.8556 9.71756 88.1633C9.63421 88.4711 9.58613 88.9711 9.57331 89.6635H7.90965ZM7.80387 93.1351V91.1637H9.77525V93.1351H7.80387Z" fill="white"/>
<path fill-rule="evenodd" clip-rule="evenodd" d="M8.80414 78.9168C7.52496 78.9168 6.50719 79.2597 5.73884 79.935C5.00107 80.5889 4.54199 81.5262 4.3708 82.76L5.91578 82.9437C6.07889 82.0049 6.40434 81.2929 6.90477 80.825C7.42272 80.3407 8.06834 80.1003 8.83299 80.1003C9.62572 80.1003 10.3004 80.368 10.8494 80.9035C11.3961 81.4303 11.6743 82.0504 11.6743 82.7589C11.6743 83.151 11.5794 83.5146 11.3893 83.8473C11.1991 84.18 10.7947 84.6143 10.1913 85.1471C9.59564 85.6723 9.18802 86.0679 8.96346 86.3361C8.65596 86.7064 8.43611 87.0701 8.30075 87.427L8.30036 87.428C8.11472 87.9044 8.02004 88.4756 8.02004 89.1443C8.02004 89.2379 8.02219 89.3709 8.02652 89.5437H9.4562C9.47213 88.9096 9.51957 88.4365 9.60203 88.1321C9.68888 87.8114 9.82311 87.5254 10.0056 87.2753C10.1872 87.0264 10.5651 86.65 11.1288 86.1504C11.9658 85.4092 12.5176 84.7886 12.796 84.2874C13.0743 83.7866 13.2137 83.2394 13.2137 82.6435C13.2137 81.6146 12.8188 80.739 12.0217 80.0105C11.2282 79.2852 10.1601 78.9168 8.80414 78.9168ZM5.58042 79.7551C6.40198 79.0329 7.48055 78.6771 8.80414 78.6771C10.2049 78.6771 11.3358 79.0588 12.1835 79.8336C13.0277 80.6052 13.4534 81.544 13.4534 82.6435C13.4534 83.2786 13.3043 83.8661 13.0055 84.4038C12.707 84.9413 12.1304 85.5837 11.2877 86.3298C10.7231 86.8303 10.3637 87.1912 10.1992 87.4166C10.0354 87.641 9.91323 87.8999 9.83339 88.1947C9.75419 88.4872 9.70609 88.9745 9.69329 89.6658L9.69111 89.7834H7.79324L7.79001 89.6669C7.78359 89.4359 7.78034 89.2614 7.78034 89.1443C7.78034 88.4541 7.87793 87.8522 8.07683 87.3414C8.22353 86.9549 8.45873 86.5687 8.77926 86.1828L8.77956 86.1824C9.01662 85.8992 9.43605 85.4935 10.0327 84.9674C10.0327 84.9673 10.0327 84.9674 10.0327 84.9674C10.6345 84.436 11.0122 84.024 11.1811 83.7284C11.35 83.4329 11.4346 83.1105 11.4346 82.7589C11.4346 82.1212 11.1872 81.5618 10.6828 81.0758L10.6822 81.0753C10.1798 80.5851 9.56598 80.34 8.83299 80.34C8.12311 80.34 7.53782 80.5612 7.06848 81.0001C6.60166 81.4366 6.28535 82.1284 6.13376 83.0948L6.11586 83.2089L4.10278 82.9695L4.11733 82.8502C4.28021 81.5146 4.76442 80.4782 5.58006 79.7554L5.58042 79.7551ZM7.68418 91.0439H9.89526V93.255H7.68418V91.0439ZM7.92387 91.2836V93.0153H9.65556V91.2836H7.92387Z" fill="white"/>
<path d="M3.80687 105.117C3.80046 104.887 3.79725 104.714 3.79725 104.598C3.79725 103.919 3.89342 103.332 4.08575 102.838C4.22679 102.466 4.45438 102.091 4.76852 101.713C4.99932 101.438 5.41283 101.037 6.00905 100.511C6.61168 99.979 7.00276 99.5559 7.18226 99.2418C7.36177 98.9276 7.45153 98.5846 7.45153 98.2128C7.45153 97.5396 7.18867 96.9498 6.66297 96.4434C6.13727 95.9305 5.49296 95.674 4.73005 95.674C3.99279 95.674 3.37733 95.9048 2.88368 96.3664C2.39004 96.828 2.06628 97.5493 1.91242 98.5301L0.133362 98.3186C0.293637 97.0043 0.768051 95.9978 1.55661 95.299C2.35157 94.6002 3.39977 94.2508 4.7012 94.2508C6.07957 94.2508 7.17906 94.6258 7.99967 95.3759C8.82028 96.126 9.23058 97.0332 9.23058 98.0974C9.23058 98.7129 9.08633 99.2802 8.79784 99.7995C8.50934 100.319 7.94517 100.95 7.10533 101.694C6.54116 102.194 6.17253 102.563 5.99943 102.8C5.82634 103.037 5.69812 103.31 5.61477 103.617C5.53143 103.925 5.48335 104.425 5.47053 105.117H3.80687ZM3.70109 108.589V106.618H5.67247V108.589H3.70109Z" fill="white"/>
<path d="M14.7697 105.117C14.7633 104.887 14.7601 104.714 14.7601 104.598C14.7601 103.919 14.8562 103.332 15.0486 102.838C15.1896 102.466 15.4172 102.091 15.7313 101.713C15.9621 101.438 16.3756 101.037 16.9719 100.511C17.5745 99.979 17.9656 99.5559 18.1451 99.2418C18.3246 98.9276 18.4143 98.5846 18.4143 98.2128C18.4143 97.5396 18.1515 96.9498 17.6258 96.4434C17.1001 95.9305 16.4558 95.674 15.6929 95.674C14.9556 95.674 14.3402 95.9048 13.8465 96.3664C13.3529 96.828 13.0291 97.5493 12.8752 98.5301L11.0962 98.3186C11.2565 97.0043 11.7309 95.9978 12.5194 95.299C13.3144 94.6002 14.3626 94.2508 15.664 94.2508C17.0424 94.2508 18.1419 94.6258 18.9625 95.3759C19.7831 96.126 20.1934 97.0332 20.1934 98.0974C20.1934 98.7129 20.0492 99.2802 19.7607 99.7995C19.4722 100.319 18.908 100.95 18.0682 101.694C17.504 102.194 17.1354 102.563 16.9623 102.8C16.7892 103.037 16.6609 103.31 16.5776 103.617C16.4942 103.925 16.4462 104.425 16.4333 105.117H14.7697ZM14.6639 108.589V106.618H16.6353V108.589H14.6639Z" fill="white"/>
<path fill-rule="evenodd" clip-rule="evenodd" d="M4.70136 94.3707C3.42218 94.3707 2.40441 94.7136 1.63606 95.3889C0.898282 96.0428 0.439205 96.9801 0.268016 98.2139L1.813 98.3977C1.97611 97.4588 2.30156 96.7469 2.80198 96.279C3.31994 95.7946 3.96556 95.5543 4.73021 95.5543C5.52293 95.5543 6.19759 95.8219 6.74658 96.3574C7.29334 96.8843 7.57153 97.5043 7.57153 98.2129C7.57153 98.605 7.47663 98.9685 7.28648 99.3013C7.09636 99.634 6.69196 100.068 6.08853 100.601C5.49286 101.126 5.08524 101.522 4.86068 101.79C4.55318 102.16 4.33332 102.524 4.19796 102.881L4.19758 102.882C4.01194 103.358 3.91726 103.93 3.91726 104.598C3.91726 104.692 3.9194 104.825 3.92374 104.998H5.35341C5.36934 104.364 5.41679 103.89 5.49925 103.586C5.58609 103.265 5.72032 102.979 5.90278 102.729C6.08445 102.48 6.46234 102.104 7.02599 101.604C7.86303 100.863 8.41483 100.243 8.69323 99.7414C8.97147 99.2406 9.11089 98.6933 9.11089 98.0975C9.11089 97.0686 8.71599 96.193 7.91896 95.4645C7.12542 94.7391 6.0573 94.3707 4.70136 94.3707ZM1.47764 95.209C2.29919 94.4869 3.37777 94.131 4.70136 94.131C6.10215 94.131 7.23301 94.5127 8.08068 95.2875C8.92488 96.0592 9.35058 96.9979 9.35058 98.0975C9.35058 98.7325 9.20151 99.32 8.90276 99.8578C8.60417 100.395 8.02759 101.038 7.18494 101.784C6.62028 102.284 6.26092 102.645 6.0964 102.871C5.93266 103.095 5.81045 103.354 5.73061 103.649C5.6514 103.941 5.60331 104.428 5.59051 105.12L5.58833 105.237H3.69046L3.68722 105.121C3.68081 104.89 3.67756 104.715 3.67756 104.598C3.67756 103.908 3.77515 103.306 3.97404 102.795C4.12075 102.409 4.35595 102.023 4.67648 101.637L4.67678 101.636C4.91384 101.353 5.33327 100.947 5.92994 100.421C5.92997 100.421 5.92992 100.421 5.92994 100.421C6.53174 99.8899 6.90947 99.4779 7.07836 99.1824C7.24723 98.8869 7.33183 98.5644 7.33183 98.2129C7.33183 97.5752 7.08443 97.0157 6.57998 96.5297L6.57944 96.5292C6.07706 96.0391 5.46319 95.794 4.73021 95.794C4.02033 95.794 3.43504 96.0152 2.9657 96.454C2.49888 96.8905 2.18256 97.5824 2.03097 98.5488L2.01308 98.6629L0 98.4235L0.0145515 98.3041C0.177427 96.9686 0.661633 95.9322 1.47727 95.2094L1.47764 95.209ZM15.6642 94.3707C14.3849 94.3707 13.3672 94.7136 12.5988 95.389C11.8611 96.0429 11.402 96.9802 11.2308 98.2139L12.7758 98.3977C12.9389 97.4588 13.2644 96.7469 13.7648 96.279C14.2828 95.7946 14.9284 95.5543 15.693 95.5543C16.4858 95.5543 17.1604 95.8219 17.7094 96.3574C18.2562 96.8843 18.5343 97.5043 18.5343 98.2129C18.5343 98.605 18.4394 98.9685 18.2493 99.3013C18.0592 99.634 17.6548 100.068 17.0513 100.601C16.4557 101.126 16.0481 101.522 15.8236 101.79C15.516 102.16 15.2962 102.524 15.1608 102.881L15.1604 102.882C14.9748 103.358 14.8801 103.93 14.8801 104.598C14.8801 104.692 14.8822 104.825 14.8866 104.998H16.3162C16.3322 104.364 16.3796 103.89 16.4621 103.586C16.5489 103.265 16.6831 102.979 16.8656 102.729C17.0473 102.48 17.4252 102.104 17.9888 101.604C18.8258 100.863 19.3776 100.243 19.656 99.7414C19.9343 99.2406 20.0737 98.6933 20.0737 98.0975C20.0737 97.0686 19.6788 96.193 18.8818 95.4645C18.0882 94.7391 17.0201 94.3707 15.6642 94.3707ZM12.4405 95.209C13.262 94.4869 14.3406 94.131 15.6642 94.131C17.065 94.131 18.1958 94.5127 19.0435 95.2875C19.8877 96.0592 20.3134 96.9979 20.3134 98.0975C20.3134 98.7325 20.1643 99.32 19.8656 99.8578C19.567 100.395 18.9904 101.038 18.1478 101.784C17.5831 102.284 17.2237 102.645 17.0592 102.871C16.8955 103.095 16.7733 103.354 16.6934 103.649C16.6142 103.941 16.5661 104.428 16.5533 105.12L16.5512 105.237H14.6533L14.65 105.121C14.6436 104.89 14.6404 104.715 14.6404 104.598C14.6404 103.908 14.738 103.306 14.9369 102.795C15.0836 102.409 15.3188 102.023 15.6393 101.637L15.6396 101.636C15.8767 101.353 16.2961 100.947 16.8928 100.421C17.4946 99.8899 17.8723 99.4779 18.0412 99.1824C18.21 98.8869 18.2947 98.5644 18.2947 98.2129C18.2947 97.5752 18.0472 97.0157 17.5428 96.5297L17.5423 96.5292C17.0399 96.0391 16.426 95.794 15.693 95.794C14.9831 95.794 14.3979 96.0152 13.9285 96.454C13.4617 96.8905 13.1454 97.5824 12.9938 98.5488L12.9759 98.6629L10.9628 98.4235L10.9774 98.3041C11.1402 96.9686 11.6245 95.9322 12.4401 95.2094L12.4405 95.209ZM3.5814 106.498H5.79248V108.709H3.5814V106.498ZM3.82109 106.738V108.469H5.55278V106.738H3.82109ZM14.5442 106.498H16.7553V108.709H14.5442V106.498ZM14.7839 106.738V108.469H16.5156V106.738H14.7839Z" fill="white"/>
<path d="M70.1148 76.9322C75.3633 77.7285 79.8064 77.1326 80.0387 75.6012C80.271 74.0699 76.2046 72.183 70.9561 71.3867C65.7077 70.5904 61.2646 71.1863 61.0323 72.7177C60.7999 74.249 64.8663 76.1359 70.1148 76.9322Z" fill="white"/>
</svg>
