<svg width="200" height="120" viewBox="0 0 200 120" fill="none" xmlns="http://www.w3.org/2000/svg">
<path d="M128.181 109.672C127.399 109.601 126.8 110.037 126.159 110.383C123.054 112.078 119.831 113.547 116.514 114.777C113.698 115.813 110.819 116.669 107.894 117.342C105.985 117.781 104.057 118.17 102.11 118.437C100.589 118.642 99.0683 118.788 97.5381 118.905C96.2465 118.998 94.9596 119.064 93.6633 119.082C92.0161 119.11 90.3876 119.031 88.7263 118.919C86.9152 118.797 85.1136 118.596 83.3166 118.338C80.6071 117.955 77.9303 117.402 75.2629 116.775C72.1892 116.073 69.1744 115.134 66.2452 113.967C61.8265 112.186 57.5943 109.972 53.6101 107.36C51.4902 105.956 49.4545 104.468 47.4844 102.881C45.6999 101.446 43.984 99.9347 42.3368 98.3468C38.448 94.6234 34.9942 90.471 32.0415 85.969C30.6734 83.9005 29.425 81.7553 28.3024 79.5439C28.2463 79.4362 28.1246 79.3426 28.2276 79.1461C28.8172 79.3333 29.4209 79.5205 30.0199 79.717L37.7741 82.23C37.8456 82.2553 37.9192 82.2741 37.994 82.2861C38.0291 82.2972 38.0669 82.2958 38.101 82.2821C38.1351 82.2685 38.1635 82.2434 38.1812 82.2113C38.1984 82.1762 38.2016 82.136 38.1903 82.0987C38.179 82.0614 38.1541 82.0297 38.1204 82.01C38.0297 81.9452 37.9343 81.8873 37.8349 81.8369C34.3252 79.9229 30.8154 77.9949 27.301 76.1183C27.0188 75.9814 26.7667 75.7896 26.5595 75.5542C26.3522 75.3188 26.1938 75.0444 26.0936 74.7472C25.8035 73.9329 25.4619 73.1374 25.1343 72.3419C24.9293 71.8554 24.8995 71.3129 25.0501 70.8069C25.4291 69.403 25.7848 67.9991 26.2481 66.5952C26.472 66.5767 26.697 66.6137 26.9032 66.7029C27.2663 66.901 27.6799 66.9873 28.0919 66.9509C30.3194 67.0024 32.5516 66.8526 34.7838 67.0398C35.7478 67.124 36.7258 67.0726 37.6945 67.1615C38.5178 67.1887 39.3419 67.1574 40.1607 67.0679C40.8861 67.0351 41.6161 67.124 42.3414 67.1521C44.8123 67.241 47.2878 67.1755 49.7634 67.2551C52.9877 67.3627 56.2213 67.2925 59.4503 67.2785C61.7527 67.2785 64.0551 67.4329 66.3622 67.4048C69.797 67.3674 73.2319 67.4048 76.6574 67.4048C76.8118 67.5546 77.0084 67.4937 77.1815 67.4984C77.7712 67.4984 78.3561 67.4984 78.9411 67.4984H79.2219C83.1434 67.5592 87.0603 67.4563 90.9819 67.5873C94.4916 67.7043 98.0014 67.5873 101.516 67.6154C101.777 67.6078 102.038 67.633 102.293 67.6903C102.794 67.8499 103.326 67.89 103.846 67.8073C104.197 67.7438 104.553 67.7171 104.909 67.7277H114.034C114.595 67.6703 115.161 67.7341 115.695 67.9149C115.841 67.9467 115.991 67.9593 116.14 67.9523C116.65 68.0178 117.137 67.8166 117.647 67.8353C120.178 67.9102 122.71 67.7277 125.237 67.9336C125.944 67.9945 126.641 67.9336 127.371 67.9336C127.998 67.8766 128.63 67.9208 129.243 68.0646C129.372 68.0999 129.509 68.09 129.631 68.0366C129.827 67.9728 130.034 67.9505 130.24 67.9711C131.269 67.9711 132.299 68.0459 133.323 68.06C141.185 68.1676 149.052 67.9383 156.914 68.1957C157.679 68.2004 158.445 68.1629 159.207 68.0834C160.143 68.0085 161.111 68.2004 162.066 68.191C165.253 68.1536 168.44 68.191 171.631 68.1068C175.492 67.9944 179.362 68.0787 183.232 68.0834C183.606 68.0522 183.982 68.0822 184.346 68.1723C184.433 68.2112 184.53 68.2227 184.623 68.2051C184.717 68.1875 184.803 68.1418 184.87 68.074L185.109 68.1114L185.23 68.177C185.248 68.1722 185.266 68.1723 185.283 68.1772C185.301 68.1822 185.316 68.1918 185.329 68.205C185.352 68.2565 185.38 68.2752 185.422 68.205C186.433 68.4178 187.399 68.8007 188.281 69.3375C191.317 71.0795 193.841 73.589 195.6 76.6144C197.672 80.0482 199.016 83.8709 199.55 87.8456C199.786 89.4596 199.871 91.0921 199.803 92.7218C199.733 96.2156 198.884 99.6498 197.318 102.774C196.039 105.32 194.066 107.453 191.627 108.927C190.789 109.427 189.894 109.823 188.96 110.107C188.649 110.22 188.31 110.234 187.99 110.146C187.671 110.058 187.386 109.872 187.177 109.615C186.611 108.964 186.104 108.264 185.661 107.524C185.062 106.55 184.388 105.652 183.742 104.683C179.686 98.7554 175.659 92.8123 171.659 86.8535C168.538 82.1738 165.403 77.555 162.328 72.8707C161.434 71.5089 160.423 70.2267 159.436 68.9304C159.207 68.6262 158.968 68.6543 158.842 69.0333C158.715 69.4124 158.566 69.7727 158.444 70.1424C157.934 71.6773 157.442 73.2123 156.886 74.7238C155.706 77.9646 154.254 81.1002 152.548 84.0972C151.888 85.2531 151.209 86.3996 150.503 87.5274C150.437 87.635 150.325 87.7333 150.367 87.883C149.74 87.9626 149.113 88.0609 148.495 88.117C148.027 88.1591 147.99 88.117 147.98 87.649C148.03 86.7341 147.958 85.8166 147.765 84.9208C147.559 84.1082 147.257 83.3228 146.866 82.581C146.402 81.7933 145.815 81.0854 145.126 80.4845C144.395 79.8392 143.533 79.3602 142.599 79.0806C141.577 78.7577 140.49 78.6997 139.44 78.9121C137.955 79.1705 136.587 79.8815 135.523 80.9478C134.755 81.7152 134.119 82.5903 133.338 83.3578C131.559 85.2287 129.685 87.0063 127.722 88.6832C126.786 89.4538 125.85 90.2338 124.914 91.0231C123.704 92.0225 122.443 92.9597 121.138 93.8309C120.258 94.4252 119.406 95.0663 118.536 95.7027C117.96 96.1099 117.394 96.5498 116.786 96.9054C116.093 97.3079 115.424 97.7571 114.759 98.2017C113.515 98.9567 112.231 99.6441 110.913 100.261C110.249 100.521 109.676 100.968 109.261 101.548C108.731 102.415 108.487 103.426 108.563 104.44C108.578 104.817 108.688 105.184 108.883 105.507C109.078 105.83 109.351 106.099 109.677 106.288C110.494 106.704 111.358 107.019 112.251 107.224C113.126 107.472 114.015 107.692 114.904 107.903C115.555 108.062 116.205 108.244 116.87 108.343C117.885 108.488 118.891 108.656 119.893 108.885C119.964 108.906 120.038 108.917 120.113 108.918C120.847 108.918 121.554 109.119 122.279 109.185C123.164 109.264 124.034 109.531 124.942 109.489C124.997 109.482 125.052 109.482 125.106 109.489C125.839 109.638 126.586 109.709 127.334 109.7C127.614 109.657 127.898 109.647 128.181 109.672Z" fill="#FEA523"/>
<path d="M76.6667 67.3999C73.2318 67.3999 69.7969 67.3625 66.3714 67.3999C64.0643 67.428 61.7619 67.2642 59.4595 67.2736C56.2306 67.2736 52.9969 67.3578 49.7726 67.2502C47.2971 67.1706 44.8216 67.2502 42.3507 67.1472C41.6253 67.1191 40.8953 67.0302 40.17 67.063C39.3512 67.1525 38.527 67.1838 37.7038 67.1566C36.7351 67.0676 35.757 67.1191 34.793 67.0349C32.5608 66.8477 30.3286 66.9975 28.1011 66.946C27.6891 66.9824 27.2755 66.8961 26.9125 66.698C26.7063 66.6088 26.4812 66.5718 26.2573 66.5903C26.6223 65.2987 27.0763 64.0399 27.5536 62.7904C27.694 62.739 27.7501 62.65 27.6799 62.505C27.7548 62.3037 27.825 62.0978 27.8999 61.8919C28.0356 61.8358 28.0871 61.7469 28.0216 61.6065C28.666 59.9297 29.4114 58.2935 30.2538 56.7069C30.2842 56.7023 30.3131 56.6905 30.338 56.6724C30.3629 56.6543 30.3831 56.6305 30.3969 56.6029C30.4106 56.5754 30.4176 56.545 30.4171 56.5142C30.4166 56.4834 30.4088 56.4532 30.3941 56.4261C30.9323 55.2936 31.5594 54.2126 32.1958 53.1503C32.3456 52.8929 32.514 52.6449 32.6638 52.3969C32.7387 52.3969 32.7667 52.3501 32.748 52.2799C33.2738 51.3208 33.8846 50.4109 34.5731 49.561C34.765 49.3364 34.8305 49.0229 35.0411 48.8169C35.2048 48.8169 35.261 48.714 35.2189 48.5596C35.6866 47.8364 36.196 47.1411 36.7445 46.4771C37.5119 45.5084 38.3028 44.5585 39.0843 43.6085C40.0202 42.5041 41.017 41.4652 42.0372 40.4403C42.6268 39.8414 43.2305 39.2564 43.8341 38.6714C46.3514 36.2466 49.0604 34.0291 51.9346 32.0404C56.0344 29.1491 60.4685 26.7639 65.1407 24.9366C67.8798 23.9097 70.6731 23.0333 73.5079 22.3113C75.3798 21.82 77.2516 21.3754 79.1469 21.0338C80.9345 20.7062 82.7268 20.4348 84.5332 20.257C86.1009 20.1072 87.6732 19.9809 89.2456 19.9575C90.6495 19.9341 92.0206 19.9575 93.4105 19.9575C94.5851 19.9949 95.7503 20.0604 96.9343 20.2008C97.1635 20.2403 97.399 20.2206 97.6184 20.1436C97.8379 20.0666 98.0341 19.9349 98.1884 19.7609C98.3429 19.6018 98.5067 19.4427 98.6564 19.2929C102.514 15.4953 106.8 12.1582 111.427 9.34866C113.905 7.8234 116.47 6.44671 119.111 5.22587C123.424 3.19734 127.967 1.69981 132.64 0.766154C133.904 0.522811 135.186 0.368382 136.468 0.223312C138.423 -0.00810768 140.395 -0.0598003 142.36 0.0688835C145.084 0.205581 147.753 0.888288 150.208 2.07646C151.715 2.84608 153.058 3.90143 154.162 5.18376C154.613 5.81794 155.119 6.4114 155.673 6.95735C155.724 7.01424 155.763 7.08122 155.786 7.1539C156.432 8.62799 157.19 10.06 157.545 11.6464C158.402 15.4229 157.639 18.8156 155.107 21.7732C153.248 23.9191 150.678 25.3231 147.868 25.7275C146.462 25.9568 145.029 25.9568 143.623 25.7275C143.595 25.7275 143.562 25.7509 143.52 25.7649C143.562 25.9334 143.722 25.9708 143.839 26.0504C145.629 27.2033 147.113 28.7739 148.163 30.6271C148.894 31.8859 149.212 33.3428 149.07 34.792C149.018 35.3738 148.849 35.9391 148.575 36.455C148.301 36.9709 147.927 37.4269 147.475 37.7963C146.486 38.5848 145.275 39.0431 144.012 39.1066C142.437 39.2127 140.859 38.9449 139.407 38.3251C139.267 38.2737 139.121 38.2362 138.981 38.1941C138.916 38.1286 138.836 38.0584 138.77 38.1567C138.705 38.2549 138.841 38.2549 138.902 38.283C139.369 38.7978 139.964 39.219 140.394 39.7618C140.362 39.79 140.332 39.8214 140.305 39.8554C140.357 39.9209 140.432 39.8928 140.497 39.8881C140.731 39.8881 140.844 40.0987 140.989 40.2344C142.435 41.6383 143.848 43.0422 145.2 44.5538C147.857 47.538 150.279 50.7235 152.444 54.0816C153.404 55.5603 154.284 57.0859 155.145 58.6255C155.341 58.9765 155.496 59.3556 155.673 59.7206C155.673 59.8512 155.704 59.98 155.764 60.0959C155.824 60.2117 155.912 60.311 156.02 60.3851C156.251 60.7807 156.451 61.1938 156.619 61.6205C156.586 61.6907 156.619 61.7281 156.68 61.7515C156.695 61.7815 156.707 61.8129 156.717 61.8451C156.711 61.8586 156.708 61.8731 156.709 61.8878C156.709 61.9024 156.713 61.9167 156.72 61.9297C156.726 61.9428 156.736 61.9541 156.748 61.9629C156.759 61.9718 156.773 61.9779 156.787 61.9809C156.794 62.018 156.794 62.0561 156.787 62.0932C156.771 62.1854 156.784 62.2806 156.825 62.3648C156.866 62.4489 156.933 62.5177 157.016 62.5611C157.016 62.6407 157.016 62.7343 157.119 62.7764C157.11 62.8313 157.121 62.8877 157.151 62.9351C157.18 62.9824 157.225 63.0175 157.279 63.0338L157.461 63.4503C157.455 63.477 157.458 63.5049 157.47 63.5295C157.482 63.5541 157.502 63.574 157.527 63.586C157.843 64.2849 158.209 64.9605 158.622 65.6076C158.684 65.7238 158.758 65.8335 158.842 65.9352C159.216 66.3283 159.244 66.2674 159.511 65.9352C161.284 63.7264 162.861 61.3819 164.438 59.028C166.109 56.5384 167.808 54.0675 169.497 51.592C171.453 48.7234 173.4 45.8547 175.365 43.0001C178.763 38.0537 182.165 33.1073 185.628 28.2077C186.059 27.5947 186.456 26.9582 186.868 26.3358C187.036 26.0882 187.223 25.855 187.43 25.6386C187.7 25.3326 188.062 25.1218 188.461 25.0375C188.861 24.9532 189.277 24.9999 189.648 25.1706C193.115 26.4154 195.577 28.8114 197.351 31.9795C198.565 34.2584 199.357 36.7379 199.69 39.2985C199.953 40.9836 200.049 42.6907 199.976 44.3947C199.878 46.6812 199.508 48.9479 198.876 51.1474C198.086 54.0098 196.854 56.7317 195.226 59.2152C193.591 61.7651 191.403 63.9146 188.824 65.5046C187.614 66.2251 186.303 66.7614 184.935 67.0957C184.285 67.2595 183.62 67.3671 182.834 67.5637C183.597 67.807 184.294 67.779 184.898 68.0925C184.831 68.1603 184.745 68.206 184.651 68.2236C184.558 68.2411 184.461 68.2297 184.374 68.1908C184.01 68.1007 183.634 68.0707 183.26 68.1019C179.39 68.1019 175.52 68.0129 171.659 68.1253C168.468 68.2188 165.281 68.172 162.094 68.2095C161.158 68.2095 160.194 68.027 159.235 68.1019C158.473 68.1814 157.707 68.2189 156.942 68.2142C149.08 67.9568 141.213 68.1861 133.351 68.0785C132.327 68.0785 131.297 67.9942 130.268 67.9895C130.062 67.969 129.855 67.9913 129.659 68.0551C129.537 68.1085 129.4 68.1184 129.271 68.0831C128.658 67.9393 128.026 67.8951 127.399 67.9521C126.692 67.9521 125.972 68.0317 125.265 67.9521C122.738 67.7462 120.206 67.9521 117.675 67.8538C117.164 67.8538 116.678 68.0363 116.168 67.9708C116.019 67.9778 115.869 67.9652 115.723 67.9334C115.189 67.7526 114.623 67.6888 114.062 67.7462H104.937C104.581 67.7356 104.225 67.7623 103.874 67.8258C103.354 67.9085 102.822 67.8684 102.321 67.7088C102.066 67.6515 101.805 67.6263 101.544 67.6339C98.034 67.6339 94.5243 67.7228 91.0098 67.6058C87.0883 67.4748 83.1714 67.5777 79.2498 67.5169H78.9691C78.8474 67.3905 78.6883 67.4373 78.5432 67.4373L76.6667 67.3999ZM40.9983 43.7208C40.5511 44.1471 40.1482 44.6174 39.7956 45.1247C39.7956 45.1481 39.7956 45.1996 39.7956 45.2323C39.526 45.848 39.2133 46.4438 38.8597 47.0153C38.4697 47.5548 38.1179 48.1208 37.8067 48.7093C37.4043 49.4841 36.9461 50.2286 36.4356 50.9368C36.3233 51.1006 36.1735 51.2831 35.9395 51.2551C35.8675 51.238 35.7927 51.2359 35.7198 51.2488C35.6469 51.2617 35.5774 51.2894 35.5156 51.3302C35.4538 51.3709 35.401 51.4239 35.3605 51.4858C35.3199 51.5478 35.2924 51.6173 35.2797 51.6903C35.1985 51.8564 35.0996 52.0132 34.9849 52.1582C34.7341 52.549 34.521 52.9626 34.3485 53.3937C34.1332 53.966 33.8751 54.5214 33.5763 55.0549C33.2441 55.6539 32.8463 56.2155 32.5374 56.8332C32.3095 57.2836 31.9908 57.6819 31.6015 58.0031C31.3022 58.2489 31.077 58.5729 30.951 58.9391C30.7249 59.6067 30.4512 60.2573 30.1321 60.8858C29.9581 61.2798 29.6715 61.6135 29.3085 61.8451C29.1846 61.9126 29.0759 62.0047 28.989 62.1158C28.9021 62.2269 28.8388 62.3545 28.8031 62.4909C28.7018 62.9066 28.5309 63.3022 28.2977 63.6608C28.0403 64.1288 28.2368 64.4845 28.7656 64.5219C29.0635 64.5695 29.3681 64.5536 29.6594 64.4751C29.8905 64.3898 30.1423 64.3783 30.3801 64.4424C30.7828 64.5277 31.1953 64.5577 31.6062 64.5313C33.6184 64.5313 35.626 64.5313 37.6336 64.5313C38.1058 64.5257 38.5771 64.576 39.0375 64.681C39.2731 64.7398 39.5155 64.7665 39.7582 64.7606C40.5818 64.7606 41.4007 64.7606 42.2243 64.667C43.048 64.5734 44.0073 64.812 44.9105 64.7746C45.4486 64.7512 45.9868 64.7325 46.525 64.7512C49.1456 64.8354 51.7709 64.6951 54.3961 64.8588C56.6939 65.0039 59.0009 64.8588 61.308 64.9618C64.1532 65.0881 67.0078 64.9618 69.8578 65.0928C70.5316 65.1303 71.2055 65.0928 71.8841 65.0928C72.6498 65.0405 73.4191 65.0751 74.1771 65.1958C74.287 65.2285 74.4041 65.2285 74.514 65.1958C74.786 65.1264 75.0665 65.0965 75.347 65.1069C75.7377 65.1178 76.1271 65.1569 76.5122 65.2239C79.0814 65.28 81.6599 65.1677 84.215 65.3175C86.9104 65.4672 89.6106 65.2847 92.3108 65.4251C94.6506 65.5421 96.9905 65.4485 99.2975 65.4485C99.9527 65.4485 100.608 65.5093 101.258 65.5421C103.13 65.6357 105.039 65.5748 106.93 65.6497C110.772 65.7995 114.619 65.6123 118.465 65.7573C120.894 65.8509 123.332 65.9773 125.77 65.9024C126.631 65.9024 127.497 65.9024 128.363 65.9024C128.775 65.9024 129.21 65.6918 129.608 65.9866C129.66 66.0073 129.719 66.0073 129.771 65.9866C130.06 65.9018 130.362 65.8747 130.661 65.9071C131.278 65.879 131.887 66.01 132.504 66.0381C133.492 66.0849 134.47 65.7714 135.41 66.0007C135.616 65.9165 135.158 65.8603 135.439 65.8041C135.661 65.7686 135.889 65.7797 136.108 65.8369C136.467 65.9355 136.836 65.9936 137.207 66.01C138.724 65.9726 140.245 66.1504 141.756 65.9165C141.913 65.9005 142.072 65.9131 142.224 65.9539C142.65 66.0288 143.076 66.2627 143.506 65.9305C143.63 65.8854 143.766 65.8854 143.89 65.9305C144.737 66.1083 145.603 66.0054 146.455 66.127C146.942 66.1645 147.432 66.1645 147.919 66.127C149.585 66.0943 151.251 66.1692 152.917 66.244C153.029 66.2511 153.14 66.2652 153.249 66.2861C154.164 66.375 155.084 66.3938 156.001 66.3423C156.056 66.3437 156.111 66.3304 156.16 66.3036C156.209 66.2769 156.249 66.2378 156.278 66.1902C156.306 66.1426 156.322 66.0883 156.323 66.0328C156.323 65.9773 156.309 65.9226 156.282 65.8743C156.006 65.266 155.711 64.667 155.421 64.0586C155.394 63.9907 155.344 63.9343 155.28 63.8995C154.681 63.6094 154.344 63.0431 153.947 62.5611C153.815 62.4261 153.735 62.249 153.72 62.0608C153.705 61.8726 153.758 61.6853 153.867 61.5316C153.977 61.4291 154.049 61.2926 154.072 61.144C154.095 60.9955 154.067 60.8435 153.993 60.7127C153.922 60.5212 153.867 60.3239 153.83 60.123C153.731 59.4534 153.485 58.814 153.109 58.2512C152.936 58.0125 152.781 57.7832 152.641 57.5164C152.295 57.8861 152.21 57.8861 152 57.4322C151.765 56.8407 151.413 56.3027 150.966 55.8505C150.891 55.7916 150.842 55.706 150.83 55.6118C150.735 55.2571 150.577 54.9225 150.362 54.6244C150.1 54.0722 149.74 53.5668 149.492 53.0052C149.462 52.9024 149.41 52.8073 149.339 52.7265C149.269 52.6457 149.182 52.5811 149.084 52.5373C148.857 52.4836 148.649 52.3676 148.484 52.2023C148.318 52.0369 148.202 51.8289 148.149 51.6013C148.086 51.464 148.004 51.3364 147.905 51.2223C147.428 50.5099 146.913 49.8241 146.361 49.1679C145.919 48.6611 145.451 48.1784 144.957 47.7219C144.326 47.1997 143.798 46.565 143.399 45.85C143.323 45.6207 143.187 45.4156 143.006 45.2557C142.483 44.8023 142.126 44.1884 141.99 43.5102C141.873 43.1124 141.602 42.8036 141.302 42.7895C141.076 42.7926 140.853 42.7346 140.657 42.6218C140.461 42.509 140.299 42.3455 140.188 42.1484C140.188 42.1203 140.128 42.1063 140.1 42.0829C139.809 41.7928 139.393 41.6149 139.136 41.3388C138.692 40.8565 138.178 40.4446 137.61 40.1175C136.949 39.7419 136.358 39.2542 135.864 38.6761C135.852 38.6616 135.836 38.6504 135.818 38.6434C134.961 38.0256 134.241 37.2395 133.351 36.6498C132.809 36.2895 132.355 35.8075 131.774 35.4893C131.726 35.4618 131.682 35.4271 131.643 35.3863C130.718 34.4907 129.728 33.6648 128.681 32.9155C128.466 32.7704 128.274 32.4475 128.087 32.4475C127.418 32.4802 126.973 31.9795 126.393 31.8391C126.178 31.7783 126.004 31.9702 125.794 31.8766C125.279 31.6679 124.79 31.3993 124.338 31.0763C123.848 30.7162 123.324 30.4029 122.775 30.1404C122.204 29.8503 121.582 29.6724 121.222 29.0594C121.016 28.7084 120.787 28.6944 120.398 28.8956C120.331 28.9425 120.254 28.974 120.173 28.9878C120.092 29.0015 120.009 28.9972 119.93 28.9752C119.181 28.7021 118.447 28.3897 117.731 28.0392C116.711 27.5058 115.644 27.0752 114.619 26.5464C113.709 26.1194 112.755 25.7945 111.774 25.5777C111.043 25.3859 110.327 25.1425 109.607 24.9226C108.886 24.7026 107.992 24.6792 107.267 24.2674C106.874 24.3329 106.556 24.01 106.181 24.0334C105.097 24.036 104.015 23.9562 102.943 23.7948C102.384 23.7791 101.83 23.6878 101.296 23.5234C100.697 23.2753 100.028 23.4485 99.4613 23.1256C98.5254 23.1256 97.6269 22.929 96.6863 22.9899C95.7503 23.0524 94.8105 23.0305 93.8785 22.9244C93.1702 22.8816 92.4596 22.8973 91.7539 22.9712C90.8882 23.018 90.0131 23.2005 89.138 23.018C89.0087 22.9875 88.8741 22.9875 88.7449 23.018C87.8604 23.28 86.9432 23.1771 86.04 23.2098C85.1369 23.2426 84.2664 23.1443 83.382 23.1209C83.0998 23.131 82.8201 23.0648 82.5724 22.929C82.4775 22.8726 82.3718 22.8367 82.2622 22.8238C82.1525 22.8109 82.0414 22.8213 81.936 22.8542C81.5195 22.9478 81.0843 22.9431 80.6631 23.0039C79.9424 23.1069 79.203 23.032 78.5058 23.2941C78.4182 23.3292 78.3237 23.3436 78.2297 23.3362C77.5558 23.2707 76.9521 23.5795 76.311 23.6731C76.1004 23.7059 75.9413 23.7714 76.0162 24.0334C76.0583 24.1879 75.9554 24.216 75.829 24.2394C74.4895 24.4762 73.1705 24.8173 71.8841 25.2595C71.6454 25.3531 71.3693 25.3531 71.1306 25.4514C70.3214 25.7069 69.5355 26.0309 68.7814 26.4201C68.7356 26.4516 68.6824 26.4709 68.627 26.4762C68.0685 26.519 67.522 26.66 67.0125 26.8927C65.8192 27.3232 64.6727 27.8708 63.5355 28.4089C62.8383 28.7365 62.1644 29.139 61.4718 29.4806C61.0038 29.7192 60.5078 29.9485 60.0305 30.2012C59.0945 30.6692 58.2335 31.2261 57.3443 31.7502C56.6237 32.1807 55.8702 32.5504 55.1589 32.9856C54.5047 33.3829 53.8281 33.7423 53.1326 34.062C52.8144 34.2024 52.5851 34.2866 52.6272 34.7078C52.6553 34.9605 52.5149 35.1757 52.1593 35.1055C52.1142 35.0963 52.0676 35.0974 52.023 35.1087C51.9785 35.1201 51.937 35.1414 51.9019 35.171C51.476 35.4284 51.0502 35.6858 50.6197 35.9385C50.133 36.2124 49.6963 36.5669 49.3281 36.9868C49.0509 37.2853 48.7269 37.5367 48.3687 37.7308C48.2598 37.7967 48.1579 37.8735 48.0646 37.9601C47.6783 38.3534 47.2722 38.7267 46.8478 39.0786C46.0351 39.6637 45.2869 40.3336 44.6156 41.0768C44.5829 41.1189 44.5221 41.1329 44.4753 41.1657C44.0231 41.4668 43.6219 41.838 43.2866 42.2654C42.9871 42.6725 42.5238 42.9487 42.2524 43.3605C41.981 43.7723 41.5973 44.0297 41.3165 44.4227C41.2977 44.4561 41.2671 44.4812 41.2308 44.4934C41.1945 44.5055 41.155 44.5036 41.1199 44.4883C41.0123 44.4461 41.017 44.3479 41.0123 44.2543C41.0076 44.1607 41.2229 43.9782 40.9983 43.7208ZM198.876 43.178V42.6164C198.952 41.2348 198.809 39.8498 198.455 38.5123C198.356 38.1834 198.284 37.8469 198.24 37.5062C198.174 36.9734 198.035 36.4523 197.828 35.9572C197.327 34.562 196.7 33.215 195.956 31.9327C195.513 31.2255 195.017 30.5528 194.473 29.9205C194.301 29.6766 194.11 29.4466 193.902 29.2326C193.193 28.5957 192.432 28.0197 191.627 27.5104C190.691 26.9723 189.802 26.4388 188.693 26.3546C188.445 26.3546 188.089 26.3546 187.944 25.9849C187.823 25.676 187.795 25.7041 187.514 25.91C187.443 25.9543 187.383 26.0138 187.339 26.0843C187.294 26.1548 187.266 26.2343 187.257 26.3171C187.248 26.4147 187.216 26.5088 187.162 26.5905C187.108 26.6723 187.034 26.7392 186.948 26.7851C186.73 26.9424 186.567 27.163 186.48 27.4168C186.419 27.5338 186.395 27.6836 186.307 27.7631C185.591 28.3809 185.502 29.4385 184.725 30.0094C184.687 30.0375 184.678 30.1123 184.664 30.1638C184.535 30.5019 184.338 30.8095 184.084 31.067C183.945 31.1908 183.832 31.3411 183.751 31.509C183.671 31.6769 183.625 31.8591 183.616 32.045C183.616 32.1012 183.616 32.162 183.56 32.1901C182.947 32.499 182.764 33.126 182.441 33.6736C182.392 33.7905 182.313 33.8923 182.212 33.9684C182.111 34.0329 182.026 34.1203 181.965 34.2236C181.904 34.3268 181.869 34.443 181.861 34.5627C181.848 34.6829 181.79 34.7936 181.697 34.8715C181.351 35.3114 180.892 35.6718 180.761 36.2754C180.761 36.355 180.644 36.4158 180.588 36.4907C180.069 37.1828 179.591 37.9047 179.156 38.6527C178.833 39.1862 178.403 39.6354 178.117 40.211C177.832 40.7866 177.284 41.147 177.102 41.76C177.045 41.9417 176.925 42.0975 176.765 42.1999C176.664 42.2792 176.583 42.3799 176.526 42.4947C176.058 43.2388 175.59 43.9688 175.122 44.6942C174.91 44.9237 174.75 45.1968 174.654 45.4944C174.654 45.5973 174.523 45.6254 174.467 45.6909C174.086 46.0479 173.798 46.493 173.629 46.9872C173.606 47.0902 173.503 47.1697 173.442 47.2633C172.89 48.0682 172.169 48.7608 171.781 49.6874C171.687 49.9107 171.555 50.1164 171.392 50.2957C171 50.7658 170.647 51.2684 170.34 51.7979C169.937 52.4437 169.474 53.052 169.085 53.7072C168.945 53.9412 168.828 54.2688 168.482 54.339C168.43 54.339 168.374 54.4091 168.397 54.4606C168.524 54.8022 168.243 54.9801 168.093 55.1953C167.625 55.8645 167.302 56.5992 166.689 57.1795C166.649 57.2193 166.617 57.2671 166.596 57.3199C166.345 57.8831 166.003 58.4015 165.585 58.8548C165.427 59.0258 165.292 59.2161 165.183 59.4211C164.866 59.9565 164.519 60.4736 164.144 60.97C163.793 61.5035 163.437 62.0464 163.058 62.5658C162.391 63.4811 161.798 64.4482 161.284 65.4578C161.149 65.7293 160.905 65.9258 160.816 66.2206C160.727 66.5154 160.844 66.6886 161.05 66.595C161.536 66.4029 162.076 66.4029 162.562 66.595C162.599 66.6023 162.637 66.6023 162.674 66.595C165.22 66.5061 167.766 66.7494 170.316 66.7073C170.472 66.6895 170.629 66.6895 170.784 66.7073C171.865 66.9132 172.951 66.7682 174.036 66.7869C174.217 66.7728 174.399 66.7728 174.579 66.7869C175.537 66.9638 176.519 66.9749 177.481 66.8196C177.637 66.7715 177.803 66.7592 177.965 66.7835C178.127 66.8078 178.281 66.8681 178.417 66.96C178.507 67.0114 178.608 67.041 178.712 67.0467C178.816 67.0524 178.92 67.0339 179.016 66.9928C179.137 66.9428 179.268 66.9174 179.399 66.9179C180.097 67.0162 180.738 66.6465 181.43 66.7073C181.954 66.7541 182.474 66.5435 182.989 66.595C183.545 66.5982 184.097 66.4917 184.612 66.2815C185.127 66.1224 185.665 65.9305 186.18 65.7199C187.533 65.1018 188.826 64.3625 190.046 63.5111C190.242 63.3894 190.27 63.1133 190.514 63.0431C190.872 62.8802 191.183 62.6309 191.421 62.3178C192.296 61.2602 193.345 60.357 194.061 59.1543C194.632 58.2184 195.348 57.3339 195.792 56.2997C195.827 56.2129 195.871 56.1298 195.923 56.0517C196.265 55.5911 196.532 55.0794 196.714 54.5355C196.816 54.0414 196.998 53.5672 197.252 53.1316C197.304 53.0536 197.333 52.963 197.336 52.8695C197.336 52.322 197.781 51.8774 197.725 51.3159C197.733 51.2785 197.749 51.2433 197.772 51.2129C198.24 50.4829 198.193 49.5985 198.469 48.8123C198.566 48.4699 198.612 48.1151 198.605 47.7593C198.633 47.1416 199.073 46.5754 198.848 45.9249C198.96 45.0171 198.811 44.0952 198.876 43.178Z" fill="#FDC125"/>
<path d="M128.18 109.672C127.885 109.625 127.585 109.615 127.287 109.643C126.539 109.653 125.792 109.582 125.059 109.433C125.005 109.426 124.95 109.426 124.895 109.433C123.988 109.475 123.117 109.208 122.233 109.129C121.507 109.063 120.801 108.862 120.066 108.862C119.992 108.861 119.918 108.85 119.846 108.829C118.845 108.6 117.838 108.431 116.823 108.286C116.158 108.188 115.508 108.006 114.857 107.846C113.968 107.627 113.079 107.416 112.204 107.168C111.311 106.962 110.447 106.648 109.63 106.232C109.304 106.042 109.031 105.774 108.836 105.451C108.642 105.127 108.532 104.76 108.517 104.384C108.44 103.37 108.684 102.359 109.214 101.491C109.629 100.912 110.202 100.465 110.866 100.205C112.184 99.5879 113.468 98.9005 114.712 98.1455C115.377 97.701 116.046 97.2517 116.739 96.8493C117.347 96.4936 117.913 96.0537 118.489 95.6466C119.359 95.0289 120.211 94.3878 121.091 93.7747C122.396 92.9035 123.657 91.9664 124.867 90.9669C125.803 90.1901 126.739 89.4102 127.675 88.6271C129.638 86.9501 131.512 85.1726 133.291 83.3016C134.058 82.5342 134.695 81.6591 135.476 80.8916C136.541 79.8254 137.909 79.1143 139.393 78.856C140.443 78.6435 141.53 78.7015 142.552 79.0244C143.486 79.3041 144.348 79.7831 145.079 80.4283C145.768 81.0292 146.356 81.7371 146.82 82.5248C147.21 83.2667 147.512 84.0521 147.718 84.8646C147.911 85.7604 147.983 86.6779 147.933 87.5929C147.933 88.0609 147.971 88.1264 148.448 88.0609C149.08 88.0047 149.707 87.9064 150.32 87.8269C151.905 87.7282 153.493 87.9746 154.974 88.549C156.455 89.1234 157.794 90.0122 158.898 91.1541C160.378 92.5596 161.393 94.3832 161.809 96.3813C162.059 97.5487 162.051 98.7569 161.783 99.9206C161.515 101.084 160.995 102.175 160.26 103.115C159.303 104.327 158.083 105.306 156.694 105.979C154.438 107.131 152.033 107.964 149.548 108.455C147.629 108.865 145.691 109.177 143.74 109.391C142.589 109.509 141.436 109.612 140.282 109.7C138.504 109.835 136.726 109.821 134.947 109.821H130.839C130.052 109.821 129.271 109.667 128.499 109.709C128.391 109.714 128.284 109.702 128.18 109.672Z" fill="#FC8325"/>
<path d="M9.04579 16.1346C10.9113 16.1072 12.7568 16.5209 14.4321 17.3419C15.4651 17.8266 16.4233 18.457 17.2773 19.2138C17.9863 19.8055 18.6155 20.4866 19.1492 21.2401C19.5557 21.8625 19.7694 22.5911 19.7635 23.3345C19.7577 24.0779 19.5326 24.803 19.1164 25.419C18.6017 26.0976 17.1557 26.7013 16.187 26.1631C15.449 25.7983 14.8076 25.2644 14.3151 24.6048C14.2303 24.4809 14.1241 24.3732 14.0016 24.2866C13.4821 23.8888 12.9674 23.477 12.4198 23.1213C11.6488 22.5967 10.7563 22.2783 9.82739 22.1964C8.89845 22.1144 7.964 22.2718 7.11309 22.6534C6.52536 22.9306 6.04168 23.3885 5.73269 23.9601C5.4237 24.5318 5.30561 25.1873 5.39566 25.8308C5.50555 26.477 5.80153 27.0771 6.24735 27.5576C7.12118 28.5697 8.17268 29.4134 9.34997 30.0472C10.269 30.5543 11.1523 31.1234 11.994 31.7506C13.6471 33.0172 14.7898 34.8359 15.2136 36.8749C15.4407 37.7811 15.6141 38.6999 15.733 39.6265C15.8196 40.354 15.8196 41.0891 15.733 41.8166C15.6301 42.6028 14.8439 43.8195 13.791 44.0067C13.4989 44.0553 13.1996 44.0358 12.9163 43.9497C12.6331 43.8637 12.3735 43.7134 12.1578 43.5106C11.7085 43.1066 11.3729 42.5919 11.1844 42.0178C10.9564 41.4194 10.8329 40.7862 10.8194 40.1459C10.7796 39.1142 10.5594 38.0974 10.1689 37.1416C9.91894 36.6623 9.60399 36.2198 9.23298 35.8266C8.59187 34.9936 7.68869 34.4835 6.85571 33.8799C6.12404 33.3633 5.33972 32.9256 4.51588 32.5742C3.66183 32.1423 2.88664 31.5696 2.22284 30.8802C1.04902 29.7704 0.313249 28.2756 0.149752 26.6685C-0.080034 25.269 -0.045112 23.8388 0.252704 22.4521C0.625197 20.6958 1.52862 19.0964 2.84056 17.8707C3.46075 17.3937 4.16814 17.0424 4.92301 16.8365C6.24155 16.3478 7.6398 16.1097 9.04579 16.1346Z" fill="#FFE47C"/>
<path d="M12.0827 47.3292C12.5974 47.323 13.1081 47.419 13.5853 47.6117C14.0625 47.8044 14.4968 48.0898 14.8628 48.4516C15.2289 48.8133 15.5196 49.2441 15.7179 49.719C15.9163 50.1938 16.0184 50.7034 16.0183 51.218C16.0346 51.7485 15.944 52.2767 15.7518 52.7714C15.5596 53.266 15.2698 53.7169 14.8997 54.0972C14.5295 54.4775 14.0867 54.7794 13.5974 54.985C13.1081 55.1905 12.5825 55.2954 12.0518 55.2936C11.5212 55.2917 10.9963 55.183 10.5085 54.974C10.0207 54.765 9.58 54.4599 9.21259 54.077C8.84518 53.6941 8.5586 53.2412 8.36993 52.7452C8.18126 52.2492 8.09435 51.7202 8.11439 51.19C8.10503 49.1824 9.94414 47.1842 12.0827 47.3292Z" fill="#FFE47C"/>
<path d="M8.47941 66.0529C7.53561 66.037 6.62592 65.6973 5.90265 65.0908C5.17938 64.4842 4.68645 63.6476 4.50638 62.721C4.41182 62.1836 4.45126 61.6312 4.62119 61.1127C4.79112 60.5942 5.08631 60.1256 5.4806 59.7484C5.87489 59.3713 6.35612 59.0972 6.88165 58.9504C7.40718 58.8036 7.96079 58.7887 8.49345 58.9071C9.27135 59.0245 9.99587 59.3734 10.5726 59.9085C11.1494 60.4435 11.5517 61.1398 11.7271 61.9067C11.8698 62.4008 11.8931 62.9216 11.7951 63.4264C11.6971 63.9312 11.4807 64.4056 11.1636 64.8104C10.8465 65.2152 10.4378 65.5389 9.97117 65.755C9.50452 65.971 8.99324 66.0731 8.47941 66.0529Z" fill="#FFE47C"/>
<path d="M19.0275 65.5744C20.3565 65.4761 21.5405 66.7068 21.7604 67.9142C21.8499 68.3176 21.8511 68.7356 21.7639 69.1395C21.6767 69.5433 21.5031 69.9236 21.255 70.254C20.5203 71.2555 18.976 71.2882 18.2085 70.839C17.705 70.5593 17.2891 70.1451 17.0073 69.6426C16.7255 69.1402 16.5889 68.5693 16.6128 67.9938C16.6058 67.6745 16.6634 67.3572 16.7822 67.0608C16.901 66.7644 17.0786 66.4951 17.3041 66.2691C17.5297 66.0431 17.7987 65.865 18.0948 65.7456C18.391 65.6262 18.7082 65.568 19.0275 65.5744Z" fill="#FFE47C"/>
<path d="M155.978 60.3569C155.87 60.2828 155.783 60.1835 155.722 60.0677C155.662 59.9518 155.631 59.823 155.632 59.6924C155.743 59.7626 155.834 59.8611 155.895 59.9779C155.955 60.0946 155.984 60.2254 155.978 60.3569Z" fill="#FFE47C"/>
<path d="M156.979 62.5468C156.896 62.5034 156.829 62.4346 156.788 62.3505C156.747 62.2663 156.734 62.1711 156.75 62.0789C156.951 62.1725 157.073 62.3082 156.979 62.5468Z" fill="#FFE47C"/>
<path d="M35.2334 48.5413C35.2755 48.6957 35.2334 48.7846 35.0555 48.7986C35.0471 48.7412 35.0607 48.6827 35.0937 48.6349C35.1268 48.5871 35.1767 48.5537 35.2334 48.5413Z" fill="#FFE47C"/>
<path d="M30.4088 56.4258C30.4234 56.4529 30.4313 56.4831 30.4317 56.5139C30.4322 56.5447 30.4253 56.5751 30.4115 56.6026C30.3977 56.6302 30.3775 56.654 30.3526 56.6721C30.3277 56.6902 30.2988 56.702 30.2684 56.7066C30.2517 56.6507 30.2569 56.5905 30.283 56.5384C30.3091 56.4862 30.3541 56.446 30.4088 56.4258Z" fill="#FFE47C"/>
<path d="M28.0126 61.6064C28.0781 61.7468 28.0126 61.8357 27.891 61.8919C27.8718 61.8377 27.8736 61.7783 27.8962 61.7255C27.9187 61.6726 27.9603 61.6301 28.0126 61.6064Z" fill="#FFE47C"/>
<path d="M27.6707 62.5049C27.7409 62.65 27.6707 62.7389 27.5444 62.7903C27.5266 62.7356 27.5297 62.6761 27.553 62.6235C27.5763 62.5708 27.6182 62.5286 27.6707 62.5049Z" fill="#FFE47C"/>
<path d="M157.228 63.0198C157.174 63.0036 157.129 62.9685 157.1 62.9211C157.07 62.8738 157.059 62.8174 157.069 62.7625C157.228 62.7858 157.279 62.8794 157.228 63.0198Z" fill="#FFE47C"/>
<path d="M140.474 39.8792C140.408 39.8792 140.333 39.9119 140.282 39.8464C140.312 39.8168 140.345 39.7902 140.38 39.7668L140.474 39.8792Z" fill="#FDC220"/>
<path d="M32.7484 52.2607C32.7484 52.3309 32.7484 52.3684 32.6642 52.3777L32.7484 52.2607Z" fill="#FFE47C"/>
<path d="M156.638 61.7607C156.572 61.7373 156.544 61.6998 156.577 61.6296C156.6 61.653 156.619 61.6998 156.638 61.7607Z" fill="#FFE47C"/>
<path d="M156.759 61.9716C156.745 61.9687 156.732 61.9626 156.72 61.9537C156.708 61.9449 156.699 61.9335 156.692 61.9205C156.685 61.9075 156.681 61.8932 156.681 61.8785C156.68 61.8639 156.683 61.8494 156.689 61.8359C156.714 61.8484 156.734 61.8682 156.746 61.8925C156.759 61.9168 156.763 61.9445 156.759 61.9716Z" fill="#FFE47C"/>
<path d="M157.49 63.572C157.465 63.56 157.445 63.5401 157.433 63.5155C157.421 63.4909 157.418 63.463 157.424 63.4363C157.451 63.4458 157.472 63.4654 157.485 63.4908C157.497 63.5161 157.499 63.5453 157.49 63.572Z" fill="#FFE47C"/>
<path d="M185.258 68.1628L185.137 68.0973C185.149 68.093 185.162 68.0913 185.175 68.0923C185.188 68.0934 185.201 68.0971 185.212 68.1032C185.223 68.1094 185.233 68.1179 185.241 68.1281C185.249 68.1384 185.255 68.1502 185.258 68.1628Z" fill="#FDC125"/>
<path d="M185.451 68.2088C185.409 68.2603 185.38 68.2415 185.357 68.2088C185.37 68.1973 185.387 68.1909 185.404 68.1909C185.421 68.1909 185.438 68.1973 185.451 68.2088Z" fill="#FDC125"/>
<path d="M76.6669 67.3998H78.5387C78.6838 67.3998 78.8429 67.353 78.9646 67.4794C78.3796 67.4794 77.7947 67.4794 77.205 67.4794C77.0178 67.4887 76.8213 67.5496 76.6669 67.3998Z" fill="#FFE47C"/>
<path d="M40.9983 43.721C41.2229 43.9549 41.0217 44.1 41.0357 44.2544C41.0498 44.4089 41.0357 44.4463 41.1434 44.4884C41.1784 44.5038 41.218 44.5056 41.2543 44.4935C41.2906 44.4814 41.3211 44.4562 41.3399 44.4229C41.5973 44.0298 41.9857 43.7584 42.2759 43.3606C42.566 42.9629 43.0106 42.6727 43.3101 42.2656C43.6386 41.8417 44.0318 41.4722 44.4753 41.1705C44.5221 41.1378 44.5829 41.1237 44.6157 41.0816C45.2869 40.3384 46.0352 39.6686 46.8479 39.0834C47.2723 38.7316 47.6784 38.3583 48.0646 37.965C48.1579 37.8784 48.2599 37.8016 48.3688 37.7357C48.7269 37.5415 49.0509 37.2902 49.3281 36.9916C49.6963 36.5717 50.133 36.2173 50.6197 35.9434C51.0502 35.6907 51.4761 35.4333 51.9019 35.1759C51.9371 35.1462 51.9785 35.1249 52.0231 35.1136C52.0677 35.1022 52.1142 35.1011 52.1593 35.1104C52.5009 35.1993 52.6273 34.9653 52.6273 34.7126C52.5852 34.2914 52.8145 34.2072 53.1327 34.0668C53.8282 33.7471 54.5047 33.3878 55.159 32.9905C55.8703 32.5553 56.6237 32.1856 57.3444 31.7551C58.2335 31.2309 59.1133 30.6787 60.0305 30.2061C60.4985 29.9627 60.9945 29.7381 61.4718 29.4854C62.1644 29.1438 62.8383 28.7414 63.5356 28.4138C64.6821 27.8756 65.8193 27.3281 67.0126 26.8976C67.522 26.6648 68.0686 26.5238 68.627 26.4811C68.6825 26.4758 68.7356 26.4565 68.7815 26.4249C69.5318 26.0283 70.3146 25.6964 71.1213 25.4328C71.36 25.3346 71.6361 25.3346 71.8747 25.241C73.1602 24.8054 74.4776 24.4705 75.815 24.2395C75.9414 24.2395 76.0443 24.188 76.0022 24.0336C75.9273 23.7716 76.0864 23.706 76.297 23.6733C76.9381 23.5797 77.5418 23.2708 78.2157 23.3363C78.3097 23.3437 78.4042 23.3293 78.4918 23.2942C79.1891 23.0322 79.9284 23.107 80.6491 23.0041C81.0703 22.9433 81.5055 22.9479 81.922 22.8543C82.0274 22.8214 82.1385 22.8111 82.2482 22.824C82.3578 22.8369 82.4635 22.8727 82.5584 22.9292C82.8061 23.0649 83.0858 23.1312 83.368 23.1211C84.2524 23.1211 85.1416 23.2474 86.026 23.21C86.9105 23.1726 87.8464 23.2802 88.7309 23.0181C88.8601 22.9876 88.9947 22.9876 89.124 23.0181C89.9991 23.2006 90.8742 23.0181 91.7399 22.9713C92.4456 22.8974 93.1562 22.8818 93.8645 22.9245C94.7966 23.0306 95.7363 23.0526 96.6723 22.9901C97.6082 22.9292 98.5207 23.107 99.4473 23.1258C100.014 23.4487 100.683 23.2755 101.282 23.5235C101.816 23.688 102.37 23.7793 102.929 23.795C104.001 23.9563 105.083 24.0361 106.167 24.0336C106.542 24.0336 106.86 24.3331 107.253 24.2676C107.978 24.6794 108.816 24.6841 109.593 24.9228C110.37 25.1614 111.029 25.3907 111.76 25.5779C112.741 25.7947 113.695 26.1196 114.605 26.5466C115.63 27.0754 116.697 27.5059 117.717 28.0394C118.433 28.3898 119.167 28.7022 119.916 28.9753C119.995 28.9974 120.078 29.0017 120.159 28.9879C120.24 28.9742 120.317 28.9427 120.384 28.8958C120.773 28.6946 121.002 28.7086 121.208 29.0596C121.568 29.6773 122.19 29.8504 122.761 30.1406C123.311 30.4031 123.834 30.7164 124.324 31.0765C124.776 31.3995 125.265 31.6681 125.78 31.8767C125.99 31.9703 126.164 31.7785 126.379 31.8393C126.959 31.9984 127.404 32.4804 128.073 32.4477C128.26 32.4477 128.452 32.7846 128.667 32.9156C129.714 33.659 130.704 34.4786 131.629 35.3678C131.668 35.4085 131.712 35.4432 131.76 35.4707C132.341 35.7889 132.795 36.2709 133.337 36.6313C134.227 37.2209 134.947 38.0071 135.804 38.6248C135.822 38.6319 135.838 38.6431 135.85 38.6576C136.344 39.2357 136.935 39.7234 137.596 40.0989C138.164 40.426 138.678 40.8379 139.122 41.3203C139.379 41.6151 139.795 41.7883 140.086 42.0644C140.114 42.0644 140.156 42.1018 140.174 42.1299C140.288 42.3312 140.454 42.4975 140.655 42.6106C140.857 42.7237 141.085 42.7792 141.316 42.771C141.616 42.771 141.887 43.0939 142.004 43.4917C142.138 44.1732 142.496 44.7906 143.02 45.2465C143.201 45.4064 143.337 45.6115 143.413 45.8409C143.791 46.5645 144.301 47.2118 144.915 47.7502C145.409 48.2066 145.877 48.6893 146.319 49.1962C146.871 49.8523 147.386 50.5381 147.863 51.2505C147.962 51.3646 148.044 51.4923 148.106 51.6296C148.16 51.8571 148.276 52.0652 148.441 52.2305C148.607 52.3958 148.815 52.5118 149.042 52.5655C149.14 52.6094 149.227 52.674 149.297 52.7548C149.368 52.8356 149.42 52.9307 149.45 53.0335C149.698 53.5951 150.058 54.1005 150.32 54.6527C150.534 54.9507 150.693 55.2853 150.788 55.6401C150.8 55.7343 150.849 55.8199 150.924 55.8787C151.371 56.331 151.723 56.869 151.958 57.4605C152.168 57.9284 152.253 57.9284 152.599 57.5447C152.758 57.7927 152.912 58.0407 153.067 58.2794C153.443 58.8422 153.689 59.4816 153.788 60.1513C153.825 60.3522 153.88 60.5495 153.951 60.7409C154.025 60.8718 154.053 61.0237 154.03 61.1723C154.007 61.3209 153.935 61.4574 153.825 61.5598C153.715 61.7135 153.663 61.9009 153.678 62.089C153.693 62.2772 153.773 62.4543 153.905 62.5894C154.312 63.0573 154.639 63.6376 155.238 63.9278C155.302 63.9626 155.352 64.0189 155.379 64.0869C155.669 64.6952 155.964 65.2942 156.24 65.9026C156.267 65.9509 156.281 66.0055 156.28 66.061C156.28 66.1165 156.264 66.1708 156.236 66.2184C156.207 66.266 156.167 66.3052 156.118 66.3319C156.069 66.3586 156.014 66.372 155.959 66.3705C155.042 66.4221 154.122 66.4033 153.207 66.3144C153.098 66.2934 152.987 66.2794 152.875 66.2723C151.209 66.1974 149.543 66.1225 147.877 66.1553C147.39 66.1927 146.9 66.1927 146.412 66.1553C145.561 66.0336 144.695 66.1553 143.848 65.9587C143.724 65.9137 143.588 65.9137 143.464 65.9587C143.034 66.291 142.608 66.057 142.182 65.9821C142.03 65.9414 141.871 65.9287 141.714 65.9447C140.203 66.1787 138.682 66.0008 137.165 66.0383C136.794 66.0219 136.425 65.9638 136.066 65.8651C135.847 65.808 135.619 65.7968 135.397 65.8324C135.116 65.8885 135.574 65.9447 135.368 66.0289C134.432 65.7996 133.45 66.1132 132.462 66.0664C131.845 66.0383 131.236 65.9073 130.619 65.9353C130.32 65.903 130.018 65.93 129.729 66.0149C129.677 66.0355 129.618 66.0355 129.566 66.0149C129.168 65.7201 128.733 65.9353 128.321 65.9307C127.455 65.9307 126.589 65.9307 125.728 65.9307C123.29 66.0055 120.852 65.8792 118.423 65.7856C114.577 65.6405 110.73 65.8277 106.888 65.6779C105.016 65.6031 103.102 65.6779 101.216 65.5703C100.566 65.5376 99.9106 65.4767 99.2555 65.4767C96.9156 65.4767 94.5758 65.5703 92.2687 65.4533C89.5686 65.3129 86.8684 65.4954 84.1729 65.3457C81.6038 65.1959 79.0253 65.3083 76.4702 65.2521C76.0851 65.1851 75.6957 65.146 75.3049 65.1351C75.0244 65.1248 74.7439 65.1547 74.472 65.224C74.362 65.2568 74.2449 65.2568 74.135 65.224C73.377 65.1033 72.6078 65.0688 71.842 65.1211C71.1634 65.1211 70.4896 65.1491 69.8157 65.1211C66.9658 64.9666 64.1112 65.1211 61.2659 64.99C58.9589 64.8824 56.6518 65.0322 54.3541 64.8871C51.7288 64.7233 49.1035 64.8871 46.4829 64.7795C45.9447 64.7795 45.4066 64.7795 44.8684 64.8029C43.9652 64.8403 43.0714 64.5923 42.1823 64.6952C41.2931 64.7982 40.5397 64.7748 39.7161 64.7888C39.4734 64.7948 39.231 64.768 38.9954 64.7093C38.535 64.6042 38.0637 64.554 37.5915 64.5595C35.5839 64.5595 33.5764 64.5595 31.5641 64.5595C31.1533 64.5859 30.7408 64.556 30.338 64.4706C30.1002 64.4066 29.8484 64.418 29.6174 64.5034C29.3261 64.5818 29.0215 64.5978 28.7235 64.5502C28.1901 64.5127 27.9935 64.1571 28.2556 63.6891C28.4889 63.3304 28.6598 62.9349 28.761 62.5192C28.7967 62.3828 28.86 62.2551 28.9469 62.144C29.0339 62.033 29.1426 61.9409 29.2664 61.8734C29.6295 61.6417 29.916 61.308 30.09 60.9141C30.4091 60.2855 30.6828 59.6349 30.909 58.9673C31.035 58.6011 31.2601 58.2771 31.5594 58.0314C31.9487 57.7101 32.2674 57.3118 32.4954 56.8615C32.8042 56.2437 33.202 55.6822 33.5342 55.0832C33.833 54.5496 34.0911 53.9943 34.3064 53.4219C34.4789 52.9909 34.692 52.5772 34.9428 52.1865C35.0576 52.0415 35.1564 51.8846 35.2376 51.7185C35.2503 51.6456 35.2778 51.576 35.3184 51.5141C35.3589 51.4521 35.4118 51.3992 35.4736 51.3584C35.5354 51.3176 35.6049 51.2899 35.6778 51.277C35.7507 51.2641 35.8254 51.2663 35.8975 51.2833C36.1315 51.3114 36.2812 51.1289 36.3935 50.9651C36.904 50.2568 37.3623 49.5124 37.7647 48.7376C38.0758 48.1491 38.4276 47.583 38.8176 47.0435C39.1712 46.472 39.4839 45.8762 39.7535 45.2606C39.7535 45.2278 39.7535 45.1763 39.7535 45.1529C40.1179 44.6339 40.535 44.154 40.9983 43.721ZM54.9203 58.3543C55.3508 58.3543 55.786 58.3543 56.2119 58.3543C56.8518 58.3242 57.4789 58.165 58.0557 57.8863C58.7857 57.5166 58.9401 57.058 58.6032 56.3186C58.5359 56.1846 58.4509 56.0603 58.3505 55.9489C57.8858 55.4575 57.3356 55.0547 56.7267 54.7603C54.7414 53.7288 52.5904 53.054 50.3717 52.7668C49.137 52.5377 47.8749 52.4967 46.6279 52.6451C46.0679 52.6969 45.523 52.8558 45.0228 53.113C44.2881 53.5389 44.1758 54.049 44.6297 54.7463C45.0202 55.3006 45.5452 55.7467 46.1553 56.0425C48.8421 57.5228 51.8529 58.3169 54.9203 58.3543Z" fill="#FDC220"/>
<path d="M198.876 43.1784C198.82 44.1143 198.97 45.0175 198.806 45.93C199.021 46.5805 198.591 47.1467 198.563 47.7644C198.57 48.1202 198.524 48.475 198.427 48.8174C198.151 49.6035 198.198 50.488 197.73 51.218C197.707 51.2484 197.691 51.2836 197.683 51.321C197.739 51.8825 197.318 52.3271 197.295 52.8746C197.291 52.968 197.262 53.0587 197.21 53.1367C196.956 53.5723 196.774 54.0465 196.672 54.5406C196.49 55.0845 196.223 55.5962 195.881 56.0568C195.829 56.1349 195.786 56.218 195.75 56.3048C195.306 57.339 194.59 58.2048 194.019 59.1594C193.303 60.3621 192.255 61.2653 191.379 62.3229C191.142 62.636 190.83 62.8853 190.472 63.0482C190.247 63.1418 190.219 63.4179 190.004 63.5162C188.784 64.3676 187.491 65.1069 186.138 65.725C185.623 65.9356 185.085 66.1274 184.571 66.2865C184.055 66.4968 183.503 66.6033 182.947 66.6001C182.432 66.5486 181.912 66.7592 181.388 66.7124C180.696 66.6516 180.055 67.0212 179.357 66.923C179.226 66.9225 179.095 66.9479 178.974 66.9979C178.878 67.039 178.774 67.0575 178.67 67.0518C178.566 67.0461 178.465 67.0164 178.375 66.9651C178.239 66.8732 178.085 66.8129 177.923 66.7886C177.761 66.7643 177.595 66.7766 177.439 66.8247C176.477 66.98 175.495 66.9689 174.537 66.7919C174.357 66.7779 174.175 66.7779 173.994 66.7919C172.909 66.7919 171.823 66.9183 170.742 66.7124C170.587 66.6946 170.43 66.6946 170.274 66.7124C167.724 66.7545 165.178 66.5112 162.632 66.6001C162.595 66.6074 162.557 66.6074 162.52 66.6001C162.034 66.408 161.494 66.408 161.008 66.6001C160.803 66.6703 160.709 66.4784 160.774 66.2257C160.84 65.973 161.097 65.7577 161.242 65.4629C161.756 64.4532 162.349 63.4862 163.016 62.5709C163.395 62.0514 163.751 61.5086 164.102 60.9751C164.491 60.4783 164.852 59.9595 165.183 59.4215C165.286 59.2227 165.413 59.0372 165.562 58.8693C165.98 58.416 166.321 57.8975 166.573 57.3343C166.594 57.2816 166.626 57.2338 166.666 57.194C167.289 56.6371 167.602 55.879 168.07 55.2098C168.22 54.9945 168.501 54.8167 168.374 54.4751C168.351 54.4236 168.407 54.3628 168.458 54.3534C168.805 54.2832 168.926 53.9556 169.062 53.7216C169.451 53.0665 169.914 52.4581 170.316 51.8123C170.624 51.2828 170.976 50.7803 171.369 50.3102C171.532 50.1308 171.664 49.9251 171.758 49.7018C172.146 48.7659 172.867 48.0826 173.419 47.2777C173.48 47.1842 173.583 47.1046 173.606 47.0016C173.775 46.5074 174.063 46.0623 174.444 45.7054C174.5 45.6399 174.612 45.6118 174.631 45.5088C174.727 45.2112 174.887 44.9381 175.099 44.7086C175.567 43.9833 176.063 43.2532 176.503 42.5092C176.559 42.3944 176.641 42.2937 176.741 42.2143C176.902 42.1119 177.021 41.9562 177.078 41.7745C177.261 41.1427 177.822 40.7683 178.094 40.2255C178.365 39.6826 178.81 39.2006 179.133 38.6672C179.578 37.9135 180.067 37.1869 180.598 36.4911C180.654 36.4162 180.757 36.3554 180.771 36.2759C180.897 35.6815 181.356 35.3399 181.707 34.872C181.799 34.794 181.858 34.6833 181.87 34.5631C181.878 34.4434 181.914 34.3272 181.975 34.224C182.036 34.1207 182.12 34.0333 182.221 33.9688C182.323 33.8927 182.402 33.7909 182.451 33.674C182.774 33.1405 182.956 32.4994 183.569 32.1905C183.63 32.1624 183.63 32.1016 183.625 32.0454C183.635 31.8595 183.681 31.6773 183.761 31.5094C183.841 31.3415 183.954 31.1912 184.093 31.0674C184.347 30.8099 184.545 30.5023 184.673 30.1642C184.673 30.1127 184.697 30.0379 184.734 30.0098C185.511 29.4389 185.6 28.3813 186.316 27.7635C186.405 27.684 186.428 27.5342 186.489 27.4172C186.576 27.1634 186.74 26.9428 186.957 26.7855C187.044 26.7396 187.117 26.6727 187.171 26.5909C187.225 26.5092 187.258 26.4152 187.266 26.3175C187.276 26.2347 187.304 26.1552 187.348 26.0847C187.393 26.0142 187.453 25.9547 187.523 25.9104C187.804 25.7045 187.832 25.6764 187.954 25.9853C188.099 26.369 188.455 26.3362 188.703 26.355C189.812 26.4392 190.72 26.9727 191.637 27.5108C192.442 28.0201 193.203 28.5961 193.911 29.233C194.112 29.4538 194.295 29.6901 194.459 29.9396C195.003 30.5719 195.499 31.2446 195.942 31.9518C196.686 33.2341 197.313 34.5811 197.814 35.9764C198.022 36.4714 198.16 36.9926 198.226 37.5253C198.27 37.866 198.342 38.2025 198.441 38.5315C198.796 39.869 198.938 41.2539 198.862 42.6355L198.876 43.1784Z" fill="#FDC220"/>
<path d="M138.879 38.2737C138.818 38.2456 138.715 38.1941 138.748 38.1473C138.78 38.1005 138.893 38.1193 138.958 38.1848L138.879 38.2737Z" fill="white"/>
<path d="M54.9205 58.3534C51.8515 58.3233 48.8375 57.5356 46.1462 56.0604C45.536 55.7645 45.0111 55.3185 44.6206 54.7641C44.1526 54.0528 44.279 53.5568 45.0137 53.1309C45.5139 52.8736 46.0588 52.7148 46.6188 52.6629C47.8657 52.5146 49.1279 52.5556 50.3625 52.7846C52.5813 53.0719 54.7323 53.7466 56.7175 54.7781C57.3265 55.0725 57.8767 55.4753 58.3414 55.9668C58.4418 56.0781 58.5268 56.2025 58.5941 56.3365C58.931 57.0759 58.7766 57.5345 58.0466 57.9042C57.4698 58.1829 56.8426 58.3421 56.2028 58.3721C55.7863 58.3768 55.3511 58.3534 54.9205 58.3534Z" fill="white"/>
</svg>
