<svg width="200" height="128" viewBox="0 0 200 128" fill="none" xmlns="http://www.w3.org/2000/svg">
<path d="M184.056 55.6176C183.549 55.8384 183.012 55.9827 182.463 56.046C182.203 56.0832 181.961 56.1624 181.574 56.2182C182.324 56.451 182.971 56.5534 183.604 56.6838C185.859 57.2413 187.959 58.3031 189.745 59.7892C192.588 62.1419 194.856 65.1135 196.375 68.4768C197.651 71.1994 198.538 74.0879 199.01 77.0574C199.174 78.1249 199.283 79.2003 199.336 80.2791C199.397 81.1717 199.409 82.0669 199.373 82.9609C199.263 86.5856 198.392 90.1467 196.817 93.413C195.859 95.3414 194.545 97.0711 192.943 98.511C191.494 99.8121 189.79 100.797 187.939 101.402C186.938 101.724 186.006 101.37 185.336 100.383C184.777 99.5632 184.279 98.7066 183.72 97.8918C180.461 93.115 177.24 88.3134 174.055 83.487C171.004 78.8778 167.955 74.2717 164.907 69.6687C163.23 67.1313 161.587 64.5706 159.92 62.024C159.036 60.6691 158.081 59.3562 157.085 58.0759C156.857 57.7872 156.652 57.4846 156.419 57.1447C155.867 57.5825 155.438 58.1549 155.171 58.8068C154.385 60.3339 153.663 61.8936 152.89 63.4253C152.038 65.1061 151.065 66.7216 150.097 68.3325C148.695 70.5864 147.172 72.7623 145.534 74.8505C143.696 77.2274 141.721 79.494 139.617 81.6386C137.913 83.3659 136.148 85.0327 134.304 86.6063C134.28 86.6355 134.261 86.6686 134.248 86.7041C134.356 86.8065 134.449 86.7041 134.546 86.7041C135.894 86.0999 137.349 85.7737 138.825 85.745C140.748 85.745 142.55 86.1826 143.9 87.6585C144.682 88.5023 145.128 89.604 145.152 90.7546C145.25 93.0126 144.314 94.8842 142.945 96.5789C141.92 97.8423 140.684 98.9183 139.291 99.7588C139.216 99.8053 139.118 99.8333 139.1 99.9543C139.3 100.085 139.486 99.9543 139.677 99.9217C140.588 99.8403 141.504 99.8403 142.415 99.9217C145.054 100.103 147.577 101.077 149.654 102.715C151.899 104.466 153.428 106.976 153.956 109.773C154.475 112.413 154.11 115.15 152.918 117.562C152.569 118.284 152.243 119.015 151.912 119.746C151.846 119.961 151.708 120.147 151.521 120.272C151.428 120.333 151.351 120.416 151.298 120.514C150.629 121.463 149.851 122.33 148.979 123.098C147.904 124.084 146.672 124.883 145.334 125.463C143.397 126.294 141.351 126.843 139.258 127.093C138.576 127.182 137.888 127.232 137.2 127.242C136.53 127.242 135.864 127.377 135.189 127.33C133.629 127.232 132.074 127.139 130.533 126.939C124.934 126.14 119.483 124.516 114.359 122.12C109.831 120.076 105.509 117.602 101.453 114.732C99.1815 113.133 97.0051 111.403 94.9353 109.55C93.5386 108.279 92.1419 106.971 90.8197 105.592C90.6592 105.414 90.457 105.278 90.2311 105.197C90.0052 105.115 89.7628 105.091 89.5254 105.127C88.529 105.22 87.5234 105.239 86.5177 105.29C85.0465 105.364 83.5753 105.29 82.1087 105.29C81.1186 105.321 80.1276 105.263 79.1477 105.118C78.8513 105.076 78.5529 105.051 78.2538 105.043C76.7639 104.959 75.2927 104.745 73.8215 104.522C71.9592 104.238 70.1528 103.902 68.3464 103.46C63.4139 102.341 58.5915 100.783 53.9368 98.8044C51.3962 97.6632 48.93 96.3632 46.5528 94.9122C42.7661 92.6137 39.2042 89.9638 35.9144 86.9974C34.3439 85.5913 32.837 84.1186 31.3937 82.5791C30.2065 81.3174 29.0658 80.0184 27.9577 78.6729C26.2137 76.5623 24.5879 74.3568 23.0878 72.0664C21.2697 69.2633 19.6696 66.3246 18.3017 63.2763C17.1208 60.5942 16.101 57.8439 15.2475 55.0403C15.1817 54.9061 15.1543 54.7562 15.1684 54.6073C15.5216 54.6622 15.883 54.5949 16.1927 54.4165C16.3981 54.327 16.6204 54.2825 16.8445 54.2861C17.9246 54.2861 19.0094 54.2582 20.1035 54.2861C21.6539 54.3187 23.1996 54.2163 24.7592 54.3885C25.4288 54.4357 26.1016 54.4108 26.7659 54.314C27.53 54.287 28.2951 54.3087 29.0565 54.3792C31.9663 54.4491 34.8762 54.3513 37.786 54.5003C38.9034 54.5561 40.0161 54.3327 41.1382 54.3839C42.4976 54.449 43.8618 54.4863 45.2213 54.4956C47.889 54.4956 50.5614 54.4956 53.2338 54.4956C55.9062 54.4956 58.4948 54.4956 61.1486 54.5701C63.9048 54.6306 66.6703 54.7284 69.4311 54.5142C70.0636 54.5049 70.696 54.5283 71.326 54.5841C74.0683 54.6446 76.8152 54.5841 79.5574 54.7051C81.2707 54.7889 82.984 54.626 84.6787 54.6213C85.2514 54.6213 85.8287 54.7005 86.406 54.7051C89.1995 54.7237 92.0007 54.7237 94.8096 54.7051C95.1577 54.772 95.5127 54.7955 95.8665 54.775C96.4094 54.6603 96.9661 54.6243 97.5193 54.6679C99.5352 54.7424 101.551 54.7517 103.572 54.775C105.923 54.8029 108.274 54.9426 110.621 54.7051C111.123 54.7043 111.625 54.7338 112.124 54.7936C114.811 54.8494 117.502 54.7377 120.188 54.9053C121.641 54.9984 123.089 54.7843 124.546 54.8122C125.477 54.8122 126.371 54.8774 127.283 54.896C130.603 54.9752 133.923 54.896 137.247 55.0031C140.455 55.1195 143.667 54.9658 146.875 55.1241C148.085 55.18 149.305 55.1241 150.516 55.1241H150.981C150.772 54.9472 150.516 55.1009 150.432 54.8122C150.707 54.7331 151.046 54.7005 151.209 54.8727C151.335 54.9835 151.484 55.0642 151.645 55.1085C151.807 55.1529 151.976 55.1598 152.141 55.1288C152.699 55.1288 153.263 55.1009 153.821 55.1288C154.147 55.1288 154.44 54.9845 154.752 55.031C155.6 55.1568 156.456 55.2222 157.313 55.2266L165.153 55.2545C165.265 55.2475 165.377 55.2475 165.489 55.2545C166.885 55.4361 168.282 55.2545 169.679 55.4314C170.406 55.4734 171.135 55.4734 171.862 55.4314C174.456 55.4314 177.049 55.4314 179.642 55.5385C179.791 55.5358 179.939 55.5499 180.084 55.5804C180.428 55.676 180.789 55.6935 181.141 55.6316C181.621 55.5635 182.105 55.5324 182.589 55.5385C182.696 55.5385 182.808 55.4873 182.915 55.4826C183.3 55.427 183.694 55.4736 184.056 55.6176ZM44.5462 67.1825C44.3303 67.176 44.1159 67.2196 43.9197 67.31C43.7235 67.4003 43.551 67.5349 43.4156 67.7032C43.2803 67.8715 43.1858 68.0689 43.1396 68.2799C43.0934 68.4909 43.0968 68.7097 43.1494 68.9191C43.2118 69.0958 43.2946 69.2645 43.3962 69.4219C44.5376 71.351 45.8215 73.192 47.2372 74.9297C47.5817 75.358 47.6236 75.2742 47.1953 75.7398C46.2641 76.7734 45.2445 77.7511 44.2249 78.7102C43.8478 79.0686 43.4474 79.4132 43.0982 79.7996C42.9331 79.9658 42.816 80.1735 42.7593 80.4009C42.7026 80.6282 42.7084 80.8666 42.7762 81.0909C42.8439 81.3151 42.9711 81.5169 43.1442 81.6748C43.3173 81.8327 43.5298 81.9409 43.7593 81.9878C44.0515 82.0615 44.3579 82.0573 44.6479 81.9756C44.9379 81.8939 45.2014 81.7376 45.4121 81.5222C46.6226 80.4142 47.8285 79.2968 48.9645 78.1096L49.2764 77.7883C49.2946 77.7605 49.3195 77.7376 49.3487 77.7217C49.378 77.7059 49.4107 77.6976 49.444 77.6976C49.4773 77.6976 49.51 77.7059 49.5393 77.7217C49.5686 77.7376 49.5934 77.7605 49.6116 77.7883L49.8863 78.0723C50.892 79.1493 51.8992 80.2264 52.9079 81.3034C53.1643 81.5846 53.4833 81.8015 53.839 81.9366C54.1429 82.0632 54.4791 82.0904 54.7994 82.0143C55.1197 81.9382 55.4077 81.7627 55.6222 81.5129C55.9807 81.0473 55.9155 80.4281 55.4313 79.8182C54.8214 79.0593 54.1603 78.3517 53.4992 77.6393C52.8381 76.927 52.3073 76.3497 51.7021 75.7165C51.6523 75.6838 51.611 75.6397 51.5815 75.588C51.5521 75.5362 51.5353 75.4782 51.5326 75.4187C51.5298 75.3592 51.5412 75.2999 51.5658 75.2456C51.5905 75.1914 51.6276 75.1437 51.6741 75.1066C52.1397 74.5759 52.5773 74.0125 53.0289 73.4678C54.0232 72.2828 54.9452 71.0391 55.7898 69.7432C55.9449 69.5402 56.035 69.2951 56.0483 69.0401C56.0616 68.785 55.9975 68.5318 55.8643 68.3139C55.7289 68.088 55.5338 67.9037 55.3006 67.7813C55.0674 67.659 54.8049 67.6032 54.5421 67.6202C54.2482 67.6246 53.9601 67.7017 53.7033 67.8447C53.4466 67.9877 53.2293 68.1921 53.0708 68.4396C52.5308 69.1798 52.0093 69.9294 51.46 70.6604C50.9106 71.3913 50.3379 72.1083 49.7606 72.8206C49.5511 73.086 49.5045 73.0814 49.295 72.8206C48.9924 72.4435 48.6991 72.0524 48.4104 71.666C47.5491 70.5114 46.7577 69.3102 46.0081 68.0811C45.8543 67.8251 45.6412 67.6098 45.3868 67.4534C45.1324 67.297 44.844 67.2041 44.5462 67.1825Z" fill="#FF514F"/>
<path d="M184.056 55.6176C183.669 55.4899 183.256 55.4706 182.859 55.5617C182.752 55.5617 182.64 55.6129 182.533 55.6176C182.049 55.6115 181.565 55.6426 181.085 55.7107C180.734 55.7725 180.373 55.755 180.029 55.6595C179.883 55.6289 179.735 55.6149 179.586 55.6176C176.993 55.5012 174.4 55.5198 171.806 55.5105C171.079 55.5525 170.35 55.5525 169.623 55.5105C168.226 55.3429 166.829 55.5105 165.433 55.3336C165.321 55.3266 165.209 55.3266 165.098 55.3336L157.257 55.3056C156.4 55.3012 155.544 55.2359 154.697 55.1101C154.38 55.0635 154.087 55.2265 153.765 55.2079C153.207 55.1799 152.643 55.2079 152.085 55.2079C151.92 55.2389 151.751 55.232 151.589 55.1876C151.428 55.1432 151.279 55.0626 151.154 54.9518C150.991 54.7795 150.651 54.8121 150.376 54.8913C150.46 55.1799 150.716 55.0263 150.925 55.2032H150.46C149.249 55.2032 148.03 55.2405 146.819 55.2032C143.611 55.0449 140.399 55.2032 137.191 55.0822C133.867 54.9611 130.547 55.0542 127.228 54.9751C126.297 54.9751 125.403 54.9052 124.49 54.8913C123.033 54.8633 121.585 55.0775 120.132 54.9844C117.446 54.8168 114.755 54.9285 112.069 54.8727C111.57 54.8129 111.067 54.7834 110.565 54.7842C108.237 55.0216 105.867 54.882 103.516 54.854C101.505 54.854 99.4887 54.8214 97.4635 54.7469C96.9103 54.7033 96.3537 54.7394 95.8107 54.854C95.4569 54.8746 95.1019 54.8511 94.7538 54.7842C91.9604 54.7842 89.1592 54.7842 86.3502 54.7842C85.7729 54.7842 85.1956 54.6957 84.6229 54.7004C82.9096 54.7004 81.1963 54.868 79.5016 54.7842C76.7594 54.6538 74.0125 54.7237 71.2702 54.6631C70.6402 54.6073 70.0078 54.584 69.3754 54.5933C66.6145 54.8075 63.849 54.7097 61.0928 54.6492C58.4623 54.5886 55.8318 54.598 53.178 54.5747C50.5242 54.5514 47.8332 54.5747 45.1655 54.5747C43.806 54.5747 42.4419 54.5281 41.0824 54.4629C39.9603 54.4117 38.8476 54.6352 37.7302 54.5793C34.8204 54.4304 31.9105 54.5281 29.0007 54.4583C28.2393 54.3878 27.4742 54.366 26.7101 54.3931C26.0458 54.4898 25.3731 54.5148 24.7035 54.4676C23.1577 54.2953 21.612 54.3978 20.0477 54.3652C18.9676 54.3652 17.8828 54.3652 16.7887 54.3652C16.5646 54.3616 16.3423 54.406 16.1369 54.4955C15.8272 54.674 15.4658 54.7413 15.1126 54.6864C15.038 54.5523 14.9965 54.4022 14.9916 54.2488C15.0131 54.0898 15.0019 53.9281 14.9586 53.7735C14.9154 53.619 14.841 53.475 14.7402 53.3502L14.6843 53.1873C14.7023 52.7641 14.592 52.3454 14.3677 51.9861L14.3118 51.7812C14.3524 51.4339 14.2943 51.0821 14.1442 50.7663C13.8836 50.0424 13.9019 49.2474 14.1954 48.5362C14.2658 48.4222 14.2892 48.2853 14.2606 48.1544L14.3677 47.8844C14.6495 47.5969 14.8152 47.2156 14.8333 46.8135L15.0567 46.3154C15.1445 46.2648 15.2133 46.1869 15.2528 46.0937C15.2923 46.0004 15.3003 45.8968 15.2756 45.7986L15.4897 45.3051C15.6041 45.2208 15.6958 45.1095 15.7567 44.9812C15.8177 44.8528 15.8459 44.7114 15.8389 44.5695C15.8453 44.4555 15.8933 44.3478 15.9739 44.2669C15.9897 44.2631 16.0043 44.2555 16.0164 44.2448C16.0285 44.234 16.0378 44.2204 16.0433 44.2051C16.0489 44.1899 16.0505 44.1735 16.0482 44.1575C16.0458 44.1414 16.0395 44.1262 16.0298 44.1132L16.1741 43.8478C16.2618 43.7981 16.3309 43.7214 16.3712 43.629C16.4115 43.5367 16.4208 43.4338 16.3976 43.3357C16.4807 43.0874 16.6016 42.8534 16.7561 42.642C16.7869 42.6385 16.8164 42.6274 16.8418 42.6096C16.8673 42.5918 16.8879 42.568 16.9017 42.5402C16.9156 42.5125 16.9223 42.4817 16.9213 42.4507C16.9202 42.4197 16.9115 42.3894 16.8958 42.3627L16.9656 42.1904C16.997 42.1868 17.0269 42.1755 17.0529 42.1575C17.0788 42.1395 17.0999 42.1154 17.1142 42.0872C17.1285 42.0591 17.1356 42.0278 17.1348 41.9963C17.1341 41.9647 17.1255 41.9338 17.1099 41.9064L17.4125 41.2918C17.5365 41.2184 17.6377 41.1121 17.7051 40.9848C17.7724 40.8574 17.8033 40.714 17.7943 40.5702C17.8603 40.3836 17.9615 40.2113 18.0923 40.0627C18.1851 40.0173 18.2601 39.9424 18.3056 39.8497C18.3511 39.757 18.3645 39.6517 18.3437 39.5506C18.4503 39.2923 18.5912 39.0495 18.7627 38.8289C18.853 38.7911 18.929 38.7257 18.98 38.6421C19.031 38.5585 19.0543 38.461 19.0467 38.3634C19.1485 38.1018 19.2985 37.8618 19.489 37.6557C19.5972 37.8096 19.6733 37.9838 19.7125 38.1678C19.8401 38.6591 20.0376 39.1295 20.2991 39.5646C21.8448 42.3114 25.2528 43.5778 28.3023 41.3663C29.2659 40.6226 30.045 39.6667 30.579 38.5729C30.8313 38.0306 31.1436 37.5184 31.5102 37.0458C32.9721 35.3464 35.5653 35.258 37.1855 36.2869C37.6349 36.5248 38.0127 36.8784 38.2796 37.3112C38.6993 38.0838 38.9932 38.9183 39.1502 39.7834C39.2281 40.4895 39.4567 41.1706 39.8207 41.7807C40.2697 42.4708 40.839 43.0748 41.5014 43.5638C42.5211 44.3533 43.7948 44.7419 45.0815 44.6561C46.3683 44.5704 47.5791 44.0161 48.485 43.0983C49.8352 41.7853 50.3473 40.1139 50.4032 38.2889C50.4123 38.0063 50.3599 37.7251 50.2495 37.4648C50.1425 37.1994 50.0214 36.9294 49.6769 36.9294C49.3324 36.9294 49.2113 37.1762 49.1415 37.4322C49.0155 37.7832 48.9082 38.1406 48.8202 38.503C48.5292 39.7491 47.8433 40.8677 46.8648 41.6922C46.3895 42.1357 45.7872 42.4192 45.1425 42.5027C44.4978 42.5862 43.8432 42.4656 43.2706 42.1578C42.6893 41.8324 42.1874 41.3822 41.801 40.8396C41.4146 40.297 41.1533 39.6755 41.0358 39.0198C40.9893 38.8243 40.9613 38.6148 40.9055 38.4192C40.6432 37.4799 40.1796 36.609 39.5469 35.8669C38.9141 35.1248 38.1274 34.5294 37.2414 34.122C35.8775 33.4242 34.294 33.2904 32.8324 33.7495C31.8466 34.0532 30.9448 34.5818 30.1983 35.2936C29.4517 36.0055 28.8808 36.881 28.5305 37.8512C28.4448 38.1393 28.304 38.4081 28.1161 38.6427C27.4933 39.3653 26.6901 39.9099 25.7882 40.221C25.6091 40.2716 25.4248 40.3012 25.2389 40.3095C23.8421 40.3653 22.8737 39.6437 22.208 38.4472C21.7543 37.5736 21.4834 36.6168 21.4118 35.6351C21.3969 35.3191 21.3422 35.0062 21.2489 34.7039C22.478 32.8416 23.8049 31.0352 25.2063 29.2847C26.3795 27.8181 27.6319 26.4167 28.9309 25.0386C30.9628 22.8769 33.1075 20.824 35.3558 18.8884C36.1845 18.1714 37.0505 17.4916 37.9165 16.8119C39.2899 15.7271 40.6866 14.6749 42.1066 13.6693C47.7905 9.70826 53.9846 6.53524 60.5201 4.23673C62.908 3.43765 65.3371 2.7678 67.7971 2.2301C70.218 1.69935 72.6483 1.22912 75.1019 0.856658C76.5312 0.637838 77.9745 0.474886 79.4178 0.330558C80.5631 0.209509 81.7177 0.172263 82.8631 0.0605247C83.6313 0 84.3995 0 85.1583 0C87.0206 0 88.8829 0 90.6987 0.172263C91.6298 0.256066 92.561 0.293312 93.4921 0.451608C94.2557 0.581969 95.0425 0.628526 95.82 0.730953C97.2167 0.912527 98.5762 1.19653 99.9403 1.46191C101.304 1.72728 102.734 2.09974 104.131 2.46755C107.625 3.3925 111.048 4.56881 114.373 5.98729C116.878 7.05346 119.308 8.27792 121.701 9.57687C122.188 9.83888 122.655 10.1361 123.098 10.4661C123 10.5825 122.865 10.5546 122.74 10.5732C122.223 10.643 121.701 10.657 121.185 10.7129L119.322 10.9038C118.857 10.9503 118.438 11.0015 117.995 11.0621C117.278 11.1505 116.561 11.239 115.849 11.3507C115.068 11.4083 114.291 11.5109 113.521 11.658C113.288 11.7278 113.018 11.6114 112.813 11.7604C112.605 11.8861 112.362 11.94 112.12 11.9141C111.915 11.9243 111.712 11.946 111.51 11.9792C110.982 12.0592 110.462 12.1838 109.955 12.3517C109.364 12.5426 108.74 12.6264 108.139 12.7661C107.143 12.9988 106.193 13.3573 105.206 13.6088C104.701 13.7177 104.24 13.9741 103.881 14.3454C103.522 14.7167 103.282 15.1863 103.19 15.6945C103.134 16.0821 103.134 16.4756 103.19 16.8631C103.261 17.3439 103.394 17.8135 103.586 18.2598C103.809 18.872 104.195 19.4115 104.703 19.8195C105.292 20.2099 105.915 20.545 106.565 20.8205C108.196 21.648 109.765 22.5892 111.263 23.6372C112.855 24.7034 114.396 25.8534 115.919 26.9894C116.897 27.7064 117.888 28.3861 118.838 29.1543C119.788 29.9225 120.854 30.8024 121.846 31.6451C123.312 32.8882 124.723 34.1825 126.115 35.5047C127.158 36.4918 128.112 37.5672 129.109 38.6008C129.574 39.0664 129.97 39.5785 130.398 40.072C131.057 40.9341 131.842 41.6921 132.726 42.3208C133.559 42.8553 134.482 43.2339 135.45 43.4381C136.077 43.5327 136.711 43.567 137.345 43.5406C138.718 43.551 140.057 43.1165 141.162 42.3021C142.167 41.5856 143.008 40.6632 143.629 39.5963C144.249 38.5294 144.635 37.3425 144.761 36.1146C144.832 35.487 144.867 34.856 144.868 34.2244C144.868 33.8473 144.975 33.7588 145.334 33.7588C145.444 33.7722 145.553 33.7924 145.66 33.8194C146.204 33.9373 146.754 34.0274 147.308 34.0894C148.067 35.4349 148.872 36.7571 149.613 38.1166C150.702 40.1132 151.689 42.1645 152.569 44.2622C153.225 45.8265 153.849 47.4048 154.375 49.0204C154.804 50.3333 155.218 51.6509 155.628 52.9684C155.758 53.3968 155.972 53.7925 156.065 54.2348C156.107 54.421 156.275 54.5374 156.461 54.6678L157.43 53.448C159.511 50.8594 161.298 48.0613 163.189 45.333C166.665 40.3079 170.154 35.2844 173.655 30.2624C177.058 25.3878 180.494 20.5319 183.897 15.6666C184.512 14.796 185.108 13.9207 185.713 13.0501C185.816 13.0861 185.928 13.0849 186.031 13.0466C186.133 13.0083 186.218 12.9354 186.272 12.8406C186.557 12.5275 186.722 12.1233 186.737 11.6999C187 11.454 187.298 11.2499 187.622 11.0946C187.634 11.1016 187.648 11.1058 187.662 11.1069C187.676 11.1081 187.69 11.1061 187.704 11.1013C187.717 11.0964 187.729 11.0887 187.739 11.0787C187.749 11.0687 187.757 11.0567 187.762 11.0434H188.185C188.232 11.104 188.279 11.104 188.325 11.0434C189.974 11.4693 191.513 12.2441 192.836 13.3154C195.024 15.0251 196.752 17.2523 197.865 19.7962C198.879 22.101 199.528 24.5498 199.788 27.0546C199.983 28.6076 200.044 30.1747 199.969 31.7382C199.835 34.397 199.366 37.0281 198.572 39.5692C197.693 42.4441 196.389 45.1714 194.703 47.6609C192.968 50.2605 190.684 52.4487 188.013 54.0719C186.805 54.8361 185.462 55.3608 184.056 55.6176Z" fill="#FF0000"/>
<path d="M103.153 16.8627C103.097 16.4751 103.097 16.0816 103.153 15.6941C103.244 15.1858 103.485 14.7163 103.844 14.3449C104.203 13.9736 104.664 13.7172 105.169 13.6083C106.156 13.3569 107.105 12.9984 108.102 12.7656C108.702 12.6259 109.326 12.5421 109.918 12.3512C110.424 12.1834 110.945 12.0588 111.473 11.9788C111.674 11.9456 111.878 11.9238 112.082 11.9136C112.324 11.9396 112.568 11.8856 112.776 11.76C112.981 11.611 113.242 11.7274 113.484 11.6575C114.253 11.5105 115.031 11.4079 115.812 11.3502C116.524 11.2385 117.241 11.1501 117.958 11.0616C118.4 11.0011 118.843 10.9499 119.285 10.9033L121.147 10.7124C121.664 10.6565 122.185 10.6426 122.702 10.5727C122.828 10.5727 122.963 10.5727 123.061 10.4657C123.513 10.5704 123.982 10.5704 124.434 10.4657C124.527 10.4563 124.621 10.4563 124.714 10.4657C126.301 10.4144 127.884 10.4144 129.472 10.4657C130.719 10.4657 131.972 10.4657 133.224 10.4982C134.286 10.4982 135.352 10.5634 136.409 10.6379C138.238 10.7636 140.064 10.9731 141.884 11.2478C144.135 11.5575 146.366 11.999 148.565 12.5701C150.915 13.1788 153.166 14.1194 155.251 15.3635C156.476 16.085 157.531 17.0634 158.342 18.2314C159.225 19.5084 159.757 20.9953 159.883 22.5427C160.079 25.1406 159.222 27.3148 157.769 29.3307C157.63 29.5263 157.392 29.6241 157.304 29.8522C156.545 29.6986 155.777 29.5682 155.018 29.4239C153.863 29.205 152.736 28.8931 151.6 28.6231C149.538 28.1296 147.489 27.6035 145.432 27.1006C143.569 26.6351 141.674 26.2207 139.803 25.7365C137.931 25.2523 135.985 24.7728 134.072 24.3398C132.009 23.8742 129.961 23.3248 127.893 22.8546C126.157 22.4589 124.439 21.9886 122.702 21.5789C121.51 21.2996 120.319 21.0156 119.127 20.7176C117.544 20.3219 115.951 19.9448 114.368 19.5537C112.786 19.1626 111.161 18.7575 109.554 18.3665C108.2 18.0406 106.84 17.7379 105.49 17.3934C104.708 17.1979 103.935 17.007 103.153 16.8627Z" fill="#F21526"/>
<path d="M103.153 16.8628C103.935 17.0071 104.708 17.198 105.481 17.3935C106.831 17.7381 108.191 18.0407 109.545 18.3666C111.15 18.7577 112.755 19.1534 114.359 19.5538C115.942 19.9449 117.535 20.322 119.118 20.7178C120.31 21.0157 121.501 21.2997 122.693 21.5791C124.43 21.9888 126.148 22.459 127.884 22.8547C129.952 23.3203 132 23.8557 134.063 24.3399C135.978 24.7869 137.888 25.2524 139.794 25.7366C141.656 26.2022 143.546 26.6445 145.423 27.1008C147.48 27.6036 149.529 28.1297 151.591 28.6232C152.727 28.8932 153.854 29.2052 155.009 29.424C155.768 29.5683 156.536 29.6987 157.295 29.8523C156.411 30.9055 155.357 31.8025 154.175 32.5061C152.996 33.2226 151.691 33.7092 150.33 33.9401C149.327 34.1231 148.306 34.1763 147.29 34.0984C146.736 34.0364 146.186 33.9462 145.641 33.8283C145.534 33.8014 145.425 33.7812 145.316 33.7678C144.948 33.7678 144.85 33.833 144.85 34.2334C144.849 34.865 144.813 35.496 144.743 36.1236C144.617 37.3514 144.231 38.5383 143.61 39.6052C142.99 40.6722 142.149 41.5946 141.144 42.3111C140.039 43.1255 138.699 43.56 137.326 43.5495C136.693 43.576 136.058 43.5417 135.431 43.4471C134.455 43.2428 133.523 42.8609 132.684 42.3204C131.8 41.6918 131.015 40.9337 130.357 40.0717C129.928 39.5782 129.523 39.0707 129.067 38.6005C128.071 37.5669 127.116 36.4914 126.073 35.5044C124.677 34.1822 123.28 32.8879 121.804 31.6448C120.812 30.8021 119.811 29.9641 118.796 29.154C117.781 28.3439 116.883 27.706 115.924 27.003C114.383 25.867 112.842 24.717 111.268 23.6509C109.77 22.6029 108.2 21.6616 106.57 20.8341C105.92 20.5586 105.297 20.2235 104.708 19.8332C104.2 19.4251 103.814 18.8857 103.591 18.2735C103.383 17.8247 103.236 17.3503 103.153 16.8628Z" fill="#FF514F"/>
<path d="M6.04811 78.9152C6.12726 78.4497 6.09932 77.9841 6.19244 77.5185C6.41042 76.1552 7.15425 74.9316 8.26425 74.1105C9.007 73.5603 9.91398 73.2775 10.8378 73.3079C11.7616 73.3383 12.648 73.6802 13.353 74.2781C13.8983 74.7192 14.3501 75.2648 14.6819 75.8828C15.0137 76.5008 15.2187 77.1787 15.2851 77.877C15.4833 79.3161 15.1089 80.7756 14.2422 81.9415C13.8507 82.5227 13.3244 83.0006 12.7083 83.3346C12.0922 83.6686 11.4046 83.8487 10.7039 83.8596C10.293 83.8539 9.88574 83.7816 9.49802 83.6455C8.97658 83.4918 8.97192 83.4872 8.85553 84.004C8.73315 84.6386 8.4707 85.2379 8.08731 85.7582C7.70393 86.2785 7.20926 86.7067 6.63939 87.0116C6.05258 87.339 5.39901 87.5287 4.7281 87.5663C4.05719 87.6039 3.3865 87.4885 2.76676 87.2288C2.14701 86.9691 1.59444 86.5719 1.15081 86.0671C0.707187 85.5624 0.384126 84.9635 0.20606 84.3155C0.0279938 83.6676 -0.000416152 82.9876 0.122978 82.3271C0.246373 81.6665 0.518341 81.0427 0.918318 80.5027C1.31829 79.9628 1.83581 79.5208 2.43173 79.2103C3.02764 78.8998 3.68636 78.7289 4.35807 78.7104C4.63873 78.6941 4.9201 78.6941 5.20076 78.7104C5.48655 78.7641 5.76937 78.8324 6.04811 78.9152Z" fill="#FF9797"/>
<path d="M11.6351 87.5615C11.9733 87.5253 12.3152 87.5637 12.637 87.6739C12.9587 87.7841 13.2524 87.9635 13.4974 88.1994C13.5771 88.2779 13.6804 88.3281 13.7914 88.3424C13.9023 88.3567 14.0149 88.3343 14.112 88.2785C14.7179 88.0322 15.3668 87.9087 16.0208 87.9154C16.4114 87.9407 16.7983 88.0063 17.1754 88.1109C17.2992 88.1475 17.4304 88.1513 17.5561 88.1219C17.6818 88.0925 17.7977 88.031 17.8924 87.9433C19.7082 86.4348 22.6599 87.2868 23.321 89.9732C23.5095 90.6526 23.5057 91.3709 23.3101 92.0482C23.1145 92.7256 22.7347 93.3353 22.213 93.8095C21.8803 94.156 21.4554 94.4 20.9885 94.5126C20.8064 94.5442 20.6362 94.6245 20.4961 94.745C20.3559 94.8655 20.251 95.0217 20.1924 95.1969C20.061 95.5081 19.8731 95.7922 19.6383 96.035C19.5642 96.1063 19.5178 96.2017 19.5076 96.304C19.4973 96.4064 19.5239 96.5091 19.5825 96.5937C20.2482 97.8461 19.9782 98.9867 19.1169 100.006C18.6759 100.523 18.0581 100.857 17.3841 100.943C16.7101 101.029 16.0282 100.861 15.4714 100.472C15.1002 100.184 14.8164 99.7988 14.6519 99.3588C14.4874 98.9189 14.4488 98.4418 14.5403 97.9811C14.5868 97.6785 14.5077 97.5947 14.2609 97.5155C13.4544 97.2342 12.7352 96.7474 12.1743 96.1032C11.6134 95.459 11.2302 94.6797 11.0624 93.8421C11.0383 93.7718 11.0273 93.6976 11.0299 93.6233C11.1043 93.032 10.8203 92.7434 10.2942 92.5013C9.86287 92.3052 9.50159 91.9822 9.25866 91.5754C9.01574 91.1686 8.90274 90.6973 8.93477 90.2246C8.93527 89.7151 9.08501 89.217 9.36551 88.7917C9.646 88.3664 10.045 88.0326 10.5131 87.8315C10.8537 87.6364 11.243 87.5427 11.6351 87.5615Z" fill="#FF9797"/>
<path d="M21.2583 34.6993C21.3516 35.0015 21.4063 35.3144 21.4212 35.6304C21.4847 36.6207 21.7509 37.5873 22.2034 38.4704C22.8692 39.6437 23.8189 40.3653 25.2343 40.3327C25.4202 40.3245 25.6046 40.2948 25.7837 40.2443C26.6855 39.9332 27.4887 39.3886 28.1115 38.666C28.295 38.4288 28.431 38.1585 28.5119 37.8698C28.8622 36.8996 29.4332 36.0241 30.1797 35.3122C30.9263 34.6004 31.828 34.0718 32.8138 33.7681C34.2755 33.309 35.859 33.4428 37.2228 34.1406C38.1011 34.5416 38.8826 35.1272 39.5141 35.8576C40.1455 36.5879 40.6122 37.4457 40.8823 38.3726C40.9381 38.5682 40.9661 38.7777 41.0126 38.9732C41.1301 39.6289 41.3914 40.2504 41.7778 40.793C42.1642 41.3356 42.6661 41.7858 43.2474 42.1112C43.82 42.419 44.4746 42.5396 45.1193 42.4561C45.764 42.3726 46.3663 42.0892 46.8416 41.6456C47.8201 40.8211 48.506 39.7025 48.797 38.4565C48.885 38.0941 48.9923 37.7366 49.1183 37.3856C49.2067 37.1296 49.3464 36.8875 49.6537 36.8828C49.961 36.8782 50.1193 37.1528 50.2263 37.4182C50.3367 37.6785 50.3891 37.9597 50.38 38.2423C50.3008 40.0673 49.812 41.7388 48.4618 43.0517C47.5559 43.9696 46.3451 44.5238 45.0583 44.6096C43.7716 44.6953 42.4979 44.3068 41.4782 43.5173C40.8158 43.0282 40.2465 42.4243 39.7975 41.7341C39.4335 41.124 39.2049 40.4429 39.127 39.7368C38.97 38.8717 38.6761 38.0372 38.2564 37.2646C37.9895 36.8318 37.6118 36.4782 37.1623 36.2403C35.5421 35.2114 32.9721 35.3092 31.487 36.9992C31.1204 37.4718 30.8081 37.984 30.5558 38.5263C30.0218 39.6201 29.2427 40.576 28.2792 41.3197C25.2296 43.5312 21.8216 42.2509 20.2759 39.518C20.0144 39.0829 19.8169 38.6125 19.6893 38.1212C19.6501 37.9372 19.574 37.763 19.4658 37.6091C19.8528 36.5243 20.4635 35.5329 21.2583 34.6993Z" fill="#050A13"/>
<path d="M2.57469 68.0248C2.53536 67.1243 2.79546 66.2362 3.31433 65.4991C3.8332 64.7621 4.58162 64.2177 5.44263 63.951C6.03448 63.7651 6.66432 63.7351 7.27115 63.864C7.87799 63.9929 8.44128 64.2762 8.9065 64.6866C9.35632 65.0617 9.72443 65.5251 9.98809 66.0481C10.2517 66.5711 10.4053 67.1426 10.4394 67.7273C10.4734 68.312 10.3872 68.8975 10.186 69.4476C9.98477 69.9976 9.67291 70.5006 9.26965 70.9253C8.85792 71.3745 8.34406 71.718 7.77155 71.9266C7.19903 72.1352 6.58469 72.2029 5.98049 72.1239C5.37629 72.0448 4.80001 71.8215 4.30038 71.4727C3.80076 71.1239 3.39248 70.6599 3.1101 70.1199C2.73467 69.4872 2.54883 68.76 2.57469 68.0248Z" fill="#FF9797"/>
<path d="M24.4613 80.6009C24.4856 80.9815 24.4102 81.3618 24.2425 81.7043C24.1793 81.8263 24.1557 81.9649 24.1749 82.1009C24.1941 82.2369 24.2551 82.3635 24.3496 82.4632C24.6496 82.8248 24.8391 83.2653 24.8952 83.7318C24.9514 84.1984 24.8719 84.6712 24.6662 85.0937C24.5188 85.4715 24.2638 85.7977 23.9327 86.0319C23.6017 86.2661 23.2092 86.398 22.8039 86.4113C22.4183 86.4195 22.0373 86.3257 21.6997 86.1392C21.362 85.9528 21.0796 85.6805 20.8811 85.3498C20.6631 85.066 20.5335 84.7243 20.5086 84.3674C20.5086 84.0182 20.327 83.8553 19.9965 83.7435C19.4923 83.5954 19.0303 83.3301 18.6484 82.9692C18.2664 82.6083 17.9754 82.1621 17.799 81.6671C17.634 81.2152 17.5639 80.7343 17.5931 80.2542C17.6223 79.7741 17.7501 79.3051 17.9685 78.8766C18.1869 78.448 18.4913 78.0691 18.8626 77.7634C19.234 77.4577 19.6643 77.2318 20.1268 77.0998C21.019 76.8746 21.9638 77.0058 22.7609 77.4656C23.5579 77.9254 24.1445 78.6776 24.3962 79.5627C24.4521 79.9057 24.474 80.2535 24.4613 80.6009Z" fill="#FF9797"/>
<path d="M12.7708 69.1657C12.7562 68.8182 12.8126 68.4713 12.9365 68.1463C13.0604 67.8213 13.2493 67.5249 13.4915 67.2753C13.7337 67.0256 14.0243 66.828 14.3454 66.6943C14.6666 66.5607 15.0116 66.4939 15.3594 66.498C15.7238 66.5087 16.0825 66.5919 16.4145 66.7427C16.7464 66.8935 17.0451 67.1088 17.2929 67.3762C17.5408 67.6436 17.733 67.9576 17.8582 68.3C17.9835 68.6424 18.0393 69.0064 18.0225 69.3706C18.0346 69.7141 17.9765 70.0564 17.8516 70.3767C17.7267 70.6969 17.5377 70.9882 17.2961 71.2328C17.0546 71.4773 16.7657 71.67 16.4471 71.7989C16.1284 71.9278 15.7868 71.9903 15.4432 71.9825C14.7195 71.9511 14.0362 71.6398 13.5376 71.1143C13.039 70.5888 12.7641 69.8901 12.7708 69.1657Z" fill="#FF9797"/>
<path d="M3.88743 94.7494C3.55099 94.7728 3.21326 94.7291 2.89385 94.6208C2.57443 94.5126 2.2797 94.342 2.02675 94.1189C1.7738 93.8959 1.56768 93.6248 1.42034 93.3214C1.27301 93.018 1.1874 92.6884 1.16847 92.3517C1.13425 91.873 1.23854 91.3946 1.46887 90.9735C1.6992 90.5525 2.04585 90.2066 2.46743 89.9773C3.05177 89.6204 3.74683 89.4906 4.42059 89.6125C5.09435 89.7344 5.69989 90.0994 6.12219 90.6384C6.40051 90.9937 6.57267 91.4205 6.6188 91.8695C6.66493 92.3184 6.58316 92.7713 6.38291 93.1758C6.19399 93.6052 5.89444 93.9767 5.51489 94.2523C5.13534 94.528 4.6894 94.6979 4.22265 94.7448C4.11123 94.7557 3.9991 94.7572 3.88743 94.7494Z" fill="#FF9797"/>
<path d="M9.36752 101.808C9.0298 101.788 8.70158 101.688 8.41009 101.517C8.1186 101.345 7.87224 101.106 7.69145 100.821C7.4834 100.518 7.36931 100.161 7.36351 99.7942C7.35772 99.4273 7.46047 99.0668 7.65886 98.758C7.85662 98.447 8.11398 98.1782 8.41611 97.967C8.71824 97.7559 9.05917 97.6067 9.41924 97.5279C9.77931 97.4491 10.1514 97.4424 10.5141 97.5081C10.8768 97.5738 11.2229 97.7106 11.5324 97.9107C11.7656 98.0579 11.9643 98.2537 12.1147 98.4848C12.2652 98.716 12.3639 98.9768 12.4042 99.2497C12.4444 99.5225 12.4252 99.8008 12.3479 100.065C12.2705 100.33 12.1369 100.575 11.9561 100.783C11.3881 101.468 10.6618 101.831 9.36752 101.808Z" fill="#FF9797"/>
<path d="M26.8036 98.1012C26.8208 98.3395 26.7876 98.5788 26.706 98.8034C26.6245 99.028 26.4965 99.2328 26.3304 99.4046C26.1644 99.5764 25.9639 99.7112 25.7422 99.8003C25.5205 99.8894 25.2825 99.9307 25.0437 99.9216C24.8059 99.921 24.5705 99.8735 24.351 99.782C24.1315 99.6904 23.9322 99.5565 23.7645 99.3878C23.5967 99.2192 23.4638 99.0192 23.3734 98.7993C23.2829 98.5793 23.2367 98.3437 23.2373 98.1059C23.2672 97.6361 23.4714 97.1944 23.8098 96.8672C24.1482 96.54 24.5965 96.3508 25.067 96.3367C25.5268 96.3543 25.9624 96.5468 26.2851 96.8747C26.6078 97.2026 26.7933 97.6412 26.8036 98.1012Z" fill="#FF9797"/>
<path d="M2.58411 75.9584C2.61188 76.1983 2.57962 76.4413 2.49023 76.6656C2.40084 76.8899 2.25711 77.0884 2.07198 77.2434C1.92827 77.3861 1.75058 77.4898 1.55568 77.5448C1.36077 77.5997 1.15507 77.6041 0.957993 77.5575C0.760917 77.511 0.578961 77.4149 0.429297 77.2785C0.279632 77.1421 0.167196 76.9698 0.102597 76.7778C-0.0306103 76.4182 -0.0342109 76.0233 0.0924152 75.6613C0.219041 75.2993 0.467965 74.9927 0.796303 74.7945C0.970058 74.6943 1.1663 74.6395 1.36685 74.6353C1.5674 74.6311 1.76578 74.6775 1.94359 74.7704C2.1214 74.8632 2.2729 74.9995 2.38405 75.1665C2.49521 75.3334 2.56242 75.5258 2.57945 75.7256C2.58529 75.8031 2.58685 75.8808 2.58411 75.9584Z" fill="#FF9797"/>
<path d="M14.3167 48.075C14.3453 48.2058 14.3219 48.3427 14.2515 48.4567C13.9579 49.1679 13.9397 49.9629 14.2003 50.6868C14.3503 51.0027 14.4084 51.3544 14.3679 51.7018C14.1055 51.0533 13.9332 50.3718 13.8557 49.6765C13.8065 49.1041 13.9706 48.5336 14.3167 48.075Z" fill="#FF514F"/>
<path d="M186.742 11.6858C186.727 12.1092 186.562 12.5134 186.277 12.8264C186.225 12.9125 186.146 12.9794 186.053 13.0171C185.96 13.0549 185.857 13.0615 185.76 13.036C186.003 12.5301 186.336 12.0726 186.742 11.6858Z" fill="#FF9797"/>
<path d="M14.8938 46.7346C14.8758 47.1367 14.71 47.518 14.4282 47.8054C14.4987 47.4174 14.6581 47.0509 14.8938 46.7346Z" fill="#FF514F"/>
<path d="M14.4282 51.9067C14.6525 52.266 14.7628 52.6848 14.7448 53.1079C14.5542 52.7349 14.4462 52.3252 14.4282 51.9067Z" fill="#FF514F"/>
<path d="M14.7963 53.2715C14.8972 53.3962 14.9715 53.5403 15.0148 53.6948C15.058 53.8493 15.0692 54.011 15.0477 54.17C14.8707 53.9048 14.7827 53.5901 14.7963 53.2715Z" fill="#FF514F"/>
<path d="M17.7944 40.5701C17.8034 40.7138 17.7725 40.8573 17.7051 40.9846C17.6377 41.112 17.5365 41.2182 17.4126 41.2917C17.48 41.024 17.611 40.7764 17.7944 40.5701Z" fill="#FF514F"/>
<path d="M15.8858 44.4897C15.8928 44.6316 15.8646 44.7731 15.8036 44.9014C15.7427 45.0298 15.651 45.1411 15.5366 45.2254C15.573 44.9496 15.6952 44.6923 15.8858 44.4897Z" fill="#FF514F"/>
<path d="M15.3222 45.7202C15.3469 45.8184 15.3389 45.922 15.2994 46.0153C15.2599 46.1085 15.1911 46.1864 15.1034 46.237C15.097 46.1398 15.1134 46.0424 15.1514 45.9526C15.1894 45.8629 15.2479 45.7833 15.3222 45.7202Z" fill="#FF514F"/>
<path d="M16.4446 43.2568C16.4678 43.3549 16.4585 43.4578 16.4182 43.5502C16.3779 43.6425 16.3087 43.7193 16.2211 43.769C16.2177 43.6723 16.236 43.5762 16.2747 43.4875C16.3134 43.3989 16.3714 43.3201 16.4446 43.2568Z" fill="#FF514F"/>
<path d="M18.3442 39.574C18.365 39.6751 18.3516 39.7803 18.3061 39.8731C18.2606 39.9658 18.1855 40.0407 18.0928 40.0861C18.0941 39.9874 18.1174 39.8903 18.1608 39.8017C18.2043 39.7132 18.2669 39.6354 18.3442 39.574Z" fill="#FF514F"/>
<path d="M19.0467 38.3447C19.0543 38.4423 19.031 38.5399 18.98 38.6234C18.929 38.707 18.853 38.7724 18.7627 38.8103C18.7742 38.717 18.8055 38.6272 18.8545 38.5469C18.9034 38.4666 18.969 38.3977 19.0467 38.3447Z" fill="#FF514F"/>
<path d="M16.8957 42.3669C16.9115 42.3937 16.9202 42.424 16.9213 42.455C16.9223 42.486 16.9156 42.5168 16.9017 42.5445C16.8878 42.5723 16.8672 42.5961 16.8418 42.6139C16.8164 42.6317 16.7869 42.6428 16.7561 42.6463C16.7468 42.5909 16.7554 42.5341 16.7805 42.4839C16.8056 42.4337 16.8459 42.3928 16.8957 42.3669Z" fill="#FF514F"/>
<path d="M17.1102 41.9019C17.1258 41.9293 17.1343 41.9602 17.1351 41.9917C17.1358 42.0233 17.1287 42.0545 17.1144 42.0827C17.1001 42.1108 17.079 42.135 17.0531 42.153C17.0272 42.171 16.9972 42.1823 16.9658 42.1859C16.9627 42.13 16.9743 42.0743 16.9997 42.0244C17.025 41.9745 17.0632 41.9322 17.1102 41.9019Z" fill="#FF514F"/>
<path d="M16.0765 44.0344C16.0862 44.0474 16.0925 44.0626 16.0949 44.0787C16.0973 44.0947 16.0956 44.1111 16.0901 44.1263C16.0845 44.1416 16.0753 44.1552 16.0632 44.166C16.051 44.1767 16.0364 44.1843 16.0207 44.1881C16.0111 44.1599 16.0114 44.1293 16.0215 44.1014C16.0317 44.0735 16.0511 44.0498 16.0765 44.0344Z" fill="#FF514F"/>
<path d="M188.33 11.0388C188.284 11.0947 188.237 11.0947 188.19 11.0388H188.33Z" fill="#FF9797"/>
<path d="M187.767 11.0293C187.762 11.0426 187.754 11.0546 187.744 11.0646C187.734 11.0746 187.722 11.0823 187.709 11.0871C187.695 11.092 187.681 11.0939 187.667 11.0928C187.653 11.0917 187.639 11.0875 187.627 11.0805C187.631 11.0667 187.638 11.0541 187.648 11.0436C187.658 11.0331 187.67 11.0251 187.684 11.0201C187.698 11.0151 187.712 11.0134 187.726 11.015C187.741 11.0166 187.755 11.0215 187.767 11.0293Z" fill="#FF9797"/>
<path d="M44.5465 67.1829C44.8482 67.2072 45.1394 67.3048 45.395 67.467C45.6505 67.6292 45.8626 67.8513 46.013 68.1141C46.7626 69.3432 47.5541 70.5444 48.4154 71.699C48.704 72.0854 48.9973 72.4765 49.3 72.8536C49.5095 73.105 49.556 73.1097 49.7655 72.8536C50.3429 72.1413 50.9155 71.4243 51.4649 70.6933C52.0143 69.9624 52.5357 69.2128 53.0758 68.4726C53.2319 68.2268 53.4461 68.0231 53.6993 67.8794C53.9526 67.7357 54.2373 67.6564 54.5284 67.6485C54.7912 67.6315 55.0537 67.6873 55.2869 67.8097C55.5201 67.932 55.7152 68.1163 55.8506 68.3422C55.9838 68.5601 56.0479 68.8133 56.0346 69.0684C56.0214 69.3235 55.9312 69.5686 55.7761 69.7715C54.9315 71.0674 54.0095 72.3112 53.0153 73.4961C52.5497 74.0408 52.126 74.6042 51.6604 75.1349C51.6139 75.1721 51.5768 75.2197 51.5522 75.274C51.5275 75.3282 51.5161 75.3875 51.5189 75.447C51.5216 75.5065 51.5384 75.5645 51.5678 75.6163C51.5973 75.668 51.6386 75.7121 51.6884 75.7448C52.2936 76.378 52.8849 77.0252 53.4855 77.6677C54.0861 78.3101 54.8077 79.0644 55.4176 79.8465C55.8832 80.4564 55.967 81.0663 55.6085 81.5412C55.394 81.791 55.106 81.9665 54.7857 82.0426C54.4654 82.1187 54.1293 82.0915 53.8254 81.9649C53.4696 81.8298 53.1506 81.6129 52.8942 81.3317C51.8886 80.2516 50.8814 79.1746 49.8726 78.1006L49.5979 77.8166C49.5797 77.7888 49.5549 77.7659 49.5256 77.7501C49.4964 77.7342 49.4636 77.7259 49.4303 77.7259C49.3971 77.7259 49.3643 77.7342 49.335 77.7501C49.3058 77.7659 49.2809 77.7888 49.2627 77.8166L48.9508 78.1379C47.8148 79.3251 46.6229 80.4425 45.3985 81.5505C45.1877 81.7659 44.9242 81.9222 44.6342 82.0039C44.3442 82.0856 44.0378 82.0898 43.7457 82.0161C43.5142 81.9725 43.299 81.8667 43.1231 81.7102C42.9471 81.5536 42.817 81.3522 42.7467 81.1274C42.6764 80.9027 42.6686 80.663 42.724 80.4341C42.7794 80.2052 42.896 79.9957 43.0613 79.8279C43.4104 79.4415 43.8108 79.097 44.188 78.7385C45.2076 77.7794 46.2132 76.8017 47.1583 75.7681C47.5867 75.3025 47.5448 75.3863 47.2002 74.958C45.7845 73.2203 44.5006 71.3793 43.3592 69.4503C43.2576 69.2929 43.1748 69.1241 43.1125 68.9474C43.0535 68.733 43.0465 68.5076 43.0922 68.2899C43.1379 68.0722 43.235 67.8686 43.3752 67.696C43.5155 67.5234 43.695 67.3868 43.8987 67.2976C44.1024 67.2083 44.3245 67.169 44.5465 67.1829Z" fill="#050A13"/>
</svg>

