<svg width="320" height="199" viewBox="0 0 320 199" fill="none" xmlns="http://www.w3.org/2000/svg">
<g clip-path="url(#clip0)">
<path d="M31.0244 112.01C31.4082 110.395 31.9008 108.807 32.4987 107.258C33.4005 104.66 34.431 102.105 35.526 99.5791C36.621 97.0528 37.8591 94.6481 39.1044 92.2506C40.7636 89.1703 42.5913 86.1838 44.5793 83.3047C46.2755 80.8213 48.0503 78.4023 49.9683 76.0835C52.0724 73.55 54.1837 71.0165 56.4882 68.662C58.7926 66.3074 61.2546 63.8598 63.7809 61.6197C68.0223 57.8474 72.5493 54.409 77.3215 51.3355C81.0041 48.9579 84.8281 46.8069 88.7723 44.8944C93.8729 42.4616 99.1683 40.4603 104.603 38.9113C108.038 37.9165 111.488 36.9647 114.98 36.1846C117.457 35.6192 119.99 35.1898 122.481 34.7962C124.005 34.5529 125.529 34.3167 127.054 34.1736C128.444 33.9705 129.844 33.8391 131.248 33.7799C132.758 33.7799 134.275 33.601 135.785 33.5008C135.957 33.4901 136.129 33.4901 136.3 33.5008C137.646 33.5795 138.984 33.5509 140.33 33.5008C142.584 33.5008 144.845 33.6654 147.1 33.8157C147.608 33.8157 148.123 33.9088 148.631 33.966C148.961 33.9997 149.295 33.9565 149.605 33.8397C149.915 33.723 150.195 33.536 150.421 33.2933L151.58 32.141C155.525 28.2202 159.757 24.5984 164.24 21.3057C168.507 18.1552 172.976 15.2864 177.616 12.7176C182.41 10.0626 187.39 7.7592 192.517 5.82565C195.601 4.65909 198.729 3.61421 201.906 2.74108C204.864 1.9503 207.862 1.31959 210.888 0.851701C212.699 0.56543 214.516 0.365041 216.334 0.23622C218.131 0.0382075 219.939 -0.0239943 221.745 0.050144C224.769 0.185614 227.777 0.580688 230.734 1.23101C233.586 1.90477 236.319 3.01267 238.835 4.51596C240.678 5.735 242.35 7.19342 243.809 8.85295C244.654 9.74039 245.197 10.8783 246.178 11.6441C246.26 11.7254 246.319 11.8265 246.35 11.9375C247.201 13.8842 248.153 15.7807 248.826 17.7917C249.37 19.4224 249.688 21.1201 249.771 22.8373C249.957 25.327 249.63 27.8285 248.812 30.1872C247.874 32.8149 246.375 35.2064 244.418 37.1952C242.461 39.184 240.095 40.7221 237.482 41.7025C235.776 42.3663 233.987 42.7972 232.165 42.9835C230.812 43.1267 229.474 43.0694 228.129 43.0909C227.413 43.0909 226.783 42.8619 225.982 42.9334C226.183 43.1627 226.426 43.3521 226.697 43.4916C228.982 45.0265 230.979 46.9526 232.594 49.1813C233.865 50.8239 234.729 52.7443 235.114 54.785C235.507 57.2827 235.335 59.7017 233.682 61.8201C232.613 63.1457 231.165 64.1143 229.531 64.5969C227.105 65.3296 224.525 65.389 222.067 64.7687C221.095 64.5256 220.14 64.2245 219.204 63.8669C218.926 63.7042 218.599 63.6435 218.281 63.6952C219.04 64.4108 219.712 65.1265 220.478 65.7993C221.244 66.472 221.909 67.1161 222.625 67.796C223.72 68.8409 224.851 69.8571 225.874 70.9736C227.907 73.185 229.982 75.3678 231.879 77.7081C233.618 79.8551 235.328 82.0022 236.96 84.2064C239.422 87.556 241.697 91.0396 243.773 94.641C244.947 96.6807 246.092 98.7346 247.151 100.839C247.96 102.449 248.711 104.095 249.441 105.748C250.028 106.993 250.677 108.206 251.388 109.384C251.429 109.457 251.477 109.527 251.531 109.591C252.111 110.243 252.29 110.221 252.819 109.541C254.802 106.979 256.734 104.381 258.545 101.669C259.804 99.7867 261.043 97.8901 262.302 96.0079C264.029 93.441 265.761 90.8741 267.498 88.3073L273.638 79.2754C275.943 75.8831 278.262 72.498 280.566 69.1128C282.992 65.5345 285.404 62.0062 287.845 58.4636C290.614 54.4558 293.427 50.4766 296.168 46.4545C296.848 45.4598 297.499 44.4507 298.15 43.4344C298.491 42.9379 298.895 42.488 299.353 42.0961C299.729 41.7438 300.196 41.503 300.702 41.4007C301.207 41.2983 301.731 41.3384 302.215 41.5164C304.865 42.3822 307.322 43.7529 309.451 45.5528C312.433 48.0848 314.818 51.2448 316.436 54.8065C317.959 58.0766 318.989 61.5544 319.492 65.1265C319.685 66.429 319.757 67.7387 319.878 69.0413C320.001 70.4117 320.034 71.7887 319.978 73.1636C319.928 75.3213 319.731 77.4732 319.392 79.6046C318.971 82.1165 318.368 84.5945 317.588 87.019C316.627 90.0259 315.374 92.9312 313.845 95.693C312.75 97.677 311.481 99.5595 310.052 101.318C308.299 103.477 306.303 105.427 304.105 107.13C301.993 108.763 299.632 110.047 297.113 110.93C295.519 111.492 293.871 111.886 292.196 112.103C292.127 112.106 292.06 112.125 292.001 112.158C291.941 112.192 291.89 112.239 291.852 112.297C292.215 112.467 292.605 112.568 293.005 112.597C293.51 112.598 294.006 112.739 294.436 113.005C294.319 113.086 294.177 113.124 294.035 113.113C292.089 113.163 290.142 113.184 288.195 113.249C282.205 113.449 276.208 113.249 270.21 113.406C264.685 113.542 259.139 113.621 253.607 113.313C252.003 113.217 250.395 113.252 248.797 113.42C247.399 113.473 245.998 113.439 244.603 113.32C230.054 113.163 215.504 113.499 200.947 113.127C199.902 113.127 198.85 113.127 197.798 113.127C185.46 113.012 173.122 113.277 160.784 112.962C153.498 112.769 146.205 113.041 138.92 112.798C131.634 112.554 124.119 112.855 116.734 112.633C108.503 112.39 100.273 112.712 92.0286 112.454C84.6643 112.225 77.2857 112.519 69.9142 112.29C62.2851 112.046 54.6489 112.354 47.0126 112.118C41.7095 111.882 36.3705 112.01 31.0244 112.01ZM85.702 89.8245C81.1002 89.3808 76.8348 93.7965 76.8491 98.3696C76.8115 99.5488 77.0107 100.724 77.435 101.824C77.8593 102.925 78.5 103.93 79.3193 104.779C80.1386 105.628 81.1198 106.304 82.2049 106.767C83.29 107.23 84.4569 107.471 85.6367 107.475C86.8165 107.48 87.9852 107.247 89.0736 106.792C90.162 106.337 91.1482 105.668 91.9736 104.825C92.7991 103.982 93.4471 102.982 93.8794 101.885C94.3117 100.787 94.5195 99.6135 94.4905 98.4341C94.4691 93.7535 90.4398 89.4595 85.702 89.7887V89.8245Z" fill="#78D2ED"/>
<path d="M31.0247 112.01C36.3708 112.01 41.7098 111.882 47.0487 112.053C54.6778 112.289 62.3141 111.982 69.9503 112.225C77.3218 112.454 84.7004 112.161 92.0647 112.39C100.302 112.647 108.525 112.325 116.77 112.569C124.17 112.79 131.577 112.497 138.956 112.733C146.334 112.969 153.534 112.733 160.82 112.898C173.158 113.213 185.496 112.948 197.834 113.062C198.886 113.062 199.938 113.062 200.983 113.062C215.533 113.435 230.083 113.098 244.64 113.256C246.034 113.375 247.435 113.408 248.833 113.356C250.431 113.188 252.039 113.152 253.643 113.248C259.175 113.556 264.721 113.477 270.246 113.342C276.244 113.191 282.241 113.384 288.231 113.184C290.178 113.12 292.125 113.098 294.071 113.048C294.213 113.059 294.355 113.021 294.472 112.941L294.837 112.977L295.016 113.041C296.176 113.229 297.305 113.573 298.372 114.064C301.598 115.453 304.533 117.437 307.025 119.911C311.215 124.069 314.458 129.084 316.529 134.611C317.625 137.353 318.466 140.189 319.041 143.085C319.358 144.655 319.585 146.241 319.721 147.837C319.922 149.715 320.013 151.603 319.993 153.491C319.89 157.298 319.31 161.078 318.268 164.741C317.393 167.809 316.059 170.726 314.311 173.394C312.238 176.581 309.452 179.242 306.173 181.166C304.716 182.035 303.136 182.677 301.486 183.07C301.105 183.167 300.706 183.161 300.329 183.053C299.951 182.945 299.61 182.738 299.339 182.454C298.907 182.073 298.52 181.643 298.186 181.173C296.626 178.874 295.059 176.579 293.484 174.288C290.822 170.409 288.145 166.545 285.49 162.666C283.248 159.402 281.022 156.129 278.813 152.847C275.235 147.601 271.728 142.341 268.157 137.102C264.936 132.364 261.716 127.612 258.588 122.788C256.749 119.983 254.702 117.328 252.691 114.644C252.297 114.122 251.896 114.179 251.66 114.837C251.145 116.269 250.637 117.7 250.186 119.131C248.939 123.099 247.481 126.998 245.82 130.811C243.459 136.11 240.713 141.228 237.604 146.127C237.433 146.127 237.261 146.127 237.089 146.17C236.28 146.32 235.465 146.484 234.649 146.62C233.976 146.735 233.704 146.492 233.69 145.805C233.69 145.404 233.69 144.996 233.69 144.595C233.724 142.904 233.433 141.223 232.831 139.643C232.067 137.468 230.762 135.525 229.038 133.996C227.221 132.342 224.909 131.335 222.461 131.133C220.542 130.956 218.609 131.248 216.828 131.985C215.131 132.697 213.613 133.777 212.384 135.148C211.475 136.136 210.709 137.295 209.743 138.19C208.09 139.779 206.659 141.575 204.934 143.099C203.209 144.624 201.613 146.084 199.924 147.565C197.57 149.655 195.129 151.637 192.631 153.541C189.855 155.688 186.985 157.656 184.122 159.646C181.975 161.077 179.828 162.508 177.681 163.89C175.862 164.975 173.984 165.96 172.056 166.838C171.109 167.221 170.271 167.83 169.615 168.613C168.78 169.682 168.282 170.975 168.184 172.327C168.184 172.7 168.184 173.043 168.184 173.444C168.172 174.28 168.419 175.099 168.89 175.79C169.362 176.48 170.035 177.008 170.818 177.301C171.805 177.676 172.811 178.001 173.831 178.275C177.015 179.188 180.248 179.924 183.514 180.479C186.205 180.951 188.896 181.424 191.608 181.782C193.994 182.096 196.379 182.335 198.765 182.497C198.994 182.512 199.216 182.578 199.416 182.69C198.714 183.234 197.947 183.688 197.133 184.043C194.862 185.265 192.56 186.426 190.227 187.528C186.648 189.189 183.02 190.642 179.313 191.951C175.612 193.262 171.842 194.368 168.019 195.265C164.935 195.981 161.843 196.696 158.716 197.161C156.733 197.448 154.758 197.698 152.761 197.877C150.027 198.13 147.286 198.316 144.538 198.435C142.87 198.507 141.217 198.435 139.528 198.435C137.354 198.442 135.181 198.313 133.023 198.049C131.348 197.848 129.666 197.741 128.013 197.519C121.711 196.676 115.466 195.45 109.312 193.848C103.844 192.412 98.5055 190.521 93.3529 188.194C88.0368 185.814 82.8992 183.054 77.9802 179.935C74.9958 178.053 72.1188 176.013 69.3134 173.873C67.7961 172.707 66.3218 171.476 64.8332 170.295C61.0072 167.148 57.3813 163.766 53.9764 160.168C48.9526 154.971 44.4398 149.303 40.5003 143.242C39.0689 141.081 37.7568 138.858 36.5641 136.572C36.4047 136.35 36.3016 136.092 36.2635 135.821C37.0507 135.692 37.8165 135.699 38.5751 135.628C43.3795 135.159 48.0798 133.934 52.5021 131.999C54.7218 131.056 56.8353 129.881 58.8072 128.492C60.0813 127.609 61.1906 126.509 62.085 125.243C62.2942 124.967 62.4429 124.65 62.5216 124.313C62.5725 124.101 62.5618 123.88 62.4908 123.674C62.4198 123.469 62.2914 123.288 62.1208 123.153C61.9587 123.032 61.7616 122.966 61.559 122.966C61.3565 122.966 61.1594 123.032 60.9972 123.153C60.7714 123.278 60.5682 123.441 60.396 123.633C58.1631 126.088 55.3434 127.676 52.3805 129.022C49.0094 130.565 45.4509 131.659 41.7956 132.278C39.5291 132.639 37.2333 132.783 34.9395 132.708C34.7807 132.714 34.6242 132.668 34.4946 132.576C34.365 132.484 34.2697 132.352 34.2238 132.2C33.2004 130.21 32.3058 128.156 31.3611 126.109C30.8911 124.887 30.3535 123.693 29.7508 122.531C29.4541 121.971 29.235 121.374 29.0996 120.756C28.8991 120.035 28.8991 119.273 29.0996 118.552C29.6506 116.626 30.1516 114.68 30.6884 112.748C30.7323 112.476 30.8485 112.221 31.0247 112.01Z" fill="#50C8F4"/>
<path d="M199.401 182.669C199.201 182.557 198.979 182.491 198.75 182.476C196.365 182.323 193.979 182.085 191.593 181.76C188.881 181.402 186.19 180.93 183.499 180.458C180.233 179.903 177 179.167 173.816 178.253C172.796 177.98 171.79 177.655 170.803 177.28C170.02 176.987 169.347 176.459 168.876 175.768C168.404 175.078 168.157 174.259 168.169 173.423C168.169 173.05 168.169 172.707 168.169 172.306C168.59 172.222 169.006 172.114 169.415 171.984C171.225 171.741 172.993 171.268 174.754 170.832C176.858 170.331 178.976 169.851 181.087 169.357C182.97 168.914 184.852 168.456 186.748 168.062C188.788 167.647 190.792 167.046 192.824 166.631C194.857 166.216 196.71 165.743 198.657 165.343C199.681 165.128 200.718 164.877 201.735 164.627C203.166 164.262 204.597 163.997 205.986 163.661C207.181 163.374 208.39 163.174 209.564 162.823C210.439 162.566 211.328 162.358 212.226 162.201C213.493 161.979 214.717 161.592 215.962 161.313L219.541 160.497L224.865 159.281C227.012 158.787 229.195 158.236 231.364 157.742C233.253 157.32 235.149 156.898 237.032 156.454C238.914 156.01 240.861 155.574 242.757 155.101C244.969 154.557 247.194 154.071 249.42 153.584C250.451 153.362 251.517 153.355 252.533 153.04C252.704 153.022 252.877 153.022 253.048 153.04C255.503 155.582 256.931 158.943 257.057 162.475C257.182 166.007 255.997 169.46 253.728 172.17C251.402 174.904 248.368 176.507 245.14 177.896C241.72 179.288 238.162 180.317 234.527 180.966C232.287 181.402 230.04 181.76 227.771 182.046C226.103 182.254 224.429 182.39 222.761 182.562C221.094 182.733 219.226 182.769 217.458 182.841C213.529 182.998 209.586 182.884 205.671 182.912C204.041 182.921 202.412 182.847 200.79 182.691C200.328 182.661 199.864 182.654 199.401 182.669Z" fill="#3865A0"/>
<path d="M253.12 153.019C252.949 153.001 252.776 153.001 252.605 153.019C251.589 153.334 250.522 153.341 249.492 153.563C247.266 154.049 245.04 154.536 242.829 155.08C240.918 155.552 239 155.982 237.103 156.432C235.207 156.883 233.325 157.298 231.435 157.721C229.288 158.214 227.106 158.766 224.937 159.259L219.612 160.476L216.034 161.292C214.789 161.571 213.565 161.957 212.298 162.179C211.4 162.337 210.511 162.545 209.636 162.802C208.455 163.153 207.246 163.353 206.058 163.639C204.626 163.976 203.195 164.24 201.806 164.605C200.79 164.877 199.752 165.128 198.729 165.321C196.782 165.722 194.85 166.209 192.896 166.609C190.942 167.01 188.86 167.633 186.82 168.041C184.924 168.434 183.041 168.892 181.159 169.336C179.012 169.83 176.93 170.309 174.825 170.81C173.058 171.225 171.297 171.719 169.486 171.963C169.078 172.093 168.662 172.2 168.241 172.285C168.339 170.932 168.837 169.639 169.673 168.57C170.323 167.802 171.151 167.202 172.084 166.824C174.012 165.945 175.89 164.961 177.71 163.875C179.857 162.501 182.047 161.091 184.151 159.632C187.013 157.642 189.876 155.645 192.66 153.527C195.158 151.623 197.598 149.641 199.953 147.551C201.62 146.069 203.274 144.567 204.963 143.085C206.652 141.604 208.119 139.764 209.772 138.176C210.738 137.252 211.504 136.122 212.413 135.134C213.641 133.763 215.159 132.683 216.857 131.971C218.638 131.234 220.571 130.942 222.489 131.119C224.938 131.321 227.25 132.328 229.066 133.982C230.79 135.511 232.096 137.454 232.86 139.628C233.461 141.209 233.753 142.89 233.718 144.581C233.718 144.982 233.718 145.39 233.718 145.79C233.718 146.506 234.005 146.721 234.677 146.606C235.493 146.47 236.309 146.306 237.118 146.155C237.29 146.155 237.461 146.155 237.633 146.112C238.571 146.184 239.515 146.205 240.453 146.263C243.867 146.503 247.134 147.748 249.843 149.841C251.078 150.742 252.181 151.812 253.12 153.019Z" fill="#4476BB"/>
<path d="M25.7001 50.813C27.9129 50.8357 30.0687 51.5176 31.892 52.7716C33.7154 54.0256 35.1235 55.7947 35.9364 57.8529C36.7494 59.9111 36.9302 62.1649 36.4559 64.3264C35.9816 66.488 34.8736 68.459 33.2736 69.9877C31.6735 71.5164 29.6541 72.5333 27.4732 72.9087C25.2923 73.284 23.0491 73.0006 21.03 72.0947C19.011 71.1888 17.3079 69.7015 16.1384 67.8229C14.9688 65.9443 14.3858 63.7596 14.464 61.5481C14.5856 55.9372 19.4737 50.6627 25.7001 50.813Z" fill="#9EE7FF"/>
<path d="M9.5238e-05 81.902C-0.178824 77.565 3.79318 73.3139 8.74565 73.4427C9.89406 73.4704 11.0254 73.7271 12.0733 74.1977C13.1212 74.6684 14.0646 75.3435 14.8483 76.1834C15.6319 77.0234 16.24 78.0113 16.6369 79.0893C17.0337 80.1674 17.2114 81.3138 17.1595 82.4613C17.1076 83.6089 16.8271 84.7346 16.3345 85.7723C15.8419 86.8101 15.1471 87.7391 14.2908 88.5049C13.4345 89.2706 12.4339 89.8578 11.3478 90.2318C10.2617 90.6059 9.11179 90.7594 7.96556 90.6833C3.69298 90.44 -0.250391 86.5968 9.5238e-05 81.902Z" fill="#9EE7FF"/>
<path d="M25.7071 104.224C25.7176 104.904 25.5923 105.58 25.3385 106.211C25.0847 106.843 24.7075 107.417 24.229 107.901C23.7505 108.385 23.1803 108.768 22.5518 109.029C21.9233 109.29 21.249 109.423 20.5686 109.42C19.8811 109.421 19.2002 109.285 18.5653 109.022C17.9304 108.758 17.3541 108.371 16.8696 107.883C16.3852 107.395 16.0022 106.816 15.7428 106.18C15.4834 105.543 15.3528 104.861 15.3585 104.174C15.3445 103.482 15.4715 102.796 15.7318 102.155C15.9921 101.514 16.3803 100.934 16.8725 100.448C17.3648 99.9624 17.9509 99.5823 18.5949 99.3308C19.239 99.0792 19.9276 98.9616 20.6187 98.9851C21.3029 98.9736 21.9822 99.1025 22.6147 99.3636C23.2472 99.6248 23.8195 100.013 24.2963 100.504C24.773 100.995 25.1442 101.578 25.3869 102.218C25.6295 102.858 25.7385 103.54 25.7071 104.224Z" fill="#9EE7FF"/>
<path d="M295.016 113.077L294.837 113.012C294.923 112.926 294.973 112.969 295.016 113.077Z" fill="#78D2ED"/>
<path d="M85.7021 89.7887C90.4399 89.438 94.4763 93.7822 94.4906 98.3768C94.5196 99.5563 94.3118 100.73 93.8795 101.827C93.4472 102.925 92.7992 103.925 91.9737 104.768C91.1483 105.611 90.1621 106.28 89.0737 106.735C87.9853 107.19 86.8166 107.422 85.6368 107.418C84.457 107.414 83.2901 107.173 82.205 106.71C81.1199 106.247 80.1387 105.571 79.3194 104.722C78.5001 103.873 77.8594 102.868 77.4351 101.767C77.0108 100.666 76.8116 99.4916 76.8492 98.3124C76.8349 93.7535 81.1003 89.345 85.7021 89.7887Z" fill="white"/>
</g>
<defs>
<clipPath id="clip0">
<rect width="320" height="198.443" fill="white"/>
</clipPath>
</defs>
</svg>
