<svg width="200" height="118" viewBox="0 0 200 118" fill="none" xmlns="http://www.w3.org/2000/svg">
<path d="M28.9902 65.8814C29.1788 65.0878 29.4216 64.3082 29.7169 63.5479C30.2503 61.9545 30.877 60.3878 31.557 58.881C32.5758 56.5902 33.7336 54.3638 35.0238 52.2141C35.9128 50.7296 36.8661 49.2806 37.884 47.8672C38.5818 46.8938 39.3196 45.9427 40.0974 45.0138C40.9508 44.0004 41.7775 42.947 42.6508 42.0003C43.7087 40.8536 44.7998 39.7424 45.9243 38.6668C47.5377 37.0934 49.2222 35.6022 50.9779 34.1933C53.0012 32.5763 55.1184 31.0803 57.3182 29.7131C59.3241 28.4663 61.3986 27.3334 63.5318 26.3196C65.7132 25.2841 67.9604 24.3933 70.2587 23.6528C73.3255 22.6661 76.4323 21.8194 79.5925 21.1394C80.7125 20.8994 81.8459 20.6927 82.986 20.5327C83.9327 20.406 84.8727 20.2393 85.8194 20.1393C86.3795 20.086 86.9461 20.026 87.5128 19.9793C89.7263 19.7993 91.9397 19.7726 94.1798 19.8126C95.2798 19.8126 96.3732 19.8926 97.4733 19.9593C97.8259 19.9705 98.1776 20.0017 98.5267 20.0527C98.7188 20.0904 98.9175 20.0776 99.1032 20.0157C99.289 19.9538 99.4556 19.8448 99.5867 19.6993L100.453 18.8326C104.255 15.1059 108.474 11.8307 113.027 9.07217C117.15 6.53007 121.53 4.43162 126.095 2.81189C128.82 1.84174 131.624 1.10571 134.475 0.61179C136.146 0.322876 137.834 0.140279 139.528 0.0650992C140.235 0.0650992 140.942 -0.0215713 141.649 0.00509652C144.45 0.0299764 147.223 0.560747 149.836 1.57183C151.504 2.23322 153.01 3.24756 154.249 4.5453C154.862 5.16748 155.426 5.83617 155.936 6.54539C157.198 8.38875 158.015 10.4997 158.323 12.7123C158.548 14.2705 158.426 15.8593 157.965 17.3647C157.504 18.8701 156.715 20.2548 155.656 21.4194C153.845 23.5215 151.344 24.9091 148.602 25.3329C147.623 25.4849 146.631 25.5341 145.642 25.4796C145.271 25.4861 144.9 25.4389 144.542 25.3396C144.427 25.3261 144.311 25.3261 144.195 25.3396C144.309 25.5462 144.502 25.6062 144.655 25.7062C146.141 26.678 147.421 27.9331 148.422 29.3997C149.133 30.4196 149.59 31.5944 149.756 32.8266C149.896 33.5981 149.841 34.3924 149.596 35.1374C149.352 35.8825 148.925 36.5548 148.356 37.0934C147.586 37.7913 146.633 38.254 145.609 38.4268C143.678 38.7461 141.696 38.4669 139.928 37.6268C139.8 37.5666 139.669 37.5132 139.535 37.4668C139.535 37.4668 139.475 37.4668 139.422 37.4668C139.616 37.6935 139.841 37.8931 140.088 38.0601C141.222 39.0668 142.309 40.1069 143.382 41.1736C145.584 43.3835 147.642 45.7329 149.542 48.2072C150.876 49.9073 152.102 51.6474 153.256 53.4541C154.029 54.6675 154.749 55.9142 155.456 57.1676C156.549 59.0811 157.456 61.0811 158.383 63.0746C158.65 63.6317 158.964 64.1648 159.323 64.668C159.497 64.8737 159.694 65.0593 159.909 65.2213L161.296 63.4212C163.356 60.7545 165.103 57.861 167.01 55.0875C169.136 51.9874 171.237 48.8739 173.343 45.7538C177.29 39.9313 181.273 34.1355 185.291 28.3664C185.917 27.4597 186.517 26.5463 187.131 25.6262C187.343 25.3216 187.599 25.0498 187.891 24.8195C188.111 24.6401 188.375 24.5216 188.656 24.476C188.937 24.4304 189.225 24.4592 189.491 24.5595C191.07 25.0534 192.531 25.8657 193.784 26.9463C196.37 29.2016 198.209 32.1892 199.058 35.5133C199.505 37.0575 199.791 38.6438 199.911 40.2469C200.177 43.6125 199.843 46.9986 198.924 50.2473C197.973 53.8591 196.264 57.2271 193.911 60.1278C192.521 61.8616 190.826 63.3278 188.911 64.4546C187.757 65.1147 186.519 65.6148 185.23 65.9414C184.564 66.108 183.897 66.2214 183.097 66.3414C183.356 66.4964 183.649 66.5878 183.95 66.6081C184.597 66.6963 185.232 66.8551 185.844 67.0814C185.698 67.1489 185.534 67.1676 185.377 67.1347C184.297 67.0147 183.217 66.9947 182.137 66.9281C181.71 66.9281 181.29 67.0214 180.864 67.0214C177.237 67.0214 173.617 67.0214 169.99 67.0214C166.776 67.0214 163.556 67.0214 160.343 67.0214C159.846 67.0046 159.348 67.0314 158.856 67.1014C158.558 67.1514 158.254 67.1514 157.956 67.1014C157.179 67.0104 156.397 66.9792 155.616 67.0081C155.42 66.9901 155.224 67.0421 155.062 67.1547C154.97 67.2279 154.861 67.2786 154.746 67.3029C154.63 67.3271 154.51 67.3244 154.396 67.2948C154.356 67.0614 154.629 67.2148 154.609 67.0081H152.902C144.642 66.9481 136.382 67.1081 128.121 66.9081C124.121 66.8081 120.121 66.9081 116.121 66.8147C111.881 66.6881 107.634 66.8147 103.387 66.7147C99.32 66.5947 95.2532 66.6747 91.1863 66.6214C83.5993 66.5281 76.019 66.6214 68.432 66.4947C66.3519 66.4947 64.2785 66.4947 62.1984 66.4947C59.2849 66.4347 56.3715 66.4947 53.458 66.428C49.3378 66.3014 45.2176 66.428 41.0908 66.3347C37.7573 66.2547 34.4838 66.2947 31.177 66.2947C30.5422 66.3548 29.9024 66.2539 29.3169 66.0014C29.2145 65.9456 29.1044 65.9052 28.9902 65.8814ZM61.1983 53.0741C60.5056 53.0612 59.8174 53.189 59.1756 53.4498C58.5337 53.7106 57.9514 54.099 57.4639 54.5914C56.9765 55.0838 56.5941 55.67 56.3398 56.3145C56.0856 56.959 55.9648 57.6485 55.9848 58.341C55.9905 59.0283 56.1315 59.7077 56.3997 60.3405C56.668 60.9733 57.0583 61.5471 57.5483 62.029C58.0383 62.511 58.6184 62.8917 59.2556 63.1495C59.8927 63.4072 60.5744 63.5369 61.2617 63.5313C61.9489 63.5256 62.6284 63.3846 63.2612 63.1163C63.894 62.848 64.4677 62.4577 64.9497 61.9677C65.4316 61.4777 65.8123 60.8976 66.0701 60.2605C66.3279 59.6233 66.4576 58.9416 66.4519 58.2543C66.4602 57.5656 66.3294 56.8822 66.0674 56.2451C65.8054 55.608 65.4176 55.0303 64.9271 54.5467C64.4366 54.063 63.8535 53.6833 63.2128 53.4303C62.5721 53.1773 61.8869 53.0561 61.1983 53.0741Z" fill="#72FCA2"/>
<path d="M28.9905 65.8813C29.1046 65.9052 29.2147 65.9456 29.3171 66.0014C29.8985 66.2699 30.5384 66.3869 31.1772 66.3414C34.5107 66.3414 37.7908 66.3014 41.091 66.3814C45.2178 66.4747 49.338 66.3814 53.4582 66.4747C56.3717 66.568 59.2851 66.4747 62.1986 66.5414C64.2787 66.588 66.3521 66.5414 68.4322 66.5414C76.0192 66.6614 83.5995 66.5414 91.1865 66.668C95.2534 66.7214 99.3202 66.668 103.387 66.7614C107.634 66.8881 111.881 66.7614 116.121 66.8614C120.121 66.9814 124.121 66.8614 128.122 66.9547C136.382 67.1547 144.642 66.9947 152.903 67.0547H154.656C154.656 67.2614 154.403 67.1081 154.443 67.3414C154.557 67.371 154.677 67.3738 154.792 67.3495C154.908 67.3252 155.017 67.2745 155.109 67.2014C155.271 67.0887 155.467 67.0368 155.663 67.0547C156.444 67.0259 157.226 67.0571 158.003 67.1481C158.301 67.1981 158.605 67.1981 158.903 67.1481C159.395 67.0781 159.893 67.0513 160.39 67.0681C163.603 67.0681 166.823 67.0681 170.037 67.0681C173.664 67.0681 177.284 67.0681 180.911 67.0681C181.337 67.0681 181.757 66.9481 182.184 66.9747C183.264 67.0414 184.344 67.0614 185.424 67.1814C185.581 67.2143 185.745 67.1956 185.891 67.1281C186.636 67.2838 187.354 67.5465 188.024 67.9081C189.248 68.5121 190.389 69.2718 191.418 70.1682C193.951 72.3837 195.968 75.1284 197.325 78.2086C198.538 80.8518 199.354 83.6602 199.745 86.5423C199.985 88.3094 200.05 90.0959 199.938 91.8758C199.811 94.799 199.132 97.6717 197.938 100.343C197.107 102.191 195.93 103.863 194.471 105.27C193.126 106.59 191.508 107.6 189.731 108.23C189.53 108.299 189.325 108.354 189.118 108.397C188.819 108.471 188.505 108.446 188.223 108.326C187.94 108.205 187.704 107.996 187.551 107.73C187.57 107.428 187.483 107.129 187.304 106.885C187.124 106.641 186.865 106.468 186.571 106.396C186.555 106.394 186.54 106.385 186.529 106.373C186.519 106.361 186.512 106.346 186.511 106.33C184.311 103.107 182.111 99.8873 179.91 96.6694C177.501 93.1137 175.101 89.5757 172.71 86.0556C170.297 82.4888 167.87 78.9286 165.476 75.3484C163.97 73.095 162.51 70.8016 160.81 68.6815C160.516 68.3081 160.23 67.9281 159.916 67.5148C159.725 67.6099 159.577 67.7744 159.503 67.9748C159.043 69.3082 158.576 70.6416 158.136 72.0083C157.549 73.835 156.803 75.6084 156.069 77.3419C155.004 79.7602 153.788 82.1093 152.429 84.3755C152.057 85.0698 151.638 85.738 151.176 86.3756C150.561 86.6376 149.898 86.767 149.229 86.7556C149.069 86.7556 148.969 86.6556 148.962 86.4889C148.956 86.3223 148.962 85.9889 148.962 85.7422C148.961 85.0155 148.866 84.2919 148.682 83.5888C148.328 82.0386 147.526 80.6267 146.376 79.5286C145.705 78.896 144.916 78.402 144.054 78.075C143.192 77.7479 142.273 77.5942 141.352 77.6227C140.43 77.6512 139.523 77.8613 138.683 78.241C137.843 78.6207 137.086 79.1625 136.455 79.8353C135.515 80.8487 134.575 81.8354 133.655 82.8888C132.735 83.9422 131.688 84.8355 130.682 85.7822C129.782 86.6289 128.835 87.429 127.875 88.2223C126.801 89.109 125.728 90.0158 124.621 90.8891C123.041 92.0892 121.408 93.2226 119.768 94.3426C118.881 94.956 118.014 95.6027 117.101 96.1627C116.115 96.8206 115.095 97.428 114.048 97.9828C113.328 98.3161 112.607 98.6495 111.907 99.0495C111.395 99.3392 110.965 99.7567 110.662 100.261C110.358 100.766 110.19 101.341 110.174 101.93C110.105 102.08 110.069 102.244 110.069 102.41C110.069 102.575 110.105 102.739 110.174 102.89C110.126 103.016 110.111 103.153 110.129 103.287C110.148 103.421 110.2 103.548 110.281 103.656C110.591 104.258 111.103 104.73 111.727 104.99C112.627 105.31 113.548 105.596 114.468 105.836C115.928 106.216 117.401 106.503 118.881 106.796C119.754 106.95 120.621 107.13 121.501 107.243C122.381 107.357 123.388 107.543 124.341 107.637C125.224 107.777 126.115 107.866 127.008 107.903C127.222 107.889 127.435 107.931 127.628 108.023C127.575 108.237 127.715 108.417 127.708 108.617C126.448 109.35 125.148 109.997 123.841 110.617C121.671 111.666 119.446 112.597 117.174 113.403C114.606 114.317 111.983 115.07 109.321 115.657C107.781 115.997 106.241 116.324 104.694 116.597C103.44 116.804 102.174 116.95 100.9 117.064C98.9402 117.237 96.9801 117.384 95.0134 117.384C93.3133 117.384 91.6132 117.317 89.9132 117.197C86.4004 116.91 82.9104 116.391 79.466 115.644C75.6349 114.89 71.8795 113.792 68.2455 112.363C63.1689 110.322 58.3455 107.7 53.8716 104.55C52.4048 103.516 50.9981 102.416 49.598 101.303C47.9446 99.9695 46.3579 98.5828 44.8378 97.1227C41.9482 94.3936 39.3045 91.4153 36.9375 88.2223C36.2708 87.2956 35.5707 86.3623 34.9374 85.4022C34.8748 85.3378 34.839 85.252 34.8374 85.1622C34.9841 85.0955 35.1174 85.1622 35.2507 85.2155C36.2179 85.5673 37.2223 85.8067 38.2442 85.9289C39.2795 86.0189 40.3197 86.0389 41.3577 85.9889C41.7844 85.9889 42.2044 85.8489 42.6177 85.8556C43.3744 85.8024 44.127 85.7022 44.8712 85.5556C45.7985 85.4022 46.7158 85.1929 47.6179 84.9289C47.7235 84.9116 47.8251 84.8754 47.918 84.8222C48.1832 84.644 48.4872 84.532 48.8047 84.4955C49.1049 84.46 49.3975 84.3768 49.6714 84.2488C50.1847 83.9221 50.7914 83.8688 51.3314 83.5821C51.8715 83.2955 52.3248 83.1421 52.8315 82.9154C53.3382 82.6888 53.7715 82.4287 54.2516 82.2087C55.0183 81.8687 55.7116 81.382 56.4583 81.0087C57.205 80.6353 57.6851 80.182 58.3117 79.7953C58.7128 79.559 59.037 79.2117 59.2452 78.7953C59.4534 78.3789 59.5367 77.9112 59.4851 77.4485C59.4843 77.2373 59.4204 77.0312 59.3016 76.8566C59.1828 76.682 59.0145 76.5468 58.8184 76.4685C58.614 76.3813 58.3911 76.3467 58.1698 76.3676C57.9486 76.3886 57.7361 76.4645 57.5517 76.5885C57.0317 76.9218 56.6583 77.4085 56.1117 77.7285C55.3583 78.1686 54.6449 78.6952 53.9116 79.1686C53.1782 79.642 52.2448 80.142 51.3981 80.5887C51.1357 80.7655 50.851 80.9067 50.5514 81.0087C50.0936 81.1566 49.6478 81.3393 49.218 81.5554C48.5513 81.8421 47.8246 82.1554 47.1046 82.3821C46.1912 82.6688 45.2445 82.8288 44.3245 83.1088C43.5423 83.3193 42.7439 83.4642 41.9377 83.5421C40.8525 83.6822 39.7567 83.7223 38.6642 83.6621C37.1726 83.6173 35.7008 83.3081 34.3174 82.7488L32.9106 82.1487C32.2439 81.1087 31.6772 80.0353 31.1172 78.9486C30.0372 76.8485 29.1171 74.6884 28.1971 72.5083C28.0237 72.0816 27.8704 71.6483 27.7104 71.2149C27.5999 70.9138 27.5814 70.5866 27.6571 70.2749C27.9771 68.8415 28.3971 67.4281 28.8171 66.0214C28.8672 65.9659 28.9257 65.9186 28.9905 65.8813Z" fill="#1CFE67"/>
<path d="M110.121 101.91C110.137 101.321 110.305 100.746 110.609 100.241C110.912 99.7367 111.342 99.3192 111.855 99.0295C112.521 98.6495 113.275 98.2961 113.995 97.9628C115.042 97.408 116.062 96.8005 117.048 96.1427C117.981 95.5827 118.848 94.936 119.715 94.3226C121.355 93.2025 122.988 92.0692 124.568 90.8691C125.675 90.0224 126.749 89.1157 127.822 88.2023C128.782 87.409 129.729 86.6089 130.629 85.7622C131.635 84.8155 132.669 83.9021 133.602 82.8688C134.536 81.8354 135.462 80.8287 136.402 79.8153C137.033 79.1425 137.79 78.6007 138.63 78.221C139.47 77.8413 140.377 77.6312 141.299 77.6027C142.22 77.5742 143.139 77.7279 144.001 78.055C144.863 78.382 145.652 78.876 146.323 79.5086C147.473 80.6067 148.275 82.0186 148.629 83.5688C148.813 84.2719 148.908 84.9955 148.909 85.7222C148.909 85.9689 148.909 86.2156 148.909 86.4689C148.909 86.7223 149.016 86.7623 149.176 86.7356C149.845 86.747 150.508 86.6175 151.123 86.3556C151.17 86.5089 151.29 86.5156 151.416 86.5089C152.651 86.4582 153.886 86.6136 155.07 86.9689C156.347 87.3845 157.543 88.0184 158.603 88.8424C158.685 88.9119 158.759 88.9901 158.823 89.0757C158.837 89.1311 158.869 89.1804 158.914 89.2164C158.958 89.2524 159.013 89.2732 159.07 89.2757C159.08 89.3181 159.104 89.3561 159.138 89.3837C159.171 89.4114 159.213 89.4273 159.257 89.429C159.258 89.4724 159.275 89.5137 159.304 89.5456C159.334 89.5774 159.374 89.5976 159.417 89.6024C159.417 89.7824 159.537 89.8491 159.697 89.8691C159.701 89.9241 159.725 89.9758 159.764 90.0149C159.803 90.0539 159.855 90.0779 159.91 90.0824C159.914 90.1249 159.932 90.165 159.96 90.1963C159.989 90.2277 160.028 90.2486 160.07 90.2558C160.074 90.2854 160.089 90.3127 160.11 90.3332C160.132 90.3538 160.16 90.3664 160.19 90.3691C160.023 90.6891 159.703 90.6824 159.417 90.7224C159.223 90.7214 159.032 90.7623 158.857 90.8424C158.574 90.8559 158.293 90.8938 158.017 90.9558C157.663 91.0691 157.283 91.0425 156.95 91.1625C156.619 91.2874 156.278 91.3812 155.93 91.4425C155.37 91.5225 154.843 91.7291 154.296 91.8358C153.883 91.9158 153.49 92.0625 153.07 92.1225C152.633 92.2389 152.187 92.317 151.736 92.3558C151.63 92.3684 151.53 92.4125 151.45 92.4825C151.272 92.6056 151.058 92.6644 150.843 92.6492C150.558 92.6405 150.275 92.6975 150.016 92.8159C149.888 92.8752 149.754 92.9199 149.616 92.9492C148.634 93.0701 147.663 93.2754 146.716 93.5626C145.456 93.8759 144.169 94.1293 142.909 94.4693C142.063 94.6959 141.182 94.7893 140.329 95.036C140.092 95.151 139.841 95.2361 139.582 95.2893C139.009 95.2893 138.482 95.556 137.916 95.596C137.089 95.6627 136.322 96.016 135.509 96.156C134.596 96.316 133.695 96.5694 132.782 96.7494C132.402 96.8227 132.022 96.916 131.662 97.0094C131.302 97.1027 130.942 97.1561 130.609 97.2761C130.275 97.3961 129.835 97.3761 129.475 97.5094C128.975 97.6674 128.462 97.7834 127.942 97.8561C127.482 98.0451 126.992 98.1468 126.495 98.1561C126.448 98.1561 126.382 98.2228 126.322 98.2694C126.241 98.3377 126.141 98.3796 126.035 98.3894C125.245 98.4819 124.464 98.6425 123.702 98.8695C123.255 98.9828 122.788 98.9895 122.368 99.1295C121.948 99.2695 121.375 99.3628 120.888 99.5228C120.586 99.6637 120.261 99.7495 119.928 99.7762C119.435 99.7762 118.981 100.116 118.468 99.9562C118.468 99.9562 118.368 99.9562 118.328 100.01C117.879 100.254 117.379 100.386 116.868 100.396C116.375 100.456 115.975 100.87 115.448 100.69H115.401C115.284 100.824 115.131 100.923 114.96 100.973C114.788 101.024 114.606 101.025 114.435 100.976C114.381 100.976 114.301 101.016 114.235 101.036C113.695 101.117 113.165 101.256 112.655 101.45C112.587 101.47 112.515 101.47 112.448 101.45C112.165 101.461 111.884 101.499 111.608 101.563C111.122 101.717 110.625 101.832 110.121 101.91Z" fill="#01E45A"/>
<path d="M7.05613 64.528C10.1082 64.5145 13.1514 64.8591 16.1232 65.5547C17.9185 65.9412 19.6618 66.5387 21.3168 67.3347C22.1252 67.7112 22.8574 68.2333 23.4769 68.8748C23.6553 69.0412 23.7822 69.2552 23.8425 69.4916C23.9028 69.728 23.8939 69.9767 23.8169 70.2082C23.7604 70.3965 23.649 70.5637 23.4969 70.6882C23.0374 71.0479 22.5152 71.3192 21.9568 71.4883C20.5209 71.828 19.057 72.0356 17.5833 72.1083C16.3445 72.1661 15.1032 72.1305 13.8698 72.0016C11.9724 71.8676 10.0874 71.5957 8.22951 71.1883C6.0489 70.7887 3.94223 70.058 1.98257 69.0215C1.41019 68.6927 0.890941 68.2791 0.442498 67.7948C0.290278 67.6743 0.170539 67.5177 0.094136 67.3392C0.0177326 67.1607 -0.0129201 66.9659 0.00495622 66.7726C0.0228325 66.5793 0.0886726 66.3935 0.196509 66.232C0.304345 66.0706 0.450768 65.9386 0.622506 65.848C1.27192 65.4079 2.00492 65.1061 2.77594 64.9613C4.18258 64.6611 5.61786 64.5158 7.05613 64.528Z" fill="#96FB88"/>
<path d="M21.8166 57.0343C21.5259 57.0778 21.2288 57.0337 20.9632 56.9077C18.914 56.3085 16.985 55.3564 15.263 54.0942C13.8022 53.0928 12.4224 51.9782 11.1361 50.7607C9.60723 49.3832 8.30061 47.7775 7.26263 46.0005C6.96372 45.4228 6.75678 44.802 6.64927 44.1604C6.59454 43.9837 6.58313 43.7964 6.61602 43.6143C6.6489 43.4322 6.72511 43.2607 6.83821 43.1143C6.9513 42.9678 7.09797 42.8507 7.26583 42.7729C7.43369 42.6951 7.61781 42.6587 7.80265 42.667C8.60297 42.6403 9.40004 42.7811 10.1428 43.0804C12.2892 43.9367 14.2975 45.1048 16.103 46.5472C18.19 48.1105 20.0598 49.9444 21.6633 52.0008C22.3581 52.856 22.8934 53.8293 23.2433 54.8742C23.3033 55.0809 23.35 55.2876 23.3967 55.4943C23.4456 55.6801 23.4504 55.8748 23.4108 56.0628C23.3711 56.2508 23.2881 56.427 23.1683 56.5772C23.0485 56.7275 22.8952 56.8477 22.7207 56.9282C22.5462 57.0087 22.3554 57.0473 22.1633 57.041L21.8166 57.0343Z" fill="#96FB89"/>
<path d="M8.86261 94.3359C8.5626 94.3026 8.25592 94.2893 7.96257 94.2359C7.78671 94.2314 7.61442 94.1852 7.45984 94.1013C7.30525 94.0173 7.17277 93.8979 7.07324 93.7528C6.97371 93.6077 6.90998 93.4412 6.88725 93.2667C6.86453 93.0923 6.88348 92.9149 6.94253 92.7492C7.14739 91.9569 7.52792 91.221 8.05591 90.5958C9.62741 88.6884 11.4986 87.0491 13.5962 85.7422C15.3291 84.5902 17.1964 83.6543 19.1564 82.9554C20.1811 82.5461 21.2807 82.3576 22.3832 82.4021C22.6088 82.412 22.8325 82.4478 23.0499 82.5087C23.3347 82.5801 23.5809 82.7585 23.7374 83.0069C23.8939 83.2553 23.9485 83.5545 23.8899 83.8421C23.8267 84.2794 23.6747 84.6991 23.4433 85.0755C22.2974 86.7919 20.8601 88.2946 19.1964 89.5157C17.8743 90.5342 16.4719 91.4439 15.0029 92.2358C13.3463 93.1897 11.5446 93.8653 9.66931 94.2359C9.40286 94.2867 9.13339 94.3201 8.86261 94.3359Z" fill="#96FB89"/>
<path d="M158.856 90.8358C159.032 90.7557 159.223 90.7147 159.416 90.7158C159.703 90.6758 160.023 90.7158 160.19 90.3624C160.664 90.8136 161.062 91.3381 161.37 91.9158C162.03 92.9913 162.468 94.1883 162.656 95.436C162.872 96.9733 162.64 98.5401 161.99 99.9495C161.062 101.885 159.5 103.445 157.563 104.37C154.9 105.716 152.047 106.649 149.103 107.137C147.102 107.517 145.056 107.803 143.009 107.983C141.862 108.083 140.716 108.143 139.562 108.177C137.449 108.237 135.342 108.177 133.229 108.21C132.148 108.21 131.062 108.21 129.982 108.143C129.502 108.143 129.028 108.057 128.548 108.077C128.222 107.981 127.878 107.958 127.542 108.01C127.349 107.917 127.135 107.876 126.922 107.89C126.028 107.852 125.138 107.763 124.255 107.623C123.301 107.53 122.361 107.357 121.415 107.23C120.468 107.103 119.668 106.936 118.795 106.783C117.314 106.51 115.841 106.203 114.381 105.823C113.461 105.583 112.541 105.296 111.641 104.976C111.016 104.717 110.504 104.244 110.194 103.643C110.114 103.534 110.061 103.407 110.043 103.273C110.024 103.139 110.04 103.003 110.087 102.876C110.247 102.891 110.4 102.943 110.534 103.03C110.996 103.325 111.5 103.549 112.028 103.696C112.834 103.83 113.534 104.33 114.368 104.33C114.439 104.334 114.508 104.357 114.568 104.396C114.799 104.53 115.056 104.612 115.321 104.636C115.803 104.811 116.309 104.908 116.821 104.923C116.91 104.93 116.995 104.959 117.068 105.01C117.533 105.23 118.035 105.366 118.548 105.41C119.263 105.508 119.973 105.644 120.675 105.816C121.475 106.023 122.288 105.95 123.088 106.156C123.888 106.363 124.568 106.283 125.295 106.43C126.292 106.585 127.299 106.674 128.308 106.696C129.278 106.804 130.253 106.849 131.228 106.83C131.297 106.823 131.366 106.823 131.435 106.83C132.475 107.017 133.522 106.923 134.562 107.01C135.607 107.071 136.654 107.049 137.695 106.943C138.362 106.89 139.029 106.85 139.655 106.783C140.449 106.696 141.242 106.67 142.036 106.63C143.049 106.583 144.036 106.376 145.042 106.31C145.714 106.243 146.382 106.138 147.042 105.996C147.916 105.843 148.783 105.683 149.649 105.496C150.516 105.31 151.329 105.076 152.163 104.83C153.476 104.473 154.76 104.016 156.003 103.463C157.288 102.962 158.48 102.25 159.53 101.356C159.929 101.007 160.265 100.592 160.523 100.13C160.65 99.8762 160.716 99.5962 160.83 99.3362C160.942 99.1525 160.977 98.9325 160.93 98.7228C160.85 98.4895 160.93 98.3294 161.183 98.3028C161.232 98.3006 161.279 98.2881 161.323 98.2662C161.367 98.2443 161.405 98.2135 161.436 98.1758C161.467 98.138 161.489 98.0942 161.502 98.0471C161.515 98.0001 161.517 97.9509 161.51 97.9028C161.595 96.8603 161.484 95.8111 161.183 94.8093C160.793 93.7071 160.208 92.6841 159.456 91.7892C159.155 91.5474 158.944 91.2117 158.856 90.8358Z" fill="#28CC50"/>
<path d="M32.9775 82.1887L34.3843 82.7888C35.7677 83.3481 37.2395 83.6573 38.7311 83.7021C39.8237 83.7623 40.9194 83.7222 42.0046 83.5821C42.8109 83.5042 43.6092 83.3593 44.3914 83.1488C45.3114 82.8688 46.2581 82.7088 47.1715 82.4221C47.8915 82.1954 48.5849 81.8821 49.2849 81.5954C49.7148 81.3793 50.1605 81.1966 50.6183 81.0487C50.9179 80.9467 51.2026 80.8055 51.465 80.6287C52.3117 80.182 53.1651 79.742 53.9785 79.2086C54.7918 78.6752 55.4252 78.2086 56.1786 77.7685C56.7253 77.4485 57.0986 76.9618 57.6186 76.6285C57.803 76.5045 58.0155 76.4286 58.2368 76.4076C58.458 76.3867 58.6809 76.4214 58.8854 76.5085C59.0815 76.5868 59.2497 76.722 59.3685 76.8966C59.4873 77.0712 59.5512 77.2773 59.552 77.4885C59.6036 77.9512 59.5203 78.4189 59.3121 78.8353C59.1039 79.2517 58.7797 79.599 58.3787 79.8353C57.752 80.222 57.1919 80.7153 56.5252 81.0487C55.8586 81.382 55.0852 81.9087 54.3185 82.2487C53.8385 82.4688 53.3918 82.7621 52.8984 82.9554C52.4051 83.1488 51.8784 83.3555 51.3984 83.6221C50.9183 83.8888 50.2516 83.9488 49.7383 84.2888C49.4644 84.4168 49.1718 84.5 48.8716 84.5355C48.5542 84.572 48.2501 84.684 47.9849 84.8622C47.8921 84.9154 47.7904 84.9516 47.6849 84.9689C46.7827 85.2329 45.8655 85.4422 44.9381 85.5956C44.1939 85.7422 43.4413 85.8424 42.6846 85.8956C42.2713 85.8956 41.8513 86.0022 41.4246 86.0289C40.3866 86.0789 39.3464 86.0588 38.3111 85.9689C37.2892 85.8467 36.2848 85.6073 35.3176 85.2555C35.1843 85.2155 35.051 85.1355 34.9043 85.2022C34.4624 84.6571 34.0718 84.0724 33.7376 83.4555C33.4227 83.0733 33.1665 82.6464 32.9775 82.1887Z" fill="white"/>
<path d="M127.548 108.003C127.885 107.952 128.228 107.975 128.555 108.07C128.283 108.303 127.968 108.482 127.628 108.597C127.635 108.403 127.495 108.223 127.548 108.003Z" fill="#64D797"/>
<path d="M159.703 89.8691C159.543 89.8691 159.43 89.7824 159.423 89.6024C159.485 89.626 159.542 89.6618 159.59 89.7076C159.638 89.7534 159.676 89.8083 159.703 89.8691Z" fill="#28CC50"/>
<path d="M159.103 89.3357C159.046 89.3332 158.991 89.3125 158.947 89.2764C158.902 89.2404 158.871 89.1911 158.856 89.1357C158.914 89.1359 158.97 89.1559 159.015 89.1923C159.06 89.2286 159.091 89.2793 159.103 89.3357Z" fill="#28CC50"/>
<path d="M159.91 90.0824C159.855 90.0779 159.803 90.0539 159.764 90.0149C159.725 89.9758 159.701 89.9241 159.696 89.8691C159.745 89.8867 159.79 89.915 159.827 89.9518C159.864 89.9887 159.892 90.0333 159.91 90.0824Z" fill="#28CC50"/>
<path d="M159.276 89.4423C159.232 89.4406 159.191 89.4247 159.157 89.397C159.123 89.3694 159.099 89.3314 159.089 89.289C159.132 89.2936 159.172 89.3105 159.206 89.3378C159.239 89.365 159.263 89.4014 159.276 89.4423Z" fill="#28CC50"/>
<path d="M159.436 89.6158C159.393 89.611 159.353 89.5908 159.324 89.5589C159.295 89.5271 159.278 89.4857 159.276 89.4424C159.315 89.4556 159.35 89.4784 159.378 89.5087C159.406 89.539 159.426 89.5758 159.436 89.6158Z" fill="#28CC50"/>
<path d="M160.07 90.2558C160.028 90.2486 159.989 90.2277 159.96 90.1963C159.931 90.165 159.913 90.1249 159.91 90.0824C159.949 90.0945 159.985 90.1169 160.013 90.1474C160.041 90.1779 160.061 90.2153 160.07 90.2558Z" fill="#28CC50"/>
<path d="M160.176 90.3624C160.146 90.3597 160.118 90.3471 160.097 90.3266C160.075 90.306 160.061 90.2787 160.056 90.2491C160.086 90.2528 160.113 90.2658 160.135 90.2862C160.156 90.3066 160.171 90.3333 160.176 90.3624Z" fill="#28CC50"/>
<path d="M61.1981 53.0741C61.8977 53.0454 62.5958 53.1579 63.251 53.4048C63.9061 53.6518 64.5048 54.0281 65.0113 54.5115C65.5179 54.9948 65.9219 55.5753 66.1992 56.2181C66.4765 56.861 66.6215 57.5531 66.6256 58.2533C66.6296 58.9534 66.4926 59.6472 66.2227 60.2932C65.9527 60.9392 65.5555 61.5243 65.0545 62.0134C64.5536 62.5026 63.9593 62.8858 63.307 63.1403C62.6548 63.3948 61.958 63.5153 61.2581 63.4946C60.5725 63.5061 59.8914 63.3815 59.2543 63.128C58.6171 62.8746 58.0365 62.4973 57.5461 62.0181C57.0557 61.5388 56.6652 60.9671 56.3971 60.3359C56.1291 59.7048 55.9889 59.0267 55.9845 58.341C55.9646 57.6485 56.0854 56.959 56.3396 56.3145C56.5939 55.67 56.9763 55.0838 57.4637 54.5914C57.9511 54.099 58.5334 53.7106 59.1753 53.4498C59.8172 53.189 60.5054 53.0612 61.1981 53.0741Z" fill="white"/>
<path d="M158.856 90.8358C158.945 91.2127 159.159 91.5484 159.462 91.7892C160.215 92.6841 160.8 93.7072 161.189 94.8093C161.49 95.8111 161.601 96.8603 161.516 97.9028C161.523 97.9509 161.521 98.0001 161.508 98.0472C161.495 98.0942 161.473 98.138 161.442 98.1758C161.411 98.2135 161.373 98.2443 161.329 98.2662C161.286 98.2881 161.238 98.3006 161.189 98.3028C160.943 98.3028 160.856 98.4895 160.936 98.7228C160.984 98.9325 160.948 99.1525 160.836 99.3362C160.722 99.5962 160.656 99.8762 160.529 100.13C160.271 100.592 159.935 101.007 159.536 101.356C158.486 102.25 157.294 102.962 156.009 103.463C154.766 104.016 153.482 104.473 152.169 104.83C151.335 105.076 150.502 105.316 149.655 105.496C148.809 105.676 147.922 105.843 147.049 105.996C146.388 106.138 145.72 106.243 145.048 106.31C144.042 106.377 143.048 106.583 142.042 106.63C141.248 106.67 140.455 106.697 139.662 106.783C138.995 106.85 138.328 106.89 137.701 106.943C136.66 107.049 135.613 107.071 134.568 107.01C133.528 106.923 132.481 107.01 131.441 106.83C131.372 106.823 131.303 106.823 131.235 106.83C130.259 106.849 129.284 106.804 128.314 106.697C127.305 106.674 126.298 106.585 125.301 106.43C124.574 106.283 123.801 106.343 123.094 106.156C122.387 105.97 121.481 106.023 120.681 105.816C119.979 105.644 119.27 105.508 118.554 105.41C118.041 105.366 117.54 105.23 117.074 105.01C117.001 104.96 116.916 104.93 116.827 104.923C116.315 104.908 115.809 104.811 115.327 104.636C115.062 104.612 114.805 104.53 114.574 104.396C114.514 104.357 114.445 104.334 114.374 104.33C113.54 104.33 112.84 103.83 112.034 103.696C111.506 103.549 111.002 103.325 110.54 103.03C110.406 102.943 110.253 102.891 110.094 102.876C110.024 102.726 109.988 102.562 109.988 102.396C109.988 102.231 110.024 102.067 110.094 101.916C110.585 101.848 111.071 101.744 111.547 101.603C111.823 101.539 112.104 101.501 112.387 101.49C112.454 101.51 112.526 101.51 112.594 101.49C113.104 101.296 113.634 101.157 114.174 101.076C114.24 101.076 114.32 100.996 114.374 101.016C114.546 101.065 114.728 101.064 114.899 101.014C115.07 100.963 115.223 100.864 115.34 100.73H115.387C115.914 100.91 116.314 100.496 116.807 100.436C117.318 100.426 117.819 100.294 118.267 100.05C118.307 100.05 118.374 99.9829 118.407 99.9962C118.921 100.156 119.374 99.8029 119.867 99.8162C120.2 99.7895 120.525 99.7037 120.827 99.5629C121.314 99.4029 121.821 99.3229 122.307 99.1695C122.794 99.0162 123.208 99.0228 123.641 98.9095C124.403 98.6825 125.184 98.5219 125.974 98.4295C126.08 98.4196 126.18 98.3778 126.261 98.3095C126.321 98.2628 126.388 98.1895 126.434 98.1961C126.931 98.1868 127.422 98.0851 127.881 97.8961C128.401 97.8234 128.914 97.7075 129.414 97.5495C129.774 97.4161 130.174 97.4628 130.548 97.3161C130.921 97.1694 131.255 97.1361 131.601 97.0494C131.948 96.9628 132.341 96.8627 132.721 96.7894C133.635 96.6094 134.535 96.3561 135.448 96.196C136.261 96.056 137.028 95.7027 137.855 95.636C138.422 95.596 138.948 95.3427 139.522 95.3294C139.78 95.2761 140.031 95.191 140.268 95.076C141.122 94.8293 142.002 94.736 142.848 94.5093C144.108 94.1693 145.395 93.9159 146.655 93.6026C147.603 93.3154 148.573 93.1102 149.555 92.9892C149.693 92.9599 149.827 92.9152 149.955 92.8559C150.214 92.7376 150.497 92.6805 150.782 92.6892C150.997 92.7045 151.211 92.6457 151.389 92.5226C151.469 92.4526 151.569 92.4084 151.675 92.3959C152.126 92.3571 152.572 92.279 153.009 92.1625C153.429 92.1025 153.822 91.9559 154.236 91.8759C154.782 91.7692 155.309 91.5625 155.869 91.4825C156.217 91.4212 156.558 91.3275 156.889 91.2025C157.222 91.0825 157.602 91.1092 157.956 90.9958C158.25 90.9146 158.551 90.861 158.856 90.8358Z" fill="#16D44C"/>
</svg>
