<svg width="200" height="129" viewBox="0 0 200 129" fill="none" xmlns="http://www.w3.org/2000/svg">
<path d="M19.4277 74.3197C19.7543 73.0534 20.1875 71.8205 20.634 70.5942C21.0806 69.3679 21.5004 68.3215 21.967 67.2019C22.7134 65.4357 23.5665 63.7229 24.4662 62.0301C25.8135 59.5425 27.3206 57.1448 28.9782 54.8523C29.698 53.8326 30.4711 52.8529 31.2775 51.8798C32.0839 50.9068 32.7904 50.0204 33.5901 49.1273C34.8497 47.7078 36.1827 46.3548 37.5489 45.0352C38.9152 43.7156 40.2148 42.5093 41.6477 41.3297C43.7669 39.562 45.9926 37.926 48.3124 36.4312C50.6467 34.9237 53.0704 33.5594 55.5702 32.3457C58.3666 30.9974 61.2633 29.8677 64.2342 28.9667C67.1 28.087 69.9991 27.2939 72.9383 26.6808C74.6977 26.3209 76.4772 26.0143 78.27 25.7877C79.6696 25.6144 81.0825 25.5411 82.482 25.3945C84.2415 25.2079 85.9943 25.2879 87.7471 25.2479C88.6935 25.2479 89.6399 25.3212 90.5863 25.3478C91.426 25.3478 92.2591 25.4478 93.0922 25.5478C93.262 25.5556 93.4314 25.5256 93.5881 25.4599C93.7449 25.3942 93.8851 25.2944 93.9986 25.1679C94.2385 24.9546 94.4584 24.7147 94.665 24.5014C98.569 20.6274 102.9 17.2088 107.574 14.3112C110.734 12.3359 114.036 10.5961 117.451 9.10607C121.215 7.43791 125.145 6.17345 129.175 5.33388C130.508 5.06729 131.84 4.84736 133.173 4.66741C134.981 4.43118 136.803 4.33093 138.625 4.3675C141.02 4.40571 143.397 4.78956 145.683 5.50716C147.958 6.18523 150.023 7.43318 151.681 9.13273C152.366 9.8495 153.003 10.6109 153.587 11.412C154.017 12.0124 154.383 12.6557 154.68 13.3315C155.31 14.6186 155.759 15.9867 156.013 17.3969C156.358 19.5258 156.114 21.7085 155.307 23.7083C154.586 25.4524 153.463 27.0017 152.031 28.2304C150.598 29.4591 148.896 30.3324 147.063 30.7795C145.244 31.264 143.343 31.3616 141.484 31.0661C141.395 31.0594 141.306 31.0594 141.218 31.0661C141.218 31.2794 141.398 31.2994 141.504 31.366C143.187 32.4303 144.623 33.8413 145.716 35.5048C146.418 36.5288 146.875 37.7011 147.049 38.9304C147.205 39.7535 147.149 40.6025 146.888 41.3983C146.627 42.1942 146.169 42.9111 145.556 43.4824C144.718 44.2187 143.687 44.6997 142.584 44.8686C140.544 45.183 138.456 44.8764 136.592 43.9889L136.106 43.7689C136.046 43.9489 136.186 43.9955 136.266 44.0555C137.825 45.3485 139.258 46.788 140.691 48.2143C145.259 52.848 149.223 58.041 152.488 63.6696C153.821 65.9689 154.973 68.3349 156.073 70.7608C156.36 71.3777 156.685 71.9765 157.046 72.5536C157.085 72.6347 157.139 72.7073 157.206 72.7669C157.779 73.2667 157.613 73.3134 158.073 72.7069C159.159 71.2873 160.259 69.8744 161.258 68.3882C162.844 66.0222 164.411 63.6496 166.003 61.2903C169.056 56.785 172.113 52.2864 175.174 47.7944C177.947 43.7356 180.752 39.6902 183.538 35.6381C184.533 34.1896 185.52 32.7412 186.497 31.2927C186.745 30.9185 187.076 30.6062 187.464 30.3797C187.686 30.2595 187.931 30.1889 188.183 30.1728C188.435 30.1567 188.688 30.1954 188.923 30.2863C190.585 30.81 192.123 31.6673 193.442 32.8056C196.119 35.139 198.035 38.2222 198.94 41.6562C199.399 43.2128 199.7 44.8115 199.84 46.4281C199.92 47.3745 200.007 48.3142 200 49.2673C199.988 52.0728 199.586 54.863 198.807 57.5581C198.032 60.3091 196.862 62.9334 195.335 65.3491C193.581 68.1965 191.172 70.5842 188.31 72.3137C187.068 73.0499 185.719 73.5895 184.311 73.9132C183.751 74.0398 183.192 74.1531 182.632 74.2397C182.505 74.2397 182.379 74.2397 182.299 74.393C182.541 74.507 182.804 74.5727 183.072 74.5863C183.426 74.6038 183.774 74.6946 184.091 74.8529C183.951 75.0062 183.758 74.9595 183.585 74.9662C179 75.0328 174.408 74.9662 169.816 75.0528C165.224 75.1395 160.812 75.0528 156.313 75.0528C155.812 75.0262 155.309 75.0531 154.814 75.1328C154.512 75.1961 154.202 75.1961 153.9 75.1328C153.513 75.0664 153.12 75.0396 152.728 75.0528C151.455 75.0528 150.175 75.0528 148.902 75.0528C141.284 74.9929 133.66 75.1995 126.042 74.9329C125.456 74.9329 124.869 74.9329 124.289 74.9329C120.431 74.8729 116.578 74.9795 112.726 74.8529C107.941 74.6929 103.149 74.8995 98.3639 74.7396C95.1915 74.6396 92.0125 74.7396 88.8401 74.7396C84.9146 74.6996 80.9892 74.7796 77.0637 74.673C74.0735 74.593 71.081 74.5463 68.0864 74.533C60.3754 74.4797 52.6644 74.533 44.9534 74.4597C36.9025 74.3797 28.8516 74.2531 20.794 74.3131L19.4277 74.3197ZM59.0758 65.9023C59.0837 64.8088 58.7661 63.7377 58.1636 62.8252C57.561 61.9127 56.7006 61.2001 55.6919 60.778C54.6831 60.3558 53.5716 60.2433 52.4987 60.4547C51.4259 60.6661 50.4401 61.1919 49.6669 61.9651C48.8937 62.7383 48.3679 63.724 48.1565 64.7969C47.9452 65.8698 48.0577 66.9813 48.4798 67.99C48.9019 68.9988 49.6145 69.8592 50.527 70.4617C51.4395 71.0643 52.5106 71.3818 53.6041 71.3739C54.3244 71.3802 55.0387 71.2429 55.7053 70.9701C56.372 70.6973 56.9777 70.2945 57.487 69.7852C57.9964 69.2759 58.3992 68.6702 58.6719 68.0035C58.9447 67.3369 59.082 66.6225 59.0758 65.9023Z" fill="#7BD0ED"/>
<path d="M19.4271 74.3197H20.7601C28.8176 74.2597 36.8685 74.3864 44.9194 74.4663C52.6304 74.5397 60.3414 74.4663 68.0525 74.5397C71.0427 74.5397 74.0351 74.5863 77.0297 74.6796C80.9552 74.7862 84.8807 74.6796 88.8062 74.7463C91.9786 74.7463 95.1576 74.6729 98.33 74.7463C103.115 74.9062 107.907 74.6996 112.692 74.8596C116.544 74.9862 120.397 74.8596 124.256 74.9395C124.835 74.9395 125.422 74.9395 126.008 74.9395C133.626 75.2061 141.25 74.9995 148.868 75.0595C150.141 75.0595 151.421 75.0595 152.694 75.0595C153.086 75.0463 153.479 75.0731 153.867 75.1395C154.168 75.2028 154.479 75.2028 154.78 75.1395C155.275 75.0597 155.778 75.0329 156.279 75.0595C160.778 75.0595 165.283 75.1461 169.782 75.0595C174.28 74.9729 178.966 75.0595 183.551 74.9729C183.724 74.9729 183.917 75.0128 184.057 74.8596C184.7 74.9269 185.33 75.0909 185.924 75.3461C187.789 76.0423 189.509 77.0796 190.995 78.4052C193.382 80.5069 195.324 83.0653 196.707 85.9295C198.213 88.943 199.214 92.1827 199.673 95.52C200.405 100.353 199.801 105.294 197.927 109.809C196.957 112.072 195.509 114.098 193.681 115.747C192.294 117.003 190.656 117.951 188.876 118.526C188.525 118.665 188.139 118.688 187.774 118.593C187.409 118.499 187.083 118.291 186.843 118C186.243 117.308 185.708 116.563 185.244 115.774C184.791 115.047 184.291 114.354 183.804 113.648C181.645 110.502 179.459 107.376 177.313 104.231C173.945 99.2855 170.595 94.3337 167.263 89.3752C165.136 86.2295 163.037 83.0704 160.918 79.9247C159.931 78.4518 158.838 77.0589 157.759 75.6527C157.759 75.6527 157.699 75.6527 157.639 75.586C157.464 75.699 157.327 75.8614 157.246 76.0525C156.892 77.1789 156.446 78.2719 156.106 79.3849C155.318 81.917 154.365 84.3949 153.253 86.8026C152.089 89.3463 150.767 91.8148 149.295 94.1937C149.062 94.6158 148.804 95.0231 148.521 95.4134C148.428 95.4733 148.348 95.5666 148.255 95.5866C147.675 95.6999 147.095 95.8132 146.509 95.8999C146.249 95.9332 146.089 95.7599 146.069 95.4733C146.049 95.1868 146.069 95.0468 146.069 94.8069C146.097 93.9265 145.987 93.0471 145.742 92.201C144.883 89.2619 143.15 87.1758 140.091 86.3761C139.06 86.1255 137.987 86.1005 136.945 86.3028C135.19 86.6113 133.613 87.5616 132.52 88.9686C131.58 90.1416 130.46 91.1546 129.481 92.301C128.681 93.2207 127.721 93.9871 126.815 94.8269C126.335 95.2801 125.862 95.7533 125.349 96.1598C124.229 97.0529 123.149 97.9926 122.016 98.8923C120.75 99.912 119.444 100.892 118.124 101.831C116.804 102.771 115.458 103.711 114.125 104.624C112.546 105.77 110.881 106.795 109.147 107.69C108.48 107.99 107.907 108.356 107.274 108.629C106.541 108.936 105.947 109.503 105.608 110.222C105.35 110.735 105.187 111.291 105.128 111.862C105.128 112.115 105.128 112.362 105.095 112.615C105.083 113.192 105.282 113.753 105.654 114.194C106.038 114.671 106.563 115.014 107.154 115.174C108.34 115.574 109.547 115.894 110.76 116.207C112.199 116.574 113.652 116.874 115.118 117.1C116.998 117.407 118.87 117.767 120.777 117.92C121.863 118.013 122.936 118.226 124.022 118.22C124.209 118.22 124.389 118.22 124.489 118.42C123.589 118.986 122.636 119.446 121.703 119.939C120.057 120.806 118.371 121.585 116.658 122.319C114.945 123.052 113.172 123.718 111.393 124.318C108.98 125.17 106.521 125.886 104.028 126.464C102.189 126.884 100.336 127.27 98.4566 127.51C96.9371 127.704 95.4109 127.844 93.8847 127.99C92.3585 128.137 91.0255 128.177 89.5926 128.203C88.6662 128.203 87.7332 128.203 86.8001 128.163C85.5538 128.13 84.3076 128.044 83.0613 127.937C81.1552 127.777 79.2624 127.524 77.3763 127.217C75.6302 126.931 73.8907 126.584 72.1646 126.217C68.4616 125.46 64.8296 124.39 61.3078 123.018C59.4773 122.285 57.6756 121.485 55.9028 120.619C52.9424 119.167 50.0835 117.517 47.3454 115.681C45.5126 114.468 43.7531 113.148 42.0137 111.782C40.2742 110.415 38.508 108.876 36.8419 107.33C35.7889 106.357 34.7958 105.33 33.7895 104.304C32.1566 102.624 30.6148 100.857 29.1709 99.0123C27.7225 97.1804 26.3678 95.2763 25.1121 93.3073C24.4456 92.2743 23.8458 91.2279 23.246 90.1616C23.1903 90.0514 23.1414 89.9379 23.0994 89.8217C23.8458 89.7884 24.5989 89.7284 25.3453 89.7151C27.8579 89.6551 30.3638 89.6818 32.8764 89.6151C36.2087 89.5285 39.5077 89.5151 42.8267 89.4751C44.2596 89.4751 45.6925 89.4751 47.1254 89.3685C47.5535 89.3444 47.9768 89.266 48.3851 89.1353C48.6343 89.0844 48.861 88.9557 49.0323 88.7676C49.2036 88.5795 49.3107 88.3418 49.3381 88.0889C49.3453 87.8351 49.2761 87.5851 49.1394 87.3712C49.0028 87.1573 48.805 86.9894 48.5717 86.8893C48.4926 86.8469 48.4101 86.8113 48.3251 86.7826C47.8099 86.5917 47.2526 86.5433 46.7122 86.6427C46.5205 86.6758 46.3268 86.6959 46.1324 86.7026C44.7528 86.736 43.3732 86.736 41.9937 86.796C40.3608 86.8626 38.728 86.8559 37.1018 86.9092C34.7159 86.9892 32.3299 87.0159 29.9506 87.0625H28.6177L21.7398 87.2292C21.3701 86.6442 21.0555 86.0262 20.8001 85.383C20.2136 84.1034 19.6737 82.8038 19.0939 81.5175C18.7997 80.9877 18.5544 80.4323 18.3608 79.858C18.2374 79.4498 18.2123 79.0182 18.2875 78.5984C18.5816 77.1507 18.9621 75.7219 19.4271 74.3197Z" fill="#4FC7F3"/>
<path d="M124.529 118.46C124.429 118.266 124.249 118.26 124.062 118.26C122.976 118.26 121.903 118.053 120.817 117.96C118.911 117.8 117.038 117.447 115.158 117.14C113.692 116.9 112.239 116.614 110.8 116.247C109.587 115.934 108.38 115.614 107.194 115.214C106.603 115.054 106.078 114.711 105.695 114.234C105.323 113.793 105.124 113.232 105.135 112.655C105.135 112.402 105.135 112.155 105.168 111.902C105.721 111.873 106.267 111.772 106.794 111.602C108.794 111.155 110.753 110.635 112.752 110.229C113.959 109.982 115.145 109.609 116.358 109.396C117.118 109.262 117.858 109.049 118.604 108.876C119.79 108.596 120.963 108.296 122.163 108.063C123.003 107.896 123.829 107.67 124.662 107.47C125.235 107.336 125.835 107.256 126.388 107.096C127.148 106.87 127.921 106.73 128.681 106.557C129.927 106.263 131.167 105.89 132.44 105.704C133.446 105.537 134.439 105.25 135.412 104.997C136.225 104.784 137.045 104.577 137.865 104.417C138.985 104.191 140.091 103.904 141.197 103.678C142.304 103.451 143.383 103.158 144.483 102.904C145.583 102.651 146.642 102.418 147.715 102.138C148.475 101.938 149.235 101.711 150.008 101.578C151.241 101.372 152.454 101.045 153.667 100.745C155.036 100.405 156.422 100.139 157.819 99.9453C157.952 99.9453 158.065 99.8986 158.099 99.7454C159.365 101.109 160.213 102.806 160.545 104.637C160.783 105.837 160.757 107.074 160.469 108.263C160.181 109.452 159.639 110.564 158.878 111.522C157.878 112.77 156.615 113.783 155.18 114.488C152.83 115.684 150.328 116.552 147.742 117.067C145.996 117.449 144.236 117.749 142.463 117.967C141.024 118.146 139.584 118.266 138.145 118.386C137.392 118.453 136.639 118.386 135.892 118.46C133.44 118.64 130.98 118.526 128.528 118.533C127.561 118.535 126.596 118.484 125.635 118.38C125.266 118.313 124.885 118.34 124.529 118.46Z" fill="#37659F"/>
<path d="M158.112 99.7454C158.079 99.8986 157.966 99.9253 157.833 99.9453C156.435 100.139 155.049 100.405 153.68 100.745C152.467 101.045 151.255 101.372 150.022 101.578C149.248 101.711 148.489 101.938 147.729 102.138C146.656 102.418 145.576 102.651 144.497 102.904C143.417 103.158 142.311 103.451 141.211 103.678C140.111 103.904 138.985 104.191 137.879 104.417C137.059 104.577 136.239 104.784 135.426 104.997C134.44 105.25 133.427 105.537 132.454 105.704C131.181 105.91 129.941 106.263 128.695 106.557C127.935 106.73 127.162 106.87 126.402 107.096C125.849 107.256 125.249 107.336 124.676 107.47C123.843 107.67 123.016 107.896 122.177 108.063C120.977 108.296 119.804 108.596 118.618 108.876C117.871 109.049 117.131 109.262 116.372 109.396C115.159 109.609 113.972 109.982 112.766 110.229C110.767 110.635 108.767 111.155 106.808 111.602C106.281 111.772 105.735 111.873 105.182 111.902C105.241 111.331 105.404 110.775 105.662 110.262C106.001 109.543 106.594 108.976 107.328 108.669C107.961 108.369 108.567 108.003 109.201 107.73C110.935 106.835 112.6 105.81 114.179 104.664C115.512 103.751 116.845 102.818 118.178 101.871C119.511 100.925 120.804 99.952 122.07 98.9323C123.183 98.0325 124.263 97.0928 125.402 96.1998C125.916 95.7865 126.389 95.3134 126.869 94.8668C127.748 94.0271 128.708 93.2606 129.534 92.3409C130.514 91.2013 131.634 90.1882 132.573 89.0086C133.667 87.6015 135.244 86.6513 136.999 86.3427C138.04 86.1405 139.113 86.1655 140.145 86.416C143.204 87.2158 144.936 89.3018 145.796 92.241C146.041 93.0871 146.151 93.9665 146.123 94.8468C146.123 95.0601 146.123 95.2734 146.123 95.5133C146.123 95.7532 146.303 95.9732 146.563 95.9398C147.149 95.8532 147.729 95.7399 148.309 95.6266C148.402 95.6266 148.482 95.5133 148.575 95.4533C148.575 95.6599 148.729 95.6599 148.875 95.6599C149.362 95.6599 149.842 95.7132 150.321 95.7266C152.132 95.8314 153.884 96.4106 155.4 97.4061C156.419 98.0419 157.334 98.831 158.112 99.7454Z" fill="#4577BB"/>
<path d="M15.882 49.8671C14.521 49.8367 13.1994 49.4043 12.0836 48.6244C10.9679 47.8444 10.1079 46.7517 9.61193 45.4839C9.11597 44.2161 9.00624 42.8299 9.29655 41.4999C9.58687 40.1699 10.2642 38.9555 11.2434 38.0096C12.2225 37.0638 13.4596 36.4289 14.7989 36.1848C16.1382 35.9407 17.5197 36.0983 18.7696 36.6378C20.0195 37.1774 21.0817 38.0747 21.8226 39.2167C22.5636 40.3588 22.95 41.6946 22.9332 43.0558C22.9273 43.969 22.7392 44.8718 22.3797 45.7112C22.0203 46.5507 21.4968 47.3099 20.8401 47.9444C20.1833 48.5788 19.4064 49.0757 18.555 49.4059C17.7036 49.736 16.7948 49.8928 15.882 49.8671Z" fill="#9EE5FC"/>
<path d="M5.33172 60.8838C3.91766 60.8838 2.56152 60.322 1.56163 59.3221C0.561734 58.3222 0 56.9661 0 55.552C0 54.138 0.561734 52.7818 1.56163 51.7819C2.56152 50.782 3.91766 50.2203 5.33172 50.2203C6.74579 50.2203 8.10193 50.782 9.10182 51.7819C10.1017 52.7818 10.6634 54.138 10.6634 55.552C10.6634 56.9661 10.1017 58.3222 9.10182 59.3221C8.10193 60.322 6.74579 60.8838 5.33172 60.8838Z" fill="#9EE5FC"/>
<path d="M21.6998 87.2291L28.5778 87.0625H29.9107C32.29 87.0159 34.6759 86.9892 37.0619 86.9092C38.688 86.8559 40.3209 86.8626 41.9537 86.7959C43.3333 86.7359 44.7129 86.7359 46.0925 86.7026C46.3003 86.6977 46.5074 86.6777 46.7123 86.6426C47.2649 86.551 47.8321 86.6133 48.3518 86.8226C48.4368 86.8512 48.5193 86.8869 48.5984 86.9292C48.8317 87.0293 49.0295 87.1972 49.1661 87.4111C49.3028 87.6251 49.372 87.8751 49.3648 88.1289C49.3374 88.3818 49.2303 88.6195 49.059 88.8076C48.8877 88.9956 48.6611 89.1244 48.4118 89.1752C48.0035 89.306 47.5802 89.3843 47.1521 89.4085C45.7192 89.5018 44.2863 89.5018 42.8534 89.5151C39.5211 89.5551 36.1888 89.5684 32.9031 89.6551C30.3905 89.7217 27.8846 89.6951 25.3721 89.755C24.6256 89.755 23.8725 89.8284 23.1261 89.8617C22.6068 89.0872 22.1605 88.2661 21.7931 87.4091L21.6998 87.2291Z" fill="white"/>
<path d="M16.0886 69.4012C16.1033 69.8348 16.0301 70.2669 15.8733 70.6714C15.7164 71.0759 15.4793 71.4445 15.1762 71.7548C14.8731 72.0652 14.5102 72.311 14.1095 72.4773C13.7088 72.6436 13.2785 72.727 12.8447 72.7225C12.4109 72.718 11.9825 72.6257 11.5853 72.4511C11.1882 72.2765 10.8305 72.0232 10.5338 71.7066C10.2372 71.39 10.0078 71.0166 9.85942 70.609C9.71104 70.2013 9.64679 69.7678 9.67052 69.3346C9.65579 68.901 9.72903 68.4689 9.88585 68.0644C10.0427 67.6598 10.2798 67.2913 10.5829 66.9809C10.8861 66.6705 11.2489 66.4248 11.6496 66.2585C12.0503 66.0922 12.4806 66.0088 12.9144 66.0133C13.3482 66.0178 13.7766 66.1101 14.1738 66.2847C14.571 66.4593 14.9286 66.7125 15.2253 67.0291C15.5219 67.3457 15.7513 67.7191 15.8997 68.1268C16.0481 68.5345 16.1123 68.968 16.0886 69.4012Z" fill="#9DE4FA"/>
<path d="M78.6363 0.0954454C78.6403 0.128828 78.6315 0.162487 78.6117 0.189678C78.592 0.216868 78.5626 0.235582 78.5296 0.242068C78.5131 0.244064 78.4963 0.242389 78.4805 0.237164C78.4647 0.231938 78.4502 0.22329 78.4381 0.211835C78.4261 0.20038 78.4166 0.1864 78.4106 0.17089C78.4045 0.155381 78.4019 0.138723 78.403 0.122104C78.4083 0.0997823 78.4181 0.0787897 78.4319 0.0604408C78.4456 0.0420919 78.463 0.0267819 78.483 0.0154695C78.4978 0.00611561 78.5148 0.00081083 78.5323 8.58006e-05C78.5498 -0.000639228 78.5671 0.00324092 78.5827 0.0113381C78.5982 0.0194353 78.6113 0.0314657 78.6207 0.0462258C78.6301 0.0609859 78.6355 0.0779584 78.6363 0.0954454Z" fill="#658399"/>
<path d="M21.76 87.3958H21.7667L21.7467 87.4024L21.76 87.3958Z" fill="#4FC7F3"/>
<path d="M59.0752 65.9022C59.0814 66.6225 58.9442 67.3368 58.6714 68.0035C58.3986 68.6702 57.9958 69.2758 57.4865 69.7852C56.9771 70.2945 56.3715 70.6973 55.7048 70.9701C55.0381 71.2429 54.3238 71.3801 53.6035 71.3739C52.5045 71.3858 51.4268 71.0699 50.5079 70.4667C49.5891 69.8635 48.8709 69.0002 48.4448 67.987C48.0187 66.9738 47.9041 65.8566 48.1156 64.778C48.3271 63.6994 48.8552 62.7083 49.6324 61.9311C50.4096 61.1539 51.4007 60.6258 52.4793 60.4143C53.5579 60.2028 54.6751 60.3174 55.6883 60.7435C56.7015 61.1696 57.5648 61.8878 58.168 62.8067C58.7712 63.7255 59.0871 64.8032 59.0752 65.9022Z" fill="white"/>
</svg>
