<svg width="100" height="63" viewBox="0 0 100 63" fill="none" xmlns="http://www.w3.org/2000/svg">
<path d="M90.3018 34.9953C90.1818 34.4905 90.0279 33.9944 89.8411 33.5103C89.5593 32.6985 89.2372 31.9001 88.8951 31.1107C88.5529 30.3213 88.166 29.5698 87.7769 28.8206C87.2584 27.8581 86.6873 26.9249 86.0661 26.0252C85.536 25.2492 84.9814 24.4933 84.3821 23.7687C83.7246 22.977 83.0649 22.1853 82.3447 21.4496C81.6246 20.7138 80.8553 19.949 80.0659 19.249C78.7405 18.0702 77.3259 16.9957 75.8347 16.0353C74.6839 15.2924 73.489 14.6202 72.2565 14.0226C70.6626 13.2624 69.0079 12.637 67.3096 12.153C66.2361 11.8421 65.1582 11.5447 64.0669 11.3009C63.2931 11.1242 62.5014 10.99 61.7231 10.867C61.2468 10.791 60.7705 10.7172 60.2941 10.6725C59.8597 10.609 59.4222 10.568 58.9836 10.5495C58.5117 10.5495 58.0376 10.4936 57.5657 10.4623C57.5121 10.4589 57.4583 10.4589 57.4047 10.4623C56.9843 10.4869 56.5661 10.4779 56.1456 10.4623C55.4412 10.4623 54.7345 10.5137 54.03 10.5607C53.8712 10.5607 53.7102 10.5897 53.5514 10.6076C53.4483 10.6181 53.3442 10.6046 53.2472 10.5682C53.1502 10.5317 53.063 10.4732 52.9924 10.3974L52.6301 10.0373C51.3972 8.81215 50.0748 7.68041 48.6739 6.65148C47.3405 5.66698 45.9443 4.77053 44.4941 3.96783C42.9963 3.13818 41.4401 2.41841 39.838 1.8142C38.8741 1.44968 37.8968 1.12317 36.9039 0.850328C35.9796 0.603221 35.0427 0.406134 34.0972 0.259925C33.5314 0.17047 32.9634 0.107852 32.3954 0.0675973C31.8341 0.00572159 31.2689 -0.0137155 30.7047 0.00945157C29.7595 0.0517838 28.8198 0.175238 27.8958 0.378453C27.0043 0.588992 26.1505 0.935193 25.3642 1.40495C24.7884 1.78588 24.2657 2.24161 23.8099 2.76019C23.546 3.0375 23.3761 3.39308 23.0697 3.63238C23.0442 3.65778 23.0257 3.68937 23.016 3.72407C22.7499 4.33236 22.4524 4.925 22.2422 5.55342C22.0721 6.06299 21.9728 6.59348 21.947 7.13006C21.8889 7.90808 21.9909 8.68975 22.2467 9.42682C22.5397 10.2479 23.0082 10.9952 23.6197 11.6167C24.2311 12.2382 24.9707 12.7188 25.7869 13.0251C26.3203 13.2326 26.8792 13.3672 27.4485 13.4255C27.8712 13.4702 28.2894 13.4523 28.7098 13.459C28.9334 13.459 29.1302 13.3874 29.3807 13.4098C29.3178 13.4815 29.2419 13.5406 29.1571 13.5842C28.443 14.0638 27.8192 14.6657 27.3143 15.3622C26.9172 15.8754 26.6474 16.4755 26.5271 17.1132C26.4041 17.8937 26.4578 18.6496 26.9744 19.3116C27.3086 19.7258 27.761 20.0285 28.2715 20.1793C29.0298 20.4083 29.836 20.4268 30.604 20.233C30.9076 20.157 31.2063 20.0629 31.4986 19.9512C31.5856 19.9003 31.6876 19.8814 31.7871 19.8975C31.55 20.1212 31.3398 20.3448 31.1005 20.555C30.8612 20.7652 30.6532 20.9665 30.4296 21.179C30.0874 21.5055 29.7341 21.823 29.4143 22.1719C28.7791 22.8629 28.1306 23.545 27.538 24.2763C26.9945 24.9472 26.46 25.6182 25.9501 26.307C25.1807 27.3537 24.47 28.4422 23.8211 29.5676C23.4543 30.205 23.0965 30.8468 22.7655 31.5043C22.5128 32.0075 22.278 32.5218 22.0499 33.0384C21.8667 33.4273 21.6637 33.8065 21.4416 34.1745C21.4288 34.1975 21.4138 34.2192 21.3969 34.2394C21.2157 34.4429 21.1598 34.4362 20.9943 34.2237C20.3748 33.4231 19.771 32.6113 19.2052 31.7637C18.8116 31.1755 18.4247 30.5829 18.0311 29.9947C17.4914 29.1926 16.9502 28.3905 16.4075 27.5884L14.4887 24.7661C13.7686 23.7061 13.044 22.6483 12.3239 21.5905C11.5658 20.4723 10.8121 19.3697 10.0495 18.2627C9.18404 17.0104 8.30515 15.7669 7.44862 14.5101C7.23616 14.1992 7.03265 13.8839 6.82914 13.5663C6.72261 13.4112 6.59631 13.2706 6.45343 13.1481C6.33573 13.0381 6.18977 12.9628 6.03181 12.9308C5.87386 12.8989 5.71013 12.9114 5.55888 12.967C4.73087 13.2375 3.96307 13.6659 3.2979 14.2283C2.3661 15.0195 1.62075 16.007 1.1152 17.1199C0.639282 18.1418 0.317467 19.2286 0.160271 20.3448C0.0998917 20.7518 0.0775299 21.1611 0.0395126 21.5681C0.00120544 21.9963 -0.00926208 22.4266 0.0082016 22.8562C0.0241013 23.5305 0.0853653 24.2029 0.191582 24.869C0.323059 25.6539 0.511414 26.4282 0.75515 27.1859C1.05538 28.1255 1.44714 29.0333 1.92477 29.8963C2.26688 30.5163 2.66354 31.1046 3.11005 31.6541C3.65784 32.3287 4.28142 32.938 4.96848 33.4701C5.6283 33.9807 6.36607 34.3816 7.15341 34.6576C7.65128 34.8333 8.16624 34.9562 8.6898 35.0243C8.71121 35.0251 8.73213 35.031 8.75081 35.0415C8.76949 35.052 8.78538 35.0668 8.79715 35.0847C8.68389 35.1378 8.56184 35.1696 8.43709 35.1787C8.27905 35.1787 8.12415 35.2229 7.98981 35.3061C8.0265 35.3313 8.07069 35.3431 8.11505 35.3397C8.72334 35.3553 9.33164 35.362 9.93993 35.3822C11.8118 35.4448 13.6859 35.3822 15.5599 35.4314C17.2864 35.4739 19.0196 35.4985 20.7483 35.4023C21.2493 35.3722 21.752 35.3834 22.2512 35.4358C22.6882 35.4522 23.1259 35.4417 23.5617 35.4045C28.1082 35.3553 32.6548 35.4604 37.2036 35.3441C37.5301 35.3441 37.8588 35.3441 38.1876 35.3441C42.0431 35.3084 45.8986 35.3911 49.7541 35.2927C52.0307 35.2323 54.3096 35.3173 56.5862 35.2413C58.8628 35.1652 61.211 35.2592 63.519 35.1898C66.0908 35.1138 68.6626 35.2144 71.2389 35.1339C73.5401 35.0624 75.8458 35.1541 78.1493 35.0825C80.5333 35.0065 82.9195 35.1026 85.3057 35.0288C86.9629 34.955 88.6312 34.9953 90.3018 34.9953ZM73.2159 28.0625C74.6539 27.9239 75.9867 29.3037 75.9823 30.7327C75.994 31.1012 75.9318 31.4683 75.7992 31.8123C75.6666 32.1563 75.4664 32.4702 75.2104 32.7355C74.9544 33.0008 74.6477 33.2121 74.3087 33.3568C73.9696 33.5015 73.6049 33.5768 73.2363 33.5781C72.8676 33.5795 72.5024 33.5069 72.1623 33.3646C71.8222 33.2224 71.514 33.0134 71.2561 32.75C70.9982 32.4866 70.7956 32.1741 70.6606 31.8311C70.5255 31.4881 70.4605 31.1214 70.4696 30.7529C70.4763 29.2903 71.7354 27.9485 73.2159 28.0513V28.0625Z" fill="#78D2ED"/>
<path d="M90.3019 34.9952C88.6313 34.9952 86.963 34.955 85.2946 35.0086C82.9107 35.0824 80.5245 34.9863 78.1382 35.0623C75.8348 35.1339 73.5291 35.0422 71.2279 35.1137C68.6538 35.1942 66.0842 35.0936 63.5079 35.1696C61.1955 35.239 58.8808 35.1473 56.5751 35.2211C54.2694 35.2949 52.0196 35.2211 49.743 35.2725C45.8875 35.3709 42.032 35.2882 38.1765 35.3239C37.8478 35.3239 37.519 35.3239 37.1925 35.3239C32.646 35.4402 28.0994 35.3351 23.5506 35.3843C23.1148 35.4215 22.6772 35.432 22.2401 35.4156C21.7409 35.3632 21.2383 35.352 20.7373 35.3821C19.0086 35.4783 17.2754 35.4537 15.5489 35.4112C13.6748 35.3642 11.8007 35.4246 9.92888 35.362C9.32059 35.3418 8.7123 35.3351 8.104 35.3195C8.05965 35.3229 8.01544 35.3111 7.97876 35.2859L7.86471 35.2971L7.80879 35.3172C7.44634 35.376 7.09352 35.4836 6.75993 35.637C5.75201 36.071 4.83479 36.6909 4.05616 37.4642C2.74669 38.7634 1.73357 40.3303 1.08626 42.0577C0.743729 42.9143 0.480957 43.8006 0.301292 44.7055C0.20237 45.1961 0.131439 45.6919 0.0888367 46.1905C0.0259552 46.7772 -0.00242615 47.3672 0.00385284 47.9572C0.0361786 49.147 0.217239 50.328 0.542824 51.4728C0.816193 52.4313 1.23315 53.3429 1.77953 54.1766C2.42712 55.1725 3.29768 56.004 4.32229 56.6053C4.77757 56.8767 5.2715 57.0773 5.78711 57.2001C5.90595 57.2305 6.03072 57.2287 6.14864 57.1949C6.26654 57.1611 6.37332 57.0965 6.45802 57.0078C6.59291 56.8885 6.71372 56.7542 6.81808 56.6075C7.30561 55.8889 7.79538 55.1718 8.28738 54.4561C9.11932 53.244 9.95571 52.0364 10.7854 50.8242C11.4861 49.8045 12.1817 48.7817 12.8719 47.7559C13.9901 46.1167 15.086 44.473 16.2019 42.8359C17.2083 41.3554 18.2146 39.8705 19.1919 38.3632C19.7667 37.4865 20.4063 36.6568 21.0347 35.8182C21.1577 35.6549 21.2829 35.6728 21.3567 35.8786C21.5178 36.3258 21.6765 36.7731 21.8174 37.2204C22.2072 38.4603 22.6626 39.6786 23.1816 40.8702C23.9197 42.5259 24.7777 44.1254 25.749 45.656C25.8027 45.656 25.8563 45.656 25.91 45.6694C26.1627 45.7164 26.4177 45.7678 26.6726 45.8103C26.8828 45.8461 26.9678 45.77 26.9723 45.5554C26.9723 45.4301 26.9723 45.3026 26.9723 45.1774C26.9615 44.6491 27.0526 44.1237 27.2406 43.6298C27.4792 42.9504 27.8872 42.3431 28.4259 41.8653C28.9935 41.3485 29.7161 41.034 30.4811 40.9708C31.0807 40.9155 31.6848 41.0068 32.2412 41.2369C32.7716 41.4594 33.246 41.797 33.63 42.2254C33.914 42.534 34.1533 42.8963 34.4552 43.1759C34.9718 43.6723 35.419 44.2337 35.958 44.71C36.497 45.1864 36.9957 45.6426 37.5235 46.1055C38.2592 46.7585 39.0218 47.378 39.8023 47.9729C40.6701 48.6438 41.5668 49.2588 42.4614 49.8805C43.1323 50.3278 43.8032 50.775 44.4741 51.2067C45.0427 51.5459 45.6295 51.8535 46.2319 52.1281C46.5278 52.2475 46.7897 52.438 46.9945 52.6827C47.2556 53.0166 47.4113 53.4206 47.4418 53.8434C47.4418 53.9596 47.4418 54.067 47.4418 54.1922C47.4455 54.4535 47.3684 54.7094 47.2211 54.9252C47.0738 55.141 46.8635 55.306 46.6188 55.3976C46.3103 55.5148 45.996 55.6163 45.6773 55.7018C44.6822 55.9873 43.6721 56.2172 42.6515 56.3906C41.8106 56.5382 40.9697 56.6858 40.1221 56.7976C39.3767 56.896 38.6312 56.9705 37.8858 57.0212C37.8143 57.026 37.7447 57.0466 37.6823 57.0816C37.9018 57.2513 38.1414 57.3933 38.3957 57.5043C39.1053 57.886 39.8247 58.249 40.5538 58.5934C41.672 59.1122 42.8058 59.5662 43.9642 59.9755C45.1207 60.3849 46.2988 60.7306 47.4932 61.0109C48.4571 61.2346 49.4232 61.4582 50.4005 61.6036C51.02 61.693 51.6372 61.7713 52.2612 61.8272C53.1155 61.9062 53.972 61.9644 54.8308 62.0016C55.3518 62.024 55.8684 62.0016 56.3962 62.0016C57.0757 62.0038 57.7546 61.9634 58.4291 61.8809C58.9524 61.8183 59.478 61.7847 59.9946 61.7154C61.9639 61.4519 63.9154 61.0688 65.8382 60.5681C67.547 60.1196 69.2152 59.5286 70.8253 58.8014C72.4865 58.0577 74.0919 57.1952 75.629 56.2206C76.5616 55.6325 77.4606 54.9951 78.3373 54.3264C78.8114 53.9619 79.2721 53.5772 79.7373 53.2082C80.9328 52.225 82.0659 51.1681 83.1298 50.0438C84.6997 48.4197 86.1099 46.6485 87.3409 44.7547C87.7882 44.0793 88.1982 43.3846 88.5709 42.6704C88.6207 42.6009 88.653 42.5203 88.6649 42.4356C88.4189 42.3954 88.1796 42.3976 87.9425 42.3752C86.4412 42.2288 84.9724 41.8461 83.5905 41.2414C82.8969 40.9467 82.2365 40.5794 81.6203 40.1456C81.2222 39.8696 80.8755 39.5259 80.596 39.1303C80.5307 39.044 80.4842 38.9449 80.4596 38.8395C80.4437 38.7735 80.447 38.7043 80.4692 38.6401C80.4914 38.5759 80.5315 38.5194 80.5848 38.4772C80.6355 38.4393 80.6971 38.4188 80.7604 38.4188C80.8237 38.4188 80.8853 38.4393 80.9359 38.4772C81.0065 38.5163 81.07 38.567 81.1238 38.6271C81.8216 39.3941 82.7027 39.8906 83.6285 40.3111C84.6819 40.7931 85.7939 41.1352 86.9361 41.3286C87.6444 41.4415 88.3618 41.4864 89.0786 41.4628C89.1282 41.4649 89.1771 41.4505 89.2176 41.4217C89.2581 41.393 89.2879 41.3516 89.3022 41.304C89.622 40.6823 89.9016 40.0405 90.1968 39.4009C90.3436 39.0191 90.5116 38.6458 90.7 38.2827C90.7927 38.1079 90.8611 37.9213 90.9035 37.7281C90.9661 37.5027 90.9661 37.2646 90.9035 37.0392C90.7313 36.4377 90.5747 35.8294 90.407 35.2255C90.3933 35.1407 90.357 35.0612 90.3019 34.9952Z" fill="#50C8F4"/>
<path d="M37.6865 57.0749C37.749 57.0399 37.8185 57.0193 37.89 57.0146C38.6355 56.9668 39.3809 56.8923 40.1264 56.7909C40.974 56.6791 41.8149 56.5315 42.6557 56.3839C43.6763 56.2105 44.6865 55.9806 45.6815 55.6951C46.0003 55.6096 46.3145 55.5081 46.6231 55.3909C46.8677 55.2993 47.0781 55.1343 47.2254 54.9185C47.3727 54.7028 47.4497 54.4468 47.446 54.1855C47.446 54.0692 47.446 53.9619 47.446 53.8367C47.3146 53.8102 47.1847 53.7767 47.0569 53.736C46.4911 53.66 45.9387 53.5124 45.3886 53.376C44.7311 53.2194 44.0691 53.0696 43.4094 52.9153C42.8212 52.7766 42.2331 52.6335 41.6404 52.5105C41.003 52.3808 40.3769 52.1929 39.7417 52.0632C39.1066 51.9335 38.5274 51.7859 37.9191 51.6607C37.5993 51.5936 37.275 51.5153 36.9574 51.437C36.5102 51.323 36.0629 51.2402 35.629 51.1351C35.2556 51.0457 34.8776 50.9831 34.5109 50.8735C34.2374 50.7931 33.9597 50.7281 33.6789 50.6789C33.2831 50.6096 32.9007 50.4888 32.5115 50.4016L31.3933 50.1466L29.7295 49.7665C29.0586 49.6122 28.3765 49.44 27.6989 49.2856C27.1085 49.1537 26.5158 49.0218 25.9277 48.8831C25.3395 48.7444 24.7312 48.608 24.1386 48.4604C23.4475 48.2905 22.752 48.1384 22.0565 47.9863C21.7345 47.917 21.4012 47.9147 21.0837 47.8163C21.0301 47.8107 20.9762 47.8107 20.9227 47.8163C20.1555 48.6107 19.7094 49.6609 19.6701 50.7645C19.6309 51.8682 20.0014 52.9473 20.7102 53.7942C21.437 54.6485 22.3852 55.1494 23.3938 55.5833C24.4627 56.0185 25.5743 56.34 26.7104 56.5427C27.4104 56.6791 28.1126 56.7909 28.8215 56.8804C29.3426 56.9452 29.8659 56.9877 30.387 57.0414C30.9081 57.0951 31.4917 57.1062 32.0441 57.1286C33.2719 57.1778 34.5041 57.142 35.7274 57.151C36.2367 57.1536 36.7457 57.1305 37.2526 57.0816C37.3971 57.0724 37.5419 57.0702 37.6865 57.0749Z" fill="#3865A0"/>
<path d="M20.9006 47.8097C20.9541 47.8041 21.0081 47.8041 21.0616 47.8097C21.3792 47.9081 21.7124 47.9103 22.0344 47.9797C22.7299 48.1317 23.4254 48.2838 24.1165 48.4538C24.7136 48.6014 25.3129 48.7356 25.9056 48.8764C26.4982 49.0173 27.0864 49.147 27.6768 49.279C28.3477 49.4333 29.0298 49.6055 29.7074 49.7598L31.3713 50.14L32.4895 50.3949C32.8786 50.4822 33.261 50.6029 33.6568 50.6723C33.9376 50.7215 34.2153 50.7864 34.4888 50.8668C34.8578 50.9764 35.2357 51.039 35.607 51.1285C36.0542 51.2336 36.5015 51.3163 36.9354 51.4304C37.2529 51.5154 37.5772 51.5936 37.897 51.654C38.5053 51.7793 39.1091 51.9313 39.7196 52.0566C40.3302 52.1818 40.981 52.3764 41.6183 52.5038C42.211 52.6268 42.7991 52.77 43.3873 52.9086C44.0582 53.0629 44.709 53.2128 45.3665 53.3693C45.9189 53.499 46.469 53.6533 47.0348 53.7294C47.1626 53.77 47.2925 53.8036 47.424 53.83C47.3935 53.4073 47.2377 53.0032 46.9767 52.6693C46.7733 52.4291 46.5147 52.2418 46.223 52.1237C45.6206 51.8491 45.0338 51.5415 44.4652 51.2023C43.7943 50.7729 43.11 50.3323 42.4525 49.8761C41.5579 49.2544 40.6634 48.6304 39.7934 47.9685C39.0129 47.3736 38.2503 46.7541 37.5146 46.1011C36.9935 45.6382 36.4769 45.1685 35.9491 44.7056C35.4213 44.2427 34.9629 43.6679 34.4463 43.1715C34.1444 42.883 33.9051 42.5296 33.6211 42.221C33.2371 41.7926 32.7627 41.455 32.2323 41.2325C31.6759 41.0024 31.0718 40.9111 30.4722 40.9664C29.7072 41.0296 28.9846 41.3441 28.417 41.8609C27.8783 42.3387 27.4703 42.946 27.2317 43.6254C27.0437 44.1193 26.9526 44.6447 26.9634 45.173C26.9634 45.2982 26.9634 45.4257 26.9634 45.551C26.9634 45.7746 26.8739 45.8417 26.6637 45.8059C26.4088 45.7634 26.1538 45.712 25.9011 45.665C25.8474 45.665 25.7938 45.665 25.7401 45.6516C25.4471 45.674 25.1519 45.6807 24.8589 45.6986C23.792 45.7737 22.7711 46.1627 21.9248 46.8167C21.5388 47.0984 21.194 47.4326 20.9006 47.8097Z" fill="#4476BB"/>
<path d="M91.9658 15.872C91.2744 15.8791 90.6007 16.0921 90.031 16.484C89.4612 16.8758 89.0212 17.4287 88.7672 18.0718C88.5131 18.715 88.4566 19.4193 88.6048 20.0947C88.753 20.7701 89.0993 21.3861 89.5993 21.8637C90.0992 22.3414 90.7303 22.6592 91.4118 22.7765C92.0933 22.8938 92.7943 22.8052 93.4252 22.5221C94.0561 22.2391 94.5883 21.7743 94.9537 21.1873C95.3192 20.6003 95.5014 19.9176 95.477 19.2265C95.4389 17.4732 93.9115 15.825 91.9658 15.872Z" fill="#9EE7FF"/>
<path d="M99.9965 25.5868C100.052 24.2315 98.8112 22.9031 97.2636 22.9434C96.9048 22.9521 96.5512 23.0323 96.2238 23.1793C95.8963 23.3264 95.6015 23.5374 95.3566 23.7998C95.1118 24.0623 94.9218 24.371 94.7977 24.7079C94.6737 25.0448 94.6182 25.403 94.6344 25.7616C94.6507 26.1202 94.7383 26.4719 94.8922 26.7962C95.0462 27.1205 95.2633 27.4108 95.5309 27.6501C95.7984 27.8894 96.1111 28.0729 96.4505 28.1897C96.7899 28.3066 97.1492 28.3546 97.5074 28.3308C98.8425 28.2548 100.075 27.0539 99.9965 25.5868Z" fill="#9EE7FF"/>
<path d="M91.9633 32.5621C91.96 32.7747 91.9992 32.9859 92.0785 33.1832C92.1578 33.3805 92.2756 33.56 92.4252 33.7111C92.5747 33.8623 92.7529 33.9822 92.9493 34.0637C93.1457 34.1452 93.3563 34.1867 93.569 34.1857C93.7838 34.186 93.9966 34.1438 94.195 34.0614C94.3934 33.9789 94.5735 33.858 94.7248 33.7056C94.8762 33.5532 94.9959 33.3723 95.077 33.1733C95.158 32.9744 95.1988 32.7613 95.1971 32.5465C95.2014 32.3305 95.1617 32.1158 95.0804 31.9156C94.9991 31.7155 94.8778 31.534 94.7239 31.3822C94.5701 31.2305 94.387 31.1117 94.1857 31.0331C93.9844 30.9545 93.7693 30.9178 93.5533 30.9251C93.3395 30.9215 93.1273 30.9618 92.9296 31.0434C92.732 31.125 92.5531 31.2462 92.4041 31.3996C92.2552 31.553 92.1392 31.7353 92.0633 31.9352C91.9875 32.1352 91.9535 32.3485 91.9633 32.5621Z" fill="#9EE7FF"/>
<path d="M7.80859 35.3285L7.8645 35.3083C7.83766 35.2815 7.82201 35.2949 7.80859 35.3285Z" fill="#78D2ED"/>
<path d="M73.2158 28.0513C71.7354 27.9417 70.4741 29.2992 70.4696 30.7349C70.4605 31.1035 70.5254 31.4701 70.6605 31.8131C70.7956 32.1562 70.9981 32.4686 71.2561 32.732C71.514 32.9954 71.8222 33.2044 72.1623 33.3467C72.5024 33.4889 72.8676 33.5615 73.2363 33.5602C73.6049 33.5588 73.9696 33.4836 74.3087 33.3388C74.6477 33.1941 74.9543 32.9829 75.2103 32.7176C75.4664 32.4523 75.6666 32.1384 75.7992 31.7944C75.9317 31.4504 75.994 31.0833 75.9822 30.7148C75.9867 29.2902 74.6538 27.9126 73.2158 28.0513Z" fill="white"/>
</svg>
