<svg width="1174" height="887" viewBox="0 0 1174 887" fill="none" xmlns="http://www.w3.org/2000/svg">
<g filter="url(#filter0_d)">
<rect x="200" y="200" width="773.925" height="486.138" rx="30" fill="white"/>
<rect x="204" y="204" width="765.925" height="478.138" rx="26" stroke="#D8ECF8" stroke-width="8"/>
<rect x="204" y="204" width="765.925" height="478.138" rx="26" stroke="url(#paint0_linear)" stroke-width="8"/>
</g>
<path d="M200 229.887V649.678C200 659.042 210.247 664.756 218.244 659.884L948.658 214.832C955.563 210.625 952.581 200 944.496 200H230C213.431 200 200 213.319 200 229.887Z" fill="#E9F5FB"/>
<path d="M200 229.887V649.678C200 659.042 210.247 664.756 218.244 659.884L948.658 214.832C955.563 210.625 952.581 200 944.496 200H230C213.431 200 200 213.319 200 229.887Z" fill="url(#paint1_linear)"/>
<path d="M457 686H717L737 766H437L457 686Z" fill="#D8ECF8" fill-opacity="0.5"/>
<rect x="387" y="752" width="400" height="20" rx="10" fill="#D8ECF8"/>
<rect x="204" y="204" width="765.925" height="478.138" rx="26" stroke="#D8ECF8" stroke-width="8"/>
<rect x="204" y="204" width="765.925" height="478.138" rx="26" stroke="url(#paint2_linear)" stroke-width="8"/>
<defs>
<filter id="filter0_d" x="0" y="0" width="1173.92" height="886.138" filterUnits="userSpaceOnUse" color-interpolation-filters="sRGB">
<feFlood flood-opacity="0" result="BackgroundImageFix"/>
<feColorMatrix in="SourceAlpha" type="matrix" values="0 0 0 0 0 0 0 0 0 0 0 0 0 0 0 0 0 0 127 0"/>
<feOffset/>
<feGaussianBlur stdDeviation="100"/>
<feColorMatrix type="matrix" values="0 0 0 0 0.309804 0 0 0 0 0.780392 0 0 0 0 0.952941 0 0 0 0.1 0"/>
<feBlend mode="normal" in2="BackgroundImageFix" result="effect1_dropShadow"/>
<feBlend mode="normal" in="SourceGraphic" in2="effect1_dropShadow" result="shape"/>
</filter>
<linearGradient id="paint0_linear" x1="586.962" y1="200" x2="586.962" y2="686.138" gradientUnits="userSpaceOnUse">
<stop stop-color="white"/>
<stop offset="1" stop-color="white" stop-opacity="0"/>
</linearGradient>
<linearGradient id="paint1_linear" x1="586.5" y1="671" x2="586.5" y2="200" gradientUnits="userSpaceOnUse">
<stop stop-color="white" stop-opacity="0"/>
<stop offset="1" stop-color="white"/>
</linearGradient>
<linearGradient id="paint2_linear" x1="586.962" y1="200" x2="586.962" y2="686.138" gradientUnits="userSpaceOnUse">
<stop stop-color="white"/>
<stop offset="1" stop-color="white" stop-opacity="0"/>
</linearGradient>
</defs>
</svg>
