<svg width="129" height="130" viewBox="0 0 129 130" fill="none" xmlns="http://www.w3.org/2000/svg">
<path d="M137.868 44.6631C138.481 45.2221 139.107 45.7744 139.714 46.3402C140.993 47.5256 142.212 48.7649 143.405 50.0245C145.647 52.4121 147.737 54.9384 149.662 57.5883C151.244 59.7497 152.703 61.9984 154.033 64.3237C155.369 66.6649 156.585 69.0726 157.677 71.5374C157.976 72.159 158.309 72.7638 158.674 73.3492C158.701 73.3946 158.733 73.4374 158.768 73.4772C159.233 74.016 159.266 74.0025 159.691 73.4772C160.748 72.1301 161.806 70.7291 162.776 69.2877C164.5 66.7215 166.204 64.1351 167.942 61.5757C170.955 57.1303 173.974 52.6917 177.001 48.2598C179.789 44.1512 182.593 40.0583 185.413 35.9811C186.397 34.5532 187.367 33.1118 188.336 31.6772C188.531 31.4088 188.757 31.1646 189.01 30.9498C189.272 30.7084 189.598 30.5471 189.949 30.485C190.3 30.423 190.661 30.4627 190.99 30.5995C192.661 31.1569 194.206 32.0381 195.537 33.1927C197.361 34.7736 198.824 36.7284 199.827 38.9245C200.791 41.0276 201.442 43.2605 201.76 45.5521C202.032 47.3028 202.134 49.0758 202.063 50.8462C201.824 56.3978 200.108 61.7851 197.092 66.4521C196.003 68.0998 194.706 69.6006 193.233 70.9177C191.225 72.7888 188.761 74.0989 186.087 74.7165C185.541 74.8377 184.989 74.932 184.443 75.033C184.363 75.033 184.262 75.033 184.187 75.1812C184.726 75.417 185.339 75.3563 185.871 75.5988V75.7066C185.576 75.6632 185.275 75.6957 184.996 75.8009C184.739 75.8102 184.482 75.7784 184.235 75.7066C183.325 75.6325 182.423 75.8615 181.54 75.8143H172.239C172.165 75.72 172.091 75.72 172.023 75.8143C171.379 75.9117 170.727 75.9456 170.077 75.9154C166.615 75.8548 163.153 76.0366 159.697 75.8143C158.916 75.7672 158.142 75.8884 157.367 75.9086C155.831 75.9086 154.296 75.9086 152.767 75.9086C151.972 75.9086 151.177 75.8076 150.382 75.8076C143.054 75.8076 135.731 75.8076 128.411 75.8076C128.157 75.8246 127.902 75.811 127.65 75.7672C127.209 75.6609 126.751 75.6448 126.303 75.72C125.498 75.8447 124.678 75.8447 123.872 75.72C123.748 75.6898 123.619 75.6898 123.495 75.72C123.194 75.7881 122.886 75.8131 122.579 75.7941C120.511 75.7537 118.45 75.7941 116.389 75.7133C112.476 75.6258 108.569 75.7133 104.656 75.7133C103.713 75.7133 102.777 75.646 101.84 75.6258C97.0716 75.518 92.3097 75.6729 87.541 75.518C82.9812 75.3631 78.4146 75.5517 73.8479 75.4102C68.7088 75.2553 63.5562 75.4574 58.4104 75.3025C53.6148 75.1543 48.8124 75.3025 44.0101 75.1947C38.3254 75.0398 32.634 75.2755 26.9426 75.0734C24.7131 74.9994 22.4837 75.0734 20.2543 75.0734C20.0245 75.0584 19.7943 75.0953 19.5807 75.1812C19.83 74.1372 20.2004 73.1606 20.5439 72.1301C21.2631 70.0229 22.1019 67.9585 23.0562 65.947C23.9891 63.9678 25.0209 62.0368 26.1478 60.1613C27.1177 58.5515 28.1684 56.9754 29.2461 55.4465C29.9802 54.4159 30.7548 53.4258 31.5698 52.4425C32.4925 51.3311 33.3951 50.1996 34.3784 49.1287C35.4965 47.923 36.6483 46.751 37.827 45.5993C39.0057 44.4475 40.2719 43.289 41.5517 42.1979C43.1367 40.8508 44.7824 39.5801 46.4887 38.3857C48.6908 36.8283 50.9801 35.3981 53.3454 34.1019C56.3009 32.4824 59.3877 31.1148 62.5729 30.0136C64.4184 29.34 66.2908 28.8281 68.17 28.3028C70.4129 27.6831 72.676 27.1308 74.966 26.7132C76.3131 26.464 77.6602 26.2417 79.0073 26.0397C80.3544 25.8376 81.8833 25.7635 83.3179 25.6221C85.0961 25.4402 86.8675 25.5278 88.6389 25.4941C89.6155 25.4941 90.5922 25.4941 91.5688 25.5951C92.3771 25.649 93.1853 25.7164 93.9936 25.7837C94.1752 25.7866 94.3553 25.7502 94.5216 25.677C94.6878 25.6037 94.8363 25.4954 94.9567 25.3594L95.8391 24.477C99.6069 20.768 103.767 17.4798 108.246 14.6703C111.332 12.7094 114.555 10.9739 117.891 9.47728C122.155 7.53027 126.63 6.08157 131.227 5.15989C132.675 4.87545 134.136 4.66414 135.605 4.52676C136.989 4.37307 138.382 4.31007 139.774 4.33817C142.77 4.36718 145.737 4.93764 148.53 6.02202C150.314 6.71725 151.923 7.7956 153.245 9.18093C153.897 9.85582 154.5 10.5761 155.05 11.3363C156.274 13.0899 157.108 15.0858 157.495 17.1893C157.803 18.6631 157.815 20.1831 157.532 21.6617C157.249 23.1403 156.675 24.5482 155.845 25.8039C154.121 28.4869 151.42 30.3931 148.315 31.1182C146.888 31.4575 145.42 31.5868 143.957 31.5021C143.492 31.5021 143.034 31.3808 142.536 31.3135C142.603 31.5492 142.792 31.5896 142.92 31.6772C144.867 32.8858 146.473 34.5712 147.587 36.5738C148.425 38.0105 148.724 39.6988 148.429 41.3358C148.283 42.0952 147.952 42.807 147.466 43.4084C146.979 44.0098 146.353 44.4823 145.641 44.7843C144.916 45.1114 144.142 45.3163 143.351 45.3905C141.692 45.516 140.026 45.2603 138.481 44.6429C138.339 44.589 138.144 44.6429 138.036 44.488C137.819 44.2778 137.53 44.1575 137.228 44.1512C137.413 44.3546 137.629 44.5274 137.868 44.6631ZM54.093 61.0032C51.1496 60.7674 48.4959 63.4885 48.4959 66.4791C48.5291 67.9275 49.124 69.3063 50.1549 70.3242C51.1858 71.3422 52.572 71.9196 54.0208 71.9344C55.4695 71.9493 56.8673 71.4005 57.9189 70.4039C58.9705 69.4073 59.5935 68.041 59.6564 66.5936C59.7238 63.5896 57.1307 60.7876 54.093 61.0032Z" fill="#7BD0ED"/>
<path d="M19.5334 75.1542C19.747 75.0683 19.9772 75.0314 20.2069 75.0465C22.4364 75.0465 24.6658 74.9859 26.8952 75.0465C32.5866 75.2485 38.278 75.0465 43.9627 75.1677C48.7651 75.3024 53.5674 75.1273 58.363 75.2755C63.5089 75.4304 68.6615 75.2283 73.8006 75.3832C78.3672 75.5247 82.9338 75.3361 87.4937 75.491C92.2624 75.6459 97.0243 75.491 101.793 75.5988C102.729 75.5988 103.665 75.6796 104.608 75.6863C108.522 75.6863 112.428 75.6257 116.341 75.6863C118.402 75.7402 120.464 75.7267 122.531 75.7672C122.839 75.7861 123.147 75.7612 123.447 75.6931C123.571 75.6628 123.701 75.6628 123.825 75.6931C124.63 75.8177 125.45 75.8177 126.256 75.6931C126.704 75.6178 127.162 75.6339 127.603 75.7402C127.854 75.784 128.11 75.7976 128.364 75.7806C135.688 75.7806 143.011 75.7806 150.335 75.7806C151.13 75.7806 151.925 75.8951 152.719 75.8817C154.248 75.8817 155.784 75.8817 157.32 75.8817C158.094 75.8817 158.869 75.7402 159.65 75.7874C163.105 76.0096 166.567 75.8278 170.029 75.8884C170.68 75.9186 171.332 75.8848 171.976 75.7874C172.001 75.82 172.034 75.8461 172.072 75.8637C172.109 75.8813 172.15 75.8897 172.191 75.8884C172.346 76.0298 172.38 75.8884 172.407 75.7874H180.894C180.894 75.9355 180.968 76.0703 181.143 76.0837C181.318 76.0972 181.412 75.9625 181.439 75.7874C182.348 75.8345 183.251 75.6055 184.133 75.6796C184.268 75.976 184.639 75.9153 184.807 76.178C184.878 76.0558 184.908 75.9145 184.894 75.7739C185.174 75.6687 185.475 75.6362 185.77 75.6796C186.019 76.0164 186.019 76.0164 186.383 75.8413C186.465 75.8101 186.551 75.7897 186.639 75.7806H186.747C186.776 75.8115 186.811 75.835 186.851 75.8491C186.891 75.8632 186.934 75.8674 186.976 75.8615C187.025 75.9105 187.087 75.9462 187.154 75.965C187.221 75.9839 187.292 75.9853 187.36 75.9692C187.428 75.9613 187.497 75.9686 187.563 75.9908C187.628 76.0129 187.687 76.0492 187.737 76.0972C187.669 76.2454 187.548 76.4474 187.703 76.5417C187.858 76.636 188.249 76.8314 188.437 76.7505C188.969 76.5148 189.252 76.7977 189.515 77.1547C189.559 77.2326 189.624 77.2967 189.702 77.3396C189.781 77.3824 189.87 77.4024 189.96 77.3971C190.101 77.3971 190.249 77.3971 190.391 77.3971C190.428 77.3949 190.466 77.4039 190.498 77.4231C190.53 77.4423 190.556 77.4708 190.572 77.5049C190.588 77.5318 190.611 77.5537 190.638 77.568C190.665 77.5824 190.696 77.5885 190.727 77.5857C190.727 77.7137 190.849 77.7406 190.956 77.7406C191.064 77.7406 191.017 77.7406 191.024 77.7811L191.125 77.8619L191.266 77.9562C191.307 77.9562 191.334 77.9562 191.34 78.0033C191.35 78.0564 191.38 78.1036 191.424 78.135C191.468 78.1664 191.523 78.1796 191.576 78.1717C191.576 78.6028 191.899 78.5421 192.155 78.6028C192.196 78.6028 192.216 78.6162 192.216 78.6432C192.162 79.1012 192.162 79.1012 192.6 79.1753C192.703 79.1951 192.804 79.2221 192.903 79.2561C192.915 79.2972 192.94 79.3335 192.974 79.36C193.008 79.3865 193.049 79.402 193.091 79.4043C193.145 79.4094 193.196 79.43 193.237 79.4635C193.279 79.497 193.31 79.542 193.327 79.5929C193.368 79.7815 193.192 79.9027 193.172 80.1048L193.772 80.0374L193.9 80.1587C193.96 80.1587 193.987 80.1587 193.987 80.2529L194.109 80.3809L194.048 80.9938L194.654 80.9332C194.646 80.9987 194.651 81.0652 194.669 81.1286C194.688 81.192 194.719 81.2508 194.762 81.3014C194.804 81.3521 194.857 81.3933 194.916 81.4227C194.975 81.4521 195.039 81.4689 195.105 81.4721C195.129 81.6712 195.129 81.8724 195.105 82.0715C195.294 82.1389 195.402 82.0244 195.536 81.9974C195.536 82.0296 195.549 82.0604 195.572 82.0831C195.595 82.1059 195.625 82.1187 195.658 82.1187C195.617 82.2803 195.658 82.3611 195.846 82.3746L195.947 82.5026C195.945 82.5545 195.961 82.6056 195.993 82.6465C196.025 82.6873 196.071 82.7152 196.122 82.7248C196.14 82.731 196.154 82.7434 196.163 82.7595C196.172 82.7757 196.174 82.7946 196.17 82.8124C196.164 82.8703 196.181 82.9282 196.218 82.9736C196.254 83.0189 196.307 83.0481 196.365 83.0549C196.356 83.1696 196.388 83.2838 196.456 83.3766C196.524 83.4693 196.623 83.5345 196.735 83.56C196.657 83.6736 196.587 83.7929 196.527 83.917C196.419 84.1662 196.527 84.2942 196.809 84.2605H197.18C197.197 84.2633 197.213 84.2699 197.227 84.2797C197.241 84.2895 197.252 84.3022 197.261 84.3171C197.269 84.3319 197.274 84.3485 197.275 84.3655C197.276 84.3825 197.274 84.3996 197.267 84.4154C197.301 84.5906 197.342 84.7589 197.537 84.8196C197.668 84.9541 197.762 85.1216 197.806 85.3045L197.921 85.4729C197.924 85.5092 197.936 85.5444 197.954 85.5758C197.973 85.6072 197.998 85.6342 198.029 85.6547C198.091 85.6997 198.143 85.7581 198.18 85.8257C198.218 85.8933 198.239 85.9683 198.244 86.0454C198.244 86.1532 198.244 86.2542 198.385 86.2946C198.385 86.4899 198.264 86.7189 198.601 86.7459L198.695 86.8873C198.69 86.931 198.697 86.9752 198.715 87.0154C198.733 87.0557 198.761 87.0905 198.796 87.1163C198.796 87.2443 198.796 87.3723 198.945 87.4262L199.039 87.5743V87.6148L199.133 87.7899C199.112 87.9956 199.143 88.2033 199.223 88.394C199.303 88.5847 199.429 88.7522 199.591 88.881C199.551 89.0788 199.569 89.2839 199.643 89.4716C199.717 89.6592 199.844 89.8214 200.009 89.9385C199.941 90.2214 200.09 90.4908 200.009 90.7804C199.928 91.07 200.009 91.1845 200.44 91.2317L200.494 91.3664V91.4809C200.494 91.6021 200.453 91.7234 200.426 91.8446C200.366 92.1005 200.487 92.2083 200.723 92.242C200.723 92.4238 200.628 92.6394 200.884 92.7404L200.925 92.9559C200.77 93.1849 200.925 93.3398 201.053 93.4948C201.053 93.8113 200.952 94.1683 201.282 94.3771C201.34 94.479 201.364 94.5973 201.349 94.7139C201.241 94.8486 201.147 95.0304 201.201 95.1584C201.363 95.5289 201.329 95.9465 201.484 96.3102C201.499 96.3431 201.52 96.3727 201.547 96.397C201.573 96.4214 201.605 96.4399 201.639 96.4516L201.686 96.6739C201.551 96.8625 201.517 97.0376 201.726 97.206C201.673 97.4864 201.673 97.7743 201.726 98.0546C201.815 98.305 201.849 98.5713 201.827 98.8359C201.838 99.5106 201.809 100.185 201.74 100.857C201.713 101.215 201.713 101.576 201.74 101.934C201.731 101.997 201.745 102.061 201.78 102.114C201.814 102.168 201.867 102.207 201.928 102.224C201.965 102.512 201.965 102.804 201.928 103.093C201.868 103.113 201.816 103.153 201.783 103.208C201.75 103.262 201.737 103.326 201.746 103.389C201.746 103.665 201.746 103.935 201.746 104.204C201.752 104.21 201.757 104.217 201.76 104.224C201.764 104.232 201.765 104.24 201.765 104.248C201.765 104.256 201.764 104.264 201.76 104.272C201.757 104.279 201.752 104.286 201.746 104.292C201.632 104.608 201.45 104.918 201.625 105.268C201.625 105.416 201.679 105.585 201.558 105.713C201.437 105.841 201.443 106.083 201.43 106.272V106.467C201.29 106.637 201.19 106.835 201.136 107.049C201.083 107.262 201.077 107.484 201.12 107.7C201.126 107.704 201.13 107.71 201.133 107.716C201.136 107.723 201.138 107.73 201.138 107.737C201.138 107.744 201.136 107.751 201.133 107.757C201.13 107.764 201.126 107.769 201.12 107.774C201.083 107.804 201.055 107.844 201.038 107.889C201.022 107.934 201.017 107.983 201.026 108.03C201.026 108.03 201.026 108.077 201.026 108.097C200.931 108.199 200.862 108.321 200.825 108.455C200.787 108.588 200.782 108.729 200.81 108.865V108.973C200.78 109.001 200.756 109.035 200.741 109.074C200.726 109.112 200.72 109.154 200.723 109.195C200.548 109.325 200.415 109.503 200.34 109.708C200.264 109.912 200.25 110.134 200.298 110.347V110.387C200.26 110.416 200.231 110.454 200.212 110.498C200.193 110.541 200.186 110.589 200.191 110.636C200.201 110.647 200.206 110.662 200.206 110.677C200.206 110.692 200.201 110.706 200.191 110.717C199.975 110.771 199.995 110.939 200.009 111.101V111.135C199.972 111.163 199.944 111.2 199.927 111.243C199.911 111.286 199.906 111.332 199.914 111.377C199.921 111.393 199.922 111.412 199.915 111.428C199.909 111.444 199.897 111.457 199.881 111.465L199.807 111.586C199.692 111.586 199.571 111.687 199.456 111.586C199.342 111.485 199.328 111.505 199.288 111.586C199.278 111.609 199.273 111.635 199.273 111.66C199.273 111.686 199.278 111.711 199.288 111.734C199.406 111.889 199.468 112.079 199.463 112.273C199.466 112.281 199.468 112.29 199.467 112.298C199.467 112.307 199.465 112.315 199.461 112.323C199.457 112.33 199.452 112.337 199.445 112.342C199.439 112.348 199.431 112.352 199.423 112.354C198.998 112.408 199.073 112.745 199.039 113.027C199.039 113.075 199.039 113.102 198.985 113.115C198.729 113.155 198.689 113.337 198.709 113.546C198.671 113.565 198.64 113.594 198.617 113.63C198.595 113.665 198.582 113.706 198.581 113.748L198.507 113.883V113.923L198.392 114.085L198.291 114.206L198.251 114.307L198.177 114.401C198.141 114.5 198.072 114.584 197.981 114.637H197.826C197.739 114.637 197.624 114.637 197.611 114.738C197.597 114.839 197.725 114.846 197.8 114.88C197.798 114.917 197.786 114.952 197.764 114.982C197.743 115.012 197.713 115.035 197.678 115.048L197.496 115.23C197.488 115.288 197.465 115.343 197.431 115.391C197.398 115.439 197.353 115.478 197.301 115.506L197.2 115.621C196.742 115.674 196.715 115.708 196.654 116.159L196.54 116.274L196.432 116.395L196.318 116.51C195.92 116.55 195.92 116.55 195.873 116.941L195.759 117.055C195.759 117.069 195.756 117.083 195.75 117.096C195.745 117.108 195.737 117.12 195.727 117.129C195.717 117.139 195.705 117.146 195.692 117.151C195.679 117.155 195.665 117.157 195.651 117.156C195.254 117.156 195.254 117.156 195.22 117.513C195.218 117.526 195.214 117.539 195.207 117.55C195.201 117.561 195.191 117.571 195.18 117.578C195.169 117.585 195.157 117.589 195.144 117.591C195.131 117.593 195.118 117.591 195.105 117.587C194.903 117.587 194.762 117.628 194.769 117.863L194.668 117.917L194.553 118.005C194.52 118.015 194.491 118.036 194.472 118.066L194.371 118.119L194.243 118.214L194.075 118.335C194.04 118.391 193.992 118.438 193.936 118.473C193.88 118.508 193.817 118.53 193.752 118.537C193.707 118.533 193.662 118.543 193.623 118.566C193.585 118.589 193.554 118.624 193.536 118.665C193.528 118.692 193.511 118.716 193.488 118.732C193.464 118.748 193.436 118.755 193.408 118.753C193.366 118.751 193.324 118.761 193.287 118.779C193.249 118.798 193.217 118.826 193.192 118.86C193.003 118.855 192.814 118.84 192.627 118.813C192.645 118.816 192.663 118.816 192.681 118.813C192.681 118.813 192.627 118.813 192.647 118.813C192.472 119.103 192.283 118.766 192.041 118.759L192.074 119.433C191.97 119.435 191.866 119.424 191.765 119.399C191.435 119.285 191.401 119.473 191.414 119.716L191.239 119.763L189.434 119.662C189.434 119.446 189.306 119.419 189.138 119.419C189.107 119.414 189.08 119.398 189.059 119.375C189.038 119.352 189.026 119.322 189.023 119.291C189.023 118.544 188.956 118.476 188.35 118.449L188.262 118.328C188.229 118.328 188.222 118.295 188.262 118.261C188.262 118.052 188.262 117.89 187.986 117.89C187.986 117.89 187.939 117.89 187.939 117.837L187.845 117.675C187.844 117.632 187.831 117.59 187.807 117.554C187.783 117.518 187.75 117.49 187.71 117.473L187.609 117.345L187.528 117.244C187.512 117.238 187.5 117.226 187.492 117.211C187.485 117.196 187.483 117.179 187.488 117.163L187.38 117.015C187.38 116.671 187.38 116.341 186.935 116.301C186.886 116.278 186.844 116.244 186.812 116.2C186.78 116.156 186.76 116.105 186.753 116.052C186.751 116.011 186.738 115.971 186.715 115.937C186.693 115.903 186.662 115.875 186.625 115.856C186.598 115.848 186.574 115.831 186.557 115.808C186.54 115.785 186.531 115.757 186.531 115.728L186.45 115.627C186.454 115.61 186.454 115.591 186.45 115.573L186.37 115.439L186.289 115.338C186.281 115.335 186.274 115.33 186.268 115.325C186.262 115.319 186.258 115.312 186.255 115.304C186.251 115.297 186.25 115.289 186.25 115.281C186.25 115.272 186.252 115.264 186.255 115.257L186.147 115.122L186.066 115.008C185.95 114.924 185.867 114.803 185.831 114.664C185.829 114.623 185.815 114.584 185.791 114.55C185.767 114.517 185.734 114.491 185.696 114.476C185.671 114.464 185.65 114.447 185.634 114.424C185.619 114.401 185.61 114.375 185.608 114.348C185.609 114.305 185.598 114.263 185.575 114.227C185.552 114.191 185.519 114.163 185.48 114.146C185.454 114.141 185.431 114.126 185.415 114.105C185.399 114.084 185.391 114.058 185.393 114.031C185.386 113.98 185.386 113.928 185.393 113.876C185.514 113.304 185.514 113.304 184.935 113.384L184.551 113.155C184.539 113.123 184.518 113.095 184.49 113.075L184.436 112.96L184.349 112.846C184.311 112.826 184.28 112.798 184.257 112.762C184.235 112.726 184.222 112.686 184.221 112.644L184.12 112.522L184.053 112.428L183.978 112.32L184.066 112.199C183.783 112.058 184.012 111.593 183.628 111.525C183.628 111.525 183.595 111.424 183.628 111.384C183.662 111.344 183.723 111.283 183.79 111.337C183.857 111.391 183.918 111.431 183.972 111.337C184.026 111.243 183.972 111.168 183.918 111.101C183.864 111.034 183.696 110.852 183.507 110.933C183.318 111.014 183.19 110.879 183.029 110.933C183.029 110.758 183.029 110.609 182.813 110.603C182.813 110.441 182.934 110.145 182.544 110.246C182.591 110.138 182.544 110.098 182.436 110.071C182.443 109.947 182.443 109.824 182.436 109.7C182.389 109.316 182.322 109.262 181.877 109.235C181.877 108.993 181.877 108.818 181.567 108.784C181.492 108.526 181.454 108.258 181.453 107.989C181.453 107.518 181.453 107.525 180.941 107.545C180.853 107.541 180.767 107.522 180.685 107.491C180.656 107.484 180.631 107.467 180.613 107.444C180.595 107.421 180.584 107.392 180.584 107.363L180.51 107.269C180.494 107.261 180.481 107.248 180.473 107.232C180.466 107.216 180.464 107.198 180.469 107.181L180.368 107.053L180.287 106.945C180.279 106.944 180.272 106.941 180.265 106.936C180.259 106.931 180.253 106.925 180.249 106.918C180.245 106.911 180.243 106.903 180.243 106.895C180.242 106.887 180.244 106.879 180.247 106.871L180.146 106.723C180.13 106.717 180.118 106.705 180.11 106.69C180.103 106.676 180.101 106.658 180.106 106.642C180.267 106.393 180.234 106.346 179.843 106.292H179.809L179.708 106.124L179.621 106.016H179.587V105.975L179.466 105.814C179.482 105.741 179.483 105.665 179.469 105.592C179.456 105.519 179.428 105.448 179.387 105.386C179.346 105.323 179.294 105.269 179.232 105.227C179.17 105.185 179.101 105.155 179.028 105.14C178.961 104.386 178.94 104.359 178.408 104.244C178.408 103.995 178.408 103.739 178.065 103.726L177.97 103.605C177.97 103.389 177.97 103.227 177.694 103.227C177.654 103.227 177.64 103.227 177.647 103.16L177.56 103.019L177.486 102.924C177.469 102.917 177.455 102.905 177.447 102.889C177.438 102.873 177.435 102.855 177.438 102.837C177.492 102.709 177.607 102.547 177.438 102.46C177.27 102.372 177.081 102.029 176.812 101.934C176.812 101.752 176.846 101.544 176.563 101.53C176.55 101.529 176.538 101.526 176.527 101.52C176.516 101.515 176.506 101.507 176.498 101.498C176.49 101.488 176.484 101.477 176.48 101.466C176.476 101.454 176.474 101.441 176.475 101.429C176.475 101.288 176.408 101.153 176.388 101.011C176.367 100.87 176.233 100.749 176.044 100.762L175.957 100.648C176.012 100.493 176.016 100.325 175.968 100.168C175.919 100.011 175.82 99.8747 175.687 99.7789C175.565 99.6733 175.474 99.5357 175.424 99.3815C175.344 99.1121 175.162 99.139 174.96 99.1525C174.96 99.0515 174.96 98.9706 174.825 98.9437C174.825 98.7753 174.744 98.6204 174.542 98.58C174.507 98.5564 174.476 98.5256 174.453 98.4897C174.43 98.4538 174.414 98.4134 174.407 98.3712L174.32 98.2567L174.212 98.095C174.212 97.866 174.212 97.6438 173.902 97.6505C173.9 97.6096 173.887 97.5701 173.864 97.5359C173.842 97.5016 173.811 97.4738 173.774 97.4552C173.779 97.4285 173.778 97.4011 173.772 97.3747C173.765 97.3484 173.754 97.3236 173.737 97.3021C173.721 97.2806 173.7 97.2627 173.676 97.2496C173.652 97.2365 173.626 97.2286 173.599 97.2262C173.583 97.2188 173.57 97.2059 173.563 97.1899C173.555 97.1738 173.554 97.1556 173.559 97.1386L173.471 97.0106H173.438V96.9702C173.491 96.7008 173.35 96.5661 173.114 96.4988L173.02 96.3775C172.919 96.3775 172.905 96.263 172.899 96.1755L172.798 96.0475C172.79 96.0125 172.776 95.9795 172.755 95.9505C172.734 95.9215 172.707 95.8972 172.676 95.8791L172.589 95.7511C172.589 95.7087 172.576 95.6674 172.552 95.6325C172.528 95.5976 172.494 95.5708 172.454 95.5558C172.428 95.5494 172.405 95.5334 172.39 95.5109C172.375 95.4885 172.369 95.4612 172.373 95.4346C172.373 95.2729 172.373 95.1315 172.151 95.118L172.064 95.0035C172.03 94.9819 172.002 94.9532 171.981 94.9194C171.96 94.8856 171.947 94.8476 171.942 94.8082C171.942 94.7206 171.942 94.633 171.942 94.5455C171.942 94.1885 171.942 94.1885 171.511 94.1414L171.424 94.0403C171.355 93.9891 171.307 93.915 171.289 93.8315L171.201 93.7103C171.199 93.6694 171.186 93.6299 171.163 93.5957C171.141 93.5614 171.11 93.5336 171.073 93.515C171.006 93.2792 171.073 92.9627 170.676 92.9559C170.668 92.9537 170.66 92.9497 170.654 92.9443C170.647 92.9389 170.642 92.9322 170.638 92.9245C170.634 92.9169 170.632 92.9086 170.631 92.9001C170.631 92.8915 170.632 92.883 170.636 92.8751C170.641 92.8472 170.641 92.8183 170.636 92.7904C170.63 92.7624 170.618 92.7359 170.602 92.7126C170.586 92.6892 170.565 92.6695 170.54 92.6546C170.516 92.6397 170.489 92.6299 170.46 92.6259C170.452 92.6243 170.445 92.6211 170.438 92.6165C170.431 92.6118 170.425 92.6059 170.421 92.599C170.417 92.592 170.414 92.5843 170.412 92.5762C170.411 92.5681 170.411 92.5598 170.413 92.5518L170.312 92.4104C170.312 92.2622 170.279 92.1544 170.117 92.1275C170.211 91.8446 170.205 91.8379 169.895 91.8109L169.814 91.6964C169.799 91.6917 169.786 91.6814 169.779 91.6675C169.771 91.6537 169.769 91.6375 169.773 91.6223C169.79 91.4748 169.754 91.3261 169.671 91.2027C169.589 91.0793 169.465 90.9893 169.322 90.9488L169.228 90.8073C169.154 90.5985 169.228 90.4571 169.47 90.4099C169.388 90.3438 169.292 90.2977 169.189 90.2755C169.086 90.2533 168.98 90.2555 168.878 90.282C168.918 90.1405 168.878 89.9587 169.14 89.9789C169.403 89.9991 169.336 89.8442 169.228 89.7162C169.12 89.5882 169.019 89.4602 168.831 89.6084C168.812 89.6274 168.789 89.6416 168.764 89.6501C168.739 89.6585 168.712 89.6608 168.686 89.6569C168.659 89.6529 168.634 89.6428 168.613 89.6274C168.591 89.6119 168.573 89.5916 168.561 89.568C168.529 89.5156 168.484 89.4718 168.432 89.4401C168.379 89.4085 168.319 89.39 168.258 89.3862H168.224C168.218 89.3526 168.203 89.321 168.182 89.2941C168.161 89.2671 168.134 89.2456 168.103 89.2312C168.114 89.0612 168.067 88.8925 167.971 88.752C167.874 88.6116 167.734 88.5076 167.571 88.4567L167.483 88.3422C167.45 88.3422 167.443 88.3085 167.483 88.2748C167.584 87.8168 167.584 87.8168 167.16 87.8033C167.16 87.6417 167.16 87.4935 166.945 87.4733C166.949 87.4293 166.939 87.385 166.916 87.3473C166.893 87.3096 166.858 87.2805 166.817 87.2645C166.918 86.591 166.871 86.5236 166.285 86.4899C166.285 86.4388 166.271 86.3887 166.243 86.3456C166.216 86.3025 166.176 86.2684 166.13 86.2475C166.124 86.2468 166.118 86.2448 166.112 86.2415C166.107 86.2383 166.103 86.2339 166.1 86.2287C166.096 86.2235 166.094 86.2177 166.094 86.2116C166.093 86.2055 166.094 86.1993 166.096 86.1936L165.981 86.0454C165.982 86.0047 165.97 85.9648 165.949 85.9302C165.928 85.8957 165.897 85.8679 165.86 85.8501L165.766 85.7221C165.766 85.1024 165.766 85.1024 165.301 84.9947C165.348 84.7455 165.301 84.5636 164.998 84.5434C164.998 84.4222 164.944 84.3413 164.823 84.3211L164.776 84.2201C164.781 84.1752 164.771 84.1299 164.748 84.091C164.725 84.0521 164.69 84.0218 164.648 84.0046C164.648 83.7823 164.594 83.5937 164.331 83.5466L164.23 83.4253C164.232 83.3852 164.222 83.3454 164.202 83.3108C164.181 83.2761 164.152 83.2481 164.116 83.23L164.021 83.1155C163.988 83.1155 163.981 83.1155 164.021 83.0481C164.069 82.5632 163.947 82.3746 163.489 82.2466C163.491 82.2031 163.479 82.1601 163.457 82.123C163.434 82.0859 163.401 82.0563 163.361 82.0378L163.26 81.9099C163.265 81.8658 163.255 81.8216 163.232 81.7839C163.208 81.7461 163.174 81.7171 163.132 81.7011L163.038 81.5663C163.027 81.4005 162.955 81.2445 162.836 81.1285L162.674 81.041C162.659 81.0355 162.646 81.0255 162.636 81.0123C162.626 80.9991 162.621 80.9833 162.62 80.9669C162.622 80.9302 162.612 80.8938 162.592 80.8634C162.571 80.833 162.541 80.8102 162.506 80.7985C162.506 80.7985 162.472 80.7985 162.506 80.7446C162.506 80.7015 162.491 80.6597 162.462 80.6274C162.433 80.5951 162.394 80.5745 162.351 80.5695C162.353 80.5329 162.344 80.4965 162.324 80.4653C162.305 80.434 162.277 80.4093 162.243 80.3944C162.244 80.3518 162.233 80.3099 162.21 80.274C162.187 80.238 162.154 80.2096 162.115 80.1923C162.109 80.1654 162.096 80.1405 162.077 80.1204C162.058 80.1003 162.034 80.0856 162.008 80.0778C162.008 79.9162 162.008 79.768 161.779 79.7613L161.678 79.6333C161.676 79.5721 161.654 79.513 161.617 79.4646C161.579 79.4162 161.528 79.3809 161.469 79.3639C161.442 79.3544 161.419 79.3372 161.402 79.3144C161.385 79.2916 161.376 79.2642 161.374 79.2359C161.373 79.1678 161.351 79.1018 161.311 79.0465C161.272 78.9912 161.216 78.9492 161.152 78.9261C161.152 78.8318 161.105 78.7577 160.997 78.7509H161.031H160.997C161.038 78.596 160.997 78.5152 160.822 78.5017C160.775 78.2727 160.741 78.037 160.452 77.9898C160.454 77.9605 160.451 77.9308 160.442 77.9027C160.433 77.8747 160.418 77.8488 160.398 77.8267C160.379 77.8046 160.355 77.7867 160.328 77.7742C160.301 77.7617 160.272 77.7549 160.243 77.7541C160.251 77.703 160.249 77.6507 160.237 77.6004C160.224 77.5501 160.201 77.5029 160.17 77.4619C160.138 77.4208 160.098 77.3867 160.053 77.3616C160.008 77.3366 159.958 77.3211 159.906 77.3163C159.909 77.2872 159.902 77.258 159.886 77.2335C159.87 77.209 159.846 77.1907 159.819 77.1816C159.814 77.1534 159.801 77.1272 159.782 77.1057C159.763 77.0843 159.738 77.0686 159.711 77.0604C159.711 76.9324 159.677 76.8112 159.542 76.7775C159.408 76.7438 159.327 76.8381 159.286 76.9593C159.051 77.3426 158.878 77.761 158.775 78.1986C158.31 79.3571 157.96 80.556 157.582 81.7415C157.259 82.7585 156.909 83.7621 156.498 84.7522C155.838 86.4136 155.119 88.0503 154.343 89.6623C153.925 90.5447 153.467 91.4068 152.996 92.2622C152.14 93.8248 151.265 95.3874 150.301 96.8759C150.094 97.0509 149.838 97.1589 149.567 97.1858C149.244 97.2194 148.894 97.2733 148.604 97.3272C147.931 97.4552 147.796 97.3609 147.789 96.6537C147.789 96.5661 147.789 96.4718 147.789 96.3843C147.834 95.1869 147.635 93.9928 147.203 92.8751C146.618 91.1834 145.491 89.7321 143.997 88.7463C142.497 87.763 140.68 87.3829 138.912 87.6821C137.102 87.9339 135.45 88.8454 134.271 90.2416C133.719 90.868 133.214 91.5348 132.621 92.114C131.597 93.1108 130.681 94.2155 129.61 95.1719C128.539 96.1283 127.549 97.0376 126.505 97.9603C125.017 99.3074 123.474 100.533 121.891 101.739C120.147 103.086 118.349 104.312 116.557 105.565C115.21 106.501 113.863 107.397 112.475 108.259C111.324 108.973 110.091 109.552 108.872 110.151C108.286 110.395 107.765 110.77 107.35 111.249C106.825 111.928 106.509 112.745 106.44 113.6C106.39 113.978 106.39 114.361 106.44 114.738C106.518 115.196 106.716 115.624 107.014 115.979C107.313 116.334 107.701 116.604 108.138 116.759C109.458 117.24 110.808 117.636 112.179 117.944C112.778 118.099 113.371 118.254 113.977 118.362C115.378 118.611 116.779 118.874 118.187 119.116C119.716 119.386 121.252 119.588 122.787 119.756C123.752 119.892 124.723 119.977 125.697 120.012C125.761 120.008 125.824 120.018 125.884 120.041C125.943 120.065 125.996 120.101 126.04 120.147C125.973 120.147 125.939 120.147 125.919 120.221C124.996 120.719 124.08 121.238 123.151 121.723C121.46 122.592 119.75 123.407 117.998 124.148C116.247 124.889 114.536 125.495 112.772 126.128C111.007 126.761 109.263 127.246 107.478 127.704C105.585 128.189 103.686 128.613 101.766 128.963C100.682 129.159 99.5838 129.273 98.4994 129.489C98.3781 129.489 98.2501 129.489 98.1222 129.489C96.8492 129.61 95.5695 129.751 94.2897 129.853C93.3535 129.927 92.4105 129.954 91.4676 129.974C90.5246 129.994 89.447 130.021 88.4232 129.974C87.2714 129.913 86.1197 129.873 84.9679 129.785C83.8162 129.698 82.5566 129.576 81.3577 129.428C79.1553 129.159 76.9662 128.755 74.784 128.33C72.6017 127.906 70.2578 127.36 68.0486 126.741C65.642 126.068 63.2799 125.244 60.9764 124.276C58.3661 123.193 55.8204 121.96 53.3519 120.585C50.5721 119.033 47.8888 117.314 45.3166 115.439C44.0413 114.509 42.7975 113.546 41.5851 112.549C39.7329 111.034 37.948 109.444 36.2507 107.76C35.0248 106.548 33.8192 105.329 32.6675 104.049C31.2059 102.426 29.8251 100.729 28.5184 98.9774C27.4004 97.4821 26.3362 95.9532 25.3393 94.3771C24.5513 93.1176 23.7969 91.8446 23.1301 90.5177C24.1067 90.4571 25.0834 90.383 26.0465 90.2281C29.4413 89.7201 32.7173 88.6068 35.7186 86.9412C36.9093 86.3207 37.9865 85.5031 38.9044 84.5232C39.1985 84.1997 39.4498 83.8398 39.6521 83.4523C39.7428 83.3031 39.7751 83.1255 39.7428 82.9539C39.7104 82.7823 39.6157 82.6288 39.477 82.5228C39.2075 82.314 38.992 82.3207 38.635 82.5834C38.4501 82.7268 38.2787 82.8868 38.1231 83.0616C37.5933 83.61 37.0062 84.1 36.3719 84.5232C34.6462 85.6701 32.7722 86.5764 30.8017 87.2174C28.8858 87.8928 26.8919 88.3228 24.8678 88.4971C23.9451 88.5577 23.0223 88.4971 22.0996 88.5577C21.7578 88.0086 21.4626 87.4319 21.2173 86.8334C20.7188 85.776 20.2541 84.6916 19.8028 83.6139C19.5603 83.0481 19.2842 82.5026 19.008 81.957C18.5957 81.1694 18.4971 80.2549 18.7319 79.3975C18.8194 77.6733 19.1158 76.3936 19.5334 75.1542ZM199.551 91.6695C199.551 91.5819 199.551 91.4337 199.416 91.4337C199.281 91.4337 199.234 91.5752 199.234 91.7099C199.234 91.8446 199.275 91.9389 199.396 91.9456C199.517 91.9524 199.531 91.7907 199.551 91.6695ZM179.075 103.12C179.075 102.998 179.028 102.911 178.9 102.897C178.772 102.884 178.711 102.897 178.698 103.025C178.691 103.056 178.691 103.088 178.698 103.118C178.704 103.149 178.718 103.177 178.737 103.202C178.757 103.226 178.782 103.246 178.81 103.26C178.838 103.274 178.869 103.281 178.9 103.281C179.014 103.308 179.062 103.241 179.075 103.14V103.12ZM200.399 95.1988C200.399 95.0372 200.345 94.9698 200.244 94.9765C200.143 94.9833 200.103 95.0709 200.11 95.1719C200.117 95.2729 200.164 95.3403 200.271 95.3335C200.303 95.3323 200.333 95.3202 200.356 95.2993C200.379 95.2784 200.395 95.25 200.399 95.219V95.1988ZM200.399 105.571C200.401 105.553 200.399 105.534 200.393 105.516C200.387 105.498 200.378 105.481 200.365 105.467C200.352 105.453 200.337 105.442 200.32 105.435C200.302 105.427 200.284 105.423 200.265 105.423C200.164 105.423 200.11 105.491 200.11 105.592C200.11 105.693 200.11 105.773 200.251 105.773C200.393 105.773 200.399 105.746 200.399 105.592V105.571ZM180.779 105.659C180.77 105.625 180.75 105.595 180.722 105.575C180.694 105.554 180.659 105.543 180.624 105.544C180.611 105.545 180.598 105.549 180.587 105.555C180.575 105.561 180.565 105.569 180.557 105.579C180.549 105.589 180.543 105.601 180.539 105.614C180.536 105.626 180.535 105.639 180.537 105.652C180.537 105.753 180.604 105.807 180.712 105.78C180.732 105.772 180.749 105.758 180.761 105.74C180.773 105.722 180.779 105.701 180.779 105.679V105.659ZM165.692 84.1932C165.692 84.1258 165.692 84.0517 165.604 84.0382C165.517 84.0248 165.517 84.0382 165.503 84.1258C165.49 84.2134 165.503 84.2807 165.564 84.3077C165.624 84.3346 165.692 84.2807 165.692 84.1932ZM167.254 86.6381C167.254 86.692 167.302 86.7324 167.362 86.7189C167.391 86.698 167.41 86.6665 167.416 86.6314C167.416 86.5775 167.416 86.5236 167.335 86.5303C167.254 86.5371 167.261 86.591 167.261 86.6516L167.254 86.6381ZM185.002 112.697C185.004 112.684 185.003 112.671 185 112.658C184.996 112.645 184.989 112.634 184.98 112.624C184.971 112.614 184.959 112.607 184.947 112.602C184.935 112.597 184.921 112.595 184.908 112.596C184.891 112.597 184.874 112.602 184.859 112.61C184.844 112.618 184.83 112.63 184.82 112.644C184.82 112.697 184.82 112.738 184.881 112.751C184.904 112.761 184.929 112.763 184.953 112.755C184.976 112.748 184.996 112.732 185.009 112.711L185.002 112.697ZM182.214 108.367C182.214 108.306 182.167 108.266 182.106 108.286C182.092 108.295 182.08 108.307 182.071 108.321C182.061 108.334 182.055 108.35 182.052 108.367C182.049 108.379 182.049 108.392 182.052 108.405C182.054 108.417 182.06 108.429 182.067 108.439C182.075 108.45 182.085 108.458 182.096 108.464C182.108 108.47 182.12 108.474 182.133 108.474C182.2 108.481 182.221 108.441 182.221 108.38L182.214 108.367ZM170.912 92.2757C170.912 92.215 170.871 92.1746 170.811 92.1881C170.75 92.2016 170.757 92.242 170.764 92.2689C170.77 92.2959 170.804 92.37 170.865 92.3632C170.925 92.3565 170.898 92.2757 170.912 92.2757ZM198.298 87.2443C198.321 87.2603 198.346 87.2739 198.372 87.2847C198.372 87.2847 198.406 87.2847 198.372 87.251C198.361 87.2272 198.348 87.2046 198.332 87.1837L198.298 87.2443ZM189.05 119.008C189.072 119.028 189.097 119.044 189.124 119.056C189.114 119.028 189.098 119.003 189.077 118.982L189.05 119.008ZM179.412 104.797C179.394 104.822 179.378 104.849 179.365 104.878C179.365 104.878 179.365 104.878 179.398 104.878L179.472 104.83L179.412 104.797ZM163.806 81.371C163.829 81.387 163.854 81.4006 163.88 81.4114C163.88 81.4114 163.914 81.4114 163.88 81.3778C163.871 81.3531 163.857 81.3303 163.84 81.3104L163.806 81.371Z" fill="#4FC7F3"/>
<path d="M125.818 119.675C125.774 119.629 125.721 119.593 125.661 119.57C125.602 119.547 125.538 119.537 125.475 119.541C124.501 119.506 123.53 119.42 122.565 119.285C121.029 119.116 119.494 118.914 117.965 118.645C116.557 118.402 115.156 118.14 113.755 117.89C113.149 117.783 112.556 117.628 111.957 117.473C110.586 117.165 109.236 116.769 107.916 116.287C107.478 116.132 107.091 115.863 106.792 115.508C106.494 115.153 106.296 114.724 106.218 114.267C106.168 113.889 106.168 113.506 106.218 113.129C107.134 112.933 108.064 112.785 108.966 112.536C110.118 112.219 111.283 111.983 112.442 111.714C113.789 111.398 115.136 111.041 116.483 110.805C117.015 110.712 117.541 110.591 118.059 110.441C118.84 110.205 119.649 110.091 120.43 109.875C121.211 109.66 122.154 109.485 123.016 109.289L125.232 108.771C126.579 108.474 127.926 108.151 129.24 107.855C129.913 107.706 130.54 107.565 131.186 107.39C132.318 107.087 133.476 106.871 134.621 106.622C135.659 106.393 136.689 106.124 137.733 105.901C139.356 105.544 140.973 105.154 142.583 104.763C143.303 104.588 144.024 104.406 144.745 104.244C145.944 103.982 147.143 103.719 148.335 103.436C149.527 103.153 150.854 102.763 152.127 102.507C153.4 102.251 154.821 101.867 156.168 101.597C156.963 101.436 157.758 101.254 158.559 101.133C158.976 101.126 159.386 101.017 159.751 100.816C160.997 102.169 161.838 103.845 162.176 105.652C162.446 106.949 162.41 108.291 162.069 109.572C161.729 110.852 161.094 112.036 160.216 113.027C158.92 114.448 157.323 115.562 155.542 116.287C153.018 117.386 150.369 118.171 147.654 118.625C145.957 118.948 144.24 119.19 142.515 119.365C140.791 119.541 139.1 119.621 137.383 119.696C134.756 119.817 132.136 119.743 129.509 119.749C128.681 119.749 127.852 119.682 127.024 119.642C126.622 119.598 126.217 119.609 125.818 119.675Z" fill="#37659F"/>
<path d="M159.738 100.816C159.372 101.017 158.963 101.126 158.546 101.133C157.744 101.254 156.949 101.436 156.155 101.597C154.808 101.867 153.46 102.271 152.113 102.507C150.766 102.742 149.588 103.14 148.321 103.436C147.055 103.733 145.93 103.982 144.731 104.244C144.011 104.406 143.29 104.588 142.569 104.763C140.96 105.154 139.343 105.544 137.72 105.901C136.676 106.124 135.645 106.393 134.608 106.622C133.463 106.871 132.305 107.087 131.173 107.39C130.499 107.565 129.873 107.706 129.226 107.855C127.879 108.151 126.532 108.474 125.219 108.771L123.003 109.289C122.141 109.485 121.265 109.633 120.417 109.875C119.568 110.118 118.827 110.205 118.046 110.441C117.527 110.591 117.001 110.712 116.47 110.805C115.123 111.054 113.775 111.397 112.428 111.714C111.27 111.983 110.105 112.219 108.953 112.536C108.05 112.785 107.121 112.933 106.205 113.129C106.274 112.273 106.59 111.457 107.114 110.778C107.53 110.299 108.051 109.923 108.636 109.68C109.855 109.081 111.088 108.501 112.24 107.787C113.621 106.925 114.988 106.029 116.321 105.093C118.113 103.84 119.911 102.594 121.656 101.267C123.239 100.062 124.781 98.809 126.27 97.4889C127.314 96.5661 128.344 95.6299 129.375 94.7004C130.405 93.7709 131.362 92.6394 132.385 91.6425C132.978 91.0633 133.483 90.3965 134.036 89.7701C135.214 88.3739 136.867 87.4624 138.676 87.2106C140.445 86.9114 142.261 87.2915 143.761 88.2748C145.256 89.2606 146.383 90.7119 146.968 92.4036C147.399 93.5213 147.599 94.7154 147.554 95.9128C147.554 96.0003 147.554 96.0946 147.554 96.1822C147.554 96.8557 147.675 96.9702 148.369 96.8557C148.685 96.8019 149.008 96.748 149.332 96.7143C149.602 96.6874 149.858 96.5794 150.066 96.4045C150.066 96.6065 150.167 96.6402 150.329 96.6335C150.766 96.6335 151.197 96.6941 151.628 96.7076C153.933 96.8207 156.141 97.6653 157.933 99.1188C158.59 99.6229 159.194 100.192 159.738 100.816Z" fill="#4577BB"/>
<path d="M16.0512 50.3814C14.6791 50.3629 13.3431 49.9393 12.2108 49.164C11.0786 48.3888 10.2006 47.2963 9.68712 46.0237C9.17363 44.7512 9.04753 43.3553 9.32463 42.0113C9.60173 40.6673 10.2697 39.4352 11.2446 38.4695C12.2196 37.5039 13.4581 36.8478 14.8047 36.5836C16.1512 36.3193 17.5459 36.4588 18.8134 36.9845C20.081 37.5102 21.165 38.3986 21.9294 39.5382C22.6938 40.6778 23.1045 42.0179 23.1099 43.3901C23.1219 44.3172 22.947 45.2373 22.5957 46.0954C22.2443 46.9535 21.7238 47.732 21.065 48.3845C20.4062 49.037 19.6227 49.5501 18.7613 49.8932C17.8999 50.2363 16.9782 50.4023 16.0512 50.3814Z" fill="#9EE5FC"/>
<path d="M10.7775 56.2075C10.7525 57.6366 10.1608 58.9972 9.1326 59.99C8.10441 60.9829 6.72393 61.5266 5.29486 61.5016C3.86579 61.4766 2.50518 60.8849 1.51235 59.8567C0.51953 58.8285 -0.0241827 57.448 0.000826072 56.0189C0.0114912 54.613 0.577507 53.2682 1.57549 52.2778C2.57348 51.2874 3.92251 50.7316 5.32854 50.7317C6.05096 50.7149 6.76924 50.8453 7.43968 51.1149C8.11012 51.3846 8.71871 51.7877 9.22841 52.3C9.73812 52.8122 10.1383 53.4228 10.4046 54.0945C10.6709 54.7663 10.7978 55.4852 10.7775 56.2075Z" fill="#9EE5FC"/>
<path d="M21.8437 88.1064C22.7664 88.0727 23.6892 88.1064 24.6119 88.0458C26.636 87.8715 28.6299 87.4415 30.5458 86.7661C32.5163 86.1251 34.3903 85.2187 36.116 84.0719C36.7503 83.6487 37.3374 83.1587 37.8672 82.6103C38.0289 82.4489 38.2047 82.3024 38.3926 82.1725C38.7496 81.9098 38.9651 81.9031 39.2345 82.1119C39.3733 82.2179 39.468 82.3714 39.5003 82.543C39.5327 82.7146 39.5004 82.8921 39.4096 83.0414C39.2074 83.4289 38.9561 83.7888 38.662 84.1123C37.7441 85.0922 36.6669 85.9098 35.4762 86.5303C32.4748 88.1959 29.1988 89.3092 25.8041 89.8172C24.8409 89.9721 23.8643 90.0462 22.8877 90.1068C22.4724 89.4773 22.1226 88.807 21.8437 88.1064Z" fill="white"/>
<path d="M12.9665 66.863C13.6056 66.867 14.2292 67.0604 14.7585 67.4186C15.2878 67.7769 15.699 68.284 15.9402 68.8759C16.1814 69.4677 16.2417 70.1178 16.1136 70.744C15.9855 71.3702 15.6747 71.9443 15.2204 72.3939C14.7661 72.8435 14.1888 73.1483 13.5613 73.2699C12.9338 73.3915 12.2844 73.3244 11.6951 73.077C11.1057 72.8297 10.6029 72.4132 10.2502 71.8802C9.89746 71.3472 9.71061 70.7217 9.71326 70.0825C9.71051 69.6561 9.79303 69.2335 9.95596 68.8394C10.1189 68.4453 10.359 68.0878 10.6621 67.7879C10.9651 67.4879 11.3251 67.2516 11.7209 67.0928C12.1166 66.9339 12.5401 66.8558 12.9665 66.863Z" fill="#9DE4FA"/>
<path d="M79.2969 0.2161C79.2711 0.218043 79.2456 0.210051 79.2255 0.193767C79.2055 0.177483 79.1925 0.154143 79.1891 0.12854C79.1891 0.0477151 79.2228 -0.00616821 79.3103 0.000567197C79.3359 0.00393717 79.3593 0.0169829 79.3756 0.0370249C79.3918 0.0570668 79.3998 0.0825834 79.3979 0.108334C79.3979 0.175688 79.3507 0.195894 79.2969 0.2161Z" fill="#52AECF"/>
<path d="M54.0928 61.0032C57.1305 60.7876 59.7236 63.5896 59.663 66.5936C59.6478 68.0744 59.045 69.4886 57.9871 70.525C56.9293 71.5614 55.503 72.1351 54.0221 72.12C52.5412 72.1048 51.1271 71.5019 50.0906 70.4441C49.0542 69.3862 48.4805 67.9599 48.4957 66.4791C48.4957 63.4885 51.1495 60.7674 54.0928 61.0032Z" fill="white"/>
</svg>
