<svg width="200" height="129" viewBox="0 0 200 129" fill="none" xmlns="http://www.w3.org/2000/svg">
<path d="M78.6111 0.189784C78.6309 0.162685 78.6396 0.128993 78.6356 0.095546C78.6348 0.0779678 78.6295 0.0611221 78.6201 0.0462296C78.6169 0.0413467 78.6133 0.0367081 78.6093 0.0323135C78.6016 0.0240128 78.5923 0.0169327 78.582 0.0113174C78.5665 0.0032608 78.5491 -0.000645446 78.5316 8.69759e-05C78.5219 0.000575257 78.5122 0.00228424 78.5031 0.00545807C78.4958 0.00789948 78.4889 0.0113174 78.4824 0.0154678L78.4752 0.0196182L78.4658 0.02621C78.4601 0.0303604 78.4547 0.0349991 78.4496 0.0398819L78.4382 0.0518448L78.4312 0.0606338C78.4175 0.0789444 78.4077 0.0999405 78.4023 0.122157C78.4017 0.130946 78.4022 0.139735 78.4037 0.148524L78.406 0.158778L78.4099 0.170985C78.416 0.186366 78.4254 0.200526 78.4375 0.212001C78.4496 0.223476 78.4641 0.232021 78.4799 0.237148C78.4957 0.242519 78.5125 0.244228 78.529 0.242274C78.562 0.235683 78.5913 0.216884 78.6111 0.189784Z" fill="#082653"/>
<path fill-rule="evenodd" clip-rule="evenodd" d="M20.2175 71.7601C20.353 71.3702 20.4929 70.982 20.634 70.5943C21.0806 69.368 21.5004 68.3216 21.967 67.202C22.7134 65.4359 23.5665 63.723 24.4662 62.0301C25.8135 59.5426 27.3206 57.1449 28.9782 54.8524C29.6979 53.8326 30.4711 52.8529 31.2775 51.88C32.0839 50.9068 32.7903 50.0206 33.5901 49.1275C34.8497 47.7079 36.1827 46.3548 37.549 45.0352C38.9152 43.7157 40.2148 42.5094 41.6477 41.3297C43.7669 39.5621 45.9926 37.9261 48.3124 36.4312C50.6467 34.9239 53.0704 33.5594 55.5701 32.3458C58.3666 30.9974 61.2632 29.8678 64.2342 28.9669C67.1 28.087 69.9991 27.294 72.9382 26.6808C74.6977 26.3209 76.4772 26.0145 78.27 25.7877C78.6865 25.7362 79.1043 25.6934 79.5225 25.6551C79.9124 25.6192 80.3027 25.587 80.6927 25.5548H80.6971C81.2932 25.5057 81.8888 25.4566 82.4821 25.3946C83.6954 25.2657 84.9055 25.2638 86.1146 25.2618C86.4576 25.2613 86.8007 25.2608 87.1436 25.2574C87.3448 25.2555 87.546 25.2525 87.7471 25.2479C88.6935 25.2479 89.6399 25.3214 90.5862 25.348C91.426 25.348 92.2591 25.4478 93.0922 25.5479C93.193 25.5526 93.2938 25.5438 93.3918 25.5221C93.4587 25.5074 93.5245 25.4867 93.5881 25.46C93.7449 25.3944 93.8851 25.2945 93.9985 25.1681C94.1873 25.0003 94.3636 24.816 94.5308 24.6412L94.665 24.5016C98.569 20.6275 102.9 17.2088 107.574 14.3114C110.734 12.336 114.036 10.5963 117.451 9.10604C121.215 7.43808 125.145 6.17343 129.175 5.33407C130.508 5.06747 131.84 4.8475 133.173 4.66757C134.981 4.43124 136.803 4.33114 138.625 4.36752C141.02 4.40585 143.397 4.78964 145.683 5.50717C147.958 6.18539 150.023 7.43319 151.681 9.1329C152.366 9.8497 153.003 10.6109 153.587 11.4122C154.017 12.0125 154.383 12.6558 154.68 13.3316C155.31 14.6187 155.759 15.9869 156.013 17.3971C156.358 19.526 156.114 21.7086 155.307 23.7083C154.586 25.4525 153.463 27.0018 152.031 28.2306C150.598 29.4591 148.896 30.3326 147.063 30.7796C145.244 31.264 143.343 31.3617 141.484 31.0662C141.396 31.0597 141.306 31.0597 141.218 31.0662C141.218 31.2313 141.326 31.2806 141.424 31.3253C141.452 31.3382 141.48 31.3509 141.504 31.3661C143.187 32.4305 144.623 33.8414 145.716 35.505C146.418 36.5289 146.875 37.7013 147.049 38.9305C147.205 39.7535 147.149 40.6026 146.888 41.3985C146.627 42.1944 146.169 42.9112 145.556 43.4825C144.718 44.2188 143.687 44.6998 142.584 44.8687C140.544 45.1829 138.456 44.8766 136.592 43.9889L136.106 43.7691C136.056 43.9193 136.145 43.9767 136.223 44.0265C136.238 44.0362 136.253 44.0457 136.266 44.0555C137.74 45.2757 139.099 46.6292 140.453 47.9771L140.488 48.0123L140.49 48.0145L140.691 48.2144C145.259 52.8482 149.223 58.0411 152.488 63.6698C153.82 65.9691 154.974 68.335 156.073 70.7608C156.36 71.3778 156.685 71.9766 157.046 72.5538C157.067 72.5982 157.093 72.6402 157.123 72.6788C157.148 72.7105 157.176 72.7401 157.206 72.7669L157.272 72.825L157.315 72.8643L157.393 72.9364L157.434 72.9749L157.436 72.9764C157.562 73.0951 157.627 73.1563 157.687 73.1515C157.75 73.1466 157.808 73.0667 157.928 72.9027L157.929 72.9005L157.95 72.8717L157.961 72.8573C157.994 72.8126 158.031 72.7623 158.073 72.7069L158.416 72.2579C159.39 70.9889 160.364 69.7179 161.258 68.3883C161.746 67.6612 162.231 66.9337 162.716 66.2061L163.191 65.4935C164.126 64.0904 165.06 62.6881 166.003 61.2904C169.056 56.785 172.113 52.2865 175.174 47.7945C176.933 45.2191 178.706 42.6493 180.478 40.0794C181.499 38.5992 182.52 37.1192 183.538 35.6383C184.053 34.8885 184.566 34.1388 185.077 33.389C185.384 32.9376 185.69 32.4862 185.996 32.0348L186.497 31.2928C186.745 30.9185 187.076 30.6063 187.464 30.3797C187.686 30.2596 187.931 30.1891 188.183 30.1729C188.435 30.1568 188.688 30.1956 188.923 30.2865C190.585 30.8101 192.123 31.6673 193.442 32.8058C196.119 35.139 198.035 38.2223 198.94 41.6563C199.399 43.213 199.7 44.8116 199.84 46.4283L199.857 46.6312C199.932 47.5089 200.006 48.3824 200 49.2674C199.988 52.0728 199.586 54.8631 198.807 57.5582C198.032 60.3092 196.862 62.9334 195.335 65.3492C193.581 68.1966 191.172 70.5843 188.31 72.3138C187.068 73.0501 185.719 73.5897 184.311 73.9132C184.077 73.9661 183.843 74.0169 183.608 74.0643C183.283 74.13 182.957 74.1895 182.632 74.2398C182.505 74.2398 182.379 74.2398 182.299 74.3932C182.425 74.4522 182.556 74.4984 182.691 74.5311C182.815 74.5614 182.943 74.5799 183.072 74.5865C183.426 74.6038 183.773 74.6947 184.091 74.8529L184.082 74.8624C184.717 74.931 185.338 75.0941 185.924 75.346C187.79 76.0423 189.51 77.0797 190.996 78.4051C193.383 80.5069 195.325 83.0653 196.708 85.9295C198.213 88.943 199.215 92.1827 199.673 95.5201C200.405 100.353 199.802 105.295 197.927 109.809C196.958 112.072 195.509 114.098 193.682 115.747C192.295 117.004 190.657 117.951 188.877 118.526C188.526 118.665 188.14 118.688 187.775 118.593C187.41 118.499 187.084 118.291 186.844 118C186.244 117.308 185.708 116.563 185.244 115.774C184.902 115.225 184.533 114.696 184.164 114.165L184.15 114.145L184.136 114.125L184.123 114.106L183.96 113.871L183.805 113.648C182.88 112.3 181.95 110.956 181.02 109.613C179.78 107.821 178.54 106.029 177.313 104.231C173.946 99.2855 170.596 94.3338 167.263 89.3753C166.09 87.639 164.924 85.8988 163.759 84.1588C162.814 82.7462 161.868 81.3341 160.918 79.9246C160.054 78.6336 159.107 77.4039 158.16 76.1729L157.759 75.6527C157.759 75.6527 157.699 75.6527 157.639 75.586C157.465 75.6991 157.328 75.8614 157.246 76.0526C157.077 76.5936 156.885 77.127 156.695 77.6588L156.694 77.6617C156.488 78.2357 156.283 78.8075 156.107 79.3848C155.318 81.9171 154.366 84.3949 153.254 86.8026C152.09 89.3463 150.767 91.8148 149.295 94.1937C149.074 94.5951 148.83 94.9832 148.563 95.356C148.552 95.4017 148.537 95.4483 148.519 95.4959C148.537 95.4806 148.556 95.4657 148.575 95.4535C148.575 95.66 148.729 95.66 148.875 95.66C149.017 95.66 149.158 95.6644 149.298 95.671C149.435 95.6776 149.572 95.6864 149.708 95.6952H149.717C149.919 95.7081 150.12 95.721 150.322 95.7266C152.132 95.8314 153.884 96.4107 155.4 97.4061C156.419 98.0421 157.334 98.8309 158.112 99.7454L158.11 99.7567C159.37 101.118 160.215 102.812 160.545 104.637C160.783 105.837 160.757 107.074 160.47 108.263C160.182 109.451 159.639 110.564 158.879 111.522C157.879 112.77 156.616 113.783 155.18 114.488C152.831 115.684 150.328 116.552 147.742 117.067C145.996 117.449 144.237 117.749 142.464 117.967C141.025 118.147 139.585 118.266 138.145 118.386C137.778 118.419 137.411 118.42 137.045 118.42C136.66 118.421 136.275 118.422 135.893 118.46C134.152 118.587 132.407 118.567 130.664 118.547C129.952 118.539 129.24 118.531 128.528 118.533C127.562 118.535 126.596 118.484 125.636 118.38C125.266 118.313 124.886 118.34 124.53 118.46C124.506 118.415 124.479 118.38 124.448 118.353C124.463 118.372 124.477 118.394 124.489 118.42C123.81 118.847 123.101 119.214 122.393 119.58C122.162 119.7 121.932 119.818 121.704 119.939C120.057 120.806 118.371 121.586 116.658 122.319C114.946 123.052 113.173 123.718 111.393 124.318C108.98 125.17 106.522 125.887 104.029 126.464C102.19 126.884 100.337 127.27 98.4573 127.51C97.1081 127.682 95.7537 127.812 94.3986 127.941L93.8853 127.99C92.3591 128.137 91.0262 128.177 89.5933 128.203C88.6669 128.203 87.7339 128.203 86.8008 128.163C85.5545 128.13 84.3082 128.044 83.062 127.937C81.1558 127.777 79.2631 127.524 77.377 127.217C75.6309 126.931 73.8914 126.584 72.1652 126.217C68.4623 125.46 64.8303 124.39 61.3085 123.018C59.478 122.285 57.6763 121.485 55.9034 120.619C52.9431 119.167 50.0841 117.517 47.3461 115.681C45.5132 114.468 43.7538 113.148 42.0143 111.782C40.2748 110.416 38.5087 108.876 36.8425 107.33C35.7896 106.357 34.7965 105.33 33.7902 104.304C32.1572 102.624 30.6155 100.858 29.1716 99.0123C27.7231 97.1805 26.3685 95.2765 25.1128 93.3075C24.4463 92.2743 23.8465 91.2281 23.2466 90.1617C23.191 90.0514 23.142 89.9378 23.1 89.8219C22.5921 89.0589 22.1549 88.2515 21.7938 87.4093L21.7005 87.2293L21.7404 87.2291C21.3708 86.6441 21.0562 86.0262 20.8007 85.3831C20.4797 84.6829 20.1727 83.9766 19.8655 83.2696C19.6113 82.6849 19.3571 82.0999 19.0946 81.5177C18.8004 80.9879 18.5551 80.4325 18.3615 79.858C18.2381 79.4498 18.213 79.0182 18.2881 78.5985C18.5775 77.1744 18.9504 75.7686 19.405 74.3888C19.5899 73.5345 19.8615 72.6527 20.2175 71.7601ZM157.833 99.9454C157.895 99.9437 157.954 99.931 158 99.9007C157.953 99.9254 157.895 99.9361 157.833 99.9454Z" fill="#082653"/>
<path d="M12.0836 48.6244C13.1994 49.4044 14.521 49.8368 15.882 49.867C16.7948 49.8929 17.7036 49.7362 18.5549 49.4058C19.4064 49.0758 20.1832 48.5789 20.84 47.9444C21.4968 47.3099 22.0203 46.5509 22.3798 45.7113C22.7392 44.8719 22.9273 43.9691 22.9332 43.0558C22.95 41.6947 22.5635 40.359 21.8226 39.2169C21.0817 38.0748 20.0195 37.1773 18.7696 36.6378C17.5197 36.0985 16.1382 35.9408 14.7989 36.1849C13.4596 36.429 12.2225 37.0638 11.2433 38.0096C10.2642 38.9554 9.58685 40.17 9.29657 41.4998C9.00623 42.8299 9.11597 44.2162 9.61194 45.484C10.1078 46.7518 10.9679 47.8443 12.0836 48.6244Z" fill="#082653"/>
<path d="M5.33173 60.8839C3.91766 60.8839 2.56152 60.3221 1.56165 59.3224C0.561707 58.3224 0 56.9662 0 55.5521C0 54.138 0.561707 52.7821 1.56165 51.7821C2.56152 50.7821 3.91766 50.2205 5.33173 50.2205C6.74579 50.2205 8.10193 50.7821 9.10181 51.7821C10.1017 52.7821 10.6635 54.138 10.6635 55.5521C10.6635 56.9662 10.1017 58.3224 9.10181 59.3224C8.10193 60.3221 6.74579 60.8839 5.33173 60.8839Z" fill="#082653"/>
<path d="M16.088 69.4012C16.1027 69.8348 16.0294 70.2669 15.8726 70.6715C15.7158 71.076 15.4786 71.4447 15.1755 71.755C14.8724 72.0653 14.5095 72.3111 14.1088 72.4774C13.7081 72.6436 13.2779 72.7271 12.8441 72.7225C12.4102 72.7181 11.9818 72.6258 11.5847 72.4513C11.1875 72.2767 10.8298 72.0233 10.5332 71.7066C10.2366 71.3902 10.0071 71.0167 9.85876 70.609C9.71039 70.2013 9.64612 69.7679 9.66986 69.3346C9.65515 68.901 9.72839 68.4691 9.88519 68.0645C10.042 67.66 10.2791 67.2913 10.5823 66.981C10.8854 66.6707 11.2482 66.4249 11.649 66.2586C12.0497 66.0924 12.4799 66.0089 12.9138 66.0133C13.3475 66.0179 13.7759 66.1102 14.1732 66.2848C14.5703 66.4593 14.928 66.7127 15.2246 67.0291C15.5212 67.3458 15.7507 67.7193 15.899 68.127C16.0474 68.5345 16.1116 68.9681 16.088 69.4012Z" fill="#082653"/>
</svg>
