<svg width="200" height="128" viewBox="0 0 200 128" fill="none" xmlns="http://www.w3.org/2000/svg">
<path d="M188.005 54.0725C186.804 54.834 185.469 55.3589 184.071 55.6191C183.565 55.8433 183.028 55.9871 182.478 56.0459C182.36 56.064 182.247 56.0901 182.122 56.1189C181.971 56.1541 181.803 56.1931 181.591 56.2258C182.081 56.3733 182.525 56.467 182.95 56.5566L182.953 56.5574L183.093 56.5869L183.296 56.6304L183.424 56.6587C183.491 56.6741 183.558 56.6897 183.625 56.7058C185.879 57.2666 187.977 58.3284 189.764 59.8125C192.605 62.1602 194.873 65.124 196.398 68.479C197.682 71.2009 198.579 74.0886 199.064 77.0588C199.23 78.1257 199.339 79.2004 199.391 80.2788C199.451 81.1665 199.463 82.0566 199.424 82.9456C199.316 86.5706 198.446 90.1321 196.871 93.3987C195.913 95.3279 194.599 97.0583 192.998 98.4985C191.548 99.7996 189.843 100.783 187.991 101.385C187.506 101.547 186.979 101.533 186.503 101.347C186.027 101.161 185.631 100.813 185.385 100.365C185.112 99.9648 184.853 99.5549 184.593 99.144C184.324 98.72 184.056 98.2949 183.771 97.8787C180.509 93.1052 177.287 88.3032 174.105 83.4722C171.056 78.8677 168.007 74.2612 164.958 69.6523C163.674 67.7083 162.398 65.7444 161.126 63.7878L159.972 62.0125C159.085 60.6792 158.132 59.3459 157.138 58.0591C156.965 57.8403 156.8 57.6101 156.631 57.374L156.472 57.1526C155.919 57.5908 155.489 58.165 155.225 58.8191C154.782 59.6794 154.357 60.5483 153.933 61.4172C153.605 62.0901 153.276 62.7632 152.938 63.4324C152.085 65.1191 151.112 66.7656 150.125 68.3391C148.726 70.5901 147.204 72.7622 145.565 74.8457C143.729 77.2222 141.755 79.4883 139.652 81.6321C137.945 83.3655 136.185 85.0254 134.319 86.6055C134.31 86.6145 134.302 86.6243 134.295 86.6343C134.288 86.6431 134.283 86.6521 134.277 86.6616C134.27 86.6736 134.264 86.686 134.259 86.6987C134.331 86.7661 134.399 86.7427 134.465 86.7202L134.467 86.7195C134.498 86.709 134.529 86.6987 134.559 86.6987C135.906 86.0952 137.362 85.771 138.839 85.7454C140.759 85.7454 142.545 86.1787 143.912 87.6587C144.693 88.5022 145.139 89.6025 145.165 90.752C145.265 93.0054 144.325 94.8853 142.958 96.5786C141.931 97.8391 140.695 98.9146 139.305 99.7585C139.225 99.8052 139.125 99.8318 139.112 99.9519C139.259 100.045 139.398 100.001 139.536 99.9585L139.538 99.9578L139.592 99.9412C139.623 99.9321 139.654 99.9241 139.685 99.9185C140.599 99.8386 141.518 99.8386 142.432 99.9185C145.072 100.11 147.592 101.093 149.665 102.739C151.912 104.488 153.441 106.999 153.965 109.798C154.485 112.437 154.122 115.173 152.932 117.585C152.585 118.305 152.265 119.038 151.925 119.771C151.859 119.986 151.72 120.17 151.532 120.292C151.442 120.357 151.367 120.441 151.312 120.538C150.648 121.479 149.879 122.34 149.018 123.105C147.931 124.09 146.688 124.888 145.338 125.465C143.403 126.299 141.358 126.849 139.265 127.098C138.582 127.19 137.894 127.239 137.205 127.245C136.915 127.245 136.626 127.27 136.336 127.295L136.331 127.296C135.956 127.328 135.58 127.361 135.205 127.338L134.926 127.32C133.459 127.227 131.993 127.133 130.539 126.945C124.939 126.145 119.489 124.521 114.366 122.125C109.836 120.083 105.514 117.61 101.459 114.738C99.1859 113.139 97.0089 111.407 94.9392 109.552C93.5192 108.278 92.1393 106.972 90.8193 105.598C90.6603 105.417 90.4589 105.279 90.2332 105.195C90.0075 105.112 89.7644 105.085 89.526 105.118C88.8418 105.187 88.1576 105.215 87.4713 105.243H87.4547C87.1434 105.256 86.8317 105.269 86.5193 105.285C85.5374 105.334 84.5584 105.318 83.5784 105.301C83.088 105.293 82.5974 105.285 82.1061 105.285C81.1162 105.317 80.1255 105.259 79.1461 105.112C78.85 105.071 78.5517 105.046 78.2528 105.039C76.7662 104.952 75.2928 104.739 73.8195 104.512C71.9796 104.232 70.1529 103.898 68.3463 103.458C63.4131 102.333 58.5898 100.771 53.9332 98.792C51.395 97.6506 48.9303 96.3525 46.5533 94.9053C42.7709 92.6084 39.2111 89.9636 35.9201 87.0054C34.3468 85.5989 32.8402 84.1189 31.3935 82.5854C30.2069 81.3232 29.0624 80.021 27.9602 78.679C26.22 76.5615 24.5954 74.3516 23.0936 72.0591C21.2764 69.2542 19.6762 66.3145 18.3071 63.2659C17.1241 60.5854 16.1045 57.8362 15.2538 55.0325C15.2061 54.9355 15.1784 54.8306 15.1719 54.7236L15.1406 54.7192C15.0683 54.5833 15.0273 54.4329 15.0206 54.2793C15.0229 54.2612 15.0249 54.2432 15.0264 54.2251C15.0292 54.1921 15.0306 54.1592 15.0307 54.1262C14.9027 53.9163 14.8272 53.6792 14.8097 53.4351C14.8009 53.4229 14.7919 53.4106 14.7827 53.3989L14.7672 53.3792L14.7139 53.2126C14.7162 53.1494 14.7156 53.0862 14.7121 53.0234C14.5746 52.7366 14.4859 52.429 14.4494 52.1133L14.4208 52.0632L14.3939 52.0193L14.3406 51.8125C14.3513 51.7588 14.3596 51.7048 14.3656 51.6506C14.1131 51.0208 13.9453 50.3601 13.8666 49.686C13.8169 49.1121 13.9807 48.54 14.3266 48.0793C14.3317 48.1003 14.3354 48.1218 14.3377 48.1433C14.3399 48.1636 14.3409 48.1841 14.3406 48.2046C14.3433 48.1558 14.3388 48.1069 14.3272 48.0593L14.4339 47.7859L14.4379 47.7817C14.5105 47.405 14.666 47.0488 14.8934 46.7393L14.8939 46.7192L15.1206 46.2192L15.1254 46.2161C15.1214 46.1265 15.137 46.0371 15.1712 45.9539C15.2079 45.8643 15.2651 45.7847 15.3382 45.7209L15.3339 45.6992L15.5472 45.2061L15.5499 45.2041C15.5917 44.937 15.7137 44.689 15.9 44.4927C15.9006 44.5093 15.9008 44.5266 15.9005 44.5432L15.9012 44.5137L15.9006 44.4727C15.9067 44.3599 15.9523 44.2529 16.0294 44.1707C16.0251 44.1482 16.0269 44.1252 16.0347 44.1035C16.0405 44.0876 16.0493 44.0732 16.0605 44.061L16.0697 44.052L16.0757 44.0471L16.0867 44.0393C16.0959 44.0518 16.102 44.0664 16.1042 44.0815L16.1049 44.0879L16.1054 44.0837C16.1061 44.0764 16.1059 44.0688 16.1048 44.0615C16.1035 44.0532 16.1012 44.0452 16.0978 44.0374C16.095 44.031 16.0914 44.0249 16.0872 44.0193L16.2329 43.7546L16.2339 43.7224C16.2349 43.7046 16.2367 43.6868 16.2391 43.6692C16.2475 43.6079 16.2645 43.5479 16.2896 43.491C16.3288 43.4023 16.3868 43.3232 16.4596 43.2593C16.4681 43.2974 16.4717 43.3362 16.4707 43.3745C16.4738 43.3293 16.4705 43.2839 16.4606 43.2393C16.531 43.0225 16.6333 42.8171 16.7641 42.6304C16.7591 42.5791 16.7684 42.5273 16.7912 42.4807C16.8162 42.4297 16.8562 42.3872 16.906 42.3594C16.9158 42.3767 16.9228 42.3953 16.9269 42.4146C16.9293 42.4258 16.9307 42.4373 16.9311 42.4487L16.9311 42.4565C16.9322 42.4473 16.9326 42.438 16.9323 42.4287C16.9313 42.3975 16.9227 42.3667 16.9072 42.3394L16.979 42.176L16.9792 42.1533C16.9797 42.1431 16.9807 42.1328 16.9822 42.1228C16.9868 42.0908 16.9964 42.0596 17.0107 42.0303C17.0353 41.9797 17.073 41.937 17.1199 41.906C17.1354 41.9333 17.144 41.9641 17.145 41.9956C17.1456 41.9883 17.1458 41.9827 17.1456 41.9753C17.1447 41.9441 17.136 41.9133 17.1205 41.886L17.4272 41.2727L17.433 41.2693C17.5027 41.0117 17.6306 40.7734 17.8068 40.5728C17.808 40.5908 17.8085 40.6091 17.8084 40.6272L17.8086 40.5886L17.8072 40.5527C17.873 40.3672 17.9724 40.1956 18.1005 40.0461C18.1054 39.9536 18.1298 39.8628 18.1717 39.78C18.2167 39.6912 18.2811 39.6135 18.36 39.5527C18.3674 39.5859 18.3709 39.6199 18.3708 39.6536C18.3728 39.6133 18.3694 39.5728 18.3605 39.5327C18.4665 39.2759 18.6055 39.0339 18.7738 38.8127L18.7755 38.812C18.7868 38.7222 18.8164 38.6357 18.8624 38.5576C18.9119 38.4734 18.9793 38.4014 19.0598 38.3462C19.061 38.3577 19.0618 38.3691 19.0622 38.3804L19.0625 38.4031L19.0632 38.3796L19.0625 38.3511L19.0605 38.3262C19.1627 38.0657 19.3118 37.8262 19.5005 37.6194L19.5031 37.623C19.8813 36.5388 20.4819 35.5452 21.2663 34.7063L21.2708 34.7205C22.5031 32.8491 23.8285 31.0513 25.2271 29.3062C26.4004 27.833 27.6537 26.4329 28.9337 25.053C30.9598 22.8867 33.0983 20.8284 35.3403 18.8865C36.1669 18.1665 37.0336 17.4863 37.9002 16.8064C39.2735 15.7263 40.6669 14.6731 42.1002 13.6665C44.9223 11.6758 47.8857 9.89331 50.9667 8.33325C54.057 6.73926 57.2586 5.37134 60.5465 4.23999C62.9325 3.44043 65.3605 2.77295 67.8198 2.23999C70.2397 1.71338 72.673 1.24658 75.153 0.866699C76.5596 0.666748 78.0063 0.473389 79.4463 0.32666C80.0196 0.27002 80.5929 0.231689 81.1662 0.193359C81.7396 0.155029 82.3129 0.116699 82.8862 0.0600586C83.6462 0 84.4128 0 85.1728 0C87.0261 0 88.8728 0 90.7128 0.17334C90.9451 0.193359 91.1775 0.210938 91.4099 0.228516L91.4173 0.229248C92.1091 0.281494 92.8009 0.33374 93.4927 0.453369C93.9272 0.525879 94.3704 0.572021 94.8149 0.618408L94.8206 0.619141L94.8268 0.619873L94.8326 0.620605L94.8382 0.621338L94.8435 0.62207L94.8486 0.622803L94.8537 0.623535C95.1737 0.656494 95.4943 0.689453 95.8127 0.733398C97.1993 0.91333 98.5726 1.17334 99.9326 1.45996C100.906 1.66504 101.918 1.91846 102.923 2.17041L102.928 2.17188L102.945 2.17627L102.958 2.1792L102.966 2.1814L103.425 2.29614C103.655 2.35376 103.884 2.41064 104.113 2.46655C107.609 3.39648 111.033 4.57739 114.359 6C116.866 7.06665 119.299 8.29321 121.692 9.59326C122.181 9.85205 122.649 10.1472 123.094 10.4761C123.533 10.5698 123.987 10.5667 124.424 10.4666C124.517 10.4529 124.611 10.4529 124.704 10.4666C126.284 10.4131 127.871 10.4131 129.458 10.4666C130.711 10.4666 131.964 10.4666 133.211 10.4998C134.278 10.4998 135.338 10.5664 136.397 10.6396C138.224 10.7664 140.051 10.9731 141.871 11.2463C144.117 11.563 146.342 12.0081 148.537 12.5798C150.88 13.1938 153.125 14.1365 155.204 15.3796C156.43 16.1035 157.485 17.0835 158.297 18.2529C159.181 19.5271 159.71 21.0134 159.83 22.5596C159.997 24.9912 159.269 27.3999 157.784 29.3328C157.725 29.4136 157.65 29.4783 157.576 29.5427C157.472 29.6321 157.369 29.7209 157.311 29.8528L157.297 29.8501C156.416 30.8999 155.367 31.7954 154.191 32.4995C153.01 33.2141 151.705 33.698 150.344 33.9263C149.342 34.1128 148.32 34.1665 147.304 34.0862C146.75 34.0286 146.201 33.9375 145.658 33.8127C145.55 33.7886 145.441 33.7708 145.331 33.7595C145.283 33.7595 145.24 33.7605 145.201 33.7634C145.225 33.7634 145.251 33.7646 145.279 33.7661C145.388 33.7773 145.498 33.7952 145.605 33.8196C146.148 33.9441 146.698 34.0354 147.252 34.0928C147.565 34.6416 147.885 35.1904 148.206 35.7393C148.665 36.5237 149.123 37.3083 149.559 38.0928C150.651 40.0891 151.639 42.1406 152.518 44.2393C153.185 45.8059 153.792 47.386 154.325 48.9993C154.77 50.3325 155.185 51.6482 155.572 52.9458C155.625 53.1165 155.691 53.283 155.757 53.4495C155.857 53.699 155.956 53.9485 156.012 54.2124C156.052 54.3992 156.218 54.5193 156.412 54.6458L157.378 53.4258C158.929 51.498 160.316 49.4519 161.703 47.4058L161.705 47.4021C162.178 46.7041 162.652 46.0063 163.132 45.3127C166.625 40.2639 170.125 35.2261 173.632 30.1995C177.04 25.3108 180.46 20.4463 183.891 15.6064C184.103 15.3037 184.315 14.999 184.525 14.6936L184.936 14.0989L184.941 14.0908L184.999 14.0081L185.174 13.7532C185.351 13.4973 185.527 13.2417 185.705 12.9866C185.727 12.9939 185.75 12.9995 185.772 13.0034C186.009 12.5339 186.323 12.1077 186.7 11.7415C186.703 11.7078 186.704 11.6738 186.705 11.6399C186.969 11.3953 187.268 11.1907 187.591 11.0332C187.596 11.0359 187.601 11.0383 187.606 11.0403C187.614 11.043 187.622 11.0447 187.631 11.0454C187.644 11.0466 187.658 11.0452 187.672 11.0408C187.677 11.0356 187.683 11.0315 187.689 11.0281C187.694 11.0256 187.698 11.0237 187.703 11.0222L187.705 11.0215L187.707 11.0198C187.717 11.0105 187.726 10.9993 187.731 10.9866H188.158C188.205 11.0464 188.245 11.0532 188.298 10.9866C189.973 11.4268 191.531 12.2275 192.865 13.3333C195.044 15.0486 196.764 17.2771 197.871 19.8196C198.881 22.124 199.529 24.5708 199.791 27.073C199.983 28.6206 200.043 30.1816 199.971 31.7395C199.834 34.3972 199.361 37.0269 198.564 39.5662C197.676 42.4446 196.364 45.1743 194.671 47.666C192.941 50.2607 190.666 52.447 188.005 54.0725Z" fill="#082653"/>
<path d="M6.07619 78.2324C6.06252 78.458 6.04866 78.6868 6.00679 78.9187C5.72449 78.8328 5.43732 78.7639 5.1468 78.7122C4.86705 78.6956 4.58656 78.6956 4.30681 78.7122C3.63548 78.7312 2.97727 78.9026 2.38189 79.2134C1.78651 79.5242 1.26952 79.9663 0.869945 80.5061C0.470378 81.0459 0.19868 81.6694 0.0753665 82.3296C-0.0479436 82.9897 -0.01965 83.6694 0.158119 84.3169C0.335884 84.9646 0.658477 85.5635 1.10154 86.0681C1.54459 86.573 2.09654 86.9705 2.71569 87.2307C3.33485 87.4907 4.00503 87.6069 4.67563 87.5703C5.34624 87.5334 5.99973 87.345 6.58678 87.0186C7.15578 86.7117 7.64949 86.282 8.03224 85.761C8.415 85.2397 8.67726 84.6401 8.80008 84.0054C8.93845 83.4915 8.94006 83.4919 9.44865 83.6465L9.46673 83.6521C9.85551 83.7842 10.2628 83.854 10.6734 83.8586C11.3762 83.8508 12.0667 83.6726 12.6855 83.3394C13.3044 83.0061 13.8332 82.5278 14.2267 81.9453C15.0893 80.7747 15.4558 79.3113 15.2466 77.8721C15.1801 77.1736 14.9748 76.4954 14.6429 75.8772C14.3109 75.259 13.8589 74.7134 13.3133 74.2722C12.608 73.6753 11.7215 73.3347 10.7979 73.3057C9.8744 73.2766 8.96821 73.5608 8.22675 74.1121C7.11475 74.9312 6.36992 76.1548 6.15345 77.5188C6.10522 77.7532 6.09082 77.991 6.07619 78.2324Z" fill="#082653"/>
<path d="M11.6602 87.5654C11.9948 87.5376 12.3314 87.583 12.6468 87.698C12.9621 87.8132 13.2488 87.9954 13.4869 88.2319C13.5665 88.3103 13.6694 88.3604 13.7801 88.3748C13.8908 88.3892 14.0032 88.3672 14.1002 88.312C14.7042 88.0613 15.353 87.9365 16.0068 87.9453C16.397 87.9685 16.7837 88.0332 17.1601 88.1387C17.2842 88.1765 17.4161 88.1809 17.5424 88.1516C17.6688 88.1223 17.7852 88.0605 17.8801 87.9719C18.3377 87.6047 18.8827 87.3625 19.4619 87.2688C20.0411 87.175 20.6346 87.2332 21.1847 87.4373C21.7347 87.6416 22.2224 87.9849 22.6002 88.4336C22.9779 88.8826 23.2329 89.4219 23.34 89.9985C23.5291 90.678 23.525 91.3965 23.3284 92.0735C23.1317 92.7507 22.7502 93.3596 22.2267 93.832C21.8974 94.1626 21.4815 94.3938 21.0267 94.4985C20.8465 94.5273 20.6775 94.6045 20.5377 94.7219C20.398 94.8394 20.2928 94.9927 20.2334 95.1653C20.1005 95.4739 19.9131 95.7563 19.6801 95.9985C19.605 96.0693 19.5577 96.1648 19.5467 96.2676C19.5357 96.3701 19.5617 96.4734 19.6201 96.5586C19.9263 97.1006 20.0458 97.7285 19.9603 98.3452C19.8748 98.9619 19.5889 99.5334 19.1468 99.9719C18.704 100.487 18.0858 100.819 17.412 100.904C16.7383 100.989 16.0569 100.821 15.5002 100.432C15.1304 100.155 14.8445 99.7808 14.6739 99.3513C14.5033 98.9221 14.4547 98.4539 14.5335 97.9985C14.5802 97.6985 14.5002 97.6118 14.2535 97.5186C13.4472 97.2368 12.7281 96.7498 12.167 96.1057C11.6059 95.4617 11.2222 94.6826 11.0536 93.8452C11.0327 93.7737 11.0215 93.6997 11.0202 93.6252C11.1002 93.0386 10.8136 92.7454 10.2869 92.5054C9.86092 92.3037 9.50572 91.9783 9.26782 91.5713C9.02992 91.1646 8.9204 90.6953 8.9536 90.2253C8.95496 89.7158 9.10525 89.2178 9.38597 88.7925C9.66668 88.3674 10.0656 88.0334 10.5336 87.832C10.8766 87.6389 11.2671 87.5466 11.6602 87.5654Z" fill="#082653"/>
<path d="M2.58734 67.999C2.54716 67.0986 2.80678 66.2102 3.32552 65.4731C3.84425 64.7361 4.59282 64.1919 5.45397 63.9258C6.04581 63.7427 6.67472 63.7146 7.28051 63.8442C7.8863 63.9739 8.44871 64.2566 8.91391 64.6658C9.36543 65.0398 9.73516 65.5027 10.0001 66.0256C10.265 66.5488 10.4195 67.1206 10.4539 67.7061C10.4883 68.2913 10.4019 68.8774 10.2 69.4277C9.99815 69.9783 9.68519 70.4814 9.28058 70.9058C8.8689 71.3552 8.35497 71.6987 7.78231 71.9075C7.20966 72.1162 6.59513 72.1838 5.99078 72.1047C5.38644 72.0256 4.81005 71.802 4.31045 71.4529C3.81085 71.1038 3.40274 70.6394 3.12067 70.0989C2.74395 69.4651 2.55872 68.7358 2.58734 67.999Z" fill="#082653"/>
<path d="M24.2592 81.7056C24.421 81.3623 24.4943 80.9841 24.4725 80.6055C24.4826 80.25 24.4536 79.8945 24.3859 79.5454C24.2678 79.0898 24.058 78.6628 23.7692 78.291C23.4805 77.9192 23.1189 77.6104 22.7066 77.3831C22.2943 77.1558 21.84 77.0151 21.3714 76.9695C20.9028 76.9238 20.4299 76.9744 19.9815 77.1179C19.5331 77.2615 19.1188 77.4951 18.7638 77.8044C18.4088 78.1135 18.1207 78.4919 17.9171 78.9165C17.7134 79.3408 17.5985 79.8025 17.5794 80.2729C17.5603 80.7432 17.6374 81.2126 17.806 81.6521C17.9827 82.146 18.2734 82.5911 18.6545 82.9512C19.0356 83.3115 19.4964 83.5767 19.9993 83.7253C20.3326 83.8389 20.5193 83.9988 20.5193 84.3455C20.5399 84.7048 20.6702 85.0491 20.8926 85.332C21.0804 85.6768 21.3581 85.9641 21.6962 86.1638C22.0342 86.3633 22.42 86.4675 22.8126 86.4653C23.2204 86.4514 23.615 86.3176 23.9471 86.0803C24.2791 85.8433 24.5338 85.5134 24.6792 85.1321C24.8934 84.7053 24.9773 84.2249 24.9204 83.7507C24.8635 83.2764 24.6684 82.8296 24.3592 82.4656C24.2664 82.3645 24.207 82.2373 24.1891 82.1013C24.1712 81.9653 24.1957 81.8271 24.2592 81.7056Z" fill="#082653"/>
<path d="M12.7804 69.1655C12.7669 68.8203 12.8234 68.4756 12.9463 68.1526C13.0692 67.8296 13.2562 67.5347 13.4959 67.2856C13.7355 67.0366 14.0231 66.8386 14.3412 66.7034C14.6593 66.5684 15.0014 66.4988 15.347 66.499C15.7116 66.51 16.0703 66.5935 16.4023 66.7444C16.7343 66.8953 17.033 67.1108 17.2811 67.3782C17.5292 67.6455 17.7217 67.9592 17.8475 68.3018C17.9732 68.644 18.0297 69.0078 18.0137 69.3723C18.0292 69.7158 17.9742 70.0586 17.8519 70.3799C17.7296 70.7012 17.5427 70.9941 17.3028 71.2402C17.0629 71.4866 16.775 71.6809 16.4569 71.8113C16.1388 71.9419 15.7974 72.0056 15.4537 71.999C14.7257 71.9712 14.0378 71.6587 13.5378 71.1289C13.0379 70.5989 12.7659 69.894 12.7804 69.1655Z" fill="#082653"/>
<path d="M2.9058 94.626C3.22544 94.7334 3.5633 94.7764 3.89967 94.752C3.97328 94.7568 4.04703 94.7588 4.12075 94.7578L4.17317 94.7563C4.20424 94.7554 4.2353 94.7539 4.26633 94.752C4.73295 94.7029 5.17836 94.5315 5.55761 94.2554C5.93685 93.979 6.2365 93.6077 6.4263 93.1785C6.62735 92.7749 6.70966 92.3228 6.66363 91.8743C6.6176 91.4258 6.44513 90.9995 6.1663 90.6453C5.7485 90.1008 5.14326 89.7312 4.46814 89.6079C3.79301 89.4846 3.09619 89.6167 2.51302 89.9785C2.0847 90.2041 1.73086 90.5491 1.49425 90.9712C1.25764 91.3936 1.1484 91.8755 1.17971 92.3586C1.1983 92.6953 1.28376 93.0249 1.43111 93.3284C1.57847 93.6316 1.78476 93.9026 2.03795 94.1255C2.29114 94.3481 2.58616 94.5183 2.9058 94.626Z" fill="#082653"/>
<path d="M9.38031 101.812C9.04321 101.792 8.71574 101.692 8.42483 101.52C8.13393 101.348 7.88791 101.11 7.707 100.825C7.49338 100.524 7.37587 100.166 7.36992 99.7971C7.36397 99.4282 7.46986 99.0662 7.67366 98.7585C8.07558 98.1333 8.7091 97.6931 9.43523 97.5344C10.1614 97.3755 10.9208 97.5115 11.5469 97.9119C11.78 98.0593 11.9784 98.2554 12.1286 98.4868C12.2788 98.718 12.3773 98.9792 12.4172 99.252C12.457 99.5249 12.4375 99.8032 12.3598 100.068C12.282 100.333 12.148 100.577 11.9669 100.785C11.6553 101.158 11.2555 101.447 10.8038 101.626C10.3521 101.806 9.86283 101.869 9.38031 101.812Z" fill="#082653"/>
<path d="M26.7184 98.8066C26.7992 98.5823 26.8317 98.343 26.8137 98.1052C26.8039 97.6455 26.6191 97.2068 26.297 96.8784C25.975 96.5503 25.5399 96.3572 25.0804 96.3386C24.6098 96.3525 24.1614 96.541 23.8224 96.8677C23.4835 97.1943 23.2783 97.6355 23.2471 98.1052C23.2462 98.344 23.2924 98.5803 23.3832 98.8013C23.4739 99.022 23.6073 99.2227 23.7758 99.3916C23.9443 99.5608 24.1445 99.6951 24.3649 99.7866C24.5853 99.8779 24.8217 99.925 25.0604 99.925C25.2988 99.9343 25.5365 99.8928 25.7578 99.8037C25.9791 99.7146 26.1791 99.5798 26.3447 99.408C26.5102 99.2361 26.6376 99.0312 26.7184 98.8066Z" fill="#082653"/>
<path d="M2.59289 75.9587C2.62117 76.199 2.58903 76.4426 2.49939 76.6672C2.40975 76.8918 2.26545 77.0906 2.07957 77.2454C1.93603 77.3872 1.75891 77.4902 1.56473 77.5449C1.37057 77.5996 1.16569 77.6042 0.969264 77.5583C0.77283 77.5125 0.591255 77.4175 0.441501 77.2822C0.291744 77.147 0.178699 76.9761 0.11293 76.7854C-0.0260778 76.4265 -0.0355497 76.0305 0.086143 75.6655C0.207836 75.3003 0.453075 74.9893 0.779586 74.7854C0.953971 74.6865 1.15034 74.6331 1.35077 74.6296C1.5512 74.6262 1.74929 74.6729 1.92696 74.7659C2.10464 74.8586 2.25623 74.9944 2.3679 75.1609C2.47956 75.3274 2.54775 75.5193 2.56623 75.7188C2.59528 75.8059 2.59394 75.8879 2.59312 75.9385L2.59289 75.9587Z" fill="#082653"/>
</svg>
