<svg width="200" height="118" viewBox="0 0 200 118" fill="none" xmlns="http://www.w3.org/2000/svg">
<path fill-rule="evenodd" clip-rule="evenodd" d="M28.9909 65.8813C29.1795 65.0879 29.4223 64.3081 29.7176 63.5478C30.2509 61.9546 30.8776 60.3877 31.5576 58.8811C32.5765 56.5903 33.7342 54.3637 35.0245 52.2141C35.9134 50.7295 36.8668 49.2805 37.8846 47.8672C38.5824 46.8938 39.3202 45.9426 40.098 45.0136C40.2163 44.8733 40.3341 44.7319 40.4516 44.5903L40.6789 44.3156L40.881 44.0703L40.8848 44.0659L40.887 44.063C41.469 43.3569 42.0492 42.6533 42.6515 42.0002C43.7093 40.8535 44.8005 39.7424 45.925 38.6667C47.5384 37.0935 49.2229 35.6023 50.9785 34.1933C53.0019 32.5764 55.119 31.0803 57.3188 29.7131C59.3247 28.4663 61.3992 27.3332 63.5324 26.3196C65.7138 25.2842 67.961 24.3933 70.2594 23.6528C73.3262 22.666 76.433 21.8193 79.5931 21.1394C80.7132 20.8994 81.8466 20.6926 82.9866 20.5327C83.3432 20.4848 83.6989 20.4314 84.0544 20.3779L84.0608 20.3772L84.0733 20.3757L84.0854 20.3742L84.0914 20.3735C84.6672 20.2868 85.2424 20.2002 85.8201 20.1394C85.9604 20.1259 86.1011 20.1118 86.2422 20.0976L86.2601 20.0962L86.2809 20.094L86.3058 20.0918L86.3366 20.0888C86.7274 20.0505 87.1204 20.0114 87.5135 19.9792C89.7269 19.7993 91.9403 19.7727 94.1804 19.8127C95.1176 19.8127 96.05 19.8706 96.9857 19.9287L96.9961 19.9294L97.4739 19.9592C97.8265 19.9704 98.1782 20.0017 98.5273 20.0527C98.6052 20.0678 98.6842 20.0749 98.763 20.0737C98.8407 20.0725 98.9181 20.0632 98.9941 20.0461C99.0136 20.0417 99.0331 20.0368 99.0525 20.0315L99.0755 20.0246L99.1039 20.0156C99.2897 19.9538 99.4562 19.8447 99.5873 19.6992L100.454 18.8325C104.256 15.1059 108.475 11.8308 113.028 9.07224C117.151 6.53 121.531 4.43161 126.095 2.81174C128.821 1.84177 131.625 1.10569 134.476 0.61179C136.147 0.322971 137.835 0.140354 139.529 0.0651589C139.699 0.0651589 139.869 0.060032 140.038 0.0529519C140.175 0.0470925 140.311 0.0397683 140.448 0.0324441C140.655 0.0214577 140.861 0.0104714 141.068 0.00461203C141.262 -0.00100321 141.456 -0.00222391 141.649 0.00510031C144.45 0.0300027 147.224 0.560764 149.836 1.57175C151.505 2.23313 153.01 3.24753 154.25 4.54538C154.863 5.16745 155.427 5.83615 155.937 6.54538C157.198 8.38865 158.015 10.4997 158.323 12.7124C158.549 14.2705 158.427 15.8593 157.966 17.3647C157.505 18.8701 156.716 20.2549 155.656 21.4194C153.846 23.5215 151.345 24.9092 148.603 25.333C147.624 25.4848 146.632 25.5339 145.643 25.4795C145.271 25.4861 144.901 25.4389 144.543 25.3396C144.427 25.3261 144.311 25.3261 144.196 25.3396C144.281 25.4953 144.412 25.5678 144.537 25.6369C144.578 25.6594 144.618 25.6816 144.656 25.7063C146.142 26.678 147.422 27.9331 148.423 29.3996C149.134 30.4194 149.591 31.5945 149.756 32.8266C149.896 33.5981 149.841 34.3923 149.597 35.1374C149.353 35.8825 148.926 36.5547 148.356 37.0935C147.587 37.7912 146.634 38.2539 145.609 38.4267C143.679 38.7461 141.697 38.4668 139.929 37.6267C139.801 37.5666 139.67 37.5132 139.536 37.4668H139.422C139.617 37.6936 139.841 37.893 140.089 38.06C141.223 39.0669 142.309 40.1069 143.383 41.1736C145.585 43.3835 147.643 45.7329 149.543 48.2072C150.876 49.9072 152.103 51.6474 153.256 53.4541C154.03 54.6675 154.75 55.9143 155.456 57.1677C156.449 58.9045 157.288 60.7126 158.127 62.5224L158.383 63.0744C158.65 63.6316 158.965 64.1648 159.323 64.6679C159.498 64.8738 159.694 65.0593 159.91 65.2214L161.297 63.4211C162.654 61.6638 163.876 59.8078 165.097 57.9529L165.099 57.9499C165.73 56.9909 166.361 56.0324 167.01 55.0876C169.021 52.1572 171.007 49.2153 172.998 46.2668L173.344 45.7539C177.291 39.9314 181.273 34.1355 185.291 28.3664C185.78 27.6599 186.252 26.9492 186.727 26.2343L187.131 25.6262C187.344 25.3215 187.6 25.0498 187.891 24.8196C188.112 24.6401 188.376 24.5217 188.657 24.476C188.937 24.4304 189.225 24.4592 189.491 24.5595C191.071 25.0534 192.532 25.8657 193.785 26.9463C196.37 29.2016 198.209 32.1892 199.058 35.5134C199.506 37.0573 199.792 38.6438 199.912 40.2468C200.178 43.6125 199.844 46.9985 198.925 50.2473C197.973 53.8591 196.264 57.227 193.912 60.1277C192.521 61.8615 190.827 63.3279 188.911 64.4546C187.758 65.1147 186.52 65.6147 185.231 65.9414C184.564 66.1079 183.898 66.2214 183.098 66.3413C183.357 66.4963 183.65 66.5879 183.951 66.6081C184.598 66.6963 185.233 66.855 185.844 67.0813C185.699 67.1489 185.535 67.1677 185.378 67.1347C185.252 67.1208 185.126 67.1079 185 67.0964V67.1389C185.142 67.1516 185.283 67.1655 185.425 67.1814C185.582 67.2143 185.746 67.1955 185.891 67.1282C186.636 67.2837 187.355 67.5464 188.025 67.9082C189.249 68.5122 190.389 69.2717 191.418 70.1682C193.952 72.3838 195.968 75.1284 197.325 78.2085C198.539 80.8518 199.354 83.6601 199.745 86.5422C199.985 88.3093 200.05 90.0959 199.939 91.8757C199.811 94.799 199.133 97.6716 197.939 100.343C197.107 102.191 195.931 103.863 194.472 105.27C193.126 106.59 191.508 107.6 189.731 108.23C189.635 108.263 189.538 108.293 189.44 108.32C189.392 108.333 189.343 108.346 189.294 108.357C189.235 108.372 189.177 108.384 189.118 108.396C188.82 108.471 188.506 108.446 188.223 108.326C187.94 108.205 187.705 107.996 187.551 107.73C187.571 107.428 187.483 107.129 187.304 106.885C187.125 106.641 186.865 106.468 186.571 106.396C186.555 106.394 186.541 106.385 186.53 106.373C186.519 106.361 186.513 106.346 186.511 106.33C184.311 103.107 182.111 99.8872 179.911 96.6694C177.502 93.1137 175.102 89.5757 172.711 86.0556C172.045 85.0718 171.378 84.0884 170.712 83.105C168.961 80.5232 167.21 77.9409 165.477 75.3484C165.219 74.9631 164.963 74.5766 164.707 74.1899C163.464 72.3157 162.22 70.4389 160.81 68.6814C160.525 68.3183 160.246 67.949 159.942 67.5486C159.932 67.5383 159.922 67.5281 159.912 67.5173C159.723 67.613 159.577 67.7761 159.503 67.9748L159.3 68.5637L159.299 68.5674C158.906 69.7038 158.512 70.844 158.137 72.0083C157.55 73.8349 156.803 75.6084 156.07 77.3418C155.005 79.7602 153.789 82.1094 152.43 84.3755C152.058 85.0698 151.639 85.738 151.176 86.3755L151.136 86.3923C151.19 86.51 151.3 86.5151 151.416 86.5088C152.651 86.458 153.886 86.6135 155.069 86.9687C156.347 87.3845 157.542 88.0183 158.603 88.8423C158.645 88.8784 158.686 88.9167 158.723 88.9573C158.759 88.9949 158.792 89.0344 158.823 89.0757C158.831 89.1089 158.846 89.1396 158.866 89.1667L158.863 89.1589C158.86 89.1513 158.858 89.1435 158.856 89.1357C158.914 89.136 158.97 89.156 159.015 89.1924C159.049 89.2204 159.076 89.2571 159.092 89.2983L159.089 89.289C159.103 89.2905 159.118 89.2934 159.131 89.2976C159.148 89.303 159.165 89.3105 159.18 89.32C159.189 89.3254 159.197 89.3313 159.205 89.3379C159.239 89.3652 159.263 89.4013 159.276 89.4424L159.261 89.4414L159.257 89.4407L159.257 89.4431C159.258 89.4504 159.259 89.4577 159.261 89.4648C159.263 89.4729 159.265 89.4807 159.268 89.4883C159.273 89.5012 159.28 89.5136 159.288 89.5251C159.293 89.5322 159.298 89.539 159.304 89.5454C159.309 89.551 159.315 89.5564 159.321 89.5613C159.329 89.5681 159.337 89.5742 159.347 89.5796C159.339 89.5735 159.331 89.5664 159.324 89.5591C159.295 89.5271 159.277 89.4858 159.276 89.4424C159.315 89.4558 159.351 89.4785 159.379 89.5088C159.405 89.5368 159.424 89.5705 159.434 89.6072C159.492 89.6306 159.544 89.6648 159.589 89.7075C159.598 89.7156 159.606 89.7239 159.614 89.7326C159.624 89.7436 159.633 89.7551 159.642 89.7671L159.654 89.7829C159.673 89.81 159.689 89.8388 159.702 89.8691L159.696 89.8689C159.745 89.8867 159.79 89.915 159.826 89.9519C159.863 89.9887 159.892 90.0332 159.91 90.0823C159.949 90.0945 159.985 90.1169 160.013 90.1474C160.04 90.1767 160.059 90.2124 160.069 90.2512C160.093 90.2566 160.116 90.2685 160.135 90.2861L160.14 90.2915L160.147 90.2988L160.152 90.3052L160.16 90.3174L160.167 90.3313L160.17 90.3401C160.173 90.3471 160.175 90.3547 160.177 90.3625L160.169 90.3618L160.175 90.3672L160.186 90.3689L160.189 90.3623C160.664 90.8135 161.062 91.3381 161.369 91.9157C162.03 92.9912 162.467 94.1882 162.656 95.436C162.871 96.9734 162.64 98.54 161.989 99.9494C161.062 101.885 159.5 103.445 157.563 104.37C154.899 105.717 152.047 106.649 149.102 107.136C147.102 107.517 145.055 107.803 143.009 107.983C141.862 108.083 140.715 108.143 139.562 108.176C138.373 108.21 137.187 108.206 136.001 108.202C135.077 108.199 134.153 108.195 133.228 108.21C132.148 108.21 131.061 108.21 129.981 108.143C129.841 108.143 129.701 108.136 129.561 108.126L129.419 108.115L129.337 108.108C129.191 108.096 129.044 108.084 128.896 108.078C128.781 108.073 128.664 108.072 128.548 108.076C128.299 108.289 128.014 108.455 127.708 108.568C127.709 108.584 127.709 108.6 127.709 108.616C126.449 109.35 125.149 109.997 123.842 110.617C121.672 111.666 119.446 112.597 117.175 113.404C114.606 114.317 111.983 115.07 109.321 115.657C107.781 115.997 106.241 116.323 104.694 116.597C103.441 116.804 102.174 116.95 100.901 117.064C98.9408 117.237 96.9807 117.384 95.0139 117.384C93.3139 117.384 91.6138 117.317 89.9137 117.197C86.401 116.91 82.911 116.391 79.4666 115.644C75.6355 114.889 71.8801 113.792 68.2461 112.363C63.1694 110.322 58.346 107.7 53.8721 104.55C52.4054 103.516 50.9987 102.416 49.5986 101.303C47.9452 99.9695 46.3585 98.5827 44.8384 97.1228C41.9488 94.3935 39.3051 91.4153 36.9381 88.2224L36.6979 87.8901L36.4393 87.5342L36.4356 87.529C35.927 86.8296 35.4137 86.1233 34.938 85.4021C34.8753 85.3379 34.8396 85.2519 34.838 85.1621C34.8463 85.1582 34.8547 85.1548 34.863 85.1518C34.497 84.695 34.1669 84.2112 33.8754 83.7038C33.8111 83.624 33.7636 83.5398 33.7333 83.4511C33.42 83.07 33.165 82.6445 32.9767 82.1887L33.9207 82.5913L33.927 82.582L32.9112 82.1487C32.2445 81.1086 31.6778 80.0354 31.1178 78.9485C30.0378 76.8484 29.1177 74.6885 28.1977 72.5083C28.064 72.1792 27.9423 71.8462 27.8202 71.5122L27.711 71.2148C27.6005 70.9138 27.582 70.5866 27.6576 70.2749C27.9777 68.8415 28.3977 67.428 28.8177 66.0212C28.8678 65.9658 28.9261 65.9187 28.9909 65.8813ZM159.441 89.7065C159.447 89.7224 159.454 89.737 159.462 89.7505L159.45 89.7417C159.43 89.7073 159.418 89.6648 159.416 89.6123L159.423 89.6137C159.424 89.6233 159.425 89.6328 159.426 89.6418L159.429 89.6616C159.432 89.6775 159.436 89.6924 159.441 89.7065ZM159.157 89.3972C159.148 89.3899 159.14 89.3818 159.132 89.373C159.125 89.3645 159.118 89.3554 159.112 89.3459C159.107 89.3366 159.102 89.3266 159.098 89.3164L159.103 89.3357L159.095 89.3349C159.1 89.3442 159.107 89.3532 159.114 89.3615L159.125 89.3725L159.137 89.3838C159.145 89.3899 159.152 89.3952 159.16 89.4001L159.157 89.3972ZM161.183 98.3027C161.082 98.3044 161.009 98.3374 160.964 98.3923C161.01 98.3442 161.083 98.3132 161.183 98.3027Z" fill="#082653"/>
<path d="M7.05612 64.5281C10.1082 64.5146 13.1514 64.8591 16.1232 65.5547C17.9185 65.9411 19.6618 66.5388 21.3168 67.3347C22.1252 67.7112 22.8574 68.2334 23.4769 68.8747C23.6553 69.0412 23.7822 69.2553 23.8425 69.4917C23.9027 69.728 23.8939 69.9768 23.8169 70.2082C23.7604 70.3965 23.649 70.5637 23.4969 70.6882C23.0374 71.0478 22.5152 71.3193 21.9568 71.4883C20.5209 71.8281 19.057 72.0356 17.5833 72.1084C16.3445 72.1662 15.1032 72.1306 13.8698 72.0017C11.9724 71.8677 10.0874 71.5957 8.22953 71.1882C6.04889 70.7888 3.94223 70.0581 1.98258 69.0215C1.41019 68.6928 0.890933 68.279 0.442508 67.7947C0.290286 67.6743 0.170535 67.5176 0.0941494 67.3391C0.0177334 67.1606 -0.0129063 66.966 0.00494653 66.7727C0.0228298 66.5793 0.0886868 66.3935 0.196505 66.2319C0.245333 66.1589 0.302096 66.0918 0.365512 66.032C0.442141 65.9594 0.528537 65.8977 0.6225 65.8481C1.27191 65.4079 2.00492 65.1062 2.77594 64.9614C4.18259 64.6611 5.61786 64.5158 7.05612 64.5281Z" fill="#082653"/>
<path d="M20.9635 56.9077C21.2291 57.0337 21.5262 57.0779 21.8169 57.0344L22.1636 57.041C22.2554 57.0439 22.347 57.0366 22.4367 57.0195C22.5345 57.0007 22.63 56.9702 22.721 56.9282C22.8955 56.8476 23.0487 56.7275 23.1686 56.5771C23.2884 56.427 23.3714 56.2509 23.4111 56.0627C23.4507 55.8747 23.4459 55.6801 23.397 55.4944C23.3659 55.3567 23.3348 55.219 23.2997 55.0813L23.2807 55.0075L23.2579 54.924L23.2436 54.8742C22.8937 53.8293 22.3584 52.8559 21.6636 52.0007C20.0601 49.9446 18.1903 48.1106 16.1033 46.5471C14.2978 45.1047 12.2895 43.9367 10.1431 43.0803C9.40033 42.781 8.60327 42.6404 7.80295 42.667C7.61811 42.6587 7.43399 42.695 7.26612 42.7729C7.09827 42.8508 6.9516 42.9677 6.8385 43.1142C6.72541 43.2607 6.6492 43.4321 6.61631 43.6142C6.58344 43.7964 6.59482 43.9836 6.64957 44.1604C6.75708 44.802 6.96402 45.4228 7.26291 46.0005C8.30091 47.7776 9.60752 49.3833 11.1364 50.7607C12.4226 51.9782 13.8025 53.0927 15.2633 54.0942C16.9853 55.3564 18.9143 56.3086 20.9635 56.9077Z" fill="#082653"/>
<path d="M8.56229 94.3074C8.36038 94.2895 8.15848 94.2717 7.96256 94.2361C7.78668 94.2314 7.61441 94.1853 7.45981 94.1013C7.30524 94.0173 7.17276 93.8979 7.07321 93.7529C6.9737 93.6079 6.90995 93.4411 6.88724 93.2668C6.8645 93.0923 6.88346 92.915 6.94251 92.7492C7.14737 91.957 7.5279 91.2209 8.05588 90.5957C9.62738 88.6885 11.4985 87.049 13.5961 85.7422C15.3291 84.5903 17.1963 83.6543 19.1564 82.9555C20.1811 82.5461 21.2806 82.3576 22.3832 82.4021C22.4384 82.4045 22.4935 82.4084 22.5485 82.414C22.7179 82.4311 22.8857 82.4626 23.0499 82.5088C23.3347 82.5801 23.5809 82.7585 23.7374 83.0071C23.8939 83.2553 23.9485 83.5544 23.8899 83.8423C23.8267 84.2795 23.6747 84.6992 23.4432 85.0757C22.2974 86.792 20.8601 88.2947 19.1964 89.5158C17.8743 90.5342 16.4719 91.4438 15.0029 92.2358C13.3463 93.1897 11.5446 93.8655 9.66928 94.2361C9.40283 94.2866 9.13336 94.32 8.86258 94.3359L8.77967 94.3274L8.7002 94.3196L8.56229 94.3074Z" fill="#082653"/>
</svg>
