<svg width="200" height="120" viewBox="0 0 200 120" fill="none" xmlns="http://www.w3.org/2000/svg">
<path fill-rule="evenodd" clip-rule="evenodd" d="M26.2614 66.6113L26.2748 66.6101C25.9251 67.6616 25.6369 68.7327 25.3484 69.8052L25.3476 69.8081C25.2594 70.1358 25.1712 70.4634 25.0812 70.7908C24.9358 71.2969 24.9663 71.8374 25.1679 72.324L25.3152 72.6765C25.6002 73.3577 25.8842 74.0369 26.1344 74.7305C26.2343 75.0269 26.3917 75.3008 26.5976 75.5364C26.8035 75.7722 27.0539 75.9649 27.3343 76.1035C30.8339 77.99 34.3335 79.9031 37.8465 81.8296C37.9467 81.8819 38.0426 81.9419 38.1331 82.0095C38.1512 82.0198 38.1669 82.0335 38.1795 82.0493L38.188 82.0615L38.1938 82.0715C38.1976 82.0786 38.2008 82.086 38.2034 82.0935C38.2157 82.1292 38.2144 82.1682 38.1998 82.2029C38.1807 82.2356 38.1514 82.261 38.1165 82.2754C38.0816 82.2898 38.043 82.2925 38.0064 82.283C37.9809 82.2793 37.9555 82.2747 37.9303 82.2691L37.8936 82.2605L37.854 82.2495C37.8336 82.2434 37.8133 82.2368 37.7931 82.2295L30.034 79.71L28.2409 79.1365C28.1625 79.2935 28.2192 79.3845 28.2731 79.4712C28.288 79.4951 28.3027 79.5188 28.3142 79.5432C29.4189 81.7605 30.6496 83.9126 32.0005 85.9893C34.9503 90.4907 38.4009 94.6433 42.286 98.3677C43.9391 99.9588 45.6545 101.47 47.4321 102.901C49.4052 104.487 51.4383 105.994 53.558 107.38C57.5535 109.991 61.7956 112.204 66.2233 113.986C69.1525 115.143 72.1681 116.068 75.2423 116.752C77.9087 117.366 80.5817 117.932 83.2947 118.319C85.0879 118.572 86.8877 118.772 88.7008 118.899C90.3473 119.005 91.9937 119.059 93.6402 119.059C94.9334 119.039 96.2199 118.972 97.5131 118.879C99.0463 118.765 100.566 118.619 102.086 118.412C104.032 118.146 105.952 117.759 107.865 117.319C110.798 116.65 113.685 115.797 116.511 114.766C119.835 113.537 123.065 112.069 126.177 110.373C126.755 109.938 127.453 109.692 128.176 109.667C128.243 109.719 128.315 109.764 128.391 109.8C128.834 109.778 129.273 109.816 129.711 109.854C130.056 109.884 130.4 109.913 130.744 109.913H135.298C136.93 109.914 138.563 109.916 140.189 109.793C140.976 109.734 141.764 109.666 142.551 109.59C142.917 109.555 143.283 109.518 143.649 109.48C145.599 109.269 147.537 108.958 149.455 108.547C151.94 108.056 154.344 107.224 156.601 106.074C157.99 105.402 159.208 104.422 160.16 103.207C160.897 102.268 161.419 101.178 161.687 100.014C161.955 98.8506 161.964 97.6421 161.714 96.4746C161.301 94.4773 160.284 92.6553 158.801 91.2554C157.698 90.1128 156.36 89.2234 154.88 88.648C153.43 88.084 151.876 87.835 150.323 87.917L150.347 87.8582L150.367 87.8557C150.364 87.845 150.362 87.8342 150.361 87.824C150.395 87.7371 150.428 87.6497 150.46 87.5618C150.474 87.542 150.488 87.5222 150.501 87.5025C151.207 86.3736 151.889 85.2293 152.547 84.0694C154.255 81.0708 155.706 77.9334 156.887 74.6904C157.357 73.405 157.788 72.1004 158.218 70.801L158.446 70.1109C158.505 69.9292 158.573 69.7507 158.641 69.5715C158.675 69.4812 158.709 69.3906 158.743 69.2993C158.779 69.1997 158.814 69.0996 158.846 68.9978C158.966 68.6177 159.206 68.5911 159.44 68.8911C160.426 70.1709 161.433 71.5042 162.326 72.8374C164.793 76.5755 167.294 80.3137 169.796 84.0518L171.658 86.8357C175.662 92.7952 179.691 98.7366 183.743 104.66C183.945 104.958 184.149 105.252 184.353 105.547L184.364 105.563C184.806 106.2 185.248 106.838 185.657 107.5C186.1 108.241 186.609 108.942 187.176 109.593C187.385 109.85 187.669 110.036 187.988 110.124C188.307 110.212 188.645 110.199 188.956 110.086C189.889 109.802 190.785 109.406 191.623 108.907C194.061 107.432 196.034 105.299 197.315 102.754C198.882 99.6096 199.725 96.1543 199.782 92.6419C199.845 91.0108 199.758 89.3775 199.522 87.7622C198.991 83.7935 197.648 79.9766 195.576 76.5503C193.827 73.5335 191.32 71.0264 188.303 69.2776C187.421 68.7444 186.457 68.3613 185.45 68.1445C185.432 68.1694 185.414 68.1831 185.398 68.1878L185.387 68.187C185.383 68.187 185.378 68.187 185.374 68.1875C185.36 68.1824 185.35 68.167 185.35 68.1445C185.335 68.1375 185.319 68.1338 185.303 68.1338C185.296 68.1338 185.29 68.1345 185.283 68.1358L185.273 68.1382C185.267 68.1399 185.262 68.1419 185.257 68.1445L185.23 68.1316C185.22 68.1192 185.207 68.1089 185.193 68.1021C185.178 68.0952 185.163 68.0921 185.147 68.0925L185.13 68.0845L184.89 68.0444L184.877 68.0584L184.867 68.0679C184.205 67.8438 183.526 67.6712 182.837 67.5513C183.391 67.426 183.892 67.3355 184.379 67.2322C184.567 67.1926 184.752 67.1509 184.937 67.1048C186.307 66.7713 187.619 66.2344 188.83 65.5115C191.41 63.9248 193.602 61.7788 195.243 59.2322C198.108 54.803 199.741 49.6904 199.975 44.4204C200.05 42.7175 199.954 41.0115 199.689 39.3279C199.348 36.7603 198.544 34.2759 197.316 31.9954C195.684 28.8335 192.924 26.3999 189.583 25.176C189.214 25.0059 188.8 24.958 188.402 25.0396C188.004 25.1211 187.642 25.3277 187.37 25.6294L187.327 25.6736C187.289 25.7119 187.252 25.751 187.216 25.7905C187.188 25.8213 187.16 25.8523 187.133 25.8836C187.017 26.0159 186.907 26.1533 186.803 26.2959C186.708 26.4424 186.614 26.5896 186.519 26.7371C186.208 27.2202 185.896 27.7061 185.564 28.1758C182.267 32.8438 179.026 37.554 175.786 42.2605L175.305 42.9607C173.776 45.1836 172.26 47.4107 170.743 49.6384L170.725 49.6648L170.709 49.6875L169.439 51.553C169.059 52.1118 168.678 52.6702 168.297 53.228L167.749 54.0308C166.621 55.6807 165.494 57.3306 164.379 58.9922L163.913 59.6792C162.48 61.7954 161.053 63.9004 159.453 65.8914L159.43 65.9207C159.185 66.228 159.149 66.273 158.787 65.8914C158.702 65.7905 158.628 65.6812 158.567 65.565C158.156 64.9251 157.789 64.2581 157.469 63.5689L157.474 63.5718C157.491 63.5305 157.484 63.4993 157.462 63.4751C157.449 63.4605 157.43 63.4485 157.407 63.4385L157.406 63.4531C157.405 63.4595 157.406 63.4658 157.406 63.4722L157.407 63.4793C157.409 63.492 157.413 63.5044 157.419 63.5159C157.422 63.5227 157.426 63.5291 157.431 63.5349C157.434 63.5401 157.439 63.5447 157.443 63.5491L157.432 63.5381C157.428 63.5342 157.425 63.5298 157.421 63.5254C157.418 63.5203 157.415 63.5149 157.412 63.5093C157.407 63.5 157.404 63.4902 157.401 63.4802C157.398 63.4644 157.397 63.448 157.4 63.4317L157.222 63.0166L157.227 63.0183C157.267 62.8784 157.227 62.7852 157.074 62.7586C157.063 62.813 157.073 62.8696 157.101 62.9177C157.112 62.9358 157.125 62.9524 157.14 62.9668C157.122 62.9509 157.106 62.9321 157.094 62.9111C157.066 62.8631 157.056 62.8064 157.067 62.7517C156.961 62.7124 156.96 62.6206 156.96 62.5413L156.968 62.5452C157.061 62.3052 156.941 62.1719 156.734 62.0786C156.719 62.1709 156.734 62.2656 156.776 62.3494C156.801 62.3992 156.835 62.4439 156.876 62.481C156.861 62.4688 156.848 62.4556 156.836 62.4417C156.809 62.4121 156.786 62.3789 156.768 62.3428C156.726 62.259 156.712 62.1643 156.727 62.0718L156.729 62.0608L156.731 62.0432L156.732 62.0215L156.731 62.0015L156.731 61.992H156.734C156.737 61.9656 156.733 61.939 156.721 61.9151C156.715 61.9041 156.708 61.8941 156.7 61.8853C156.691 61.8748 156.68 61.8657 156.667 61.8587C156.665 61.8648 156.663 61.8709 156.661 61.877C156.66 61.8635 156.66 61.8486 156.66 61.832L156.62 61.7319C156.63 61.7356 156.641 61.7385 156.653 61.7385L156.593 61.6118C156.587 61.624 156.583 61.636 156.581 61.6475C156.574 61.6839 156.586 61.7149 156.613 61.7295C156.558 61.7088 156.528 61.6692 156.56 61.6052C156.391 61.1777 156.191 60.7632 155.96 60.3655C155.91 60.3311 155.864 60.2913 155.823 60.2468C155.796 60.2168 155.77 60.1848 155.748 60.1511C155.731 60.127 155.717 60.1018 155.703 60.0757C155.696 60.062 155.689 60.0481 155.683 60.034C155.674 60.0142 155.666 59.9939 155.659 59.9734C155.649 59.9465 155.641 59.9192 155.635 59.8916C155.62 59.8286 155.613 59.7639 155.614 59.6987C155.434 59.3323 155.28 58.9522 155.08 58.5989C154.254 57.0657 153.367 55.5393 152.414 54.0596C150.246 50.7036 147.823 47.5191 145.168 44.534C143.835 43.034 142.422 41.6074 140.975 40.2144C140.94 40.1809 140.908 40.1438 140.875 40.1065C140.809 40.0315 140.743 39.9563 140.657 39.9109C140.607 39.884 140.55 39.8677 140.482 39.8677L140.461 39.8797L140.365 39.7901L140.382 39.7744C140.126 39.4429 139.818 39.1653 139.51 38.8875C139.297 38.6958 139.085 38.5039 138.889 38.2944C138.862 38.2827 138.82 38.2749 138.787 38.2615C138.766 38.2534 138.75 38.2434 138.742 38.2293C138.74 38.2246 138.738 38.2193 138.738 38.2136C138.738 38.2092 138.738 38.2046 138.74 38.1995L138.741 38.1944C138.764 38.2344 138.827 38.2747 138.87 38.2747L138.941 38.1975C138.95 38.2012 138.959 38.2046 138.969 38.208C139.042 38.2324 139.117 38.2529 139.191 38.2747C139.26 38.2947 139.328 38.3157 139.395 38.3413C140.849 38.9578 142.426 39.2251 144.002 39.1211C145.266 39.0496 146.476 38.5833 147.461 37.7879C147.913 37.4187 148.287 36.9636 148.562 36.4485C148.837 35.9336 149.006 35.3694 149.061 34.7883C149.2 33.3382 148.881 31.8811 148.148 30.6221C147.099 28.7705 145.617 27.2012 143.828 26.0493C143.799 26.0298 143.767 26.0127 143.736 25.9956C143.637 25.9422 143.539 25.8887 143.508 25.7627C143.524 25.7468 143.543 25.7373 143.56 25.7315C143.586 25.7227 143.608 25.7227 143.608 25.7227C145.015 25.9495 146.448 25.9495 147.854 25.7227C150.665 25.3198 153.237 23.919 155.1 21.7764C156.309 20.4187 157.165 18.7837 157.59 17.0161C158.016 15.2486 157.999 13.4033 157.54 11.6443C157.093 10.0955 156.504 8.59157 155.78 7.15138C155.755 7.08058 155.716 7.01491 155.667 6.95802C155.112 6.41408 154.608 5.82057 154.16 5.18483C153.057 3.9026 151.714 2.84743 150.208 2.07863C147.754 0.895523 145.089 0.215591 142.368 0.0788727C140.407 -0.0600433 138.436 -0.0153656 136.482 0.212173C135.196 0.352066 133.916 0.512222 132.656 0.751968C127.98 1.68605 123.434 3.18336 119.118 5.21169C116.48 6.43385 113.916 7.80934 111.439 9.33107C106.804 12.155 102.515 15.5108 98.66 19.3301L98.1734 19.7832C98.0191 19.957 97.8231 20.0889 97.6038 20.1658C97.3845 20.2427 97.1492 20.2625 96.9202 20.2232C95.7536 20.0833 94.5738 20.0166 93.3939 19.9832H89.2343C87.6612 20.0032 86.088 20.1299 84.5215 20.2832C82.7151 20.4632 80.922 20.7366 79.1355 21.0632C77.2357 21.4097 75.3626 21.843 73.4961 22.3364C70.6616 23.0581 67.8688 23.9351 65.1304 24.9627C60.4615 26.7901 56.03 29.1736 51.9319 32.062C49.0749 34.0469 46.3821 36.2583 43.8794 38.6746L43.4384 39.1023L43.1692 39.365L42.895 39.6333C42.6218 39.9014 42.35 40.1704 42.0796 40.4409C41.0597 41.4675 40.0598 42.5073 39.1266 43.614C38.3334 44.5606 37.5401 45.5137 36.7736 46.4802C36.2248 47.1433 35.7151 47.8379 35.247 48.5601C35.2959 48.7334 35.2359 48.8201 35.0671 48.8201C34.9424 48.9336 34.8682 49.0796 34.7944 49.2246C34.7341 49.3433 34.6741 49.4612 34.5871 49.5601C34.5442 49.6133 34.5016 49.6668 34.4592 49.7205C34.41 49.7827 34.3613 49.8452 34.313 49.908C32.1118 52.667 30.5598 55.3484 29.9132 57.3953C29.2128 58.7717 28.5835 60.1836 28.0279 61.6253C28.0449 61.6509 28.0553 61.6802 28.0583 61.711C28.0612 61.7415 28.0565 61.7725 28.0446 61.8008C28.0327 61.8291 28.0141 61.854 27.9902 61.8736C27.9663 61.8928 27.938 61.906 27.9079 61.9119L27.6886 62.5232L27.681 62.5051C27.6281 62.5288 27.5858 62.5711 27.5624 62.624C27.539 62.677 27.5361 62.7368 27.5543 62.7918C27.669 62.7437 27.7345 62.668 27.6964 62.5452C27.7494 62.6797 27.6947 62.761 27.5612 62.8118C27.0813 64.0584 26.628 65.3181 26.2614 66.6113ZM138.841 38.1392C138.823 38.1279 138.81 38.1226 138.795 38.1292L138.804 38.1304L138.811 38.1319C138.821 38.1336 138.831 38.1362 138.841 38.1392ZM140.331 39.8994C140.346 39.9072 140.363 39.9094 140.38 39.9077L140.394 39.9058L140.401 39.9041C140.411 39.9016 140.42 39.8985 140.43 39.8945L140.445 39.8877L140.458 39.8811C140.438 39.8816 140.417 39.8848 140.397 39.888L140.393 39.8887C140.369 39.8926 140.346 39.8965 140.324 39.8958L140.331 39.8994ZM135.453 65.9844L135.455 65.9807L135.457 65.9771C135.46 65.9656 135.453 65.9546 135.442 65.9444L135.43 65.9348L135.418 65.9273C135.408 65.9214 135.398 65.9155 135.387 65.9099L135.383 65.9077C135.369 65.9002 135.355 65.8928 135.344 65.8858L135.34 65.8828C135.31 65.9021 135.348 65.9216 135.389 65.9436C135.413 65.9563 135.439 65.9697 135.453 65.9844ZM198.849 43.0171L198.844 43.0642L198.849 43.1594V43.0171ZM187.91 26.0493C187.929 26.0969 187.951 26.1384 187.976 26.1748C187.938 26.1343 187.907 26.0862 187.884 26.0293C187.822 25.8704 187.785 25.801 187.724 25.7998C187.791 25.7761 187.827 25.8379 187.91 26.0493ZM161.189 65.5928C161.089 65.7603 160.954 65.9165 160.864 66.0735L160.869 66.0623C160.922 65.9573 160.992 65.8633 161.063 65.7688C161.102 65.7175 161.14 65.6658 161.176 65.6123L161.189 65.5928ZM168.383 54.3933C168.375 54.3977 168.368 54.4031 168.363 54.4092C168.375 54.3733 168.409 54.3421 168.447 54.3396L168.419 54.3806C168.405 54.3836 168.393 54.3877 168.383 54.3933Z" fill="#082653"/>
<path d="M9.05699 16.137C12.0899 16.1174 15.0226 17.2217 17.2894 19.2368C17.9867 19.8228 18.6071 20.4949 19.1359 21.2366C19.542 21.8591 19.7554 22.5879 19.7495 23.3313C19.7436 24.0747 19.5185 24.7998 19.1025 25.416C18.5893 26.0825 17.1428 26.6958 16.1762 26.1626C15.4328 25.7993 14.7862 25.2647 14.2897 24.6028C14.2521 24.5527 14.2116 24.5051 14.1685 24.46C14.1073 24.3955 14.0408 24.3364 13.9698 24.2827C13.8509 24.1929 13.7324 24.1021 13.6137 24.011C13.2134 23.7039 12.8116 23.3955 12.39 23.1231C11.6163 22.5933 10.7194 22.2717 9.78549 22.1887C8.85158 22.106 7.91205 22.2647 7.0572 22.6497C6.4662 22.9273 5.98002 23.3875 5.67039 23.9624C5.36075 24.5374 5.24402 25.1963 5.3374 25.8425C5.44574 26.4895 5.74254 27.0901 6.19064 27.5691C7.07799 28.585 8.14732 29.426 9.34363 30.0488C10.2697 30.5571 11.1605 31.1272 12.01 31.7554C13.66 33.0227 14.8021 34.8386 15.2296 36.8748C15.4529 37.7822 15.6265 38.7014 15.7496 39.6277C15.8362 40.3562 15.8362 41.0923 15.7496 41.8208C15.662 42.3252 15.4362 42.7954 15.0972 43.1792C14.7583 43.5628 14.3195 43.8447 13.8298 43.9939C13.5359 44.0486 13.2333 44.0337 12.9462 43.9505C12.6591 43.8672 12.3955 43.7175 12.1766 43.5139C11.7247 43.1121 11.3887 42.5965 11.2034 42.0208C10.9744 41.4246 10.8503 40.793 10.8368 40.1543C10.7928 39.1231 10.5672 38.1077 10.1702 37.1548C9.92044 36.6687 9.60409 36.22 9.2303 35.8215C8.53587 35.0606 7.73419 34.4048 6.85057 33.875C6.11847 33.3443 5.32919 32.897 4.4975 32.542C3.64314 32.1109 2.86784 31.5383 2.20442 30.8489C1.05209 29.7571 0.322554 28.2932 0.144651 26.7158C-0.0825215 25.3079 -0.0418111 23.8694 0.264631 22.4763C0.635664 20.7205 1.53876 19.1214 2.85101 17.897C3.46852 17.4028 4.1776 17.0359 4.93745 16.8169C6.25778 16.3416 7.65387 16.1111 9.05699 16.137Z" fill="#082653"/>
<path d="M14.7772 48.5352C14.0731 47.8015 13.1127 47.3687 12.0968 47.3269C11.5662 47.3049 11.0368 47.3906 10.5401 47.5786C10.0435 47.7666 9.59006 48.053 9.20695 48.4207C8.82385 48.7883 8.51901 49.2298 8.31077 49.718C8.10254 50.2066 7.99519 50.7322 7.99519 51.263C7.99519 51.794 8.10254 52.3196 8.31077 52.8081C8.51901 53.2964 8.82385 53.7378 9.20695 54.1055C9.59006 54.4732 10.0435 54.7595 10.5401 54.9475C11.0368 55.1355 11.5662 55.2212 12.0968 55.1992C13.1127 55.1575 14.0731 54.7244 14.7772 53.991C15.4812 53.2573 15.8743 52.2798 15.8743 51.263C15.8743 50.2464 15.4812 49.2688 14.7772 48.5352Z" fill="#082653"/>
<path d="M8.49049 66.0515C7.54745 66.0349 6.63875 65.6948 5.91665 65.0879C5.19456 64.4812 4.70299 63.6448 4.52427 62.7185C4.43306 62.1807 4.47529 61.6287 4.64725 61.1109C4.81921 60.593 5.11564 60.1255 5.51053 59.749C5.90541 59.3726 6.38667 59.0989 6.91206 58.9517C7.43745 58.8047 7.9909 58.7888 8.52382 58.9058C9.3018 59.0227 10.0264 59.3716 10.6032 59.9068C11.1799 60.4417 11.5819 61.1382 11.7568 61.9053C11.8988 62.4009 11.921 62.9231 11.8216 63.429C11.7222 63.9346 11.504 64.4097 11.185 64.8145C10.866 65.2195 10.4554 65.5427 9.98688 65.7578C9.5184 65.9729 9.00551 66.0735 8.49049 66.0515Z" fill="#082653"/>
<path d="M21.7693 67.9312C21.5494 66.7046 20.3695 65.4783 19.0363 65.5781C18.7171 65.5718 18.3999 65.6301 18.1038 65.7495C17.8077 65.8689 17.5389 66.0471 17.3134 66.2732C17.088 66.4993 16.9106 66.7686 16.792 67.065C16.6734 67.3613 16.616 67.6787 16.6233 67.9978C16.5991 68.5733 16.7361 69.1438 17.0188 69.6455C17.3014 70.1472 17.7185 70.5601 18.2231 70.8377C18.7207 71.0986 19.2921 71.1834 19.8441 71.0781C20.3961 70.9729 20.8962 70.6836 21.2627 70.2576C21.5109 69.9299 21.6848 69.552 21.7723 69.1502C21.8598 68.7486 21.8588 68.3325 21.7693 67.9312Z" fill="#082653"/>
<path d="M155.854 60.2586C155.805 60.2061 155.763 60.1467 155.73 60.0823C155.703 60.0303 155.681 59.9754 155.666 59.919C155.648 59.8496 155.639 59.7776 155.64 59.7053C155.713 59.752 155.777 59.8106 155.83 59.8784C155.857 59.9141 155.882 59.9522 155.903 59.9924C155.93 60.0454 155.951 60.1013 155.965 60.159C155.983 60.2283 155.99 60.3001 155.987 60.3721L155.959 60.3523L155.937 60.3347C155.907 60.3113 155.88 60.2859 155.854 60.2586Z" fill="#082653"/>
<path d="M35.2408 48.5401C35.2897 48.7 35.2297 48.7866 35.0608 48.8001C35.0527 48.742 35.0667 48.6831 35.1001 48.6348C35.1334 48.5867 35.1837 48.5527 35.2408 48.5401Z" fill="#082653"/>
<path d="M28.0011 61.6052C28.0181 61.6309 28.0286 61.6602 28.0315 61.6909C28.0325 61.7012 28.0326 61.7114 28.0319 61.7217C28.0305 61.742 28.0258 61.762 28.0179 61.7808C28.011 61.7971 28.0019 61.8123 27.9908 61.8259C27.9827 61.836 27.9735 61.8452 27.9634 61.8535C27.9396 61.8728 27.9113 61.886 27.8811 61.8919L27.8771 61.8804L27.8726 61.864C27.8699 61.8523 27.8681 61.8406 27.8673 61.8289C27.8647 61.7937 27.8704 61.7581 27.8842 61.7249C27.8919 61.7066 27.9019 61.6895 27.9139 61.6738C27.9211 61.6646 27.9289 61.6558 27.9373 61.6477C27.9434 61.6419 27.9498 61.6365 27.9565 61.6314L27.9677 61.6238L27.976 61.6184C27.984 61.6135 27.9924 61.6091 28.0011 61.6052Z" fill="#082653"/>
</svg>
