<svg width="200" height="188" viewBox="0 0 200 188" fill="none" xmlns="http://www.w3.org/2000/svg">
<path d="M96.7094 143.503C68.9004 149.13 127.927 212.62 135.637 176.019C160.47 154.351 149.216 131.005 96.7094 143.503Z" fill="#082653"/>
<path d="M170.452 94.4856C170.425 94.5667 170.425 94.6479 170.397 94.702H0.0811554C0.0541038 94.6208 0.0270515 94.5397 0 94.4856C32.2725 28.0741 151.407 27.1273 170.452 94.4856Z" fill="#082653"/>
<path d="M170.397 94.7292C165.555 118.264 152.895 135.361 136.475 146.046C136.339 146.127 136.204 146.208 136.069 146.316C111.371 162.142 78.2329 163.521 50.0722 150.509C49.7747 150.374 49.5042 150.239 49.2066 150.104C34.5447 143.124 21.2894 132.223 11.3615 117.371C10.0631 115.451 8.84574 113.476 7.68253 111.42C4.76096 106.28 2.19107 100.708 0.0810547 94.7292H170.397Z" fill="#082653"/>
<path d="M194.798 94.7291H170.56C173.075 90.9689 214.248 29.3185 194.798 94.7291Z" fill="#082653"/>
<path d="M170.452 94.8914C170.452 94.8914 170.506 94.8373 170.56 94.702H194.798C194.771 94.7561 194.771 94.8102 194.744 94.8914C210.434 161.303 170.452 94.8914 170.452 94.8914Z" fill="#082653"/>
<path d="M147.16 35.1075C160.524 59.7515 75.7443 56.3971 98.2511 26.8027C105.068 -7.95847 123.355 -12.6384 147.16 35.1075Z" fill="#082653"/>
<path d="M136.61 145.613L136.475 146.046L136.367 146.397C136.259 146.37 136.177 146.343 136.069 146.289C111.236 138.012 89.0807 139.635 74.8516 142.475C61.3799 145.153 52.2906 149.4 50.0724 150.482C49.7748 150.347 49.5043 150.212 49.2067 150.077L49.1797 150.022C49.2879 149.968 59.0805 144.774 74.6622 141.663C89.0536 138.796 111.479 137.146 136.61 145.613Z" fill="#082653"/>
<path d="M118.999 123.35C91.5149 128.949 148.567 191.763 156.79 155.514C179.054 127.948 170.884 110.933 118.999 123.35Z" fill="#082653"/>
<path d="M42.146 104.982C42.0378 105.333 39.0892 113.692 30.1081 117.317C27.403 118.426 24.4814 118.967 21.3164 118.967C18.2055 118.967 14.9052 118.426 11.3885 117.371C10.09 115.451 8.87269 113.476 7.70947 111.42C15.879 114.937 22.8583 115.586 28.4309 113.341C35.5725 110.473 38.0342 103.656 38.0613 103.575L42.146 104.982Z" fill="#082653"/>
<path d="M44.0128 92.1863C47.0009 92.1863 49.4231 89.764 49.4231 86.776C49.4231 83.7879 47.0009 81.3657 44.0128 81.3657C41.0248 81.3657 38.6025 83.7879 38.6025 86.776C38.6025 89.764 41.0248 92.1863 44.0128 92.1863Z" fill="#082653"/>
</svg>
