<svg width="300" height="210" viewBox="0 0 300 210" fill="none" xmlns="http://www.w3.org/2000/svg">
<rect width="300" height="210" fill="white"/>
<path d="M72.1096 96.4198C72.1096 96.4198 71.5224 95.1666 71.3224 94.7499C69.988 91.9729 70.0168 91.825 68.668 91.6385C68.2904 91.5865 68.0952 91.5361 68.0952 91.3395V90.4609L68.2088 90.3752C70.6456 90.3718 76.068 90.3718 76.068 90.3718L76.276 90.4441V91.3193C76.276 91.5193 76.14 91.6218 75.8632 91.6218L75.2936 91.7074C73.8536 91.825 74.0888 92.4433 75.0456 94.4441L84.1288 113.957L84.4392 114.046L92.5032 93.9519C92.7832 93.1421 92.74 92.5676 92.38 92.2299C92.0184 91.9006 91.764 91.7058 90.8296 91.6654L90.0728 91.6251C89.98 91.6251 89.892 91.5898 89.8072 91.5243C89.724 91.4622 89.6808 91.3798 89.6808 91.2807V90.4441L89.796 90.3584C92.068 90.3584 98.9064 90.3584 98.9064 90.3584L98.9992 90.4441V91.2807C98.9992 91.5075 98.876 91.6218 98.6328 91.6218C97.4392 91.6772 96.5544 91.9493 95.9816 92.4349C95.4072 92.9237 94.9592 93.5974 94.6376 94.4727C94.6376 94.4727 87.2216 112.296 84.684 118.22C83.7128 120.162 82.7576 119.984 81.9176 118.164C80.1432 114.327 75.1464 102.686 75.1464 102.686L72.1096 96.4198Z" fill="black"/>
<path d="M86.6632 90.362C86.6632 90.362 81.5384 90.3452 79.2568 90.362L79.1432 90.4476V91.2809C79.1432 91.3834 79.1848 91.464 79.268 91.5262C79.3528 91.5917 79.4392 91.6253 79.532 91.6253L79.8984 91.6673C80.8312 91.7076 81.26 91.9647 81.388 92.126C81.6104 92.4116 81.7208 92.7207 81.1816 93.9555L71.6136 113.993L71.3624 113.924C71.3624 113.924 64.5096 98.7519 62.5256 93.6766C62.3192 93.1507 62.2264 92.761 62.2264 92.5208C62.2264 92.005 62.6696 91.7261 63.556 91.6875L64.5896 91.6421C64.8632 91.6421 65.0024 91.5312 65.0024 91.3011V90.4678L64.9096 90.3821C64.9096 90.3821 56.7016 90.372 55.0056 90.3821L54.9128 90.4678V91.3431C54.9128 91.501 55.1032 91.5984 55.4856 91.6421C56.5272 91.7009 57.212 91.8756 57.5416 92.1663C57.8696 92.4603 58.2168 93.2028 58.6776 94.3604C61.1688 100.644 66.4616 111.856 69.0392 118.242C69.7816 119.985 70.7144 120.256 71.8472 118.188C73.8088 114.367 79.1272 102.702 79.1272 102.702L83.316 94.4763C83.804 93.6077 84.2744 92.8332 84.5128 92.472C84.9496 91.8118 85.1944 91.6875 86.388 91.6287C86.6312 91.6287 86.7544 91.5144 86.7544 91.2843V90.451L86.6632 90.362Z" fill="black"/>
<path d="M102.246 116.373C102.246 117.334 102.662 117.902 103.993 118.033L104.866 118.122C104.991 118.122 105.116 118.208 105.116 118.383V119.3L105.074 119.389C105.074 119.389 101.913 119.3 100.623 119.3C99.4585 119.3 96.2137 119.389 96.2137 119.389L96.1305 119.3V118.383C96.1305 118.208 96.2553 118.122 96.4217 118.122L97.2537 118.033C98.6265 117.902 99.0425 117.203 99.0425 116.373V101.828C99.0425 100.869 98.5417 100.603 97.2537 100.476L96.4217 100.385C96.2553 100.385 96.1305 100.345 96.1305 100.21V99.2038L96.1721 99.1165C96.1721 99.1165 99.4585 99.2038 100.748 99.2038C101.871 99.2038 105.074 99.1165 105.074 99.1165L105.116 99.2038V100.165C105.116 100.296 105.033 100.383 104.866 100.383L103.993 100.472C102.703 100.602 102.246 100.953 102.246 101.828V116.373Z" fill="black"/>
<path d="M114.522 116.373C114.522 117.334 115.063 117.815 116.27 118.033L116.727 118.122C116.852 118.164 116.977 118.208 116.977 118.383V119.3L116.935 119.389C116.935 119.389 114.314 119.3 113.066 119.3C111.902 119.3 108.49 119.389 108.49 119.389L108.407 119.3V118.383C108.407 118.208 108.532 118.122 108.698 118.122L109.53 118.033C110.778 117.902 111.319 117.203 111.319 116.373V101.828C111.319 100.869 110.862 100.603 109.53 100.476L108.698 100.385C108.532 100.385 108.407 100.345 108.407 100.21V99.2038L108.449 99.1165C108.449 99.1165 111.86 99.2038 113.15 99.2038C114.316 99.2038 116.935 99.1165 116.935 99.1165L116.977 99.2038V100.165C116.977 100.296 116.894 100.339 116.727 100.383L116.27 100.472C114.98 100.733 114.522 100.953 114.522 101.828V108.424C115.895 108.424 116.686 107.683 118.516 105.628C120.18 103.705 121.47 102.092 121.47 101.26C121.47 100.909 121.095 100.518 120.263 100.385C120.097 100.343 120.014 100.297 120.014 100.166V99.1601L120.055 99.1181C120.055 99.1181 123.425 99.2055 124.631 99.2055C125.713 99.2055 127.543 99.1181 127.543 99.1181L127.668 99.1601V100.166C127.668 100.297 127.543 100.385 127.335 100.385C125.713 100.516 124.59 100.603 123.092 102.394L119.514 106.717C118.807 107.505 118.558 107.983 118.558 108.335C118.558 108.597 118.724 108.813 118.932 109.075L125.214 117.025C125.713 117.635 126.711 117.899 127.543 118.072L127.751 118.114C127.876 118.158 128.042 118.245 128.042 118.376V119.293L127.918 119.337C127.918 119.337 125.713 119.293 124.548 119.293C123.508 119.293 122.01 119.337 122.01 119.337L121.969 119.293V118.769C121.969 118.2 121.927 117.722 121.345 117.024L116.727 110.994C116.103 110.119 115.438 109.904 114.522 109.904V116.373Z" fill="black"/>
<path d="M136.95 116.373C136.95 117.334 137.366 117.902 138.697 118.033L139.57 118.122C139.695 118.122 139.82 118.208 139.82 118.383V119.3L139.778 119.389C139.778 119.389 136.617 119.3 135.327 119.3C134.162 119.3 130.918 119.389 130.918 119.389L130.834 119.3V118.383C130.834 118.208 130.959 118.122 131.126 118.122L131.958 118.033C133.33 117.902 133.746 117.203 133.746 116.373V101.828C133.746 100.869 133.247 100.603 131.958 100.476L131.126 100.385C130.959 100.385 130.834 100.345 130.834 100.21V99.2038L130.876 99.1165C130.876 99.1165 134.162 99.2038 135.452 99.2038C136.575 99.2038 139.778 99.1165 139.778 99.1165L139.82 99.2038V100.165C139.82 100.296 139.737 100.383 139.57 100.383L138.697 100.472C137.407 100.602 136.95 100.953 136.95 101.828V116.373Z" fill="black"/>
<path d="M145.938 101.914C145.938 100.56 145.398 100.516 143.442 100.385C143.193 100.385 143.151 100.256 143.151 100.166V99.1618L143.234 99.1182C143.858 99.1182 146.313 99.2055 147.519 99.2055C148.684 99.2055 150.348 99.1182 151.887 99.1182C157.791 99.1182 158.873 102.174 158.873 104.449C158.873 107.071 157.666 111.176 151.762 111.176C150.722 111.176 149.89 111.086 149.14 110.739V116.588C149.14 117.549 149.639 117.77 150.972 117.986L151.806 118.117C151.972 118.161 152.097 118.206 152.097 118.379V119.297L152.057 119.384C152.057 119.384 148.729 119.297 147.439 119.297C146.274 119.297 143.154 119.384 143.154 119.384L143.113 119.297V118.379C143.113 118.205 143.196 118.161 143.362 118.117L144.236 117.986C145.526 117.812 145.942 117.418 145.942 116.588L145.938 101.914ZM149.142 109.516C149.974 109.867 151.014 109.909 151.846 109.909C154.343 109.909 155.545 108.333 155.545 104.973C155.545 101.216 153.922 100.387 151.638 100.387C149.639 100.387 149.14 100.78 149.14 101.915L149.142 109.516Z" fill="black"/>
<path d="M166.038 119.3C164.79 119.3 161.921 119.389 161.921 119.389L161.878 119.3V118.339C161.878 118.253 161.921 118.122 162.127 118.122L163.086 118.033C164.377 117.902 164.751 117.029 164.751 116.157V101.742C164.751 100.734 164.25 100.561 163.086 100.476L162.127 100.385C161.878 100.345 161.878 100.255 161.878 100.21V99.2038L161.921 99.1165C161.921 99.1165 165.164 99.2038 166.412 99.2038H172.527C173.775 99.2038 176.731 99.1165 176.731 99.1165L176.815 99.2038C176.855 101.082 177.146 102.789 177.439 104.447L176.401 104.622C175.945 103.004 175.154 100.691 172.492 100.691H169.164C168.374 100.691 167.958 100.996 167.958 101.737V108.073H171.076C172.243 108.073 172.532 107.548 172.7 106.675L172.948 105.757C172.948 105.626 173.033 105.537 173.198 105.537H173.903C173.988 105.537 173.988 105.583 173.988 105.668C173.903 106.629 173.739 107.854 173.739 108.902C173.739 109.993 173.905 110.912 173.988 111.916L173.903 112.005H173.198C172.991 112.005 172.905 111.916 172.905 111.785L172.697 110.826C172.531 109.951 172.156 109.47 171.071 109.47H167.954V116.155C167.954 116.983 168.409 117.813 169.161 117.813H173.113C175.234 117.813 176.401 116.415 176.898 114.142L177.937 114.273L177.103 119.295L177.02 119.382C177.02 119.382 174.566 119.295 173.318 119.295L166.038 119.3Z" fill="black"/>
<path d="M181.682 118.122L182.639 118.033C183.889 117.902 184.305 117.509 184.305 116.157V101.742C184.305 100.603 184.01 100.603 182.639 100.476L181.727 100.385C181.561 100.385 181.433 100.298 181.433 100.166V99.2055L181.473 99.1182C181.473 99.1182 185.135 99.2055 185.886 99.2055C186.673 99.2055 190.295 99.1182 191.377 99.1182C198.324 99.1182 201.737 103.661 201.737 109.47C201.737 117.116 196.577 119.384 191.961 119.384C188.633 119.384 187.178 119.297 185.889 119.297C184.639 119.297 181.478 119.384 181.478 119.384L181.436 119.297V118.379C181.433 118.253 181.518 118.122 181.682 118.122ZM190.961 118.122C195.535 118.122 198.118 116.333 198.118 110.215C198.118 105.674 197.159 100.385 190.17 100.385C188.548 100.385 187.508 100.647 187.508 101.742V116.157C187.508 117.376 187.798 118.122 190.961 118.122Z" fill="black"/>
<path d="M211.558 116.373C211.558 117.334 211.974 117.902 213.305 118.033L214.178 118.122C214.303 118.122 214.428 118.208 214.428 118.383V119.3L214.386 119.389C214.386 119.389 211.225 119.3 209.937 119.3C208.77 119.3 205.527 119.389 205.527 119.389L205.442 119.3V118.383C205.442 118.208 205.567 118.122 205.734 118.122L206.567 118.033C207.938 117.902 208.356 117.203 208.356 116.373V101.828C208.356 100.869 207.855 100.603 206.567 100.476L205.734 100.385C205.567 100.385 205.442 100.345 205.442 100.21V99.2038L205.484 99.1165C205.484 99.1165 208.77 99.2038 210.057 99.2038C211.18 99.2038 214.385 99.1165 214.385 99.1165L214.425 99.2038V100.165C214.425 100.296 214.34 100.383 214.175 100.383L213.302 100.472C212.012 100.602 211.554 100.953 211.554 101.828L211.558 116.373Z" fill="black"/>
<path d="M224.374 118.033L225.58 118.122C225.746 118.122 225.913 118.253 225.913 118.47V119.3L225.83 119.389C225.83 119.389 221.295 119.3 220.297 119.3C219.214 119.3 216.551 119.389 216.551 119.389L216.466 119.3V118.47C216.466 118.253 216.591 118.122 216.801 118.122C218.633 117.991 219.67 117.64 220.834 114.845L230.068 92.1294C230.524 90.9937 230.858 90.5552 231.484 90.5552C232.065 90.5552 232.274 90.9937 232.606 91.8673L241.134 115.542C241.718 117.247 242.55 117.901 244.214 118.075L244.671 118.117C244.879 118.117 245.087 118.248 245.087 118.468V119.297L244.962 119.384C244.962 119.384 241.759 119.297 240.137 119.297C238.681 119.297 234.602 119.384 234.602 119.384L234.562 119.297V118.468C234.562 118.248 234.646 118.117 234.857 118.117L236.022 118.03C237.601 117.901 238.186 117.373 237.769 116.152L235.231 108.768H226.578C225.58 108.768 225.33 108.943 225.124 109.509L222.71 115.844C222.294 116.94 222.834 117.902 224.374 118.033ZM234.566 106.935L230.53 95.2743H230.447L226.287 106.369C226.121 106.808 226.41 106.937 227.326 106.937H234.566V106.935Z" fill="black"/>
</svg>
