<svg width="40" height="40" viewBox="0 0 40 40" fill="none" xmlns="http://www.w3.org/2000/svg">
<path d="M40 19.9873C39.9655 22.3664 39.9417 24.7455 39.8925 27.1245C39.8608 28.6443 39.7669 30.1602 39.3814 31.6416C38.5519 34.8259 36.7113 37.199 33.7276 38.6392C32.5409 39.2117 31.2768 39.5389 29.9711 39.6967C27.8545 39.952 25.7252 39.9532 23.5988 39.9607C20.4536 39.9714 17.3081 39.9683 14.1638 39.9258C12.7784 39.9072 11.3882 39.8465 10.0123 39.6844C6.89695 39.318 4.2669 38.019 2.35533 35.4492C1.34859 34.1003 0.776819 32.5646 0.442164 30.9282C0.191173 29.6991 0.127732 28.4528 0.0916493 27.205C-0.039199 22.7466 -0.0114433 18.2867 0.060325 13.8272C0.0752905 12.5523 0.154694 11.2791 0.298231 10.0123C0.581339 7.60432 1.42789 5.4251 3.11464 3.61979C4.73677 1.88427 6.75262 0.903698 9.05278 0.441367C10.2887 0.193152 11.5417 0.127728 12.7958 0.0912487C17.2681 -0.0392031 21.7415 -0.0118439 26.2141 0.0619069C27.4691 0.0756991 28.7225 0.153915 29.9695 0.296244C33.1761 0.680066 35.8569 2.03653 37.7653 4.72407C38.7308 6.0841 39.272 7.6186 39.5785 9.24429C39.8045 10.4362 39.868 11.644 39.8922 12.8525C39.9401 15.2308 39.9655 17.6095 40 19.9873ZM19.9762 36.3275C19.9762 36.3517 19.9762 36.3763 19.9762 36.4009C22.4009 36.3632 24.8256 36.3323 27.2502 36.2851C28.3735 36.2633 29.4937 36.1887 30.5936 35.9314C32.1229 35.5745 33.4389 34.8584 34.4604 33.6431C35.3485 32.586 35.8113 31.3434 36.0496 30.0032C36.2601 28.8208 36.295 27.6241 36.3144 26.4294C36.389 21.8172 36.4211 17.2046 36.2811 12.5912C36.2482 11.5143 36.1729 10.4417 35.9298 9.38624C35.5504 7.74033 34.7546 6.35611 33.4013 5.31686C32.3965 4.54564 31.2355 4.15508 30.0072 3.93145C28.8176 3.71535 27.6142 3.68442 26.4136 3.66539C21.8085 3.59283 17.2042 3.55952 12.5996 3.70028C11.5226 3.73359 10.4501 3.80695 9.39457 4.0504C7.73399 4.43343 6.34144 5.23755 5.29941 6.6067C4.54089 7.60353 4.15707 8.75341 3.93383 9.96792C3.71972 11.1364 3.6876 12.3208 3.66817 13.502C3.59164 18.1412 3.55953 22.7804 3.70148 27.4195C3.73399 28.4901 3.80973 29.5555 4.05279 30.6043C4.44137 32.2696 5.25223 33.6642 6.63367 34.7038C7.62891 35.452 8.77483 35.8339 9.98141 36.0519C11.2419 36.278 12.5191 36.3057 13.7927 36.322C15.8541 36.3465 17.916 36.3275 19.9778 36.3275H19.9762Z" fill="#082653"/>
<path d="M19.9845 9.72926C25.6419 9.72251 30.2541 14.3312 30.2541 19.9909C30.2541 25.6507 25.6427 30.2602 19.9873 30.2542C14.3319 30.2483 9.73673 25.6547 9.72999 20.002C9.72325 14.3434 14.3232 9.73639 19.9845 9.72926ZM13.3319 19.9917C13.3319 23.6622 16.3152 26.6479 19.9869 26.6531C23.6586 26.6583 26.6459 23.6745 26.6519 20.0012C26.6578 16.328 23.6657 13.3284 19.9865 13.3319C16.3144 13.3355 13.3319 16.3204 13.3319 19.9917Z" fill="#082653"/>
<path d="M28.2603 9.33239C28.2594 8.85857 28.3991 8.39514 28.6617 8.00074C28.9243 7.60634 29.298 7.2987 29.7355 7.11674C30.173 6.93478 30.6546 6.88668 31.1194 6.97854C31.5843 7.07039 32.0114 7.29806 32.3468 7.63274C32.6822 7.96742 32.9108 8.39407 33.0037 8.85871C33.0965 9.32335 33.0495 9.80508 32.8684 10.243C32.6874 10.6808 32.3806 11.0552 31.9868 11.3186C31.5929 11.5821 31.1298 11.7228 30.656 11.7229C30.0213 11.7236 29.4123 11.4721 28.9631 11.0238C28.5138 10.5755 28.261 9.96707 28.2603 9.33239Z" fill="#082653"/>
</svg>
