<?xml version="1.0" standalone="no"?>
<!DOCTYPE svg PUBLIC "-//W3C//DTD SVG 20010904//EN"
 "http://www.w3.org/TR/2001/REC-SVG-20010904/DTD/svg10.dtd">
<svg version="1.0" xmlns="http://www.w3.org/2000/svg"
 width="500.000000pt" height="72.000000pt" viewBox="0 0 500.000000 72.000000"
 preserveAspectRatio="xMidYMid meet">

<g transform="translate(0.000000,72.000000) scale(0.100000,-0.100000)"
fill="#000000" stroke="none">
<path d="M0 360 l0 -360 1265 0 1265 0 0 360 0 360 -1265 0 -1265 0 0 -360z
m1910 263 c0 -4 -30 -112 -66 -240 l-67 -233 -44 0 c-32 0 -44 4 -41 12 3 7
34 115 69 241 l64 227 42 0 c24 0 43 -3 43 -7z m163 -8 c13 -12 11 -27 -12
-120 l-26 -106 -35 6 c-19 4 -39 10 -43 15 -7 6 36 190 50 213 7 12 51 8 66
-8z m-1613 -180 c28 -26 28 -27 39 -7 16 31 75 47 121 33 56 -17 69 -44 72
-153 3 -85 5 -93 23 -93 15 0 21 -8 23 -32 l3 -33 -70 0 -71 0 0 109 c0 117
-9 141 -52 141 -43 0 -58 -27 -58 -105 0 -64 2 -73 20 -78 15 -4 20 -14 20
-36 l0 -31 -65 0 -65 0 0 98 c0 109 -12 145 -50 150 -50 6 -65 -18 -65 -105
l0 -78 28 3 c25 3 27 1 27 -32 l0 -36 -95 0 -95 0 0 31 c0 22 5 32 20 36 18 5
20 14 20 89 0 77 -2 84 -20 84 -16 0 -20 7 -20 35 l0 35 65 0 c60 0 65 -2 65
-22 l0 -21 23 20 c31 28 46 33 91 29 24 -3 49 -14 66 -31z m579 9 c42 -25 71
-82 71 -141 0 -109 -97 -181 -215 -159 -142 27 -164 245 -31 308 49 22 129 19
175 -8z m1277 11 c48 -20 64 -63 64 -170 0 -69 3 -85 15 -85 9 0 15 -9 15 -25
0 -49 -92 -45 -117 5 -10 21 -13 22 -19 7 -8 -22 -55 -47 -89 -47 -33 0 -81
24 -89 45 -15 40 -6 83 23 108 30 25 114 43 145 31 21 -8 29 16 17 49 -9 23
-16 27 -52 27 -33 0 -42 -4 -46 -21 -4 -16 -12 -19 -37 -17 -27 3 -31 7 -34
34 -3 35 9 48 58 62 52 15 106 14 146 -3z m-866 -21 c0 -17 -24 -53 -80 -116
-44 -50 -80 -93 -80 -97 0 -3 21 -4 46 -2 35 2 48 8 51 22 4 15 15 19 45 19
33 0 39 -3 35 -17 -3 -10 -8 -35 -12 -55 l-6 -38 -138 0 c-192 0 -192 -2 3
218 l19 22 -47 0 c-39 0 -49 -4 -53 -20 -4 -15 -14 -20 -39 -20 -37 0 -39 5
-28 73 l7 37 138 0 139 0 0 -26z m180 -29 l0 -55 -50 0 -50 0 0 55 0 55 50 0
50 0 0 -55z m363 -26 c38 -10 51 -29 19 -29 -13 0 -22 -18 -38 -80 -11 -44
-16 -81 -11 -83 5 -1 3 -15 -4 -30 -8 -17 -18 -26 -27 -22 -7 3 -18 5 -23 5
-14 0 -11 38 5 63 23 38 52 160 38 165 -13 4 -17 22 -4 22 4 0 24 -5 45 -11z
m-363 -174 l0 -55 -50 0 -50 0 0 55 0 55 50 0 50 0 0 -55z"/>
<path d="M895 375 c-52 -51 -21 -165 46 -165 54 0 88 56 75 125 -12 63 -77 85
-121 40z"/>
<path d="M2192 268 c-33 -33 6 -77 51 -57 20 9 47 46 47 64 0 11 -87 4 -98 -7z"/>
<path d="M2580 595 c0 -10 10 -15 31 -15 l31 0 -4 -215 c-3 -199 -2 -215 15
-215 10 0 17 8 17 20 0 20 1 20 31 -2 44 -33 118 -32 154 2 75 69 74 200 -1
259 -39 31 -104 28 -143 -5 l-31 -26 0 106 0 106 -50 0 c-38 0 -50 -4 -50 -15z
m241 -185 c51 -28 65 -133 26 -191 -20 -29 -29 -34 -70 -37 -39 -3 -51 1 -72
22 -21 22 -25 34 -25 88 0 45 5 69 18 84 33 42 83 55 123 34z"/>
<path d="M3510 595 c0 -9 9 -15 25 -15 l25 0 0 -200 0 -200 -25 0 c-16 0 -25
-6 -25 -15 0 -12 15 -15 75 -15 60 0 75 3 75 15 0 10 -10 15 -30 15 l-30 0 0
215 0 215 -45 0 c-33 0 -45 -4 -45 -15z"/>
<path d="M3860 595 c0 -10 11 -15 35 -15 l35 0 0 -86 0 -85 -26 20 c-56 44
-155 17 -187 -52 -24 -49 -22 -134 3 -175 40 -65 135 -78 186 -27 l24 24 0
-24 c0 -23 4 -25 51 -25 36 0 49 4 47 13 -3 6 -17 13 -31 15 l-27 3 0 215 0
214 -55 0 c-42 0 -55 -3 -55 -15z m39 -201 c29 -24 31 -30 31 -91 0 -58 -3
-67 -29 -94 -29 -29 -76 -38 -116 -23 -40 16 -60 130 -31 183 30 54 97 66 145
25z"/>
<path d="M3380 555 c0 -20 5 -25 25 -25 20 0 25 5 25 25 0 20 -5 25 -25 25
-20 0 -25 -5 -25 -25z"/>
<path d="M2945 441 c-10 -17 4 -31 31 -31 24 0 24 -1 24 -95 0 -115 13 -148
65 -165 45 -15 82 -6 118 28 l27 26 0 -27 c0 -25 3 -27 45 -27 33 0 45 4 45
15 0 10 -10 15 -30 15 l-30 0 0 135 0 135 -51 0 c-43 0 -50 -3 -47 -17 2 -12
13 -18 33 -18 30 -1 30 -2 33 -60 6 -121 -23 -175 -96 -175 -59 0 -66 15 -72
149 l-5 116 -42 3 c-22 2 -44 -2 -48 -7z"/>
<path d="M3335 441 c-10 -17 4 -31 31 -31 l24 0 0 -115 0 -115 -30 0 c-20 0
-30 -5 -30 -15 0 -12 15 -15 75 -15 60 0 75 3 75 15 0 9 -9 15 -25 15 l-24 0
-3 133 -3 132 -42 3 c-22 2 -44 -2 -48 -7z"/>
<path d="M4115 419 c-42 -37 -60 -93 -50 -158 13 -87 101 -140 182 -110 46 18
82 64 65 81 -10 10 -18 6 -38 -20 -21 -26 -32 -32 -65 -32 -22 0 -49 5 -61 11
-18 10 -48 65 -48 89 0 6 41 10 110 10 l110 0 0 25 c0 44 -31 105 -61 120 -48
26 -103 19 -144 -16z m118 -10 c25 -11 47 -47 47 -74 0 -12 -18 -15 -90 -15
-49 0 -90 2 -90 5 0 3 6 21 14 39 22 53 66 69 119 45z"/>
<path d="M4370 429 c0 -17 5 -20 25 -17 l25 5 0 -118 0 -119 -25 0 c-16 0 -25
-6 -25 -15 0 -12 16 -15 80 -15 64 0 80 3 80 15 0 10 -11 15 -35 15 l-35 0 0
94 c0 79 3 97 21 120 27 34 65 35 73 1 8 -30 36 -34 36 -4 0 59 -61 80 -107
37 l-23 -21 0 21 c0 19 -5 22 -45 22 -39 0 -45 -3 -45 -21z"/>
<path d="M4705 438 c-30 -16 -45 -39 -45 -70 0 -39 29 -64 91 -77 30 -7 64
-18 76 -27 50 -32 11 -84 -63 -84 -55 0 -74 8 -74 31 0 11 -7 19 -16 19 -11 0
-14 -8 -12 -32 3 -29 8 -35 43 -46 75 -25 169 9 176 63 8 61 -26 91 -122 109
-46 8 -63 28 -55 61 7 29 40 40 91 31 29 -6 37 -12 42 -37 8 -40 28 -31 28 12
0 26 -6 36 -25 46 -31 16 -108 16 -135 1z"/>
</g>
</svg>
