<svg width="200" height="172" viewBox="0 0 200 172" fill="none" xmlns="http://www.w3.org/2000/svg">
<path d="M141.141 63.8843C141.344 64.3569 141.579 64.8139 141.747 65.2982C142.871 68.5245 142.867 68.5284 146.129 67.2277C148.472 66.2942 150.867 65.4349 153.16 64.3803C154.382 63.8218 154.827 64.1655 155.296 65.2826C156.441 68.0363 157.741 70.7235 158.897 73.485C159.311 74.4732 159.722 74.7427 160.768 74.2662C163.112 73.1843 165.596 72.3445 167.92 71.204C169.357 70.5009 169.979 70.6611 170.58 72.2156C172.092 76.1489 173.83 79.9923 175.4 83.9021C175.845 85.0114 176.287 85.1794 177.392 84.6599C179.954 83.449 182.376 81.9257 185.141 81.1445C185.356 81.7617 185.016 82.2734 184.801 82.8007C180.341 93.7411 175.849 104.678 171.474 115.634C170.9 117.067 170.353 117.102 169.076 116.575C156.468 111.38 143.839 106.226 131.189 101.112C126.638 99.2641 126.607 99.2876 128.49 94.6864C132.693 84.4216 136.91 74.1542 141.141 63.8843Z" fill="#DF5226"/>
<path d="M191.785 58.5898C189.531 60.4373 187.242 62.2496 185.036 64.1518C184.196 64.8783 183.782 64.5932 183.184 63.8862C180.489 60.7146 177.716 57.6367 175.06 54.4104C174.083 53.2152 173.47 52.9223 172.228 54.1136C170.451 55.8166 168.404 57.2383 166.576 58.8944C165.592 59.785 165.014 59.8436 164.119 58.746C162.288 56.4689 160.264 54.344 158.425 52.0747C157.597 51.0513 157.046 50.8834 155.987 51.8286C153.464 54.0784 150.785 56.1447 148.242 58.371C147.304 59.1952 146.781 59.1093 146.16 58.0859C145.539 57.0626 144.766 56.0665 144.059 55.0627C144.328 52.5395 144.621 50.0241 144.863 47.5009C145.746 38.4391 146.633 29.3813 147.453 20.3156C147.57 19.0345 147.91 18.7806 149.222 18.9173C156.854 19.6985 164.502 20.3664 172.138 21.0773C179.067 21.7257 185.989 22.4287 192.922 23.0303C194.547 23.1709 195.152 23.6474 194.906 25.4012C194.429 28.811 194.179 32.2521 193.863 35.6854C193.16 43.3046 192.467 50.9394 191.785 58.5898Z" fill="#DF5226"/>
<path d="M141.141 63.8867C136.92 74.1567 132.7 84.424 128.482 94.6888C126.599 99.29 126.63 99.2665 131.181 101.114C143.818 106.241 156.447 111.396 169.068 116.578C170.345 117.105 170.892 117.07 171.466 115.636C175.849 104.68 180.341 93.7435 184.801 82.807C185.016 82.2797 185.356 81.768 185.141 81.1509H185.106C185.465 81.3032 185.457 81.0337 185.496 80.8149C187.49 79.7904 189.557 78.9144 191.679 78.1941C189.496 83.5882 187.449 88.6659 185.383 93.7435C181.391 103.537 177.394 113.328 173.392 123.116C171.361 128.092 168.146 129.44 163.131 127.413C150.372 122.22 137.624 117.029 124.888 111.84C120.057 109.887 118.639 106.543 120.592 101.716C126.443 87.3522 132.302 72.994 138.168 58.641C138.262 58.4145 138.364 58.1879 138.586 57.6685C139.614 59.8597 140.574 61.7853 141.141 63.8867ZM149.878 113.523C149.861 112.672 149.525 111.858 148.936 111.243C148.347 110.628 147.549 110.257 146.699 110.203C146.26 110.187 145.823 110.259 145.413 110.414C145.002 110.57 144.627 110.805 144.308 111.107C143.99 111.408 143.735 111.771 143.558 112.172C143.381 112.574 143.285 113.006 143.277 113.445C143.261 114.297 143.582 115.122 144.171 115.738C144.76 116.354 145.569 116.712 146.422 116.734C146.86 116.752 147.297 116.683 147.709 116.532C148.121 116.38 148.498 116.148 148.819 115.849C149.141 115.551 149.4 115.191 149.582 114.792C149.763 114.393 149.864 113.962 149.878 113.523Z" fill="#070A0A"/>
<path d="M32.5371 152.55C32.5371 147.152 32.5371 141.754 32.5371 136.356C32.5371 135.63 32.2442 134.708 33.5566 134.747C40.3763 134.962 47.2273 134.188 54.008 135.36C59.9176 136.384 62.5151 139.395 62.9135 145.422C63.2142 149.976 63.0619 154.437 59.5661 157.983C58.9529 158.604 59.3474 159.198 59.5114 159.788C60.4176 162.971 61.3199 166.154 62.2924 169.318C62.5854 170.263 62.4487 170.572 61.4058 170.556C57.9569 170.51 54.5079 170.494 51.0629 170.556C50.063 170.58 49.8677 170.072 49.7115 169.326C49.2428 167.104 48.6647 164.897 48.321 162.655C48.0632 160.963 46.9305 161.303 45.872 161.288C44.4932 161.288 44.9814 162.315 44.9658 162.975C44.915 165.057 44.8759 167.139 44.9658 169.225C45.0244 170.439 44.4893 170.572 43.4854 170.556C40.3607 170.502 37.236 170.471 34.1112 170.556C32.8027 170.599 32.4707 170.197 32.4864 168.928C32.5762 163.479 32.5371 158.015 32.5371 152.55ZM44.9228 147.941C44.9228 148.847 44.9228 149.75 44.9228 150.656C44.9228 151.046 44.9228 151.339 45.4462 151.507C48.6217 152.554 50.7544 150.89 50.4927 147.527C50.3091 145.184 49.3482 144.57 46.2586 144.586C43.7471 144.586 45.3954 146.457 44.9306 147.367C44.8408 147.519 44.9228 147.75 44.9228 147.941Z" fill="#070A0A"/>
<path d="M62.9878 107.936C62.9878 102.538 62.9878 97.1385 62.9878 91.7379C62.9878 90.9177 62.7534 90.0389 64.1596 90.0857C70.5262 90.2966 76.9124 89.6951 83.2634 90.4763C90.1027 91.2966 93.0009 94.3822 93.4188 101.292C93.6727 105.655 93.4188 109.916 90.0597 113.279C89.4504 113.888 89.798 114.498 89.966 115.091C90.8487 118.216 91.6807 121.341 92.7001 124.434C93.1532 125.805 92.7197 125.95 91.5284 125.93C88.3411 125.872 85.15 125.829 81.9667 125.95C80.6465 125.997 80.3066 125.419 80.0996 124.341C79.709 122.298 79.1114 120.29 78.8497 118.236C78.6349 116.525 77.6194 116.634 76.3968 116.642C74.8345 116.642 75.4633 117.775 75.4438 118.458C75.3735 120.536 75.3774 122.622 75.4438 124.708C75.4672 125.641 75.1665 125.95 74.2212 125.934C70.9051 125.887 67.5812 125.864 64.2689 125.934C62.9526 125.969 62.9956 125.255 62.9956 124.341C62.9956 118.865 62.9878 113.4 62.9878 107.936ZM75.3657 103.393C75.3657 104.233 75.3657 105.073 75.3657 105.916C75.3657 106.385 75.393 106.721 76.0218 106.869C79.3653 107.651 81.2597 106.088 80.9238 102.706C80.6972 100.44 79.5801 99.7412 76.557 99.874C74.2134 99.9755 75.8656 101.745 75.3852 102.608C75.2719 102.823 75.3657 103.116 75.3657 103.393Z" fill="#070A0A"/>
<path d="M32.471 63.5501C32.471 68.8856 32.4358 74.2172 32.4983 79.5644C32.4983 80.8065 32.2054 81.2596 30.8891 81.2205C27.8386 81.1268 24.7763 81.1346 21.7219 81.2205C20.4642 81.2557 20.015 80.9159 20.0502 79.6035C20.14 76.4787 20.0502 73.354 20.1009 70.2293C20.1283 69.0575 19.7768 68.5849 18.562 68.6669C17.2617 68.761 15.9564 68.761 14.6561 68.6669C13.3984 68.5692 13.1289 69.0965 13.1562 70.2293C13.2187 73.354 13.1562 76.4787 13.1992 79.6035C13.2187 80.7206 13.0078 81.244 11.7227 81.2088C8.53941 81.1229 5.34828 81.1424 2.16104 81.2088C1.0752 81.2283 0.715852 80.9276 0.719758 79.7988C0.758817 68.8075 0.758817 57.8162 0.719758 46.825C0.719758 45.8368 0.961925 45.454 2.01652 45.4735C5.27146 45.5334 8.52639 45.5334 11.7813 45.4735C12.9219 45.4735 13.2187 45.8641 13.1992 46.9539C13.1445 50.27 13.2187 53.5939 13.1601 56.9023C13.1601 58.074 13.3281 58.6052 14.7225 58.6209C20.0853 58.6677 20.0853 58.7224 20.0853 53.2971C20.0853 51.2152 20.1361 49.1334 20.0619 47.0476C20.0228 45.8758 20.3314 45.4306 21.5774 45.4618C24.6318 45.5438 27.6901 45.5516 30.7446 45.4618C32.0843 45.4228 32.5296 45.7782 32.5101 47.1765C32.4241 52.6253 32.471 58.0897 32.471 63.5501Z" fill="#DF5226"/>
<path d="M90.669 18.9558C90.7418 21.6021 90.4393 24.2453 89.7707 26.8067C88.3255 32.2203 84.8765 35.5325 79.3575 36.6262C75.714 37.3499 71.9654 37.3672 68.3154 36.677C62.355 35.5677 58.7655 31.9899 57.4374 26.131C56.3008 21.1683 56.3008 16.0129 57.4374 11.0502C58.7381 5.28899 62.2339 1.71507 68.1201 0.566728C72.0815 -0.245346 76.1722 -0.184032 80.1074 0.7464C86.1616 2.21112 89.1496 6.4178 90.2081 12.2884C90.57 14.4916 90.7243 16.7238 90.669 18.9558ZM78.1701 18.5652C78.1701 16.7451 78.1701 14.9288 77.7209 13.1438C77.1975 11.0658 76.1585 10.1948 74.0142 10.105C71.6706 10.0073 70.3114 10.8471 69.7841 12.9758C68.8419 16.7085 68.8513 20.6179 69.8114 24.346C70.3309 26.381 71.7136 27.2325 73.897 27.1582C76.0023 27.084 77.1702 26.1779 77.6857 24.178C78.1545 22.3227 78.1701 20.4362 78.1623 18.5496L78.1701 18.5652Z" fill="#070A0A"/>
<path d="M60.9646 107.988C61.0534 110.652 60.7814 113.317 60.1561 115.909C58.7383 121.6 55.1604 124.998 49.3875 126.064C45.8643 126.716 42.2514 126.716 38.7282 126.064C32.7561 124.99 29.1157 121.475 27.7643 115.616C26.6148 110.657 26.5975 105.502 27.7135 100.535C28.9869 94.7661 32.4358 91.1609 38.322 89.9891C42.1527 89.2051 46.1045 89.2264 49.9265 90.0516C55.3674 91.2234 58.6953 94.5629 60.0819 99.8945C60.7579 102.537 61.0552 105.262 60.9646 107.988ZM48.4657 107.968C48.5464 106.149 48.4008 104.326 48.0321 102.543C47.5322 100.457 46.4698 99.5742 44.3488 99.4805C42.0053 99.375 40.6187 100.191 40.0914 102.308C39.1482 106.041 39.1482 109.95 40.0914 113.682C40.5992 115.714 41.9975 116.596 44.1614 116.53C46.3252 116.463 47.497 115.51 48.0165 113.405C48.3889 111.618 48.5371 109.792 48.4579 107.968H48.4657Z" fill="#070A0A"/>
<path d="M64.0149 152.519C63.9522 149.984 64.2147 147.45 64.7961 144.981C66.1827 139.122 69.8231 135.607 75.7796 134.572C79.7507 133.817 83.8384 133.936 87.759 134.919C92.4266 136.142 95.4928 139.06 96.8364 143.669C98.4955 149.382 98.5482 155.442 96.9887 161.183C95.4537 167.018 91.3876 170.006 85.5991 170.908C82.8341 171.335 80.0228 171.369 77.2482 171.01C69.7918 170.057 65.5851 166.003 64.4524 158.538C64.1214 156.55 63.975 154.535 64.0149 152.519ZM85.4272 152.668C85.4272 151.566 85.4624 150.461 85.4272 149.36C85.3772 148.711 85.2767 148.067 85.1264 147.434C84.6538 145.161 83.5094 144.204 81.2205 144.137C78.9317 144.071 77.5216 145.028 77.0568 147.145C76.2541 150.774 76.2541 154.534 77.0568 158.163C77.5294 160.343 78.8614 161.21 81.1932 161.171C83.3961 161.132 84.5718 160.23 85.0718 158.089C85.471 156.312 85.5909 154.482 85.4272 152.668Z" fill="#070A0A"/>
<path d="M16.8001 0.106135C19.9014 0.219407 23.3151 0.65687 26.7328 1.12167C27.8733 1.27401 28.4006 1.63726 28.2952 2.95746C28.108 5.09116 28.0376 7.2335 28.0843 9.37489C28.0843 10.6013 27.8694 11.0701 26.4711 10.9099C22.6681 10.4024 18.8311 10.1947 14.9955 10.2889C14.5385 10.3084 14.0854 10.3436 13.6324 10.3709C13.1793 10.3982 12.6793 10.5076 12.5699 11.0349C12.4371 11.6716 12.9098 12.0075 13.4214 12.1559C14.7299 12.5465 16.0579 12.8433 17.3781 13.1753C20.0771 13.855 22.8191 14.3862 25.3072 15.7611C26.4746 16.3492 27.4635 17.2387 28.1716 18.3375C28.8796 19.4363 29.281 20.7044 29.3342 22.0105C29.5552 24.1469 29.5119 26.3023 29.2053 28.428C28.3616 33.4041 24.9595 36.3257 19.2608 36.9819C13.2418 37.6772 7.33991 36.8335 1.4615 35.611C0.422526 35.3922 0.289724 34.9118 0.340501 34.0173C0.508456 31.6738 0.676411 29.3302 0.731093 26.9867C0.738905 25.9399 1.17637 25.8969 2.03567 26.0141C5.88776 26.6108 9.77752 26.9319 13.6753 26.975C14.8471 26.9515 16.6829 27.432 16.8001 25.8774C16.8899 24.4556 14.9955 24.7759 13.9487 24.5806C11.5232 24.1276 9.08586 23.7448 6.74621 22.9323C2.19191 21.3543 0.270195 18.7803 0.0397453 13.9604C-0.0132484 12.9195 -0.0132484 11.8766 0.0397453 10.8357C0.395184 4.48467 3.35197 1.21932 9.6405 0.340491C12.0104 -0.00936642 14.4124 -0.0879922 16.8001 0.106135Z" fill="#070A0A"/>
<path d="M191.785 58.5883C192.475 50.9536 193.168 43.3162 193.863 35.6762C194.18 32.2429 194.43 28.8018 194.906 25.3919C195.152 23.6381 194.547 23.1616 192.922 23.021C185.989 22.4273 179.068 21.7242 172.138 21.068C164.502 20.3572 156.855 19.7049 149.222 18.9081C147.91 18.7714 147.57 19.0252 147.453 20.3064C146.633 29.372 145.746 38.4299 144.863 47.4916C144.621 50.0148 144.328 52.5302 144.059 55.0535C142.832 53.6317 141.614 52.2021 140.376 50.7921C140.214 50.5919 140.1 50.3584 140.039 50.1085C139.979 49.8586 139.975 49.5985 140.028 49.3469C141.145 37.6955 142.215 26.0403 143.352 14.3889C143.711 10.7291 146.742 8.20584 150.547 8.50269C156.706 8.97921 162.854 9.61588 169.006 10.2018C176.767 10.9361 184.532 11.7173 192.305 12.4008C198.187 12.9125 200.468 15.4591 199.921 21.2829C198.914 32.0281 197.859 42.7654 196.843 53.5184C196.85 53.8383 196.782 54.1552 196.647 54.445C196.512 54.7348 196.312 54.9897 196.062 55.1902C194.605 56.2916 193.199 57.44 191.785 58.5883ZM166.006 14.7483C166.174 14.7483 165.983 14.7483 165.787 14.7483C165.127 14.7483 164.166 14.4084 164.131 15.4669C164.104 16.3263 164.995 16.2481 165.627 16.3028C169.752 16.696 173.877 17.0866 178.001 17.4746C178.626 17.5332 179.45 17.6894 179.47 16.7442C179.47 15.9903 178.755 15.963 178.165 15.9161C174.209 15.5373 170.303 15.1584 166.006 14.7483Z" fill="#070A0A"/>
<path d="M61.7612 81.1738C60.98 81.1738 60.1988 81.1738 59.4176 81.1738C58.2459 81.1738 56.953 81.4628 55.9414 81.0566C54.7891 80.5957 55.0469 79.0529 54.7423 77.9827C54.4806 77.0648 53.9064 77.139 53.2658 77.139C51.5121 77.139 49.7505 77.2093 48.0006 77.1116C46.7039 77.0335 46.0477 77.4436 46.0203 78.7912C45.9813 80.709 45.036 81.3574 43.0792 81.2246C40.2982 81.0293 37.4898 81.1269 34.6932 81.1972C33.5604 81.2246 33.3769 80.8066 33.5956 79.8185C36.0641 68.7256 38.5171 57.6302 40.9543 46.5322C41.1301 45.7276 41.4973 45.4698 42.2667 45.4737C47.7975 45.4893 53.3257 45.4893 58.8513 45.4737C59.5778 45.4737 60.0231 45.6065 60.2066 46.4619C62.7116 57.6797 65.244 68.891 67.8037 80.0958C68.0224 81.0566 67.6318 81.1972 66.8311 81.1816C65.1437 81.1504 63.4525 81.1738 61.7612 81.1738ZM50.5278 67.6281C53.1838 67.6281 53.1799 67.6281 52.7776 64.9408C52.3557 62.1207 51.9352 59.3032 51.516 56.4884C51.4339 55.9259 51.516 55.2424 50.684 55.1838C49.7583 55.1174 49.9028 55.9142 49.8091 56.4142C49.3052 59.3475 48.8404 62.273 48.3756 65.2298C48.0006 67.6281 48.0084 67.6281 50.5278 67.6281Z" fill="#DF5226"/>
<path d="M92.6999 18.492C92.6999 13.094 92.6999 7.69599 92.6999 2.29801C92.6999 1.44261 92.5358 0.634084 93.9146 0.680955C99.8282 0.872346 105.753 0.368482 111.655 1.03639C119.311 1.8996 122.744 5.61804 122.982 13.2815C123.105 15.6856 122.894 18.0951 122.354 20.441C121.408 24.1751 119.135 26.5616 115.475 27.7334C112.618 28.6235 109.626 29.0029 106.636 28.8544C105.464 28.8153 104.996 29.0926 105.074 30.3542C105.187 32.0377 105.074 33.7368 105.113 35.4319C105.136 36.26 104.863 36.5686 104.004 36.5568C100.621 36.5178 97.2385 36.4983 93.8482 36.5568C92.6374 36.5803 92.6764 35.9085 92.6764 35.0726C92.6998 29.5496 92.7077 24.0227 92.6999 18.492ZM110.484 14.7423C110.556 13.8961 110.422 13.0449 110.093 12.262C109.241 10.4301 107.507 10.4145 105.91 10.5512C104.312 10.6879 105.257 12.0862 105.128 12.8948C104.988 14.1198 104.988 15.3569 105.128 16.582C105.207 17.41 104.515 18.6716 105.566 18.9958C106.22 19.2165 106.921 19.2564 107.595 19.1114C108.27 18.9663 108.893 18.6416 109.398 18.1717C110.362 17.2421 110.456 15.9883 110.484 14.7423Z" fill="#070A0A"/>
<path d="M0.74656 152.649C0.74656 147.181 0.74656 141.732 0.74656 136.271C0.74656 135.643 0.395027 134.709 1.62149 134.756C8.17172 134.939 14.761 134.221 21.2722 135.369C27.5529 136.475 30.4159 139.713 30.8612 146.036C30.9784 147.589 30.994 149.149 30.9081 150.704C30.4316 158.383 26.9748 161.945 19.2841 162.714C17.7294 162.906 16.1632 162.989 14.597 162.961C13.3353 162.906 13.0346 163.351 13.1244 164.523C13.2221 166.011 13.0854 167.515 13.1674 169.007C13.2299 170.128 12.9994 170.628 11.7066 170.589C8.52455 170.492 5.33992 170.492 2.15269 170.589C0.879362 170.632 0.68016 170.179 0.691877 169.026C0.78562 163.566 0.74656 158.109 0.74656 152.649ZM18.4873 148.817C18.5146 145.591 17.253 144.384 14.1907 144.579C13.4603 144.63 13.1635 144.814 13.1791 145.583C13.2143 147.782 13.2221 149.977 13.1791 152.172C13.1791 153.094 13.6009 153.211 14.3509 153.207C17.2217 153.204 18.4599 151.911 18.4873 148.817Z" fill="#070A0A"/>
<path d="M93.0393 63.3669C93.0393 57.969 93.0862 52.5749 93.0081 47.1769C92.9886 45.7825 93.4456 45.4427 94.7775 45.4544C102.589 45.5091 110.392 45.5091 118.186 45.4544C119.537 45.4544 120.002 45.7864 119.924 47.173C119.814 49.316 119.814 51.4631 119.924 53.6061C119.986 54.9302 119.65 55.4145 118.233 55.3715C114.592 55.27 110.948 55.3715 107.296 55.3208C106.124 55.3208 105.402 55.3208 105.39 56.8831C105.39 58.5861 106.331 58.3791 107.382 58.3713C110.046 58.3713 112.713 58.4025 115.377 58.3713C116.381 58.3517 116.748 58.6564 116.717 59.6915C116.651 61.9686 116.623 64.2458 116.717 66.519C116.776 67.7885 116.416 68.2337 115.104 68.1869C112.506 68.0931 109.905 68.1869 107.292 68.1439C106.163 68.1439 105.339 68.0775 105.37 69.7063C105.394 71.1944 105.972 71.3741 107.218 71.3507C110.925 71.2843 114.639 71.3507 118.338 71.3038C119.51 71.2843 119.951 71.5459 119.9 72.8037C119.795 75.073 119.787 77.358 119.9 79.6273C119.967 80.9827 119.439 81.2131 118.233 81.1897C110.363 81.1428 102.494 81.1428 94.6251 81.1897C93.3245 81.1897 92.9729 80.7991 92.9847 79.5414C93.0745 74.159 93.0393 68.7454 93.0393 63.3669Z" fill="#DF5226"/>
<path d="M100.036 152.617C100.036 147.223 100.087 141.825 100.001 136.427C99.9772 135.013 100.43 134.716 101.758 134.724C109.239 134.787 116.718 134.787 124.194 134.724C125.416 134.724 125.928 134.955 125.858 136.318C125.729 138.66 125.729 141.007 125.858 143.349C125.94 144.766 125.338 144.911 124.178 144.911C120.733 144.852 117.284 144.934 113.839 144.864C112.722 144.841 112.449 145.188 112.433 146.278C112.382 150.641 112.343 150.598 116.73 150.657C118.655 150.684 121.222 149.805 122.323 151.024C123.272 152.074 122.62 154.598 122.624 156.472C122.643 160.769 122.624 160.769 118.296 160.769C116.425 160.769 113.898 160.128 112.828 161.081C111.617 162.183 112.496 164.745 112.464 166.671C112.406 170.557 112.464 170.557 108.492 170.557C106.219 170.557 103.938 170.463 101.668 170.588C100.231 170.67 99.9694 170.139 99.985 168.823C100.075 163.413 100.036 158.015 100.036 152.617Z" fill="#070A0A"/>
<path d="M0.746579 107.887C0.746579 102.485 0.789545 97.083 0.715332 91.6851C0.715332 90.4 1.05124 90.068 2.32457 90.0758C9.87602 90.1383 17.4275 90.1383 24.9789 90.0758C26.2444 90.0758 26.6546 90.3844 26.5921 91.6812C26.4827 94.0247 26.471 96.3683 26.5921 98.7118C26.6702 100.098 26.1116 100.274 24.9242 100.274C21.4792 100.208 18.0264 100.274 14.5814 100.227C13.4916 100.204 13.1713 100.501 13.1557 101.618C13.101 105.989 13.0541 105.953 17.4717 106.004C19.4247 106.024 21.9909 105.168 23.0963 106.356C24.0493 107.383 23.3697 109.945 23.3736 111.824C23.3736 116.078 23.3736 116.078 19.1747 116.078C17.6124 116.078 16.05 116.132 14.4876 116.058C13.476 116.011 13.1284 116.324 13.1596 117.363C13.2299 119.769 13.1362 122.179 13.2026 124.585C13.2338 125.608 12.9096 125.944 11.8824 125.928C8.62873 125.874 5.3751 125.858 2.11756 125.928C0.977029 125.952 0.715332 125.561 0.723144 124.479C0.785639 118.948 0.746579 113.418 0.746579 107.887Z" fill="#070A0A"/>
<path d="M154.257 134.755C158.226 134.755 162.19 134.786 166.155 134.732C167.236 134.732 167.639 134.989 167.604 136.134C167.518 138.602 167.541 141.075 167.604 143.555C167.623 144.512 167.432 145.071 166.342 144.883C166.212 144.867 166.081 144.867 165.951 144.883C164.225 145.031 162.003 144.129 160.909 145.274C159.909 146.324 160.635 148.5 160.628 150.176C160.596 156.425 160.573 162.675 160.651 168.897C160.651 170.295 160.237 170.623 158.913 170.58C155.925 170.482 152.929 170.479 149.929 170.58C148.574 170.627 148.199 170.232 148.211 168.869C148.277 161.593 148.211 154.308 148.281 147.031C148.301 145.399 148.027 144.688 146.199 144.824C144.488 144.942 142.176 145.606 141.188 144.504C140.336 143.543 140.907 141.297 140.907 139.618C140.907 138.056 140.422 136.052 141.2 135.099C142.032 134.071 144.129 134.81 145.668 134.778C148.535 134.712 151.398 134.755 154.257 134.755Z" fill="#070A0A"/>
<path d="M42.9385 0.704236C46.8444 0.704236 50.7503 0.758918 54.6562 0.672988C55.9647 0.641741 56.3045 1.06358 56.2538 2.30566C56.1522 4.70781 56.1795 7.11776 56.2538 9.5199C56.2811 10.5159 56.0311 11.012 54.9687 10.8362C54.839 10.8206 54.7078 10.8206 54.5781 10.8362C52.8517 10.9729 50.555 10.0784 49.5629 11.2268C48.7114 12.2072 49.2817 14.4414 49.2778 16.117C49.2778 22.3665 49.2309 28.616 49.3012 34.842C49.3012 36.1934 48.977 36.6231 47.5904 36.5723C44.6024 36.4669 41.6066 36.4473 38.6068 36.5723C37.0444 36.6426 36.8062 36.0958 36.8179 34.6975C36.8882 27.4793 36.8179 20.2456 36.8882 13.0469C36.8882 11.3674 36.6148 10.5433 34.7204 10.7971C33.4432 10.969 32.123 10.7698 30.8145 10.8518C29.8029 10.9143 29.4474 10.6057 29.4748 9.55896C29.5425 7.02271 29.5425 4.48777 29.4748 1.95413C29.4435 0.876096 29.8654 0.665176 30.8379 0.676894C34.8727 0.731577 38.9076 0.704236 42.9385 0.704236Z" fill="#070A0A"/>
<path d="M78.713 45.4799C82.6189 45.4799 86.5248 45.5189 90.4307 45.4525C91.6025 45.433 92.0439 45.7416 91.9931 46.9758C91.9033 49.378 91.9345 51.784 91.9931 54.1862C92.0166 55.1822 91.7158 55.6118 90.669 55.5532C89.4386 55.4868 88.1927 55.6314 86.9662 55.5142C85.4468 55.3697 84.982 55.9048 85.0132 57.4437C85.0953 64.654 84.9898 71.8683 85.0953 79.0825C85.1226 80.8284 84.6422 81.305 82.9314 81.2112C80.1465 81.0667 77.342 81.0941 74.5532 81.2112C73.0767 81.2698 72.5651 80.9222 72.6002 79.3247C72.694 72.0479 72.6002 64.7673 72.6744 57.4906C72.6744 56.0024 72.3541 55.4243 70.7605 55.5064C69.0263 55.5962 66.757 56.2875 65.6828 55.2329C64.5111 54.1002 65.3313 51.7996 65.2922 50.0146C65.2297 45.4877 65.2922 45.4877 69.7958 45.4877L78.713 45.4799Z" fill="#DF5226"/>
<path d="M127.298 152.768C127.298 147.3 127.341 141.831 127.271 136.363C127.271 135.109 127.544 134.668 128.865 134.707C132.048 134.801 135.239 134.769 138.426 134.707C139.434 134.707 139.762 134.996 139.758 136.031C139.722 147.087 139.722 158.144 139.758 169.2C139.758 170.216 139.493 170.552 138.454 170.532C135.266 170.473 132.075 170.454 128.892 170.532C127.63 170.567 127.251 170.227 127.267 168.927C127.337 163.568 127.298 158.166 127.298 152.768Z" fill="#070A0A"/>
<path d="M174.06 136.24C173.521 136.544 173.67 137.064 173.463 137.607C173.236 136.947 172.877 136.408 173.244 136.044C173.611 135.681 174.314 135.876 174.662 136.173C175.134 136.564 175.388 137.107 175.927 136.251C176.068 136.033 176.404 136.232 176.365 136.56C176.326 136.888 176.591 137.388 175.912 137.626C174.572 138.095 174.275 137.224 174.06 136.24Z" fill="#DF5226"/>
<path d="M172.678 134.454C173.65 134.353 174.533 133.493 175.595 134.122C175.904 134.31 176.377 134.396 175.92 134.903V134.86C174.967 133.501 173.662 135.153 172.631 134.47L172.678 134.454Z" fill="#070A0A"/>
<path d="M176.591 135.571C177.806 135.884 177.919 136.462 177.021 138.63C176.958 137.427 177.849 136.286 176.611 135.575L176.591 135.571Z" fill="#070A0A"/>
<path d="M176.412 139.469C175.556 139.582 174.701 139.891 173.845 139.625C173.455 139.504 172.65 139.48 173.174 138.652V138.684C173.994 140.094 175.459 138.789 176.451 139.465L176.412 139.469Z" fill="#070A0A"/>
<path d="M172.799 138.344C171.627 138.02 171.432 136.899 172.377 135.915L172.319 135.872C172.084 136.774 171.951 137.657 172.768 138.367L172.799 138.344Z" fill="#070A0A"/>
<path d="M172.646 134.461C173.599 135.187 172.256 135.355 172.311 135.867L172.377 135.914C171.748 135.277 172.768 134.984 172.682 134.453L172.646 134.461Z" fill="#070A0A"/>
<path d="M176.61 135.575C176.665 135.079 176.345 134.919 175.938 134.837L175.919 134.888C176.204 134.38 176.509 134.595 176.77 134.888C177.032 135.181 177.024 135.435 176.591 135.56L176.61 135.575Z" fill="#070A0A"/>
<path d="M185.501 80.8107C185.458 81.0294 185.466 81.2989 185.11 81.1466C185.099 80.8732 185.271 80.8068 185.501 80.8107Z" fill="#DF5226"/>
<path d="M173.174 138.662C173.049 138.744 172.881 138.923 172.783 138.892C172.42 138.748 172.65 138.544 172.783 138.357L172.756 138.376C172.889 138.482 173.017 138.595 173.146 138.701L173.174 138.662Z" fill="#070A0A"/>
<path d="M176.439 139.46L176.049 139.113L176.299 138.933C176.326 139.113 176.353 139.289 176.389 139.468L176.439 139.46Z" fill="#070A0A"/>
</svg>
