<svg width="200" height="166" viewBox="0 0 200 166" fill="none" xmlns="http://www.w3.org/2000/svg">
<path d="M109.439 126.195C84.7979 131.181 137.1 187.438 143.931 155.007C165.935 135.807 155.964 115.121 109.439 126.195Z" fill="#082653"/>
<path d="M195.346 82.7384H173.821C174.252 82.0193 209.176 24.2526 195.346 82.7384Z" fill="#082653"/>
<path d="M173.821 82.7383H195.346C213.227 142.758 173.821 82.7383 173.821 82.7383Z" fill="#082653"/>
<path d="M174.78 82.7383H23.771C23.771 82.7623 23.771 82.7623 23.7471 82.7863C25.6167 88.0836 27.8698 93.0213 30.4346 97.5755H58.2633L34.054 103.4C44.0254 118.165 57.736 128.496 72.717 134.369C73.0526 134.489 73.3881 134.633 73.7237 134.752C95.3443 142.926 119.482 141.943 138.969 131.78C139.281 131.612 139.592 131.445 139.88 131.277C156.802 122.144 170.058 105.965 174.78 82.7623V82.7383Z" fill="#082653"/>
<path d="M174.78 82.7385H23.771C52.3907 23.941 157.881 23.1021 174.78 82.7385Z" fill="#082653"/>
<path d="M144.794 132.787L144.554 133.458C142.661 132.835 140.791 132.26 138.945 131.756C119.17 126.363 101.721 127.753 90.1912 130.031C83.216 131.397 77.5832 133.242 73.7001 134.729C73.3645 134.609 73.0289 134.489 72.6934 134.345C76.6004 132.811 82.5449 130.798 89.9994 129.335C101.769 127.01 119.626 125.596 139.856 131.277C141.51 131.732 143.14 132.236 144.794 132.787Z" fill="#082653"/>
<path d="M129.189 108.338C104.836 113.3 155.388 168.957 162.675 136.838C182.402 112.413 175.163 97.336 129.189 108.338Z" fill="#082653"/>
<path d="M154.142 31.1078C165.983 52.9442 90.8621 49.9719 110.805 23.7492C116.845 -7.05179 133.049 -11.1985 154.142 31.1078Z" fill="#082653"/>
<path d="M7.90983 89.6635C7.90342 89.4327 7.90022 89.2596 7.90022 89.1442C7.90022 88.4646 7.99638 87.878 8.18871 87.3844C8.32976 87.0125 8.55735 86.6375 8.87149 86.2593C9.10228 85.9836 9.51579 85.5829 10.112 85.0572C10.7147 84.5251 11.1057 84.102 11.2852 83.7878C11.4647 83.4737 11.5545 83.1307 11.5545 82.7588C11.5545 82.0857 11.2916 81.4959 10.7659 80.9894C10.2402 80.4765 9.59593 80.2201 8.83302 80.2201C8.09575 80.2201 7.4803 80.4509 6.98665 80.9125C6.493 81.3741 6.16925 82.0953 6.01538 83.0762L4.23633 82.8646C4.3966 81.5504 4.87102 80.5438 5.65957 79.845C6.45454 79.1462 7.50274 78.7968 8.80417 78.7968C10.1825 78.7968 11.282 79.1719 12.1026 79.922C12.9232 80.6721 13.3335 81.5792 13.3335 82.6434C13.3335 83.2589 13.1893 83.8263 12.9008 84.3456C12.6123 84.8649 12.0481 85.4963 11.2083 86.24C10.6441 86.7401 10.2755 87.1087 10.1024 87.3459C9.9293 87.5831 9.80108 87.8556 9.71774 88.1633C9.6344 88.4711 9.58631 88.9711 9.57349 89.6635H7.90983ZM7.80405 93.1351V91.1637H9.77544V93.1351H7.80405Z" fill="#082653"/>
<path fill-rule="evenodd" clip-rule="evenodd" d="M8.8039 78.9168C7.52472 78.9168 6.50694 79.2597 5.73859 79.935C5.00082 80.5889 4.54174 81.5262 4.37056 82.76L5.91554 82.9437C6.07865 82.0049 6.4041 81.2929 6.90452 80.825C7.42248 80.3407 8.0681 80.1003 8.83275 80.1003C9.62547 80.1003 10.3001 80.368 10.8491 80.9035C11.3959 81.4303 11.6741 82.0504 11.6741 82.7589C11.6741 83.151 11.5792 83.5146 11.389 83.8473C11.1989 84.18 10.7945 84.6143 10.1911 85.1471C9.5954 85.6723 9.18778 86.0679 8.96322 86.3361C8.65572 86.7064 8.43586 87.0701 8.3005 87.427L8.30011 87.428C8.11448 87.9044 8.0198 88.4756 8.0198 89.1443C8.0198 89.2379 8.02194 89.3709 8.02628 89.5437H9.45595C9.47188 88.9096 9.51933 88.4365 9.60179 88.1321C9.68863 87.8114 9.82286 87.5254 10.0053 87.2753C10.187 87.0264 10.5649 86.65 11.1285 86.1504C11.9656 85.4092 12.5174 84.7886 12.7958 84.2874C13.074 83.7866 13.2134 83.2394 13.2134 82.6435C13.2134 81.6146 12.8185 80.739 12.0215 80.0105C11.228 79.2852 10.1598 78.9168 8.8039 78.9168ZM5.58017 79.7551C6.40173 79.0329 7.48031 78.6771 8.8039 78.6771C10.2047 78.6771 11.3356 79.0588 12.1832 79.8336C13.0274 80.6052 13.4531 81.544 13.4531 82.6435C13.4531 83.2786 13.304 83.8661 13.0053 84.4038C12.7067 84.9413 12.1301 85.5837 11.2875 86.3298C10.7228 86.8303 10.3635 87.1912 10.1989 87.4166C10.0352 87.641 9.91299 87.8999 9.83315 88.1947C9.75394 88.4872 9.70585 88.9745 9.69305 89.6658L9.69087 89.7834H7.793L7.78976 89.6669C7.78334 89.4359 7.7801 89.2614 7.7801 89.1443C7.7801 88.4541 7.87769 87.8522 8.07658 87.3414C8.22329 86.9549 8.45849 86.5687 8.77902 86.1828L8.77932 86.1824C9.01638 85.8992 9.43581 85.4935 10.0325 84.9674C10.0325 84.9673 10.0325 84.9674 10.0325 84.9674C10.6343 84.436 11.012 84.024 11.1809 83.7284C11.3498 83.4329 11.4344 83.1105 11.4344 82.7589C11.4344 82.1212 11.187 81.5618 10.6825 81.0758L10.682 81.0753C10.1796 80.5851 9.56573 80.34 8.83275 80.34C8.12287 80.34 7.53758 80.5612 7.06823 81.0001C6.60142 81.4366 6.2851 82.1284 6.13351 83.0948L6.11562 83.2089L4.10254 82.9695L4.11709 82.8502C4.27997 81.5146 4.76417 80.4782 5.57981 79.7554L5.58017 79.7551ZM7.68393 91.0439H9.89501V93.255H7.68393V91.0439ZM7.92363 91.2836V93.0153H9.65532V91.2836H7.92363Z" fill="#082653"/>
<path d="M3.80681 105.117C3.8004 104.887 3.79719 104.714 3.79719 104.598C3.79719 103.919 3.89336 103.332 4.08569 102.838C4.22673 102.466 4.45432 102.091 4.76846 101.713C4.99926 101.438 5.41277 101.037 6.00899 100.511C6.61162 99.979 7.00269 99.5559 7.1822 99.2418C7.36171 98.9276 7.45146 98.5846 7.45146 98.2128C7.45146 97.5396 7.18861 96.9498 6.66291 96.4434C6.13721 95.9305 5.4929 95.674 4.72999 95.674C3.99273 95.674 3.37727 95.9048 2.88362 96.3664C2.38998 96.828 2.06622 97.5493 1.91236 98.5301L0.133301 98.3186C0.293576 97.0043 0.76799 95.9978 1.55654 95.299C2.35151 94.6002 3.39971 94.2508 4.70114 94.2508C6.07951 94.2508 7.179 94.6258 7.99961 95.3759C8.82022 96.126 9.23052 97.0332 9.23052 98.0974C9.23052 98.7129 9.08627 99.2802 8.79778 99.7995C8.50928 100.319 7.94511 100.95 7.10527 101.694C6.5411 102.194 6.17247 102.563 5.99937 102.8C5.82627 103.037 5.69805 103.31 5.61471 103.617C5.53137 103.925 5.48329 104.425 5.47046 105.117H3.80681ZM3.70103 108.589V106.618H5.67241V108.589H3.70103Z" fill="#082653"/>
<path d="M14.7696 105.117C14.7632 104.887 14.76 104.714 14.76 104.598C14.76 103.919 14.8562 103.332 15.0485 102.838C15.1895 102.466 15.4171 102.091 15.7313 101.713C15.9621 101.438 16.3756 101.037 16.9718 100.511C17.5744 99.979 17.9655 99.5559 18.145 99.2418C18.3245 98.9276 18.4143 98.5846 18.4143 98.2128C18.4143 97.5396 18.1514 96.9498 17.6257 96.4434C17.1 95.9305 16.4557 95.674 15.6928 95.674C14.9555 95.674 14.3401 95.9048 13.8464 96.3664C13.3528 96.828 13.029 97.5493 12.8752 98.5301L11.0961 98.3186C11.2564 97.0043 11.7308 95.9978 12.5194 95.299C13.3143 94.6002 14.3625 94.2508 15.664 94.2508C17.0423 94.2508 18.1418 94.6258 18.9624 95.3759C19.783 96.126 20.1933 97.0332 20.1933 98.0974C20.1933 98.7129 20.0491 99.2802 19.7606 99.7995C19.4721 100.319 18.9079 100.95 18.0681 101.694C17.5039 102.194 17.1353 102.563 16.9622 102.8C16.7891 103.037 16.6609 103.31 16.5775 103.617C16.4942 103.925 16.4461 104.425 16.4333 105.117H14.7696ZM14.6638 108.589V106.618H16.6352V108.589H14.6638Z" fill="#082653"/>
<path fill-rule="evenodd" clip-rule="evenodd" d="M4.70136 94.3707C3.42218 94.3707 2.40441 94.7136 1.63606 95.3889C0.898282 96.0428 0.439205 96.9801 0.268016 98.2139L1.813 98.3977C1.97611 97.4588 2.30156 96.7469 2.80198 96.279C3.31994 95.7946 3.96556 95.5543 4.73021 95.5543C5.52293 95.5543 6.19759 95.8219 6.74658 96.3574C7.29334 96.8843 7.57153 97.5043 7.57153 98.2129C7.57153 98.605 7.47663 98.9685 7.28648 99.3013C7.09636 99.634 6.69196 100.068 6.08853 100.601C5.49286 101.126 5.08524 101.522 4.86068 101.79C4.55318 102.16 4.33332 102.524 4.19796 102.881L4.19758 102.882C4.01194 103.358 3.91726 103.93 3.91726 104.598C3.91726 104.692 3.9194 104.825 3.92374 104.998H5.35341C5.36934 104.364 5.41679 103.89 5.49925 103.586C5.58609 103.265 5.72032 102.979 5.90278 102.729C6.08445 102.48 6.46234 102.104 7.02599 101.604C7.86303 100.863 8.41483 100.243 8.69323 99.7414C8.97147 99.2406 9.11089 98.6933 9.11089 98.0975C9.11089 97.0686 8.71599 96.193 7.91896 95.4645C7.12542 94.7391 6.0573 94.3707 4.70136 94.3707ZM1.47764 95.209C2.29919 94.4869 3.37777 94.131 4.70136 94.131C6.10215 94.131 7.23301 94.5127 8.08068 95.2875C8.92488 96.0592 9.35058 96.9979 9.35058 98.0975C9.35058 98.7325 9.20151 99.32 8.90276 99.8578C8.60417 100.395 8.02759 101.038 7.18494 101.784C6.62028 102.284 6.26092 102.645 6.0964 102.871C5.93266 103.095 5.81045 103.354 5.73061 103.649C5.6514 103.941 5.60331 104.428 5.59051 105.12L5.58833 105.237H3.69046L3.68722 105.121C3.68081 104.89 3.67756 104.715 3.67756 104.598C3.67756 103.908 3.77515 103.306 3.97404 102.795C4.12075 102.409 4.35595 102.023 4.67648 101.637L4.67678 101.636C4.91384 101.353 5.33327 100.947 5.92994 100.421C5.92997 100.421 5.92992 100.421 5.92994 100.421C6.53174 99.8899 6.90947 99.4779 7.07836 99.1824C7.24723 98.8869 7.33183 98.5644 7.33183 98.2129C7.33183 97.5752 7.08443 97.0157 6.57998 96.5297L6.57944 96.5292C6.07706 96.0391 5.46319 95.794 4.73021 95.794C4.02033 95.794 3.43504 96.0152 2.9657 96.454C2.49888 96.8905 2.18256 97.5824 2.03097 98.5488L2.01308 98.6629L0 98.4235L0.0145515 98.3041C0.177427 96.9686 0.661633 95.9322 1.47727 95.2094L1.47764 95.209ZM15.6642 94.3707C14.3849 94.3707 13.3672 94.7136 12.5988 95.389C11.8611 96.0429 11.402 96.9802 11.2308 98.2139L12.7758 98.3977C12.9389 97.4588 13.2644 96.7469 13.7648 96.279C14.2828 95.7946 14.9284 95.5543 15.693 95.5543C16.4858 95.5543 17.1604 95.8219 17.7094 96.3574C18.2562 96.8843 18.5343 97.5043 18.5343 98.2129C18.5343 98.605 18.4394 98.9685 18.2493 99.3013C18.0592 99.634 17.6548 100.068 17.0513 100.601C16.4557 101.126 16.0481 101.522 15.8236 101.79C15.516 102.16 15.2962 102.524 15.1608 102.881L15.1604 102.882C14.9748 103.358 14.8801 103.93 14.8801 104.598C14.8801 104.692 14.8822 104.825 14.8866 104.998H16.3162C16.3322 104.364 16.3796 103.89 16.4621 103.586C16.5489 103.265 16.6831 102.979 16.8656 102.729C17.0473 102.48 17.4252 102.104 17.9888 101.604C18.8258 100.863 19.3776 100.243 19.656 99.7414C19.9343 99.2406 20.0737 98.6933 20.0737 98.0975C20.0737 97.0686 19.6788 96.193 18.8818 95.4645C18.0882 94.7391 17.0201 94.3707 15.6642 94.3707ZM12.4405 95.209C13.262 94.4869 14.3406 94.131 15.6642 94.131C17.065 94.131 18.1958 94.5127 19.0435 95.2875C19.8877 96.0592 20.3134 96.9979 20.3134 98.0975C20.3134 98.7325 20.1643 99.32 19.8656 99.8578C19.567 100.395 18.9904 101.038 18.1478 101.784C17.5831 102.284 17.2237 102.645 17.0592 102.871C16.8955 103.095 16.7733 103.354 16.6934 103.649C16.6142 103.941 16.5661 104.428 16.5533 105.12L16.5512 105.237H14.6533L14.65 105.121C14.6436 104.89 14.6404 104.715 14.6404 104.598C14.6404 103.908 14.738 103.306 14.9369 102.795C15.0836 102.409 15.3188 102.023 15.6393 101.637L15.6396 101.636C15.8767 101.353 16.2961 100.947 16.8928 100.421C17.4946 99.8899 17.8723 99.4779 18.0412 99.1824C18.21 98.8869 18.2947 98.5644 18.2947 98.2129C18.2947 97.5752 18.0472 97.0157 17.5428 96.5297L17.5423 96.5292C17.0399 96.0391 16.426 95.794 15.693 95.794C14.9831 95.794 14.3979 96.0152 13.9285 96.454C13.4617 96.8905 13.1454 97.5824 12.9938 98.5488L12.9759 98.6629L10.9628 98.4235L10.9774 98.3041C11.1402 96.9686 11.6245 95.9322 12.4401 95.2094L12.4405 95.209ZM3.5814 106.498H5.79248V108.709H3.5814V106.498ZM3.82109 106.738V108.469H5.55278V106.738H3.82109ZM14.5442 106.498H16.7553V108.709H14.5442V106.498ZM14.7839 106.738V108.469H16.5156V106.738H14.7839Z" fill="#082653"/>
<path d="M70.115 76.9322C75.3635 77.7285 79.8065 77.1326 80.0389 75.6012C80.2712 74.0699 76.2048 72.183 70.9563 71.3867C65.7079 70.5904 61.2648 71.1863 61.0325 72.7177C60.8001 74.249 64.8665 76.1359 70.115 76.9322Z" fill="#082653"/>
</svg>
