<svg width="200" height="165" viewBox="0 0 200 165" fill="none" xmlns="http://www.w3.org/2000/svg">
<path d="M74.8198 29.606C51.9113 12.7375 131.057 -19.8839 123.249 16.5737C136.934 46.7465 117.317 63.1796 74.8198 29.606Z" fill="#C26D88"/>
<path d="M139.491 163.247C166.807 171.11 154.347 120.968 125.616 134.326C89.784 138.435 86.7912 149.263 139.491 163.247Z" fill="#D68797"/>
<path d="M33.9545 133.945L36.3487 137.292L39.9673 135.306L37.5186 138.625L40.5386 141.427L36.6208 140.121L34.8796 143.876L34.9068 139.741L30.8257 139.251L34.7435 137.999L33.9545 133.945Z" fill="white" stroke="white" stroke-miterlimit="10"/>
<path d="M18.637 125.511L21.0312 128.858L24.6226 126.844L22.2011 130.164L25.1939 132.966L21.3033 131.687L19.562 135.415L19.5892 131.306L15.481 130.789L19.426 129.538L18.637 125.511Z" fill="white" stroke="white" stroke-miterlimit="10"/>
<path d="M20.7864 144.23L23.6704 148.256L28.0235 145.835L25.0852 149.834L28.7037 153.208L23.9969 151.657L21.9019 156.146L21.9291 151.195L17.0046 150.596L21.7387 149.073L20.7864 144.23Z" fill="white" stroke="white" stroke-width="0.7969" stroke-miterlimit="10"/>
<path d="M171.432 89.4344C171.432 89.4617 171.432 89.4617 171.405 89.4889C152.224 157.18 32.4309 156.228 0 89.4344H171.432Z" fill="#B06D88"/>
<path d="M171.432 89.4345H0C1.49639 85.2174 3.18324 81.1908 5.08774 77.3818C6.01278 75.5317 6.99224 73.7088 7.99891 71.9403C18.6913 53.385 34.2538 40.244 51.612 32.5171C51.8569 32.4083 52.1017 32.2995 52.3466 32.1907C79.5538 20.3283 111.087 21.6615 135.165 36.2445C135.383 36.3806 135.601 36.5166 135.845 36.6526C153.095 47.3723 166.453 64.9481 171.432 89.4345Z" fill="#CC8BA2"/>
<path d="M139.573 35.3739C138.321 35.8364 137.07 36.2717 135.818 36.6798C125.262 40.1623 114.379 42.1212 103.414 42.5293C101.999 42.5837 100.558 42.611 99.1427 42.611C90.7357 42.611 82.3287 41.7131 74.0577 39.9174C63.9639 37.7137 56.1554 34.6393 51.6118 32.5715C51.8567 32.4627 52.1015 32.3539 52.3464 32.245C56.9172 34.2856 64.4808 37.2239 74.221 39.3461C88.5319 42.4477 110.434 44.2978 135.165 36.2989C136.553 35.8364 137.967 35.3739 139.382 34.8569L139.573 35.3739Z" fill="white"/>
<path d="M119.059 45.4406C99.2791 25.3073 182.179 5.03791 168.657 39.8631C171.705 75.3956 155.326 84.9726 119.059 45.4406Z" fill="#AE6D88"/>
<path d="M194.259 92.0737L169.827 89.4074C170.834 87.7205 212.678 18.6143 194.259 92.0737Z" fill="#CC8BA2"/>
<path d="M169.8 89.4345C169.8 89.4345 169.8 89.4073 169.827 89.4073L194.259 92.0736C194.259 92.1009 194.259 92.1281 194.232 92.1553C213.93 160.146 170.263 90.1691 169.8 89.4345Z" fill="#B06D88"/>
<path d="M7.99906 71.9675L34.8797 63.8326L36.1313 67.9952L5.08789 77.3817" fill="white"/>
<path d="M55.4463 109.428L43.634 97.6158L41.9411 99.3087L53.7533 111.121L55.4463 109.428Z" fill="white"/>
<path d="M55.5655 99.3087L53.8726 97.6158L42.0603 109.428L43.7533 111.121L55.5655 99.3087Z" fill="white"/>
</svg>
