<?xml version="1.0" encoding="utf-8"?>
<!-- Generator: Adobe Illustrator 18.0.0, SVG Export Plug-In . SVG Version: 6.00 Build 0)  -->
<!DOCTYPE svg PUBLIC "-//W3C//DTD SVG 1.1//EN" "http://www.w3.org/Graphics/SVG/1.1/DTD/svg11.dtd">
<svg version="1.1" id="Layer_4" xmlns="http://www.w3.org/2000/svg" xmlns:xlink="http://www.w3.org/1999/xlink" x="0px" y="0px"
	 viewBox="0 0 1000 1000" enable-background="new 0 0 1000 1000" xml:space="preserve">
<path fill="#4776BA" d="M498.3,645.1c-102.8,20.8,115.4,255.5,143.9,120.2C734,685.2,692.4,598.9,498.3,645.1z"/>
<g>
	<path fill="#7BD2EF" d="M770.9,463.9c-0.1,0.3-0.1,0.6-0.2,0.8H141.1c-0.1-0.3-0.2-0.6-0.3-0.8
		C260.1,218.4,700.5,214.9,770.9,463.9z"/>
	<path fill="#4EC8F4" d="M770.7,464.8c-18.1,87.7-65.4,151.3-126.9,190.7c-1.2,0.8-2.4,1.5-3.6,2.3
		c-90.7,56.2-210.8,60.7-313.3,13.7c-1.3-0.6-2.6-1.2-4-1.8c-54.3-25.7-103.3-66.1-140.1-121.1c-4.8-7.1-9.3-14.4-13.6-22
		c-10.8-19-20.3-39.6-28.1-61.7H770.7z"/>
	<path fill="#7BD2EF" d="M860.9,464.8h-89.6C780.6,450.9,932.8,223,860.9,464.8z"/>
	<path fill="#4EC8F4" d="M770.9,465.4c0,0,0.2-0.2,0.4-0.7h89.6c-0.1,0.2-0.1,0.4-0.2,0.7C918.7,710.9,770.9,465.4,770.9,465.4z"/>
</g>
<path fill="#7BD2EF" d="M684.8,248.4c49.4,91.1-264,78.7-180.8-30.7C529.2,89.2,596.8,71.9,684.8,248.4z"/>
<path fill="#FFFFFF" d="M645.8,656.2l-1,3.3c-1.6-0.6-3.1-1.2-4.7-1.7c-93.1-33.5-176-26.6-229.5-14.8c-38.9,8.6-68.2,21-83.8,28.5
	c-1.3-0.6-2.6-1.2-4-1.8c14.9-7.4,45.6-20.8,87-30c54.4-12,139-19,233.9,15.9C644.5,655.7,645.2,655.9,645.8,656.2z"/>
<path fill="#4B9BD5" d="M580.7,570.6C479.1,591.3,690,823.5,720.4,689.5C802.7,587.6,772.5,524.7,580.7,570.6z"/>
<path fill="#FFFFFF" d="M296.6,502.7c-0.4,1.3-11.3,32.2-44.5,45.6c-10,4.1-20.8,6.1-32.5,6.1c-11.5,0-23.7-2-36.7-5.9
	c-4.8-7.1-9.3-14.4-13.6-22c30.2,13,56,15.4,76.6,7.1c26.4-10.6,35.5-35.8,35.6-36.1L296.6,502.7z"/>
<circle fill="#FFFFFF" cx="303.5" cy="435.4" r="20"/>
</svg>
