<svg width="100" height="131" viewBox="0 0 100 131" fill="none" xmlns="http://www.w3.org/2000/svg">
<path d="M67.6966 99.6944C48.2303 103.633 89.5488 148.076 94.9456 122.456C112.329 107.288 104.451 90.9459 67.6966 99.6944Z" fill="#4776BA"/>
<path d="M119.316 65.3818C119.297 65.4386 119.297 65.4955 119.278 65.5333H0.0568088C0.0378727 65.4765 0.0189361 65.4197 0 65.3818C22.5907 18.8938 105.985 18.2311 119.316 65.3818Z" fill="#7BD2EF"/>
<path d="M119.278 65.5527C115.851 82.1597 106.894 94.203 95.2483 101.664C95.0211 101.815 94.7939 101.948 94.5666 102.099C77.3916 112.741 54.6494 113.594 35.24 104.694C34.9938 104.58 34.7476 104.466 34.4825 104.353C24.2002 99.4862 14.9216 91.836 7.9531 81.4211C7.04417 80.0767 6.19204 78.6944 5.37779 77.2552C3.3327 73.6574 1.53378 69.7565 0.0567627 65.5717H119.278V65.5527Z" fill="#4EC8F4"/>
<path d="M103.012 24.5753C112.367 41.826 53.021 39.4779 68.7758 18.7619C73.5477 -5.57093 86.3485 -8.84687 103.012 24.5753Z" fill="#7BD2EF"/>
<path d="M95.6275 101.796L95.4382 102.421C95.1352 102.307 94.8511 102.194 94.5482 102.099C76.9187 95.7556 61.2207 97.0622 51.0899 99.2967C43.7238 100.925 38.1755 103.273 35.2215 104.693C34.9753 104.58 34.7292 104.466 34.4641 104.353C37.2855 102.951 43.0989 100.414 50.9384 98.6718C61.2396 96.3995 77.2595 95.0739 95.2299 101.683C95.3814 101.702 95.5139 101.739 95.6275 101.796Z" fill="white"/>
<path d="M83.3001 85.5873C64.0611 89.507 103.997 133.477 109.754 108.102C125.338 88.8064 119.619 76.8956 83.3001 85.5873Z" fill="#4B9BD5"/>
<path d="M29.5019 72.7292C29.4262 72.9754 27.3621 78.8266 21.0754 81.364C19.1818 82.1404 17.1367 82.5191 14.9211 82.5191C12.7435 82.5191 10.4333 82.1404 7.9716 81.4019C7.06267 80.0574 6.21055 78.6751 5.3963 77.236C11.115 79.6977 16.0005 80.1521 19.9013 78.5804C24.9004 76.5732 26.6236 71.8013 26.6426 71.7445L29.5019 72.7292Z" fill="white"/>
<path d="M30.809 63.774C32.9006 63.774 34.5962 62.0784 34.5962 59.9868C34.5962 57.8952 32.9006 56.1996 30.809 56.1996C28.7174 56.1996 27.0218 57.8952 27.0218 59.9868C27.0218 62.0784 28.7174 63.774 30.809 63.774Z" fill="white"/>
</svg>
