<svg width="200" height="188" viewBox="0 0 200 188" fill="none" xmlns="http://www.w3.org/2000/svg">
<path d="M97.1424 143.469C69.1981 149.123 128.522 212.911 136.259 176.148C161.173 154.371 149.893 130.917 97.1424 143.469Z" fill="#082653"/>
<path d="M171.209 94.2626C166.367 117.987 153.68 135.219 137.178 145.985C136.854 146.202 136.529 146.418 136.205 146.607C111.506 162.189 78.5577 163.515 50.5323 150.611C49.9913 150.368 49.4773 150.124 48.9363 149.854C33.4087 142.36 19.5042 130.458 9.44099 114.145C8.19662 112.117 7.00635 110.061 5.89724 107.897C3.67901 103.622 1.70425 99.0778 0 94.2626C0.0270516 94.2085 0.0541039 94.1544 0.0811555 94.1273H171.182C171.182 94.1544 171.209 94.2085 171.209 94.2626Z" fill="#082653"/>
<path d="M171.182 94.1002H0.0810547C32.5429 27.5804 151.948 26.6336 171.182 94.1002Z" fill="#082653"/>
<path d="M137.34 145.525L137.178 145.958L136.881 146.824C136.664 146.742 136.421 146.661 136.204 146.58C111.236 138.167 88.9994 139.844 74.6891 142.766C62.4618 145.255 53.8053 149.015 50.5321 150.584C49.991 150.34 49.4771 150.097 48.936 149.826C51.1543 148.69 60.5141 144.227 74.3645 141.413C88.9723 138.465 111.777 136.76 137.34 145.525Z" fill="#082653"/>
<path d="M194.717 94.2624H170.316C170.316 94.2624 215.006 26.2278 194.717 94.2624Z" fill="#082653"/>
<path d="M170.316 94.2625H194.717C210.488 160.972 170.316 94.2625 170.316 94.2625Z" fill="#082653"/>
<path d="M147.809 35.2631C161.227 60.0152 76.0686 56.6338 98.6837 26.9312C105.528 -7.99237 123.896 -12.6993 147.809 35.2631Z" fill="#082653"/>
<path d="M119.541 123.262C91.9482 128.889 149.216 191.973 157.494 155.561C179.866 127.861 171.669 110.764 119.541 123.262Z" fill="#082653"/>
<path d="M43.2286 107.896V114.145H9.44121C8.19684 112.116 7.00657 110.061 5.89746 107.896H43.2286Z" fill="#082653"/>
<path d="M49.45 87.148C54.3802 87.148 58.377 83.1512 58.377 78.221C58.377 73.2907 54.3802 69.294 49.45 69.294C44.5197 69.294 40.5229 73.2907 40.5229 78.221C40.5229 83.1512 44.5197 87.148 49.45 87.148Z" fill="#082653"/>
</svg>
