<svg width="40" height="33" viewBox="0 0 40 33" fill="none" xmlns="http://www.w3.org/2000/svg">
<path d="M40 4.18043C39.1355 5.53936 38.0338 6.73186 36.7474 7.70106C36.2432 8.0906 36.0989 8.49604 36.0819 9.11613C35.8093 18.9671 31.3711 26.2763 22.6104 30.8463C19.8847 32.2659 16.941 32.9031 13.8202 32.9349C10.5448 32.9667 7.37969 32.6123 4.32583 31.4051C2.83922 30.8157 1.37872 30.157 0 29.2791C4.40078 29.6312 8.35184 28.4841 11.9815 25.8005C11.4875 25.7301 11.1036 25.6949 10.7322 25.6199C7.80671 25.0407 5.74998 23.3735 4.53252 20.6706C4.45075 20.49 4.27132 20.272 4.40306 20.1028C4.51662 19.9631 4.76193 20.0619 4.94478 20.0925C5.92715 20.2583 6.88226 20.0869 7.85554 19.8733C5.49331 19.2294 3.6535 17.9029 2.43832 15.7792C1.71867 14.5258 1.35577 13.0993 1.38894 11.6544C2.54394 12.2131 3.69098 12.5925 5.07425 12.6515C2.67113 10.881 1.48548 8.58349 1.43324 5.75336C1.38926 4.29378 1.78794 2.85505 2.57687 1.62628C3.50473 2.68814 4.42918 3.68528 5.46492 4.5677C9.04233 7.61021 13.1433 9.47387 17.8076 10.0758C18.2948 10.1394 18.7842 10.178 19.2703 10.2461C19.5804 10.2893 19.6633 10.228 19.5883 9.88726C18.6491 5.57165 21.4054 1.83524 24.7977 0.574631C27.9981 -0.606482 30.8907 0.0601654 33.4164 2.32586C33.7253 2.6041 33.9843 2.66656 34.3647 2.57344C35.9511 2.18089 37.4839 1.59663 38.929 0.833568C38.4078 2.67111 37.2369 4.02371 35.5788 5.20142C37.2119 5.08785 38.5634 4.55635 39.9364 4.11797C39.9568 4.13955 39.9762 4.15999 40 4.18043Z" fill="#082653"/>
</svg>
